solid OpenSCAD_Model
  facet normal -1 0 2.22045e-16
    outer loop
      vertex -0.5 0.5 0
      vertex -0.5 0.5 -0.5
      vertex -0.5 -0.5 0
    endloop
  endfacet
  facet normal -1 0 2.22045e-16
    outer loop
      vertex -0.5 -0.5 0
      vertex -0.5 0.5 -0.5
      vertex -0.5 -0.5 -0.5
    endloop
  endfacet
  facet normal -0 -1 -0
    outer loop
      vertex -0.5 -0.5 -0.5
      vertex 0 -0.5 -0.5
      vertex -0.5 -0.5 0
    endloop
  endfacet
  facet normal -0 -1 -0
    outer loop
      vertex 0 -0.5 -0.5
      vertex 0.5 -0.5 -0.5
      vertex -0.5 -0.5 0
    endloop
  endfacet
  facet normal 0 -1 -0
    outer loop
      vertex 0.5 -0.5 0
      vertex 0.5 -0.5 0.5
      vertex -0.5 -0.5 0
    endloop
  endfacet
  facet normal 0 -1 0
    outer loop
      vertex 0.5 -0.5 -0.5
      vertex 0.5 -0.5 0
      vertex -0.5 -0.5 0
    endloop
  endfacet
  facet normal 0 -1 0
    outer loop
      vertex 0.5 -0.5 0.5
      vertex 0 -0.5 0.5
      vertex -0.5 -0.5 0
    endloop
  endfacet
  facet normal 0 -1 0
    outer loop
      vertex 0 -0.5 0.5
      vertex -0.5 -0.5 0.5
      vertex -0.5 -0.5 0
    endloop
  endfacet
  facet normal 0 5.55112e-17 0
    outer loop
      vertex -0.5 0.5 -0.5
      vertex -0.5 0.5 0
      vertex -0.5 0.5 0.5
    endloop
  endfacet
  facet normal 0 1 0
    outer loop
      vertex -0.5 0.5 -0.5
      vertex -0.5 0.5 0.5
      vertex 0 0.5 0.5
    endloop
  endfacet
  facet normal 0 1 0
    outer loop
      vertex -0.5 0.5 -0.5
      vertex 0 0.5 0.5
      vertex 0.5 0.5 0.5
    endloop
  endfacet
  facet normal 0 1 0
    outer loop
      vertex -0.5 0.5 -0.5
      vertex 0.5 0.5 0.5
      vertex 0.5 0.5 0
    endloop
  endfacet
  facet normal 0 1 0
    outer loop
      vertex -0.5 0.5 -0.5
      vertex 0.5 0.5 0
      vertex 0.5 0.5 -0.5
    endloop
  endfacet
  facet normal 0 5.55112e-17 0
    outer loop
      vertex -0.5 0.5 -0.5
      vertex 0.5 0.5 -0.5
      vertex 0 0.5 -0.5
    endloop
  endfacet
  facet normal -1 -0 -2.22045e-16
    outer loop
      vertex -0.5 -0.5 0.5
      vertex -0.5 0.5 0.5
      vertex -0.5 -0.5 0
    endloop
  endfacet
  facet normal -1 -0 -2.22045e-16
    outer loop
      vertex -0.5 -0.5 0
      vertex -0.5 0.5 0.5
      vertex -0.5 0.5 0
    endloop
  endfacet
  facet normal 2.22045e-16 0 1
    outer loop
      vertex 0 -0.5 0.5
      vertex 0 0.5 0.5
      vertex -0.5 0.5 0.5
    endloop
  endfacet
  facet normal 2.22045e-16 0 1
    outer loop
      vertex -0.5 -0.5 0.5
      vertex 0 -0.5 0.5
      vertex -0.5 0.5 0.5
    endloop
  endfacet
  facet normal -2.22045e-16 0 1
    outer loop
      vertex 0 0.5 0.5
      vertex 0 -0.5 0.5
      vertex 0.5 -0.5 0.5
    endloop
  endfacet
  facet normal -2.22045e-16 0 1
    outer loop
      vertex 0.5 0.5 0.5
      vertex 0 0.5 0.5
      vertex 0.5 -0.5 0.5
    endloop
  endfacet
  facet normal 1 0 -2.22045e-16
    outer loop
      vertex 0.5 0.5 0
      vertex 0.5 0.5 0.5
      vertex 0.5 -0.5 0.5
    endloop
  endfacet
  facet normal 1 0 -2.22045e-16
    outer loop
      vertex 0.5 -0.5 0
      vertex 0.5 0.5 0
      vertex 0.5 -0.5 0.5
    endloop
  endfacet
  facet normal 1 -0 2.22045e-16
    outer loop
      vertex 0.5 0.5 0
      vertex 0.5 -0.5 0
      vertex 0.5 -0.5 -0.5
    endloop
  endfacet
  facet normal 1 -0 2.22045e-16
    outer loop
      vertex 0.5 0.5 -0.5
      vertex 0.5 0.5 0
      vertex 0.5 -0.5 -0.5
    endloop
  endfacet
  facet normal -2.22045e-16 0 -1
    outer loop
      vertex 0.5 0.5 -0.5
      vertex 0.5 -0.5 -0.5
      vertex 0 0.5 -0.5
    endloop
  endfacet
  facet normal -2.22045e-16 0 -1
    outer loop
      vertex 0 0.5 -0.5
      vertex 0.5 -0.5 -0.5
      vertex 0 -0.5 -0.5
    endloop
  endfacet
  facet normal 2.22045e-16 0 -1
    outer loop
      vertex -0.5 -0.5 -0.5
      vertex -0.5 0.5 -0.5
      vertex 0 -0.5 -0.5
    endloop
  endfacet
  facet normal 2.22045e-16 0 -1
    outer loop
      vertex 0 -0.5 -0.5
      vertex -0.5 0.5 -0.5
      vertex 0 0.5 -0.5
    endloop
  endfacet
endsolid OpenSCAD_Model
