solid OpenSCAD_Model
  facet normal -1 -0 0
    outer loop
      vertex -45 -5 -9.99201e-15
      vertex -45 -4.6194 1.91342
      vertex -45 -1.55 -9.99201e-15
    endloop
  endfacet
  facet normal -1 0 0
    outer loop
      vertex -45 -1.55 -9.99201e-15
      vertex -45 -4.6194 1.91342
      vertex -45 -3.53553 3.53553
    endloop
  endfacet
  facet normal -1 0 0
    outer loop
      vertex -45 -1.55 -9.99201e-15
      vertex -45 -3.53553 3.53553
      vertex -45 -2.84041 4
    endloop
  endfacet
  facet normal -1 0 -0
    outer loop
      vertex -45 0.775 1.34234
      vertex -45 -2.84041 4
      vertex -45 16 4
    endloop
  endfacet
  facet normal -1 -0 0
    outer loop
      vertex -45 1.55 -9.99201e-15
      vertex -45 16 4
      vertex -45 16 -4
    endloop
  endfacet
  facet normal -1 0 0
    outer loop
      vertex -45 1.55 -9.99201e-15
      vertex -45 16 -4
      vertex -45 1.34234 -0.775
    endloop
  endfacet
  facet normal -1 0 0
    outer loop
      vertex -45 16 -4
      vertex -45 0 -4
      vertex -45 0 -1.55
    endloop
  endfacet
  facet normal -1 0 0
    outer loop
      vertex -45 16 -4
      vertex -45 0 -1.55
      vertex -45 0.775 -1.34234
    endloop
  endfacet
  facet normal -1 -0 0
    outer loop
      vertex -45 1.34234 0.775
      vertex -45 16 4
      vertex -45 1.55 -9.99201e-15
    endloop
  endfacet
  facet normal -1 -0 -0
    outer loop
      vertex -45 0 1.55
      vertex -45 -2.84041 4
      vertex -45 0.775 1.34234
    endloop
  endfacet
  facet normal -1 0 -0
    outer loop
      vertex -45 1.34234 0.775
      vertex -45 0.775 1.34234
      vertex -45 16 4
    endloop
  endfacet
  facet normal -1 0 -0
    outer loop
      vertex -45 -0.775 1.34234
      vertex -45 -2.84041 4
      vertex -45 0 1.55
    endloop
  endfacet
  facet normal -1 0 -0
    outer loop
      vertex -45 -1.34234 0.775
      vertex -45 -2.84041 4
      vertex -45 -0.775 1.34234
    endloop
  endfacet
  facet normal -1 0 -0
    outer loop
      vertex -45 -1.55 -9.99201e-15
      vertex -45 -2.84041 4
      vertex -45 -1.34234 0.775
    endloop
  endfacet
  facet normal -1 0 0
    outer loop
      vertex -45 1.34234 -0.775
      vertex -45 16 -4
      vertex -45 0.775 -1.34234
    endloop
  endfacet
  facet normal -4.20142e-17 -0.980785 0.19509
    outer loop
      vertex -45 -4.6194 1.91342
      vertex -45 -5 -9.99201e-15
      vertex -31.5 -5 -6.99441e-15
    endloop
  endfacet
  facet normal -4.17143e-17 -0.980785 0.19509
    outer loop
      vertex -31.5 -4.6194 1.91342
      vertex -45 -4.6194 1.91342
      vertex -31.5 -5 -6.99441e-15
    endloop
  endfacet
  facet normal 4.33187e-17 -0.980785 -0.19509
    outer loop
      vertex -31.5 -5 -6.99441e-15
      vertex -45 -5 -9.99201e-15
      vertex -45 -4.6194 -1.91342
    endloop
  endfacet
  facet normal 4.49231e-17 -0.980785 -0.19509
    outer loop
      vertex -31.5 -4.6194 -1.91342
      vertex -31.5 -5 -6.99441e-15
      vertex -45 -4.6194 -1.91342
    endloop
  endfacet
  facet normal -1 -0 -3.71348e-15
    outer loop
      vertex -45 -5 -9.99201e-15
      vertex -45 -1.55 -9.99201e-15
      vertex -45 -4.6194 -1.91342
    endloop
  endfacet
  facet normal -1 2.91375e-15 -8.38755e-15
    outer loop
      vertex -45 -4.6194 -1.91342
      vertex -45 -1.55 -9.99201e-15
      vertex -45 -1.34234 -0.775
    endloop
  endfacet
  facet normal -1 0 0
    outer loop
      vertex -45 -4.6194 -1.91342
      vertex -45 -1.34234 -0.775
      vertex -45 -0.775 -1.34234
    endloop
  endfacet
  facet normal -1 0 0
    outer loop
      vertex -45 -0.775 -1.34234
      vertex -45 0 -1.55
      vertex -45 -4.6194 -1.91342
    endloop
  endfacet
  facet normal -1 -0 0
    outer loop
      vertex -45 -4.6194 -1.91342
      vertex -45 0 -1.55
      vertex -45 0 -4
    endloop
  endfacet
  facet normal -1 0 0
    outer loop
      vertex -45 -4.6194 -1.91342
      vertex -45 0 -4
      vertex -45 -2.84041 -4
    endloop
  endfacet
  facet normal -1 0 0
    outer loop
      vertex -45 -4.6194 -1.91342
      vertex -45 -2.84041 -4
      vertex -45 -3.53553 -3.53553
    endloop
  endfacet
  facet normal -5.99681e-17 0.965926 0.258819
    outer loop
      vertex -33.5 -1.34234 -0.775
      vertex -45 -1.34234 -0.775
      vertex -33.5 -1.55 -7.43849e-15
    endloop
  endfacet
  facet normal -5.74695e-17 0.965926 0.258819
    outer loop
      vertex -33.5 -1.55 -7.43849e-15
      vertex -45 -1.34234 -0.775
      vertex -45 -1.55 -9.99201e-15
    endloop
  endfacet
  facet normal 5.74695e-17 0.965926 -0.258819
    outer loop
      vertex -33.5 -1.34234 0.775
      vertex -33.5 -1.55 -7.43849e-15
      vertex -45 -1.34234 0.775
    endloop
  endfacet
  facet normal 5.90519e-17 0.965926 -0.258819
    outer loop
      vertex -45 -1.34234 0.775
      vertex -33.5 -1.55 -7.43849e-15
      vertex -45 -1.55 -9.99201e-15
    endloop
  endfacet
  facet normal 1.50183e-16 0.707107 -0.707107
    outer loop
      vertex -33.5 -0.775 1.34234
      vertex -33.5 -1.34234 0.775
      vertex -45 -0.775 1.34234
    endloop
  endfacet
  facet normal 1.554e-16 0.707107 -0.707107
    outer loop
      vertex -45 -0.775 1.34234
      vertex -33.5 -1.34234 0.775
      vertex -45 -1.34234 0.775
    endloop
  endfacet
  facet normal 2.05153e-16 0.258819 -0.965926
    outer loop
      vertex -33.5 0 1.55
      vertex -33.5 -0.775 1.34234
      vertex -45 0 1.55
    endloop
  endfacet
  facet normal 2.0202e-16 0.258819 -0.965926
    outer loop
      vertex -45 0 1.55
      vertex -33.5 -0.775 1.34234
      vertex -45 -0.775 1.34234
    endloop
  endfacet
  facet normal 2.05153e-16 -0.258819 -0.965926
    outer loop
      vertex -33.5 0.775 1.34234
      vertex -33.5 0 1.55
      vertex -45 0.775 1.34234
    endloop
  endfacet
  facet normal 2.05128e-16 -0.258819 -0.965926
    outer loop
      vertex -45 0.775 1.34234
      vertex -33.5 0 1.55
      vertex -45 0 1.55
    endloop
  endfacet
  facet normal 1.57009e-16 -0.707107 -0.707107
    outer loop
      vertex -45 1.34234 0.775
      vertex -33.5 1.34234 0.775
      vertex -33.5 0.775 1.34234
    endloop
  endfacet
  facet normal 1.50183e-16 -0.707107 -0.707107
    outer loop
      vertex -45 0.775 1.34234
      vertex -45 1.34234 0.775
      vertex -33.5 0.775 1.34234
    endloop
  endfacet
  facet normal 5.74695e-17 -0.965926 -0.258819
    outer loop
      vertex -45 1.55 -9.99201e-15
      vertex -33.5 1.55 -7.43849e-15
      vertex -33.5 1.34234 0.775
    endloop
  endfacet
  facet normal 5.74695e-17 -0.965926 -0.258819
    outer loop
      vertex -45 1.34234 0.775
      vertex -45 1.55 -9.99201e-15
      vertex -33.5 1.34234 0.775
    endloop
  endfacet
  facet normal -5.90519e-17 -0.965926 0.258819
    outer loop
      vertex -33.5 1.34234 -0.775
      vertex -33.5 1.55 -7.43849e-15
      vertex -45 1.55 -9.99201e-15
    endloop
  endfacet
  facet normal -5.99681e-17 -0.965926 0.258819
    outer loop
      vertex -45 1.34234 -0.775
      vertex -33.5 1.34234 -0.775
      vertex -45 1.55 -9.99201e-15
    endloop
  endfacet
  facet normal -1.61616e-16 -0.707107 0.707107
    outer loop
      vertex -33.5 0.775 -1.34234
      vertex -33.5 1.34234 -0.775
      vertex -45 1.34234 -0.775
    endloop
  endfacet
  facet normal -1.63836e-16 -0.707107 0.707107
    outer loop
      vertex -45 0.775 -1.34234
      vertex -33.5 0.775 -1.34234
      vertex -45 1.34234 -0.775
    endloop
  endfacet
  facet normal -2.23804e-16 -0.258819 0.965926
    outer loop
      vertex -45 0 -1.55
      vertex -33.5 0 -1.55
      vertex -33.5 0.775 -1.34234
    endloop
  endfacet
  facet normal -2.23804e-16 -0.258819 0.965926
    outer loop
      vertex -45 0.775 -1.34234
      vertex -45 0 -1.55
      vertex -33.5 0.775 -1.34234
    endloop
  endfacet
  facet normal 0 -0 -1
    outer loop
      vertex -23.3177 11.7785 -4
      vertex -45 16 -4
      vertex 45 16 -4
    endloop
  endfacet
  facet normal -0 0 -1
    outer loop
      vertex 31.5 5.5 -4
      vertex 45 16 -4
      vertex 45 -2.84041 -4
    endloop
  endfacet
  facet normal 0 0 -1
    outer loop
      vertex 31.5 5.5 -4
      vertex 45 -2.84041 -4
      vertex 31.5 -2.84041 -4
    endloop
  endfacet
  facet normal 0 0 -1
    outer loop
      vertex -18.5 5.5 -4
      vertex 23.3177 11.7785 -4
      vertex 21.75 11.1292 -4
    endloop
  endfacet
  facet normal -0 0 -1
    outer loop
      vertex 31.2785 7.18232 -4
      vertex 45 16 -4
      vertex 31.5 5.5 -4
    endloop
  endfacet
  facet normal -0 0 -1
    outer loop
      vertex 30.6292 8.75 -4
      vertex 45 16 -4
      vertex 31.2785 7.18232 -4
    endloop
  endfacet
  facet normal -0 0 -1
    outer loop
      vertex 29.5962 10.0962 -4
      vertex 45 16 -4
      vertex 30.6292 8.75 -4
    endloop
  endfacet
  facet normal -0 0 -1
    outer loop
      vertex 28.25 11.1292 -4
      vertex 45 16 -4
      vertex 29.5962 10.0962 -4
    endloop
  endfacet
  facet normal 0 0 -1
    outer loop
      vertex 18.5 -2.84041 -4
      vertex 5 2 -4
      vertex 4.6194 3.91342 -4
    endloop
  endfacet
  facet normal -0 0 -1
    outer loop
      vertex 26.6823 11.7785 -4
      vertex 45 16 -4
      vertex 28.25 11.1292 -4
    endloop
  endfacet
  facet normal -0 0 -1
    outer loop
      vertex 25 12 -4
      vertex 45 16 -4
      vertex 26.6823 11.7785 -4
    endloop
  endfacet
  facet normal 0 0 -1
    outer loop
      vertex 23.3177 11.7785 -4
      vertex 45 16 -4
      vertex 25 12 -4
    endloop
  endfacet
  facet normal 0 -0 -1
    outer loop
      vertex 20.4038 10.0962 -4
      vertex 0 7 -4
      vertex 21.75 11.1292 -4
    endloop
  endfacet
  facet normal -0 0 -1
    outer loop
      vertex 3.53553 5.53553 -4
      vertex 18.7215 7.18232 -4
      vertex 18.5 5.5 -4
    endloop
  endfacet
  facet normal 0 0 -1
    outer loop
      vertex -18.5 5.5 -4
      vertex -4.6194 3.91342 -4
      vertex -5 2 -4
    endloop
  endfacet
  facet normal 0 0 -1
    outer loop
      vertex -18.5 5.5 -4
      vertex -1.91342 6.6194 -4
      vertex -3.53553 5.53553 -4
    endloop
  endfacet
  facet normal -0 0 -1
    outer loop
      vertex -18.5 5.5 -4
      vertex -3.53553 5.53553 -4
      vertex -4.6194 3.91342 -4
    endloop
  endfacet
  facet normal 0 0 -1
    outer loop
      vertex 1.91342 6.6194 -4
      vertex 19.3708 8.75 -4
      vertex 18.7215 7.18232 -4
    endloop
  endfacet
  facet normal 0 0 -1
    outer loop
      vertex 0 7 -4
      vertex 20.4038 10.0962 -4
      vertex 19.3708 8.75 -4
    endloop
  endfacet
  facet normal 0 0 -1
    outer loop
      vertex -18.5 5.5 -4
      vertex 0 7 -4
      vertex -1.91342 6.6194 -4
    endloop
  endfacet
  facet normal -0 0 -1
    outer loop
      vertex 0 7 -4
      vertex 19.3708 8.75 -4
      vertex 1.91342 6.6194 -4
    endloop
  endfacet
  facet normal 0 0 -1
    outer loop
      vertex 18.5 -2.84041 -4
      vertex 4.6194 3.91342 -4
      vertex 18.5 5.5 -4
    endloop
  endfacet
  facet normal -0 0 -1
    outer loop
      vertex 1.91342 6.6194 -4
      vertex 18.7215 7.18232 -4
      vertex 3.53553 5.53553 -4
    endloop
  endfacet
  facet normal 0 0 -1
    outer loop
      vertex -18.5 5.5 -4
      vertex 21.75 11.1292 -4
      vertex 0 7 -4
    endloop
  endfacet
  facet normal 0 0 -1
    outer loop
      vertex -31.5 -2.84041 -4
      vertex -45 0 -4
      vertex -31.5 5.5 -4
    endloop
  endfacet
  facet normal 0 -0 -1
    outer loop
      vertex -26.6823 11.7785 -4
      vertex -45 16 -4
      vertex -25 12 -4
    endloop
  endfacet
  facet normal 0 -0 -1
    outer loop
      vertex -30.6292 8.75 -4
      vertex -45 16 -4
      vertex -29.5962 10.0962 -4
    endloop
  endfacet
  facet normal 0 -0 -1
    outer loop
      vertex -18.5 5.5 -4
      vertex -18.7215 7.18232 -4
      vertex 45 16 -4
    endloop
  endfacet
  facet normal 0 -0 -1
    outer loop
      vertex -29.5962 10.0962 -4
      vertex -45 16 -4
      vertex -28.25 11.1292 -4
    endloop
  endfacet
  facet normal 0 -0 -1
    outer loop
      vertex -18.7215 7.18232 -4
      vertex -19.3708 8.75 -4
      vertex 45 16 -4
    endloop
  endfacet
  facet normal 0 -0 -1
    outer loop
      vertex -19.3708 8.75 -4
      vertex -20.4038 10.0962 -4
      vertex 45 16 -4
    endloop
  endfacet
  facet normal 0 -0 -1
    outer loop
      vertex -28.25 11.1292 -4
      vertex -45 16 -4
      vertex -26.6823 11.7785 -4
    endloop
  endfacet
  facet normal 0 -0 -1
    outer loop
      vertex -20.4038 10.0962 -4
      vertex -21.75 11.1292 -4
      vertex 45 16 -4
    endloop
  endfacet
  facet normal -0 -0 -1
    outer loop
      vertex -25 12 -4
      vertex -45 16 -4
      vertex -23.3177 11.7785 -4
    endloop
  endfacet
  facet normal 0 -0 -1
    outer loop
      vertex -21.75 11.1292 -4
      vertex -23.3177 11.7785 -4
      vertex 45 16 -4
    endloop
  endfacet
  facet normal 0 -0 -1
    outer loop
      vertex -45 0 -4
      vertex -45 16 -4
      vertex -30.6292 8.75 -4
    endloop
  endfacet
  facet normal 0 0 -1
    outer loop
      vertex -45 0 -4
      vertex -30.6292 8.75 -4
      vertex -31.2785 7.18232 -4
    endloop
  endfacet
  facet normal 0 0 -1
    outer loop
      vertex -45 0 -4
      vertex -31.2785 7.18232 -4
      vertex -31.5 5.5 -4
    endloop
  endfacet
  facet normal 0 0 -1
    outer loop
      vertex -18.5 5.5 -4
      vertex -5 2 -4
      vertex -5 -2.84041 -4
    endloop
  endfacet
  facet normal 0 0 -1
    outer loop
      vertex 5 2 -4
      vertex 18.5 -2.84041 -4
      vertex 5 -2.84041 -4
    endloop
  endfacet
  facet normal 0 0 -1
    outer loop
      vertex 3.53553 5.53553 -4
      vertex 18.5 5.5 -4
      vertex 4.6194 3.91342 -4
    endloop
  endfacet
  facet normal 0 0 -1
    outer loop
      vertex -18.5 5.5 -4
      vertex 45 16 -4
      vertex 23.3177 11.7785 -4
    endloop
  endfacet
  facet normal 0 0 -1
    outer loop
      vertex -45 0 -4
      vertex -31.5 -2.84041 -4
      vertex -45 -2.84041 -4
    endloop
  endfacet
  facet normal 0 0 -1
    outer loop
      vertex -18.5 5.5 -4
      vertex -5 -2.84041 -4
      vertex -18.5 -2.84041 -4
    endloop
  endfacet
  facet normal 0 1 0
    outer loop
      vertex -45 16 -4
      vertex -45 16 4
      vertex 45 16 -4
    endloop
  endfacet
  facet normal 0 1 0
    outer loop
      vertex 45 16 -4
      vertex -45 16 4
      vertex 45 16 4
    endloop
  endfacet
  facet normal 0 -0 1
    outer loop
      vertex -45 16 4
      vertex -45 -2.84041 4
      vertex -31.5 -2.84041 4
    endloop
  endfacet
  facet normal -0 0 1
    outer loop
      vertex -31.2785 7.18232 4
      vertex -45 16 4
      vertex -31.5 5.5 4
    endloop
  endfacet
  facet normal -0 0 1
    outer loop
      vertex -31.5 5.5 4
      vertex -45 16 4
      vertex -31.5 -2.84041 4
    endloop
  endfacet
  facet normal -0 0 1
    outer loop
      vertex -30.6292 8.75 4
      vertex -45 16 4
      vertex -31.2785 7.18232 4
    endloop
  endfacet
  facet normal -0 0 1
    outer loop
      vertex -29.5962 10.0962 4
      vertex -45 16 4
      vertex -30.6292 8.75 4
    endloop
  endfacet
  facet normal -0 0 1
    outer loop
      vertex -28.25 11.1292 4
      vertex -45 16 4
      vertex -29.5962 10.0962 4
    endloop
  endfacet
  facet normal -0 0 1
    outer loop
      vertex -26.6823 11.7785 4
      vertex -45 16 4
      vertex -28.25 11.1292 4
    endloop
  endfacet
  facet normal -0 0 1
    outer loop
      vertex -25 12 4
      vertex -45 16 4
      vertex -26.6823 11.7785 4
    endloop
  endfacet
  facet normal 0 0 1
    outer loop
      vertex -23.3177 11.7785 4
      vertex -45 16 4
      vertex -25 12 4
    endloop
  endfacet
  facet normal 0 0 1
    outer loop
      vertex 18.5 5.5 4
      vertex -45 16 4
      vertex -23.3177 11.7785 4
    endloop
  endfacet
  facet normal 0 0 1
    outer loop
      vertex -3.53553 5.53553 4
      vertex -23.3177 11.7785 4
      vertex -21.75 11.1292 4
    endloop
  endfacet
  facet normal 0 0 1
    outer loop
      vertex -5 2 4
      vertex -21.75 11.1292 4
      vertex -20.4038 10.0962 4
    endloop
  endfacet
  facet normal 0 0 1
    outer loop
      vertex -5 -2.84041 4
      vertex -20.4038 10.0962 4
      vertex -19.3708 8.75 4
    endloop
  endfacet
  facet normal 0 0 1
    outer loop
      vertex -5 -2.84041 4
      vertex -19.3708 8.75 4
      vertex -18.7215 7.18232 4
    endloop
  endfacet
  facet normal 0 0 1
    outer loop
      vertex -5 -2.84041 4
      vertex -18.7215 7.18232 4
      vertex -18.5 5.5 4
    endloop
  endfacet
  facet normal 0 0 1
    outer loop
      vertex -5 -2.84041 4
      vertex -18.5 5.5 4
      vertex -18.5 -2.84041 4
    endloop
  endfacet
  facet normal -0 0 1
    outer loop
      vertex -5 2 4
      vertex -20.4038 10.0962 4
      vertex -5 -2.84041 4
    endloop
  endfacet
  facet normal -0 0 1
    outer loop
      vertex -4.6194 3.91342 4
      vertex -21.75 11.1292 4
      vertex -5 2 4
    endloop
  endfacet
  facet normal -0 0 1
    outer loop
      vertex -3.53553 5.53553 4
      vertex -21.75 11.1292 4
      vertex -4.6194 3.91342 4
    endloop
  endfacet
  facet normal -0 0 1
    outer loop
      vertex -1.91342 6.6194 4
      vertex -23.3177 11.7785 4
      vertex -3.53553 5.53553 4
    endloop
  endfacet
  facet normal -0 0 1
    outer loop
      vertex 0 7 4
      vertex -23.3177 11.7785 4
      vertex -1.91342 6.6194 4
    endloop
  endfacet
  facet normal 0 0 1
    outer loop
      vertex 1.91342 6.6194 4
      vertex -23.3177 11.7785 4
      vertex 0 7 4
    endloop
  endfacet
  facet normal 0 0 1
    outer loop
      vertex 18.5 5.5 4
      vertex -23.3177 11.7785 4
      vertex 1.91342 6.6194 4
    endloop
  endfacet
  facet normal 0 0 1
    outer loop
      vertex 18.5 -2.84041 4
      vertex 1.91342 6.6194 4
      vertex 3.53553 5.53553 4
    endloop
  endfacet
  facet normal 0 0 1
    outer loop
      vertex 18.5 -2.84041 4
      vertex 3.53553 5.53553 4
      vertex 4.6194 3.91342 4
    endloop
  endfacet
  facet normal 0 0 1
    outer loop
      vertex 18.5 -2.84041 4
      vertex 4.6194 3.91342 4
      vertex 5 2 4
    endloop
  endfacet
  facet normal 0 0 1
    outer loop
      vertex 18.5 -2.84041 4
      vertex 5 2 4
      vertex 5 -2.84041 4
    endloop
  endfacet
  facet normal -0 0 1
    outer loop
      vertex 18.5 5.5 4
      vertex 1.91342 6.6194 4
      vertex 18.5 -2.84041 4
    endloop
  endfacet
  facet normal -0 0 1
    outer loop
      vertex 18.7215 7.18232 4
      vertex -45 16 4
      vertex 18.5 5.5 4
    endloop
  endfacet
  facet normal -0 0 1
    outer loop
      vertex 19.3708 8.75 4
      vertex -45 16 4
      vertex 18.7215 7.18232 4
    endloop
  endfacet
  facet normal -0 0 1
    outer loop
      vertex 20.4038 10.0962 4
      vertex -45 16 4
      vertex 19.3708 8.75 4
    endloop
  endfacet
  facet normal -0 0 1
    outer loop
      vertex 21.75 11.1292 4
      vertex -45 16 4
      vertex 20.4038 10.0962 4
    endloop
  endfacet
  facet normal -0 0 1
    outer loop
      vertex 23.3177 11.7785 4
      vertex -45 16 4
      vertex 21.75 11.1292 4
    endloop
  endfacet
  facet normal -0 0 1
    outer loop
      vertex 25 12 4
      vertex -45 16 4
      vertex 23.3177 11.7785 4
    endloop
  endfacet
  facet normal 0 0 1
    outer loop
      vertex 45 16 4
      vertex -45 16 4
      vertex 25 12 4
    endloop
  endfacet
  facet normal 0 0 1
    outer loop
      vertex 45 16 4
      vertex 25 12 4
      vertex 26.6823 11.7785 4
    endloop
  endfacet
  facet normal 0 0 1
    outer loop
      vertex 45 16 4
      vertex 26.6823 11.7785 4
      vertex 28.25 11.1292 4
    endloop
  endfacet
  facet normal 0 0 1
    outer loop
      vertex 45 0 4
      vertex 28.25 11.1292 4
      vertex 29.5962 10.0962 4
    endloop
  endfacet
  facet normal 0 0 1
    outer loop
      vertex 45 -2.84041 4
      vertex 29.5962 10.0962 4
      vertex 30.6292 8.75 4
    endloop
  endfacet
  facet normal 0 0 1
    outer loop
      vertex 45 -2.84041 4
      vertex 30.6292 8.75 4
      vertex 31.2785 7.18232 4
    endloop
  endfacet
  facet normal 0 0 1
    outer loop
      vertex 45 -2.84041 4
      vertex 31.2785 7.18232 4
      vertex 31.5 5.5 4
    endloop
  endfacet
  facet normal 0 0 1
    outer loop
      vertex 45 -2.84041 4
      vertex 31.5 5.5 4
      vertex 31.5 -2.84041 4
    endloop
  endfacet
  facet normal -0 0 1
    outer loop
      vertex 45 0 4
      vertex 29.5962 10.0962 4
      vertex 45 -2.84041 4
    endloop
  endfacet
  facet normal 0 0 1
    outer loop
      vertex 45 16 4
      vertex 28.25 11.1292 4
      vertex 45 0 4
    endloop
  endfacet
  facet normal -1.92585e-16 -0.55557 0.83147
    outer loop
      vertex -45 -2.84041 4
      vertex -45 -3.53553 3.53553
      vertex -31.5 -3.53553 3.53553
    endloop
  endfacet
  facet normal -1.82758e-16 -0.55557 0.83147
    outer loop
      vertex -31.5 -2.84041 4
      vertex -45 -2.84041 4
      vertex -31.5 -3.53553 3.53553
    endloop
  endfacet
  facet normal -1.20041e-16 -0.83147 0.55557
    outer loop
      vertex -45 -3.53553 3.53553
      vertex -45 -4.6194 1.91342
      vertex -31.5 -4.6194 1.91342
    endloop
  endfacet
  facet normal -1.2793e-16 -0.83147 0.55557
    outer loop
      vertex -31.5 -3.53553 3.53553
      vertex -45 -3.53553 3.53553
      vertex -31.5 -4.6194 1.91342
    endloop
  endfacet
  facet normal 1 0 0
    outer loop
      vertex -31.5 -4.6194 -1.91342
      vertex -31.5 -3.53553 -3.53553
      vertex -31.5 -2.84041 -4
    endloop
  endfacet
  facet normal 1 -0 0
    outer loop
      vertex -31.5 -1.65 -2.85788
      vertex -31.5 -4.6194 -1.91342
      vertex -31.5 -2.84041 -4
    endloop
  endfacet
  facet normal 1 0 -0
    outer loop
      vertex -31.5 -3.53553 3.53553
      vertex -31.5 -4.6194 -1.91342
      vertex -31.5 -2.84041 4
    endloop
  endfacet
  facet normal 1 0 -0
    outer loop
      vertex -31.5 -4.6194 1.91342
      vertex -31.5 -4.6194 -1.91342
      vertex -31.5 -3.53553 3.53553
    endloop
  endfacet
  facet normal 1 0 0
    outer loop
      vertex -31.5 -5 -6.99441e-15
      vertex -31.5 -4.6194 -1.91342
      vertex -31.5 -4.6194 1.91342
    endloop
  endfacet
  facet normal 1 0 0
    outer loop
      vertex -31.5 -2.84041 4
      vertex -31.5 -4.6194 -1.91342
      vertex -31.5 -3.3 -8.37557e-08
    endloop
  endfacet
  facet normal 1 0 0
    outer loop
      vertex -31.5 -2.84041 4
      vertex -31.5 -1.65 2.85788
      vertex -31.5 5.5 4
    endloop
  endfacet
  facet normal 1 0 -0
    outer loop
      vertex -31.5 -2.84041 4
      vertex -31.5 -3.3 -8.37557e-08
      vertex -31.5 -1.65 2.85788
    endloop
  endfacet
  facet normal 1 0 0
    outer loop
      vertex -31.5 -1.65 2.85788
      vertex -31.5 1.65 2.85788
      vertex -31.5 5.5 4
    endloop
  endfacet
  facet normal 1 0 0
    outer loop
      vertex -31.5 5.5 4
      vertex -31.5 3.3 8.37557e-08
      vertex -31.5 5.5 -4
    endloop
  endfacet
  facet normal 1 0 0
    outer loop
      vertex -31.5 1.65 2.85788
      vertex -31.5 3.3 8.37557e-08
      vertex -31.5 5.5 4
    endloop
  endfacet
  facet normal 1 0 -0
    outer loop
      vertex -31.5 3.3 8.37557e-08
      vertex -31.5 1.65 -2.85788
      vertex -31.5 5.5 -4
    endloop
  endfacet
  facet normal 1 -0 0
    outer loop
      vertex -31.5 5.5 -4
      vertex -31.5 -1.65 -2.85788
      vertex -31.5 -2.84041 -4
    endloop
  endfacet
  facet normal 1 0 -0
    outer loop
      vertex -31.5 1.65 -2.85788
      vertex -31.5 -1.65 -2.85788
      vertex -31.5 5.5 -4
    endloop
  endfacet
  facet normal 1 0 0
    outer loop
      vertex -31.5 -1.65 -2.85788
      vertex -31.5 -3.3 -8.37557e-08
      vertex -31.5 -4.6194 -1.91342
    endloop
  endfacet
  facet normal 1.2793e-16 -0.83147 -0.55557
    outer loop
      vertex -31.5 -4.6194 -1.91342
      vertex -45 -4.6194 -1.91342
      vertex -45 -3.53553 -3.53553
    endloop
  endfacet
  facet normal 1.2793e-16 -0.83147 -0.55557
    outer loop
      vertex -31.5 -3.53553 -3.53553
      vertex -31.5 -4.6194 -1.91342
      vertex -45 -3.53553 -3.53553
    endloop
  endfacet
  facet normal 1.91461e-16 -0.55557 -0.83147
    outer loop
      vertex -45 -3.53553 -3.53553
      vertex -45 -2.84041 -4
      vertex -31.5 -3.53553 -3.53553
    endloop
  endfacet
  facet normal 1.8208e-16 -0.55557 -0.83147
    outer loop
      vertex -31.5 -3.53553 -3.53553
      vertex -45 -2.84041 -4
      vertex -31.5 -2.84041 -4
    endloop
  endfacet
  facet normal -2.26884e-16 0.258819 0.965926
    outer loop
      vertex -33.5 -0.775 -1.34234
      vertex -33.5 0 -1.55
      vertex -45 0 -1.55
    endloop
  endfacet
  facet normal -2.23804e-16 0.258819 0.965926
    outer loop
      vertex -45 -0.775 -1.34234
      vertex -33.5 -0.775 -1.34234
      vertex -45 0 -1.55
    endloop
  endfacet
  facet normal -1.63836e-16 0.707107 0.707107
    outer loop
      vertex -33.5 -0.775 -1.34234
      vertex -45 -0.775 -1.34234
      vertex -33.5 -1.34234 -0.775
    endloop
  endfacet
  facet normal -1.63836e-16 0.707107 0.707107
    outer loop
      vertex -33.5 -1.34234 -0.775
      vertex -45 -0.775 -1.34234
      vertex -45 -1.34234 -0.775
    endloop
  endfacet
  facet normal 1 2.15316e-15 1.24313e-15
    outer loop
      vertex -33.5 -1.65 2.85788
      vertex -33.5 -3.3 -8.37557e-08
      vertex -33.5 -1.65 -2.85788
    endloop
  endfacet
  facet normal 1 0 0
    outer loop
      vertex -33.5 0.775 1.34234
      vertex -33.5 1.34234 0.775
      vertex -33.5 3.3 8.37557e-08
    endloop
  endfacet
  facet normal 1 -3.55271e-14 1.24313e-15
    outer loop
      vertex -33.5 -1.55 -7.43849e-15
      vertex -33.5 -1.65 2.85788
      vertex -33.5 -1.65 -2.85788
    endloop
  endfacet
  facet normal 1 0 -0
    outer loop
      vertex -33.5 1.65 2.85788
      vertex -33.5 -1.65 2.85788
      vertex -33.5 3.3 8.37557e-08
    endloop
  endfacet
  facet normal 1 0 -0
    outer loop
      vertex -33.5 0.775 -1.34234
      vertex -33.5 0 -1.55
      vertex -33.5 1.65 -2.85788
    endloop
  endfacet
  facet normal 1 0 0
    outer loop
      vertex -33.5 0.775 1.34234
      vertex -33.5 -1.65 2.85788
      vertex -33.5 0 1.55
    endloop
  endfacet
  facet normal 1 0 -0
    outer loop
      vertex -33.5 1.55 -7.43849e-15
      vertex -33.5 1.34234 -0.775
      vertex -33.5 1.65 -2.85788
    endloop
  endfacet
  facet normal 1 0 0
    outer loop
      vertex -33.5 3.3 8.37557e-08
      vertex -33.5 -1.65 2.85788
      vertex -33.5 0.775 1.34234
    endloop
  endfacet
  facet normal 1 0 -0
    outer loop
      vertex -33.5 1.34234 -0.775
      vertex -33.5 0.775 -1.34234
      vertex -33.5 1.65 -2.85788
    endloop
  endfacet
  facet normal 1 4.06024e-15 1.42072e-16
    outer loop
      vertex -33.5 3.3 8.37557e-08
      vertex -33.5 1.55 -7.43849e-15
      vertex -33.5 1.65 -2.85788
    endloop
  endfacet
  facet normal 1 4.06024e-15 1.02562e-14
    outer loop
      vertex -33.5 3.3 8.37557e-08
      vertex -33.5 1.34234 0.775
      vertex -33.5 1.55 -7.43849e-15
    endloop
  endfacet
  facet normal 1 -0 0
    outer loop
      vertex -33.5 1.65 -2.85788
      vertex -33.5 0 -1.55
      vertex -33.5 -1.65 -2.85788
    endloop
  endfacet
  facet normal 1 -0 0
    outer loop
      vertex -33.5 0 -1.55
      vertex -33.5 -0.775 -1.34234
      vertex -33.5 -1.65 -2.85788
    endloop
  endfacet
  facet normal 1 -0 0
    outer loop
      vertex -33.5 -0.775 -1.34234
      vertex -33.5 -1.34234 -0.775
      vertex -33.5 -1.65 -2.85788
    endloop
  endfacet
  facet normal 1 -0 0
    outer loop
      vertex -33.5 -1.34234 -0.775
      vertex -33.5 -1.55 -7.43849e-15
      vertex -33.5 -1.65 -2.85788
    endloop
  endfacet
  facet normal 1 0 0
    outer loop
      vertex -33.5 -1.34234 0.775
      vertex -33.5 -0.775 1.34234
      vertex -33.5 -1.65 2.85788
    endloop
  endfacet
  facet normal 1 2.20573e-14 3.25806e-15
    outer loop
      vertex -33.5 -1.55 -7.43849e-15
      vertex -33.5 -1.34234 0.775
      vertex -33.5 -1.65 2.85788
    endloop
  endfacet
  facet normal 1 0 0
    outer loop
      vertex -33.5 -0.775 1.34234
      vertex -33.5 0 1.55
      vertex -33.5 -1.65 2.85788
    endloop
  endfacet
  facet normal 0.991445 -0.130526 0
    outer loop
      vertex -31.2785 7.18232 -4
      vertex -31.2785 7.18232 4
      vertex -31.5 5.5 4
    endloop
  endfacet
  facet normal 0.991445 -0.130526 0
    outer loop
      vertex -31.5 5.5 -4
      vertex -31.2785 7.18232 -4
      vertex -31.5 5.5 4
    endloop
  endfacet
  facet normal 0.923879 -0.382684 0
    outer loop
      vertex -30.6292 8.75 -4
      vertex -30.6292 8.75 4
      vertex -31.2785 7.18232 4
    endloop
  endfacet
  facet normal 0.923879 -0.382684 0
    outer loop
      vertex -31.2785 7.18232 -4
      vertex -30.6292 8.75 -4
      vertex -31.2785 7.18232 4
    endloop
  endfacet
  facet normal 0.793353 -0.608761 0
    outer loop
      vertex -29.5962 10.0962 -4
      vertex -29.5962 10.0962 4
      vertex -30.6292 8.75 4
    endloop
  endfacet
  facet normal 0.793353 -0.608761 0
    outer loop
      vertex -30.6292 8.75 -4
      vertex -29.5962 10.0962 -4
      vertex -30.6292 8.75 4
    endloop
  endfacet
  facet normal 0.608761 -0.793353 0
    outer loop
      vertex -28.25 11.1292 -4
      vertex -28.25 11.1292 4
      vertex -29.5962 10.0962 4
    endloop
  endfacet
  facet normal 0.608761 -0.793353 0
    outer loop
      vertex -29.5962 10.0962 -4
      vertex -28.25 11.1292 -4
      vertex -29.5962 10.0962 4
    endloop
  endfacet
  facet normal 0.382684 -0.923879 0
    outer loop
      vertex -26.6823 11.7785 -4
      vertex -26.6823 11.7785 4
      vertex -28.25 11.1292 4
    endloop
  endfacet
  facet normal 0.382684 -0.923879 0
    outer loop
      vertex -28.25 11.1292 -4
      vertex -26.6823 11.7785 -4
      vertex -28.25 11.1292 4
    endloop
  endfacet
  facet normal 0.130526 -0.991445 0
    outer loop
      vertex -25 12 -4
      vertex -25 12 4
      vertex -26.6823 11.7785 4
    endloop
  endfacet
  facet normal 0.130526 -0.991445 0
    outer loop
      vertex -26.6823 11.7785 -4
      vertex -25 12 -4
      vertex -26.6823 11.7785 4
    endloop
  endfacet
  facet normal -0.130526 -0.991445 -0
    outer loop
      vertex -23.3177 11.7785 -4
      vertex -23.3177 11.7785 4
      vertex -25 12 4
    endloop
  endfacet
  facet normal -0.130526 -0.991445 -0
    outer loop
      vertex -25 12 -4
      vertex -23.3177 11.7785 -4
      vertex -25 12 4
    endloop
  endfacet
  facet normal -0.382684 -0.923879 -0
    outer loop
      vertex -21.75 11.1292 -4
      vertex -21.75 11.1292 4
      vertex -23.3177 11.7785 4
    endloop
  endfacet
  facet normal -0.382684 -0.923879 -0
    outer loop
      vertex -23.3177 11.7785 -4
      vertex -21.75 11.1292 -4
      vertex -23.3177 11.7785 4
    endloop
  endfacet
  facet normal -0.608761 -0.793353 -0
    outer loop
      vertex -20.4038 10.0962 -4
      vertex -20.4038 10.0962 4
      vertex -21.75 11.1292 4
    endloop
  endfacet
  facet normal -0.608761 -0.793353 -0
    outer loop
      vertex -21.75 11.1292 -4
      vertex -20.4038 10.0962 -4
      vertex -21.75 11.1292 4
    endloop
  endfacet
  facet normal -0.793353 -0.608761 0
    outer loop
      vertex -19.3708 8.75 4
      vertex -20.4038 10.0962 4
      vertex -19.3708 8.75 -4
    endloop
  endfacet
  facet normal -0.793353 -0.608761 0
    outer loop
      vertex -19.3708 8.75 -4
      vertex -20.4038 10.0962 4
      vertex -20.4038 10.0962 -4
    endloop
  endfacet
  facet normal -0.923879 -0.382684 0
    outer loop
      vertex -18.7215 7.18232 4
      vertex -19.3708 8.75 4
      vertex -18.7215 7.18232 -4
    endloop
  endfacet
  facet normal -0.923879 -0.382684 0
    outer loop
      vertex -18.7215 7.18232 -4
      vertex -19.3708 8.75 4
      vertex -19.3708 8.75 -4
    endloop
  endfacet
  facet normal -0.991445 -0.130526 0
    outer loop
      vertex -18.5 5.5 4
      vertex -18.7215 7.18232 4
      vertex -18.5 5.5 -4
    endloop
  endfacet
  facet normal -0.991445 -0.130526 0
    outer loop
      vertex -18.5 5.5 -4
      vertex -18.7215 7.18232 4
      vertex -18.7215 7.18232 -4
    endloop
  endfacet
  facet normal -1 -0 0
    outer loop
      vertex -18.5 -3.53553 3.53553
      vertex -18.5 -2.84041 4
      vertex -18.5 -4.6194 1.91342
    endloop
  endfacet
  facet normal -1 0 -0
    outer loop
      vertex -18.5 -1.65 2.85788
      vertex -18.5 -2.84041 4
      vertex -18.5 5.5 4
    endloop
  endfacet
  facet normal -1 -0 0
    outer loop
      vertex -18.5 3.3 8.37557e-08
      vertex -18.5 5.5 4
      vertex -18.5 5.5 -4
    endloop
  endfacet
  facet normal -1 0 0
    outer loop
      vertex -18.5 -1.65 -2.85788
      vertex -18.5 5.5 -4
      vertex -18.5 -2.84041 -4
    endloop
  endfacet
  facet normal -1 0 0
    outer loop
      vertex -18.5 -4.6194 1.91342
      vertex -18.5 -2.84041 -4
      vertex -18.5 -3.53553 -3.53553
    endloop
  endfacet
  facet normal -1 0 0
    outer loop
      vertex -18.5 -4.6194 1.91342
      vertex -18.5 -3.53553 -3.53553
      vertex -18.5 -4.6194 -1.91342
    endloop
  endfacet
  facet normal -1 0 0
    outer loop
      vertex -18.5 -4.6194 1.91342
      vertex -18.5 -4.6194 -1.91342
      vertex -18.5 -5 -4.10783e-15
    endloop
  endfacet
  facet normal -1 0 0
    outer loop
      vertex -18.5 1.65 -2.85788
      vertex -18.5 5.5 -4
      vertex -18.5 -1.65 -2.85788
    endloop
  endfacet
  facet normal -1 0 0
    outer loop
      vertex -18.5 -4.6194 1.91342
      vertex -18.5 -1.65 -2.85788
      vertex -18.5 -2.84041 -4
    endloop
  endfacet
  facet normal -1 -0 0
    outer loop
      vertex -18.5 1.65 2.85788
      vertex -18.5 5.5 4
      vertex -18.5 3.3 8.37557e-08
    endloop
  endfacet
  facet normal -1 0 0
    outer loop
      vertex -18.5 -1.65 2.85788
      vertex -18.5 5.5 4
      vertex -18.5 1.65 2.85788
    endloop
  endfacet
  facet normal -1 0 0
    outer loop
      vertex -18.5 -4.6194 1.91342
      vertex -18.5 -2.84041 4
      vertex -18.5 -1.65 2.85788
    endloop
  endfacet
  facet normal -1 0 -0
    outer loop
      vertex -18.5 -3.3 -8.37557e-08
      vertex -18.5 -4.6194 1.91342
      vertex -18.5 -1.65 2.85788
    endloop
  endfacet
  facet normal -1 0 0
    outer loop
      vertex -18.5 -4.6194 1.91342
      vertex -18.5 -3.3 -8.37557e-08
      vertex -18.5 -1.65 -2.85788
    endloop
  endfacet
  facet normal -1 0 0
    outer loop
      vertex -18.5 3.3 8.37557e-08
      vertex -18.5 5.5 -4
      vertex -18.5 1.65 -2.85788
    endloop
  endfacet
  facet normal 1.91461e-16 -0.55557 -0.83147
    outer loop
      vertex -18.5 -3.53553 -3.53553
      vertex -18.5 -2.84041 -4
      vertex -5 -3.53553 -3.53553
    endloop
  endfacet
  facet normal 1.8208e-16 -0.55557 -0.83147
    outer loop
      vertex -5 -3.53553 -3.53553
      vertex -18.5 -2.84041 -4
      vertex -5 -2.84041 -4
    endloop
  endfacet
  facet normal 1 0 0
    outer loop
      vertex -5 -4.6194 -1.91342
      vertex -5 -3.53553 -3.53553
      vertex -5 -2.84041 -4
    endloop
  endfacet
  facet normal 1 0 -0
    outer loop
      vertex -5 -0.775 -1.34234
      vertex -5 -4.6194 -1.91342
      vertex -5 2 -4
    endloop
  endfacet
  facet normal 1 -0 0
    outer loop
      vertex -5 2 -4
      vertex -5 -4.6194 -1.91342
      vertex -5 -2.84041 -4
    endloop
  endfacet
  facet normal 1 0 -0
    outer loop
      vertex -5 -2.84041 4
      vertex -5 -4.6194 -1.91342
      vertex -5 2 4
    endloop
  endfacet
  facet normal 1 0 -0
    outer loop
      vertex -5 -3.53553 3.53553
      vertex -5 -4.6194 -1.91342
      vertex -5 -2.84041 4
    endloop
  endfacet
  facet normal 1 0 -0
    outer loop
      vertex -5 -4.6194 1.91342
      vertex -5 -4.6194 -1.91342
      vertex -5 -3.53553 3.53553
    endloop
  endfacet
  facet normal 1 0 0
    outer loop
      vertex -5 -5 -1.11022e-15
      vertex -5 -4.6194 -1.91342
      vertex -5 -4.6194 1.91342
    endloop
  endfacet
  facet normal 1 0 0
    outer loop
      vertex -5 -1.34234 0.775
      vertex -5 -4.6194 -1.91342
      vertex -5 -1.55 -1.11022e-15
    endloop
  endfacet
  facet normal 1 0 -0
    outer loop
      vertex -5 1.55 -1.11022e-15
      vertex -5 1.34234 -0.775
      vertex -5 2 -4
    endloop
  endfacet
  facet normal 1 0 0
    outer loop
      vertex -5 -0.775 1.34234
      vertex -5 -4.6194 -1.91342
      vertex -5 -1.34234 0.775
    endloop
  endfacet
  facet normal 1 0 -0
    outer loop
      vertex -5 1.34234 -0.775
      vertex -5 0.775 -1.34234
      vertex -5 2 -4
    endloop
  endfacet
  facet normal 1 0 0
    outer loop
      vertex -5 2 4
      vertex -5 -4.6194 -1.91342
      vertex -5 -0.775 1.34234
    endloop
  endfacet
  facet normal 1 -0 -0
    outer loop
      vertex -5 0 -1.55
      vertex -5 -0.775 -1.34234
      vertex -5 2 -4
    endloop
  endfacet
  facet normal 1 0 0
    outer loop
      vertex -5 2 4
      vertex -5 0 1.55
      vertex -5 0.775 1.34234
    endloop
  endfacet
  facet normal 1 0 0
    outer loop
      vertex -5 2 4
      vertex -5 0.775 1.34234
      vertex -5 1.34234 0.775
    endloop
  endfacet
  facet normal 1 0 0
    outer loop
      vertex -5 2 4
      vertex -5 1.55 -1.11022e-15
      vertex -5 2 -4
    endloop
  endfacet
  facet normal 1 0 0
    outer loop
      vertex -5 2 4
      vertex -5 1.34234 0.775
      vertex -5 1.55 -1.11022e-15
    endloop
  endfacet
  facet normal 1 0 -0
    outer loop
      vertex -5 0.775 -1.34234
      vertex -5 0 -1.55
      vertex -5 2 -4
    endloop
  endfacet
  facet normal 1 0 -0
    outer loop
      vertex -5 -1.34234 -0.775
      vertex -5 -4.6194 -1.91342
      vertex -5 -0.775 -1.34234
    endloop
  endfacet
  facet normal 1 0 -0
    outer loop
      vertex -5 -1.55 -1.11022e-15
      vertex -5 -4.6194 -1.91342
      vertex -5 -1.34234 -0.775
    endloop
  endfacet
  facet normal 1 0 0
    outer loop
      vertex -5 -0.775 1.34234
      vertex -5 0 1.55
      vertex -5 2 4
    endloop
  endfacet
  facet normal 0.980785 -0.19509 0
    outer loop
      vertex -4.6194 3.91342 -4
      vertex -4.6194 3.91342 4
      vertex -5 2 4
    endloop
  endfacet
  facet normal 0.980785 -0.19509 0
    outer loop
      vertex -5 2 -4
      vertex -4.6194 3.91342 -4
      vertex -5 2 4
    endloop
  endfacet
  facet normal 0.83147 -0.55557 0
    outer loop
      vertex -3.53553 5.53553 -4
      vertex -3.53553 5.53553 4
      vertex -4.6194 3.91342 4
    endloop
  endfacet
  facet normal 0.83147 -0.55557 0
    outer loop
      vertex -4.6194 3.91342 -4
      vertex -3.53553 5.53553 -4
      vertex -4.6194 3.91342 4
    endloop
  endfacet
  facet normal 0.55557 -0.83147 0
    outer loop
      vertex -1.91342 6.6194 -4
      vertex -1.91342 6.6194 4
      vertex -3.53553 5.53553 4
    endloop
  endfacet
  facet normal 0.55557 -0.83147 0
    outer loop
      vertex -3.53553 5.53553 -4
      vertex -1.91342 6.6194 -4
      vertex -3.53553 5.53553 4
    endloop
  endfacet
  facet normal 0.19509 -0.980785 0
    outer loop
      vertex 0 7 -4
      vertex 0 7 4
      vertex -1.91342 6.6194 4
    endloop
  endfacet
  facet normal 0.19509 -0.980785 0
    outer loop
      vertex -1.91342 6.6194 -4
      vertex 0 7 -4
      vertex -1.91342 6.6194 4
    endloop
  endfacet
  facet normal -0.19509 -0.980785 -0
    outer loop
      vertex 1.91342 6.6194 -4
      vertex 1.91342 6.6194 4
      vertex 0 7 4
    endloop
  endfacet
  facet normal -0.19509 -0.980785 -0
    outer loop
      vertex 0 7 -4
      vertex 1.91342 6.6194 -4
      vertex 0 7 4
    endloop
  endfacet
  facet normal -0.55557 -0.83147 -0
    outer loop
      vertex 3.53553 5.53553 -4
      vertex 3.53553 5.53553 4
      vertex 1.91342 6.6194 4
    endloop
  endfacet
  facet normal -0.55557 -0.83147 -0
    outer loop
      vertex 1.91342 6.6194 -4
      vertex 3.53553 5.53553 -4
      vertex 1.91342 6.6194 4
    endloop
  endfacet
  facet normal -0.83147 -0.55557 0
    outer loop
      vertex 4.6194 3.91342 4
      vertex 3.53553 5.53553 4
      vertex 4.6194 3.91342 -4
    endloop
  endfacet
  facet normal -0.83147 -0.55557 0
    outer loop
      vertex 4.6194 3.91342 -4
      vertex 3.53553 5.53553 4
      vertex 3.53553 5.53553 -4
    endloop
  endfacet
  facet normal -0.980785 -0.19509 0
    outer loop
      vertex 5 2 4
      vertex 4.6194 3.91342 4
      vertex 5 2 -4
    endloop
  endfacet
  facet normal -0.980785 -0.19509 0
    outer loop
      vertex 5 2 -4
      vertex 4.6194 3.91342 4
      vertex 4.6194 3.91342 -4
    endloop
  endfacet
  facet normal -1 -0 0
    outer loop
      vertex 5 -3.53553 3.53553
      vertex 5 -2.84041 4
      vertex 5 -4.6194 1.91342
    endloop
  endfacet
  facet normal -1 0 0
    outer loop
      vertex 5 -4.6194 1.91342
      vertex 5 -2.84041 4
      vertex 5 2 4
    endloop
  endfacet
  facet normal -1 -0 0
    outer loop
      vertex 5 1.55 1.11022e-15
      vertex 5 2 4
      vertex 5 2 -4
    endloop
  endfacet
  facet normal -1 0 0
    outer loop
      vertex 5 -4.6194 1.91342
      vertex 5 2 -4
      vertex 5 -2.84041 -4
    endloop
  endfacet
  facet normal -1 0 0
    outer loop
      vertex 5 -4.6194 1.91342
      vertex 5 -2.84041 -4
      vertex 5 -3.53553 -3.53553
    endloop
  endfacet
  facet normal -1 0 0
    outer loop
      vertex 5 -4.6194 1.91342
      vertex 5 -3.53553 -3.53553
      vertex 5 -4.6194 -1.91342
    endloop
  endfacet
  facet normal -1 0 0
    outer loop
      vertex 5 -4.6194 1.91342
      vertex 5 -4.6194 -1.91342
      vertex 5 -5 1.11022e-15
    endloop
  endfacet
  facet normal -1 0 0
    outer loop
      vertex 5 -4.6194 1.91342
      vertex 5 -1.34234 -0.775
      vertex 5 -0.775 -1.34234
    endloop
  endfacet
  facet normal -1 0 0
    outer loop
      vertex 5 -4.6194 1.91342
      vertex 5 -0.775 -1.34234
      vertex 5 2 -4
    endloop
  endfacet
  facet normal -1 -0 0
    outer loop
      vertex 5 0 1.55
      vertex 5 2 4
      vertex 5 0.775 1.34234
    endloop
  endfacet
  facet normal -1 -0 0
    outer loop
      vertex 5 1.34234 0.775
      vertex 5 2 4
      vertex 5 1.55 1.11022e-15
    endloop
  endfacet
  facet normal -1 -0 0
    outer loop
      vertex 5 0 -1.55
      vertex 5 0.775 -1.34234
      vertex 5 2 -4
    endloop
  endfacet
  facet normal -1 -0 0
    outer loop
      vertex 5 0.775 1.34234
      vertex 5 2 4
      vertex 5 1.34234 0.775
    endloop
  endfacet
  facet normal -1 -0 0
    outer loop
      vertex 5 0.775 -1.34234
      vertex 5 1.34234 -0.775
      vertex 5 2 -4
    endloop
  endfacet
  facet normal -1 -0 0
    outer loop
      vertex 5 1.34234 -0.775
      vertex 5 1.55 1.11022e-15
      vertex 5 2 -4
    endloop
  endfacet
  facet normal -1 -0 0
    outer loop
      vertex 5 -4.6194 1.91342
      vertex 5 2 4
      vertex 5 0 1.55
    endloop
  endfacet
  facet normal -1 0 0
    outer loop
      vertex 5 -4.6194 1.91342
      vertex 5 0 1.55
      vertex 5 -0.775 1.34234
    endloop
  endfacet
  facet normal -1 0 0
    outer loop
      vertex 5 -4.6194 1.91342
      vertex 5 -0.775 1.34234
      vertex 5 -1.34234 0.775
    endloop
  endfacet
  facet normal -1 0 0
    outer loop
      vertex 5 -4.6194 1.91342
      vertex 5 -1.34234 0.775
      vertex 5 -1.55 1.11022e-15
    endloop
  endfacet
  facet normal -1 0 0
    outer loop
      vertex 5 -4.6194 1.91342
      vertex 5 -1.55 1.11022e-15
      vertex 5 -1.34234 -0.775
    endloop
  endfacet
  facet normal -1 0 0
    outer loop
      vertex 5 0 -1.55
      vertex 5 2 -4
      vertex 5 -0.775 -1.34234
    endloop
  endfacet
  facet normal 1.91461e-16 -0.55557 -0.83147
    outer loop
      vertex 5 -3.53553 -3.53553
      vertex 5 -2.84041 -4
      vertex 18.5 -3.53553 -3.53553
    endloop
  endfacet
  facet normal 1.85582e-16 -0.55557 -0.83147
    outer loop
      vertex 18.5 -3.53553 -3.53553
      vertex 5 -2.84041 -4
      vertex 18.5 -2.84041 -4
    endloop
  endfacet
  facet normal 1 0 0
    outer loop
      vertex 18.5 -4.6194 -1.91342
      vertex 18.5 -3.53553 -3.53553
      vertex 18.5 -2.84041 -4
    endloop
  endfacet
  facet normal 1 -0 0
    outer loop
      vertex 18.5 -1.65 -2.85788
      vertex 18.5 -4.6194 -1.91342
      vertex 18.5 -2.84041 -4
    endloop
  endfacet
  facet normal 1 0 -0
    outer loop
      vertex 18.5 -3.53553 3.53553
      vertex 18.5 -4.6194 -1.91342
      vertex 18.5 -2.84041 4
    endloop
  endfacet
  facet normal 1 0 -0
    outer loop
      vertex 18.5 -4.6194 1.91342
      vertex 18.5 -4.6194 -1.91342
      vertex 18.5 -3.53553 3.53553
    endloop
  endfacet
  facet normal 1 0 0
    outer loop
      vertex 18.5 -5 4.10783e-15
      vertex 18.5 -4.6194 -1.91342
      vertex 18.5 -4.6194 1.91342
    endloop
  endfacet
  facet normal 1 0 0
    outer loop
      vertex 18.5 -2.84041 4
      vertex 18.5 -4.6194 -1.91342
      vertex 18.5 -3.3 -8.37557e-08
    endloop
  endfacet
  facet normal 1 0 0
    outer loop
      vertex 18.5 -2.84041 4
      vertex 18.5 -1.65 2.85788
      vertex 18.5 5.5 4
    endloop
  endfacet
  facet normal 1 0 -0
    outer loop
      vertex 18.5 -2.84041 4
      vertex 18.5 -3.3 -8.37557e-08
      vertex 18.5 -1.65 2.85788
    endloop
  endfacet
  facet normal 1 0 0
    outer loop
      vertex 18.5 -1.65 2.85788
      vertex 18.5 1.65 2.85788
      vertex 18.5 5.5 4
    endloop
  endfacet
  facet normal 1 0 0
    outer loop
      vertex 18.5 5.5 4
      vertex 18.5 3.3 8.37557e-08
      vertex 18.5 5.5 -4
    endloop
  endfacet
  facet normal 1 0 0
    outer loop
      vertex 18.5 1.65 2.85788
      vertex 18.5 3.3 8.37557e-08
      vertex 18.5 5.5 4
    endloop
  endfacet
  facet normal 1 0 -0
    outer loop
      vertex 18.5 3.3 8.37557e-08
      vertex 18.5 1.65 -2.85788
      vertex 18.5 5.5 -4
    endloop
  endfacet
  facet normal 1 -0 0
    outer loop
      vertex 18.5 5.5 -4
      vertex 18.5 -1.65 -2.85788
      vertex 18.5 -2.84041 -4
    endloop
  endfacet
  facet normal 1 0 -0
    outer loop
      vertex 18.5 1.65 -2.85788
      vertex 18.5 -1.65 -2.85788
      vertex 18.5 5.5 -4
    endloop
  endfacet
  facet normal 1 0 0
    outer loop
      vertex 18.5 -1.65 -2.85788
      vertex 18.5 -3.3 -8.37557e-08
      vertex 18.5 -4.6194 -1.91342
    endloop
  endfacet
  facet normal 0.991445 -0.130526 0
    outer loop
      vertex 18.7215 7.18232 -4
      vertex 18.7215 7.18232 4
      vertex 18.5 5.5 4
    endloop
  endfacet
  facet normal 0.991445 -0.130526 0
    outer loop
      vertex 18.5 5.5 -4
      vertex 18.7215 7.18232 -4
      vertex 18.5 5.5 4
    endloop
  endfacet
  facet normal 0.923879 -0.382684 0
    outer loop
      vertex 19.3708 8.75 -4
      vertex 19.3708 8.75 4
      vertex 18.7215 7.18232 4
    endloop
  endfacet
  facet normal 0.923879 -0.382684 0
    outer loop
      vertex 18.7215 7.18232 -4
      vertex 19.3708 8.75 -4
      vertex 18.7215 7.18232 4
    endloop
  endfacet
  facet normal 0.793353 -0.608761 0
    outer loop
      vertex 20.4038 10.0962 -4
      vertex 20.4038 10.0962 4
      vertex 19.3708 8.75 4
    endloop
  endfacet
  facet normal 0.793353 -0.608761 0
    outer loop
      vertex 19.3708 8.75 -4
      vertex 20.4038 10.0962 -4
      vertex 19.3708 8.75 4
    endloop
  endfacet
  facet normal 0.608761 -0.793353 0
    outer loop
      vertex 21.75 11.1292 -4
      vertex 21.75 11.1292 4
      vertex 20.4038 10.0962 4
    endloop
  endfacet
  facet normal 0.608761 -0.793353 0
    outer loop
      vertex 20.4038 10.0962 -4
      vertex 21.75 11.1292 -4
      vertex 20.4038 10.0962 4
    endloop
  endfacet
  facet normal 0.382684 -0.923879 0
    outer loop
      vertex 23.3177 11.7785 -4
      vertex 23.3177 11.7785 4
      vertex 21.75 11.1292 4
    endloop
  endfacet
  facet normal 0.382684 -0.923879 0
    outer loop
      vertex 21.75 11.1292 -4
      vertex 23.3177 11.7785 -4
      vertex 21.75 11.1292 4
    endloop
  endfacet
  facet normal 0.130526 -0.991445 0
    outer loop
      vertex 25 12 -4
      vertex 25 12 4
      vertex 23.3177 11.7785 4
    endloop
  endfacet
  facet normal 0.130526 -0.991445 0
    outer loop
      vertex 23.3177 11.7785 -4
      vertex 25 12 -4
      vertex 23.3177 11.7785 4
    endloop
  endfacet
  facet normal -0.130526 -0.991445 -0
    outer loop
      vertex 26.6823 11.7785 -4
      vertex 26.6823 11.7785 4
      vertex 25 12 4
    endloop
  endfacet
  facet normal -0.130526 -0.991445 -0
    outer loop
      vertex 25 12 -4
      vertex 26.6823 11.7785 -4
      vertex 25 12 4
    endloop
  endfacet
  facet normal -0.382684 -0.923879 -0
    outer loop
      vertex 28.25 11.1292 -4
      vertex 28.25 11.1292 4
      vertex 26.6823 11.7785 4
    endloop
  endfacet
  facet normal -0.382684 -0.923879 -0
    outer loop
      vertex 26.6823 11.7785 -4
      vertex 28.25 11.1292 -4
      vertex 26.6823 11.7785 4
    endloop
  endfacet
  facet normal -0.608761 -0.793353 -0
    outer loop
      vertex 29.5962 10.0962 -4
      vertex 29.5962 10.0962 4
      vertex 28.25 11.1292 4
    endloop
  endfacet
  facet normal -0.608761 -0.793353 -0
    outer loop
      vertex 28.25 11.1292 -4
      vertex 29.5962 10.0962 -4
      vertex 28.25 11.1292 4
    endloop
  endfacet
  facet normal -0.793353 -0.608761 0
    outer loop
      vertex 30.6292 8.75 4
      vertex 29.5962 10.0962 4
      vertex 30.6292 8.75 -4
    endloop
  endfacet
  facet normal -0.793353 -0.608761 0
    outer loop
      vertex 30.6292 8.75 -4
      vertex 29.5962 10.0962 4
      vertex 29.5962 10.0962 -4
    endloop
  endfacet
  facet normal -0.923879 -0.382684 0
    outer loop
      vertex 31.2785 7.18232 4
      vertex 30.6292 8.75 4
      vertex 31.2785 7.18232 -4
    endloop
  endfacet
  facet normal -0.923879 -0.382684 0
    outer loop
      vertex 31.2785 7.18232 -4
      vertex 30.6292 8.75 4
      vertex 30.6292 8.75 -4
    endloop
  endfacet
  facet normal -0.991445 -0.130526 0
    outer loop
      vertex 31.5 5.5 4
      vertex 31.2785 7.18232 4
      vertex 31.5 5.5 -4
    endloop
  endfacet
  facet normal -0.991445 -0.130526 0
    outer loop
      vertex 31.5 5.5 -4
      vertex 31.2785 7.18232 4
      vertex 31.2785 7.18232 -4
    endloop
  endfacet
  facet normal -1 -0 0
    outer loop
      vertex 31.5 -3.53553 3.53553
      vertex 31.5 -2.84041 4
      vertex 31.5 -4.6194 1.91342
    endloop
  endfacet
  facet normal -1 0 -0
    outer loop
      vertex 31.5 -1.65 2.85788
      vertex 31.5 -2.84041 4
      vertex 31.5 5.5 4
    endloop
  endfacet
  facet normal -1 -0 0
    outer loop
      vertex 31.5 3.3 8.37557e-08
      vertex 31.5 5.5 4
      vertex 31.5 5.5 -4
    endloop
  endfacet
  facet normal -1 0 0
    outer loop
      vertex 31.5 -1.65 -2.85788
      vertex 31.5 5.5 -4
      vertex 31.5 -2.84041 -4
    endloop
  endfacet
  facet normal -1 0 0
    outer loop
      vertex 31.5 -4.6194 1.91342
      vertex 31.5 -2.84041 -4
      vertex 31.5 -3.53553 -3.53553
    endloop
  endfacet
  facet normal -1 0 0
    outer loop
      vertex 31.5 -4.6194 1.91342
      vertex 31.5 -3.53553 -3.53553
      vertex 31.5 -4.6194 -1.91342
    endloop
  endfacet
  facet normal -1 0 0
    outer loop
      vertex 31.5 -4.6194 1.91342
      vertex 31.5 -4.6194 -1.91342
      vertex 31.5 -5 6.99441e-15
    endloop
  endfacet
  facet normal -1 0 0
    outer loop
      vertex 31.5 1.65 -2.85788
      vertex 31.5 5.5 -4
      vertex 31.5 -1.65 -2.85788
    endloop
  endfacet
  facet normal -1 0 0
    outer loop
      vertex 31.5 -4.6194 1.91342
      vertex 31.5 -1.65 -2.85788
      vertex 31.5 -2.84041 -4
    endloop
  endfacet
  facet normal -1 -0 0
    outer loop
      vertex 31.5 1.65 2.85788
      vertex 31.5 5.5 4
      vertex 31.5 3.3 8.37557e-08
    endloop
  endfacet
  facet normal -1 0 0
    outer loop
      vertex 31.5 -1.65 2.85788
      vertex 31.5 5.5 4
      vertex 31.5 1.65 2.85788
    endloop
  endfacet
  facet normal -1 0 0
    outer loop
      vertex 31.5 -4.6194 1.91342
      vertex 31.5 -2.84041 4
      vertex 31.5 -1.65 2.85788
    endloop
  endfacet
  facet normal -1 0 -0
    outer loop
      vertex 31.5 -3.3 -8.37557e-08
      vertex 31.5 -4.6194 1.91342
      vertex 31.5 -1.65 2.85788
    endloop
  endfacet
  facet normal -1 0 0
    outer loop
      vertex 31.5 -4.6194 1.91342
      vertex 31.5 -3.3 -8.37557e-08
      vertex 31.5 -1.65 -2.85788
    endloop
  endfacet
  facet normal -1 0 0
    outer loop
      vertex 31.5 3.3 8.37557e-08
      vertex 31.5 5.5 -4
      vertex 31.5 1.65 -2.85788
    endloop
  endfacet
  facet normal 1.91461e-16 -0.55557 -0.83147
    outer loop
      vertex 31.5 -3.53553 -3.53553
      vertex 31.5 -2.84041 -4
      vertex 45 -3.53553 -3.53553
    endloop
  endfacet
  facet normal 1.8208e-16 -0.55557 -0.83147
    outer loop
      vertex 45 -3.53553 -3.53553
      vertex 31.5 -2.84041 -4
      vertex 45 -2.84041 -4
    endloop
  endfacet
  facet normal 1 0 0
    outer loop
      vertex 45 -1.55 9.99201e-15
      vertex 45 -5 9.99201e-15
      vertex 45 -4.6194 -1.91342
    endloop
  endfacet
  facet normal 1 0 0
    outer loop
      vertex 45 -2.84041 -4
      vertex 45 -1.55 9.99201e-15
      vertex 45 -3.53553 -3.53553
    endloop
  endfacet
  facet normal 1 0 0
    outer loop
      vertex 45 -3.53553 -3.53553
      vertex 45 -1.55 9.99201e-15
      vertex 45 -4.6194 -1.91342
    endloop
  endfacet
  facet normal 1 0 -0
    outer loop
      vertex 45 1.55 9.99201e-15
      vertex 45 1.34234 -0.775
      vertex 45 16 -4
    endloop
  endfacet
  facet normal 1 -0 0
    outer loop
      vertex 45 -1.34234 -0.775
      vertex 45 -1.55 9.99201e-15
      vertex 45 -2.84041 -4
    endloop
  endfacet
  facet normal 1 0 0
    outer loop
      vertex 45 0.775 -1.34234
      vertex 45 0 -1.55
      vertex 45 -2.84041 -4
    endloop
  endfacet
  facet normal 1 0 0
    outer loop
      vertex 45 1.34234 0.775
      vertex 45 1.55 9.99201e-15
      vertex 45 16 4
    endloop
  endfacet
  facet normal 1 0 -0
    outer loop
      vertex 45 0 4
      vertex 45 0 1.55
      vertex 45 16 4
    endloop
  endfacet
  facet normal 1 0 0
    outer loop
      vertex 45 0 1.55
      vertex 45 0.775 1.34234
      vertex 45 16 4
    endloop
  endfacet
  facet normal 1 0 0
    outer loop
      vertex 45 16 4
      vertex 45 1.55 9.99201e-15
      vertex 45 16 -4
    endloop
  endfacet
  facet normal 1 -0 0
    outer loop
      vertex 45 16 -4
      vertex 45 0.775 -1.34234
      vertex 45 -2.84041 -4
    endloop
  endfacet
  facet normal 1 0 0
    outer loop
      vertex 45 16 -4
      vertex 45 1.34234 -0.775
      vertex 45 0.775 -1.34234
    endloop
  endfacet
  facet normal 1 -0 0
    outer loop
      vertex 45 0 -1.55
      vertex 45 -0.775 -1.34234
      vertex 45 -2.84041 -4
    endloop
  endfacet
  facet normal 1 -0 0
    outer loop
      vertex 45 -0.775 -1.34234
      vertex 45 -1.34234 -0.775
      vertex 45 -2.84041 -4
    endloop
  endfacet
  facet normal 1 0 0
    outer loop
      vertex 45 0.775 1.34234
      vertex 45 1.34234 0.775
      vertex 45 16 4
    endloop
  endfacet
  facet normal 1 0 0
    outer loop
      vertex 45 0 4
      vertex 45 -2.84041 4
      vertex 45 -3.53553 3.53553
    endloop
  endfacet
  facet normal 1 -1.84297e-15 4.08006e-15
    outer loop
      vertex 45 -5 9.99201e-15
      vertex 45 0 4
      vertex 45 -4.6194 1.91342
    endloop
  endfacet
  facet normal 1 0 0
    outer loop
      vertex 45 -4.6194 1.91342
      vertex 45 0 4
      vertex 45 -3.53553 3.53553
    endloop
  endfacet
  facet normal 1 2.13051e-15 -8.8678e-16
    outer loop
      vertex 45 -1.34234 0.775
      vertex 45 0 4
      vertex 45 -5 9.99201e-15
    endloop
  endfacet
  facet normal 1 -0 9.16829e-15
    outer loop
      vertex 45 -1.55 9.99201e-15
      vertex 45 -1.34234 0.775
      vertex 45 -5 9.99201e-15
    endloop
  endfacet
  facet normal 1 -0 0
    outer loop
      vertex 45 0 1.55
      vertex 45 0 4
      vertex 45 -0.775 1.34234
    endloop
  endfacet
  facet normal 1 0 0
    outer loop
      vertex 45 -1.34234 0.775
      vertex 45 -0.775 1.34234
      vertex 45 0 4
    endloop
  endfacet
  facet normal -1.96086e-16 -0.55557 0.83147
    outer loop
      vertex 31.5 -2.84041 4
      vertex 31.5 -3.53553 3.53553
      vertex 45 -3.53553 3.53553
    endloop
  endfacet
  facet normal -1.82758e-16 -0.55557 0.83147
    outer loop
      vertex 45 -2.84041 4
      vertex 31.5 -2.84041 4
      vertex 45 -3.53553 3.53553
    endloop
  endfacet
  facet normal -1.96086e-16 -0.55557 0.83147
    outer loop
      vertex 5 -2.84041 4
      vertex 5 -3.53553 3.53553
      vertex 18.5 -3.53553 3.53553
    endloop
  endfacet
  facet normal -1.82758e-16 -0.55557 0.83147
    outer loop
      vertex 18.5 -2.84041 4
      vertex 5 -2.84041 4
      vertex 18.5 -3.53553 3.53553
    endloop
  endfacet
  facet normal -1.89083e-16 -0.55557 0.83147
    outer loop
      vertex -18.5 -2.84041 4
      vertex -18.5 -3.53553 3.53553
      vertex -5 -3.53553 3.53553
    endloop
  endfacet
  facet normal -1.82758e-16 -0.55557 0.83147
    outer loop
      vertex -5 -2.84041 4
      vertex -18.5 -2.84041 4
      vertex -5 -3.53553 3.53553
    endloop
  endfacet
  facet normal 1.11022e-16 0.866025 -0.5
    outer loop
      vertex -31.5 -3.3 -8.37557e-08
      vertex -33.5 -3.3 -8.37557e-08
      vertex -31.5 -1.65 2.85788
    endloop
  endfacet
  facet normal 1.11022e-16 0.866025 -0.5
    outer loop
      vertex -31.5 -1.65 2.85788
      vertex -33.5 -3.3 -8.37557e-08
      vertex -33.5 -1.65 2.85788
    endloop
  endfacet
  facet normal -1.11022e-16 0.866025 0.5
    outer loop
      vertex -31.5 -1.65 -2.85788
      vertex -33.5 -1.65 -2.85788
      vertex -31.5 -3.3 -8.37557e-08
    endloop
  endfacet
  facet normal -1.11022e-16 0.866025 0.5
    outer loop
      vertex -31.5 -3.3 -8.37557e-08
      vertex -33.5 -1.65 -2.85788
      vertex -33.5 -3.3 -8.37557e-08
    endloop
  endfacet
  facet normal -2.22045e-16 -2.53805e-08 1
    outer loop
      vertex -33.5 -1.65 -2.85788
      vertex -31.5 -1.65 -2.85788
      vertex -31.5 1.65 -2.85788
    endloop
  endfacet
  facet normal -2.22045e-16 -2.53805e-08 1
    outer loop
      vertex -33.5 1.65 -2.85788
      vertex -33.5 -1.65 -2.85788
      vertex -31.5 1.65 -2.85788
    endloop
  endfacet
  facet normal -1.11022e-16 -0.866025 0.5
    outer loop
      vertex -33.5 1.65 -2.85788
      vertex -31.5 1.65 -2.85788
      vertex -31.5 3.3 8.37557e-08
    endloop
  endfacet
  facet normal -1.11022e-16 -0.866025 0.5
    outer loop
      vertex -33.5 3.3 8.37557e-08
      vertex -33.5 1.65 -2.85788
      vertex -31.5 3.3 8.37557e-08
    endloop
  endfacet
  facet normal 1.11022e-16 -0.866025 -0.5
    outer loop
      vertex -33.5 3.3 8.37557e-08
      vertex -31.5 3.3 8.37557e-08
      vertex -31.5 1.65 2.85788
    endloop
  endfacet
  facet normal 1.11022e-16 -0.866025 -0.5
    outer loop
      vertex -33.5 1.65 2.85788
      vertex -33.5 3.3 8.37557e-08
      vertex -31.5 1.65 2.85788
    endloop
  endfacet
  facet normal 2.22045e-16 2.53805e-08 -1
    outer loop
      vertex -31.5 -1.65 2.85788
      vertex -33.5 -1.65 2.85788
      vertex -31.5 1.65 2.85788
    endloop
  endfacet
  facet normal 2.22045e-16 2.53805e-08 -1
    outer loop
      vertex -31.5 1.65 2.85788
      vertex -33.5 -1.65 2.85788
      vertex -33.5 1.65 2.85788
    endloop
  endfacet
  facet normal -4.20142e-17 -0.980785 0.19509
    outer loop
      vertex -18.5 -4.6194 1.91342
      vertex -18.5 -5 -4.10783e-15
      vertex -5 -5 -1.11022e-15
    endloop
  endfacet
  facet normal -4.49231e-17 -0.980785 0.19509
    outer loop
      vertex -5 -4.6194 1.91342
      vertex -18.5 -4.6194 1.91342
      vertex -5 -5 -1.11022e-15
    endloop
  endfacet
  facet normal -1.32045e-16 -0.83147 0.55557
    outer loop
      vertex -18.5 -3.53553 3.53553
      vertex -18.5 -4.6194 1.91342
      vertex -5 -4.6194 1.91342
    endloop
  endfacet
  facet normal -1.2793e-16 -0.83147 0.55557
    outer loop
      vertex -5 -3.53553 3.53553
      vertex -18.5 -3.53553 3.53553
      vertex -5 -4.6194 1.91342
    endloop
  endfacet
  facet normal 4.33187e-17 -0.980785 -0.19509
    outer loop
      vertex -5 -5 -1.11022e-15
      vertex -18.5 -5 -4.10783e-15
      vertex -18.5 -4.6194 -1.91342
    endloop
  endfacet
  facet normal 4.17143e-17 -0.980785 -0.19509
    outer loop
      vertex -5 -4.6194 -1.91342
      vertex -5 -5 -1.11022e-15
      vertex -18.5 -4.6194 -1.91342
    endloop
  endfacet
  facet normal 1.18792e-16 -0.83147 -0.55557
    outer loop
      vertex -5 -4.6194 -1.91342
      vertex -18.5 -4.6194 -1.91342
      vertex -18.5 -3.53553 -3.53553
    endloop
  endfacet
  facet normal 1.2793e-16 -0.83147 -0.55557
    outer loop
      vertex -5 -3.53553 -3.53553
      vertex -5 -4.6194 -1.91342
      vertex -18.5 -3.53553 -3.53553
    endloop
  endfacet
  facet normal -1.11022e-16 0.866025 0.5
    outer loop
      vertex -16.5 -1.65 -2.85788
      vertex -18.5 -1.65 -2.85788
      vertex -16.5 -3.3 -8.37557e-08
    endloop
  endfacet
  facet normal -1.11022e-16 0.866025 0.5
    outer loop
      vertex -16.5 -3.3 -8.37557e-08
      vertex -18.5 -1.65 -2.85788
      vertex -18.5 -3.3 -8.37557e-08
    endloop
  endfacet
  facet normal -2.22045e-16 -2.53805e-08 1
    outer loop
      vertex -16.5 -1.65 -2.85788
      vertex -16.5 1.65 -2.85788
      vertex -18.5 1.65 -2.85788
    endloop
  endfacet
  facet normal -2.22045e-16 -2.53805e-08 1
    outer loop
      vertex -18.5 -1.65 -2.85788
      vertex -16.5 -1.65 -2.85788
      vertex -18.5 1.65 -2.85788
    endloop
  endfacet
  facet normal 1.11022e-16 0.866025 -0.5
    outer loop
      vertex -16.5 -1.65 2.85788
      vertex -16.5 -3.3 -8.37557e-08
      vertex -18.5 -1.65 2.85788
    endloop
  endfacet
  facet normal 1.3739e-16 0.866025 -0.5
    outer loop
      vertex -18.5 -1.65 2.85788
      vertex -16.5 -3.3 -8.37557e-08
      vertex -18.5 -3.3 -8.37557e-08
    endloop
  endfacet
  facet normal 2.22045e-16 2.53805e-08 -1
    outer loop
      vertex -16.5 1.65 2.85788
      vertex -16.5 -1.65 2.85788
      vertex -18.5 1.65 2.85788
    endloop
  endfacet
  facet normal 2.22045e-16 2.53805e-08 -1
    outer loop
      vertex -18.5 1.65 2.85788
      vertex -16.5 -1.65 2.85788
      vertex -18.5 -1.65 2.85788
    endloop
  endfacet
  facet normal 1.11022e-16 -0.866025 -0.5
    outer loop
      vertex -18.5 3.3 8.37557e-08
      vertex -16.5 3.3 8.37557e-08
      vertex -16.5 1.65 2.85788
    endloop
  endfacet
  facet normal 1.11022e-16 -0.866025 -0.5
    outer loop
      vertex -18.5 1.65 2.85788
      vertex -18.5 3.3 8.37557e-08
      vertex -16.5 1.65 2.85788
    endloop
  endfacet
  facet normal -1.3739e-16 -0.866025 0.5
    outer loop
      vertex -16.5 1.65 -2.85788
      vertex -16.5 3.3 8.37557e-08
      vertex -18.5 3.3 8.37557e-08
    endloop
  endfacet
  facet normal -1.11022e-16 -0.866025 0.5
    outer loop
      vertex -18.5 1.65 -2.85788
      vertex -16.5 1.65 -2.85788
      vertex -18.5 3.3 8.37557e-08
    endloop
  endfacet
  facet normal -5.49708e-17 0.965926 0.258819
    outer loop
      vertex -5 -1.34234 -0.775
      vertex -16.5 -1.34234 -0.775
      vertex -5 -1.55 -1.11022e-15
    endloop
  endfacet
  facet normal -5.74695e-17 0.965926 0.258819
    outer loop
      vertex -5 -1.55 -1.11022e-15
      vertex -16.5 -1.34234 -0.775
      vertex -16.5 -1.55 -3.66374e-15
    endloop
  endfacet
  facet normal 5.74695e-17 0.965926 -0.258819
    outer loop
      vertex -5 -1.55 -1.11022e-15
      vertex -16.5 -1.55 -3.66374e-15
      vertex -5 -1.34234 0.775
    endloop
  endfacet
  facet normal 5.74695e-17 0.965926 -0.258819
    outer loop
      vertex -5 -1.34234 0.775
      vertex -16.5 -1.55 -3.66374e-15
      vertex -16.5 -1.34234 0.775
    endloop
  endfacet
  facet normal -1.50183e-16 0.707107 0.707107
    outer loop
      vertex -5 -0.775 -1.34234
      vertex -16.5 -0.775 -1.34234
      vertex -5 -1.34234 -0.775
    endloop
  endfacet
  facet normal -1.50183e-16 0.707107 0.707107
    outer loop
      vertex -5 -1.34234 -0.775
      vertex -16.5 -0.775 -1.34234
      vertex -16.5 -1.34234 -0.775
    endloop
  endfacet
  facet normal -2.05128e-16 0.258819 0.965926
    outer loop
      vertex -5 -0.775 -1.34234
      vertex -5 0 -1.55
      vertex -16.5 0 -1.55
    endloop
  endfacet
  facet normal -2.05153e-16 0.258819 0.965926
    outer loop
      vertex -16.5 -0.775 -1.34234
      vertex -5 -0.775 -1.34234
      vertex -16.5 0 -1.55
    endloop
  endfacet
  facet normal -2.05153e-16 -0.258819 0.965926
    outer loop
      vertex -16.5 0 -1.55
      vertex -5 0 -1.55
      vertex -5 0.775 -1.34234
    endloop
  endfacet
  facet normal -2.05153e-16 -0.258819 0.965926
    outer loop
      vertex -16.5 0.775 -1.34234
      vertex -16.5 0 -1.55
      vertex -5 0.775 -1.34234
    endloop
  endfacet
  facet normal -1.50183e-16 -0.707107 0.707107
    outer loop
      vertex -16.5 0.775 -1.34234
      vertex -5 0.775 -1.34234
      vertex -5 1.34234 -0.775
    endloop
  endfacet
  facet normal -1.50183e-16 -0.707107 0.707107
    outer loop
      vertex -16.5 1.34234 -0.775
      vertex -16.5 0.775 -1.34234
      vertex -5 1.34234 -0.775
    endloop
  endfacet
  facet normal -5.49708e-17 -0.965926 0.258819
    outer loop
      vertex -16.5 1.34234 -0.775
      vertex -5 1.34234 -0.775
      vertex -5 1.55 -1.11022e-15
    endloop
  endfacet
  facet normal -5.74695e-17 -0.965926 0.258819
    outer loop
      vertex -16.5 1.55 -3.66374e-15
      vertex -16.5 1.34234 -0.775
      vertex -5 1.55 -1.11022e-15
    endloop
  endfacet
  facet normal 5.74695e-17 -0.965926 -0.258819
    outer loop
      vertex -16.5 1.55 -3.66374e-15
      vertex -5 1.55 -1.11022e-15
      vertex -5 1.34234 0.775
    endloop
  endfacet
  facet normal 5.74695e-17 -0.965926 -0.258819
    outer loop
      vertex -16.5 1.34234 0.775
      vertex -16.5 1.55 -3.66374e-15
      vertex -5 1.34234 0.775
    endloop
  endfacet
  facet normal 1.57009e-16 -0.707107 -0.707107
    outer loop
      vertex -16.5 1.34234 0.775
      vertex -5 1.34234 0.775
      vertex -5 0.775 1.34234
    endloop
  endfacet
  facet normal 1.63836e-16 -0.707107 -0.707107
    outer loop
      vertex -16.5 0.775 1.34234
      vertex -16.5 1.34234 0.775
      vertex -5 0.775 1.34234
    endloop
  endfacet
  facet normal 2.23804e-16 -0.258819 -0.965926
    outer loop
      vertex -5 0.775 1.34234
      vertex -5 0 1.55
      vertex -16.5 0.775 1.34234
    endloop
  endfacet
  facet normal 2.26884e-16 -0.258819 -0.965926
    outer loop
      vertex -16.5 0.775 1.34234
      vertex -5 0 1.55
      vertex -16.5 0 1.55
    endloop
  endfacet
  facet normal 2.23804e-16 0.258819 -0.965926
    outer loop
      vertex -5 -0.775 1.34234
      vertex -16.5 -0.775 1.34234
      vertex -5 0 1.55
    endloop
  endfacet
  facet normal 2.23804e-16 0.258819 -0.965926
    outer loop
      vertex -5 0 1.55
      vertex -16.5 -0.775 1.34234
      vertex -16.5 0 1.55
    endloop
  endfacet
  facet normal 1.57009e-16 0.707107 -0.707107
    outer loop
      vertex -5 -1.34234 0.775
      vertex -16.5 -1.34234 0.775
      vertex -5 -0.775 1.34234
    endloop
  endfacet
  facet normal 1.63836e-16 0.707107 -0.707107
    outer loop
      vertex -5 -0.775 1.34234
      vertex -16.5 -1.34234 0.775
      vertex -16.5 -0.775 1.34234
    endloop
  endfacet
  facet normal -1.20041e-16 -0.83147 0.55557
    outer loop
      vertex 5 -3.53553 3.53553
      vertex 5 -4.6194 1.91342
      vertex 18.5 -4.6194 1.91342
    endloop
  endfacet
  facet normal -1.2793e-16 -0.83147 0.55557
    outer loop
      vertex 18.5 -3.53553 3.53553
      vertex 5 -3.53553 3.53553
      vertex 18.5 -4.6194 1.91342
    endloop
  endfacet
  facet normal -4.20142e-17 -0.980785 0.19509
    outer loop
      vertex 5 -4.6194 1.91342
      vertex 5 -5 1.11022e-15
      vertex 18.5 -5 4.10783e-15
    endloop
  endfacet
  facet normal -4.17143e-17 -0.980785 0.19509
    outer loop
      vertex 18.5 -4.6194 1.91342
      vertex 5 -4.6194 1.91342
      vertex 18.5 -5 4.10783e-15
    endloop
  endfacet
  facet normal 4.33187e-17 -0.980785 -0.19509
    outer loop
      vertex 18.5 -5 4.10783e-15
      vertex 5 -5 1.11022e-15
      vertex 5 -4.6194 -1.91342
    endloop
  endfacet
  facet normal 4.49231e-17 -0.980785 -0.19509
    outer loop
      vertex 18.5 -4.6194 -1.91342
      vertex 18.5 -5 4.10783e-15
      vertex 5 -4.6194 -1.91342
    endloop
  endfacet
  facet normal 1.2793e-16 -0.83147 -0.55557
    outer loop
      vertex 18.5 -4.6194 -1.91342
      vertex 5 -4.6194 -1.91342
      vertex 5 -3.53553 -3.53553
    endloop
  endfacet
  facet normal 1.2793e-16 -0.83147 -0.55557
    outer loop
      vertex 18.5 -3.53553 -3.53553
      vertex 18.5 -4.6194 -1.91342
      vertex 5 -3.53553 -3.53553
    endloop
  endfacet
  facet normal -1.63836e-16 0.707107 0.707107
    outer loop
      vertex 16.5 -0.775 -1.34234
      vertex 5 -0.775 -1.34234
      vertex 16.5 -1.34234 -0.775
    endloop
  endfacet
  facet normal -1.57009e-16 0.707107 0.707107
    outer loop
      vertex 16.5 -1.34234 -0.775
      vertex 5 -0.775 -1.34234
      vertex 5 -1.34234 -0.775
    endloop
  endfacet
  facet normal -5.74695e-17 0.965926 0.258819
    outer loop
      vertex 16.5 -1.34234 -0.775
      vertex 5 -1.34234 -0.775
      vertex 16.5 -1.55 3.66374e-15
    endloop
  endfacet
  facet normal -5.74695e-17 0.965926 0.258819
    outer loop
      vertex 16.5 -1.55 3.66374e-15
      vertex 5 -1.34234 -0.775
      vertex 5 -1.55 1.11022e-15
    endloop
  endfacet
  facet normal 5.49708e-17 0.965926 -0.258819
    outer loop
      vertex 16.5 -1.34234 0.775
      vertex 16.5 -1.55 3.66374e-15
      vertex 5 -1.34234 0.775
    endloop
  endfacet
  facet normal 5.90519e-17 0.965926 -0.258819
    outer loop
      vertex 5 -1.34234 0.775
      vertex 16.5 -1.55 3.66374e-15
      vertex 5 -1.55 1.11022e-15
    endloop
  endfacet
  facet normal 1.50183e-16 0.707107 -0.707107
    outer loop
      vertex 16.5 -0.775 1.34234
      vertex 16.5 -1.34234 0.775
      vertex 5 -0.775 1.34234
    endloop
  endfacet
  facet normal 1.554e-16 0.707107 -0.707107
    outer loop
      vertex 5 -0.775 1.34234
      vertex 16.5 -1.34234 0.775
      vertex 5 -1.34234 0.775
    endloop
  endfacet
  facet normal 2.05153e-16 0.258819 -0.965926
    outer loop
      vertex 16.5 0 1.55
      vertex 16.5 -0.775 1.34234
      vertex 5 0 1.55
    endloop
  endfacet
  facet normal 2.05128e-16 0.258819 -0.965926
    outer loop
      vertex 5 0 1.55
      vertex 16.5 -0.775 1.34234
      vertex 5 -0.775 1.34234
    endloop
  endfacet
  facet normal 2.05153e-16 -0.258819 -0.965926
    outer loop
      vertex 16.5 0.775 1.34234
      vertex 16.5 0 1.55
      vertex 5 0.775 1.34234
    endloop
  endfacet
  facet normal 2.05128e-16 -0.258819 -0.965926
    outer loop
      vertex 5 0.775 1.34234
      vertex 16.5 0 1.55
      vertex 5 0 1.55
    endloop
  endfacet
  facet normal 1.50183e-16 -0.707107 -0.707107
    outer loop
      vertex 5 1.34234 0.775
      vertex 16.5 1.34234 0.775
      vertex 16.5 0.775 1.34234
    endloop
  endfacet
  facet normal 1.50183e-16 -0.707107 -0.707107
    outer loop
      vertex 5 0.775 1.34234
      vertex 5 1.34234 0.775
      vertex 16.5 0.775 1.34234
    endloop
  endfacet
  facet normal 5.74695e-17 -0.965926 -0.258819
    outer loop
      vertex 5 1.55 1.11022e-15
      vertex 16.5 1.55 3.66374e-15
      vertex 16.5 1.34234 0.775
    endloop
  endfacet
  facet normal 5.49708e-17 -0.965926 -0.258819
    outer loop
      vertex 5 1.34234 0.775
      vertex 5 1.55 1.11022e-15
      vertex 16.5 1.34234 0.775
    endloop
  endfacet
  facet normal -5.59439e-17 -0.965926 0.258819
    outer loop
      vertex 16.5 1.34234 -0.775
      vertex 16.5 1.55 3.66374e-15
      vertex 5 1.55 1.11022e-15
    endloop
  endfacet
  facet normal -5.74695e-17 -0.965926 0.258819
    outer loop
      vertex 5 1.34234 -0.775
      vertex 16.5 1.34234 -0.775
      vertex 5 1.55 1.11022e-15
    endloop
  endfacet
  facet normal -1.554e-16 -0.707107 0.707107
    outer loop
      vertex 16.5 0.775 -1.34234
      vertex 16.5 1.34234 -0.775
      vertex 5 1.34234 -0.775
    endloop
  endfacet
  facet normal -1.63836e-16 -0.707107 0.707107
    outer loop
      vertex 5 0.775 -1.34234
      vertex 16.5 0.775 -1.34234
      vertex 5 1.34234 -0.775
    endloop
  endfacet
  facet normal -2.23776e-16 -0.258819 0.965926
    outer loop
      vertex 16.5 0 -1.55
      vertex 16.5 0.775 -1.34234
      vertex 5 0.775 -1.34234
    endloop
  endfacet
  facet normal -2.23804e-16 -0.258819 0.965926
    outer loop
      vertex 5 0 -1.55
      vertex 16.5 0 -1.55
      vertex 5 0.775 -1.34234
    endloop
  endfacet
  facet normal -2.26884e-16 0.258819 0.965926
    outer loop
      vertex 16.5 -0.775 -1.34234
      vertex 16.5 0 -1.55
      vertex 5 0 -1.55
    endloop
  endfacet
  facet normal -2.23804e-16 0.258819 0.965926
    outer loop
      vertex 5 -0.775 -1.34234
      vertex 16.5 -0.775 -1.34234
      vertex 5 0 -1.55
    endloop
  endfacet
  facet normal 1.11022e-16 0.866025 -0.5
    outer loop
      vertex 18.5 -3.3 -8.37557e-08
      vertex 16.5 -3.3 -8.37557e-08
      vertex 18.5 -1.65 2.85788
    endloop
  endfacet
  facet normal 1.11022e-16 0.866025 -0.5
    outer loop
      vertex 18.5 -1.65 2.85788
      vertex 16.5 -3.3 -8.37557e-08
      vertex 16.5 -1.65 2.85788
    endloop
  endfacet
  facet normal -1.11022e-16 0.866025 0.5
    outer loop
      vertex 18.5 -1.65 -2.85788
      vertex 16.5 -1.65 -2.85788
      vertex 18.5 -3.3 -8.37557e-08
    endloop
  endfacet
  facet normal -1.11022e-16 0.866025 0.5
    outer loop
      vertex 18.5 -3.3 -8.37557e-08
      vertex 16.5 -1.65 -2.85788
      vertex 16.5 -3.3 -8.37557e-08
    endloop
  endfacet
  facet normal -2.22045e-16 -2.53805e-08 1
    outer loop
      vertex 16.5 -1.65 -2.85788
      vertex 18.5 -1.65 -2.85788
      vertex 18.5 1.65 -2.85788
    endloop
  endfacet
  facet normal -2.22045e-16 -2.53805e-08 1
    outer loop
      vertex 16.5 1.65 -2.85788
      vertex 16.5 -1.65 -2.85788
      vertex 18.5 1.65 -2.85788
    endloop
  endfacet
  facet normal -1.11022e-16 -0.866025 0.5
    outer loop
      vertex 16.5 1.65 -2.85788
      vertex 18.5 1.65 -2.85788
      vertex 18.5 3.3 8.37557e-08
    endloop
  endfacet
  facet normal -1.11022e-16 -0.866025 0.5
    outer loop
      vertex 16.5 3.3 8.37557e-08
      vertex 16.5 1.65 -2.85788
      vertex 18.5 3.3 8.37557e-08
    endloop
  endfacet
  facet normal 1.11022e-16 -0.866025 -0.5
    outer loop
      vertex 16.5 3.3 8.37557e-08
      vertex 18.5 3.3 8.37557e-08
      vertex 18.5 1.65 2.85788
    endloop
  endfacet
  facet normal 1.11022e-16 -0.866025 -0.5
    outer loop
      vertex 16.5 1.65 2.85788
      vertex 16.5 3.3 8.37557e-08
      vertex 18.5 1.65 2.85788
    endloop
  endfacet
  facet normal 2.22045e-16 2.53805e-08 -1
    outer loop
      vertex 18.5 -1.65 2.85788
      vertex 16.5 -1.65 2.85788
      vertex 18.5 1.65 2.85788
    endloop
  endfacet
  facet normal 2.22045e-16 2.53805e-08 -1
    outer loop
      vertex 18.5 1.65 2.85788
      vertex 16.5 -1.65 2.85788
      vertex 16.5 1.65 2.85788
    endloop
  endfacet
  facet normal -4.20142e-17 -0.980785 0.19509
    outer loop
      vertex 31.5 -4.6194 1.91342
      vertex 31.5 -5 6.99441e-15
      vertex 45 -5 9.99201e-15
    endloop
  endfacet
  facet normal -4.49231e-17 -0.980785 0.19509
    outer loop
      vertex 45 -4.6194 1.91342
      vertex 31.5 -4.6194 1.91342
      vertex 45 -5 9.99201e-15
    endloop
  endfacet
  facet normal -1.20041e-16 -0.83147 0.55557
    outer loop
      vertex 31.5 -3.53553 3.53553
      vertex 31.5 -4.6194 1.91342
      vertex 45 -4.6194 1.91342
    endloop
  endfacet
  facet normal -1.2793e-16 -0.83147 0.55557
    outer loop
      vertex 45 -3.53553 3.53553
      vertex 31.5 -3.53553 3.53553
      vertex 45 -4.6194 1.91342
    endloop
  endfacet
  facet normal 4.33187e-17 -0.980785 -0.19509
    outer loop
      vertex 45 -5 9.99201e-15
      vertex 31.5 -5 6.99441e-15
      vertex 31.5 -4.6194 -1.91342
    endloop
  endfacet
  facet normal 4.17143e-17 -0.980785 -0.19509
    outer loop
      vertex 45 -4.6194 -1.91342
      vertex 45 -5 9.99201e-15
      vertex 31.5 -4.6194 -1.91342
    endloop
  endfacet
  facet normal 1.18792e-16 -0.83147 -0.55557
    outer loop
      vertex 45 -4.6194 -1.91342
      vertex 31.5 -4.6194 -1.91342
      vertex 31.5 -3.53553 -3.53553
    endloop
  endfacet
  facet normal 1.2793e-16 -0.83147 -0.55557
    outer loop
      vertex 45 -3.53553 -3.53553
      vertex 45 -4.6194 -1.91342
      vertex 31.5 -3.53553 -3.53553
    endloop
  endfacet
  facet normal -1.11022e-16 0.866025 0.5
    outer loop
      vertex 33.5 -1.65 -2.85788
      vertex 31.5 -1.65 -2.85788
      vertex 33.5 -3.3 -8.37557e-08
    endloop
  endfacet
  facet normal -1.11022e-16 0.866025 0.5
    outer loop
      vertex 33.5 -3.3 -8.37557e-08
      vertex 31.5 -1.65 -2.85788
      vertex 31.5 -3.3 -8.37557e-08
    endloop
  endfacet
  facet normal -2.22045e-16 -2.53805e-08 1
    outer loop
      vertex 33.5 -1.65 -2.85788
      vertex 33.5 1.65 -2.85788
      vertex 31.5 1.65 -2.85788
    endloop
  endfacet
  facet normal -2.22045e-16 -2.53805e-08 1
    outer loop
      vertex 31.5 -1.65 -2.85788
      vertex 33.5 -1.65 -2.85788
      vertex 31.5 1.65 -2.85788
    endloop
  endfacet
  facet normal 1.11022e-16 0.866025 -0.5
    outer loop
      vertex 33.5 -1.65 2.85788
      vertex 33.5 -3.3 -8.37557e-08
      vertex 31.5 -1.65 2.85788
    endloop
  endfacet
  facet normal 1.3739e-16 0.866025 -0.5
    outer loop
      vertex 31.5 -1.65 2.85788
      vertex 33.5 -3.3 -8.37557e-08
      vertex 31.5 -3.3 -8.37557e-08
    endloop
  endfacet
  facet normal 2.22045e-16 2.53805e-08 -1
    outer loop
      vertex 33.5 1.65 2.85788
      vertex 33.5 -1.65 2.85788
      vertex 31.5 1.65 2.85788
    endloop
  endfacet
  facet normal 2.22045e-16 2.53805e-08 -1
    outer loop
      vertex 31.5 1.65 2.85788
      vertex 33.5 -1.65 2.85788
      vertex 31.5 -1.65 2.85788
    endloop
  endfacet
  facet normal 1.11022e-16 -0.866025 -0.5
    outer loop
      vertex 31.5 3.3 8.37557e-08
      vertex 33.5 3.3 8.37557e-08
      vertex 33.5 1.65 2.85788
    endloop
  endfacet
  facet normal 1.11022e-16 -0.866025 -0.5
    outer loop
      vertex 31.5 1.65 2.85788
      vertex 31.5 3.3 8.37557e-08
      vertex 33.5 1.65 2.85788
    endloop
  endfacet
  facet normal -1.3739e-16 -0.866025 0.5
    outer loop
      vertex 33.5 1.65 -2.85788
      vertex 33.5 3.3 8.37557e-08
      vertex 31.5 3.3 8.37557e-08
    endloop
  endfacet
  facet normal -1.11022e-16 -0.866025 0.5
    outer loop
      vertex 31.5 1.65 -2.85788
      vertex 33.5 1.65 -2.85788
      vertex 31.5 3.3 8.37557e-08
    endloop
  endfacet
  facet normal 5.74695e-17 0.965926 -0.258819
    outer loop
      vertex 45 -1.55 9.99201e-15
      vertex 33.5 -1.55 7.43849e-15
      vertex 45 -1.34234 0.775
    endloop
  endfacet
  facet normal 5.99681e-17 0.965926 -0.258819
    outer loop
      vertex 45 -1.34234 0.775
      vertex 33.5 -1.55 7.43849e-15
      vertex 33.5 -1.34234 0.775
    endloop
  endfacet
  facet normal -5.74695e-17 0.965926 0.258819
    outer loop
      vertex 45 -1.34234 -0.775
      vertex 33.5 -1.34234 -0.775
      vertex 45 -1.55 9.99201e-15
    endloop
  endfacet
  facet normal -5.74695e-17 0.965926 0.258819
    outer loop
      vertex 45 -1.55 9.99201e-15
      vertex 33.5 -1.34234 -0.775
      vertex 33.5 -1.55 7.43849e-15
    endloop
  endfacet
  facet normal -1.50183e-16 0.707107 0.707107
    outer loop
      vertex 45 -0.775 -1.34234
      vertex 33.5 -0.775 -1.34234
      vertex 45 -1.34234 -0.775
    endloop
  endfacet
  facet normal -1.57009e-16 0.707107 0.707107
    outer loop
      vertex 45 -1.34234 -0.775
      vertex 33.5 -0.775 -1.34234
      vertex 33.5 -1.34234 -0.775
    endloop
  endfacet
  facet normal -2.05128e-16 0.258819 0.965926
    outer loop
      vertex 45 -0.775 -1.34234
      vertex 45 0 -1.55
      vertex 33.5 0 -1.55
    endloop
  endfacet
  facet normal -2.05153e-16 0.258819 0.965926
    outer loop
      vertex 33.5 -0.775 -1.34234
      vertex 45 -0.775 -1.34234
      vertex 33.5 0 -1.55
    endloop
  endfacet
  facet normal -2.05153e-16 -0.258819 0.965926
    outer loop
      vertex 33.5 0 -1.55
      vertex 45 0 -1.55
      vertex 45 0.775 -1.34234
    endloop
  endfacet
  facet normal -2.05153e-16 -0.258819 0.965926
    outer loop
      vertex 33.5 0.775 -1.34234
      vertex 33.5 0 -1.55
      vertex 45 0.775 -1.34234
    endloop
  endfacet
  facet normal -1.50183e-16 -0.707107 0.707107
    outer loop
      vertex 33.5 0.775 -1.34234
      vertex 45 0.775 -1.34234
      vertex 45 1.34234 -0.775
    endloop
  endfacet
  facet normal -1.57009e-16 -0.707107 0.707107
    outer loop
      vertex 33.5 1.34234 -0.775
      vertex 33.5 0.775 -1.34234
      vertex 45 1.34234 -0.775
    endloop
  endfacet
  facet normal -5.74695e-17 -0.965926 0.258819
    outer loop
      vertex 33.5 1.34234 -0.775
      vertex 45 1.34234 -0.775
      vertex 45 1.55 9.99201e-15
    endloop
  endfacet
  facet normal -5.74695e-17 -0.965926 0.258819
    outer loop
      vertex 33.5 1.55 7.43849e-15
      vertex 33.5 1.34234 -0.775
      vertex 45 1.55 9.99201e-15
    endloop
  endfacet
  facet normal 5.74695e-17 -0.965926 -0.258819
    outer loop
      vertex 33.5 1.55 7.43849e-15
      vertex 45 1.55 9.99201e-15
      vertex 45 1.34234 0.775
    endloop
  endfacet
  facet normal 5.99681e-17 -0.965926 -0.258819
    outer loop
      vertex 33.5 1.34234 0.775
      vertex 33.5 1.55 7.43849e-15
      vertex 45 1.34234 0.775
    endloop
  endfacet
  facet normal 1.63836e-16 -0.707107 -0.707107
    outer loop
      vertex 33.5 1.34234 0.775
      vertex 45 1.34234 0.775
      vertex 45 0.775 1.34234
    endloop
  endfacet
  facet normal 1.63836e-16 -0.707107 -0.707107
    outer loop
      vertex 33.5 0.775 1.34234
      vertex 33.5 1.34234 0.775
      vertex 45 0.775 1.34234
    endloop
  endfacet
  facet normal 2.23804e-16 -0.258819 -0.965926
    outer loop
      vertex 45 0.775 1.34234
      vertex 45 0 1.55
      vertex 33.5 0.775 1.34234
    endloop
  endfacet
  facet normal 2.26884e-16 -0.258819 -0.965926
    outer loop
      vertex 33.5 0.775 1.34234
      vertex 45 0 1.55
      vertex 33.5 0 1.55
    endloop
  endfacet
  facet normal 2.23804e-16 0.258819 -0.965926
    outer loop
      vertex 45 -0.775 1.34234
      vertex 33.5 -0.775 1.34234
      vertex 45 0 1.55
    endloop
  endfacet
  facet normal 2.23804e-16 0.258819 -0.965926
    outer loop
      vertex 45 0 1.55
      vertex 33.5 -0.775 1.34234
      vertex 33.5 0 1.55
    endloop
  endfacet
  facet normal 1.63836e-16 0.707107 -0.707107
    outer loop
      vertex 45 -1.34234 0.775
      vertex 33.5 -1.34234 0.775
      vertex 45 -0.775 1.34234
    endloop
  endfacet
  facet normal 1.63836e-16 0.707107 -0.707107
    outer loop
      vertex 45 -0.775 1.34234
      vertex 33.5 -1.34234 0.775
      vertex 33.5 -0.775 1.34234
    endloop
  endfacet
  facet normal -1 3.15512e-23 -1.24313e-15
    outer loop
      vertex -16.5 1.65 -2.85788
      vertex -16.5 -1.65 -2.85788
      vertex -16.5 3.3 8.37557e-08
    endloop
  endfacet
  facet normal -1 0 0
    outer loop
      vertex -16.5 -1.34234 -0.775
      vertex -16.5 -1.65 -2.85788
      vertex -16.5 -3.3 -8.37557e-08
    endloop
  endfacet
  facet normal -1 -1.07658e-15 -6.21564e-16
    outer loop
      vertex -16.5 -0.775 1.34234
      vertex -16.5 -3.3 -8.37557e-08
      vertex -16.5 -1.65 2.85788
    endloop
  endfacet
  facet normal -1 0 0
    outer loop
      vertex -16.5 3.3 8.37557e-08
      vertex -16.5 -1.65 2.85788
      vertex -16.5 1.65 2.85788
    endloop
  endfacet
  facet normal -1 -3.004e-15 3.004e-15
    outer loop
      vertex -16.5 -1.34234 0.775
      vertex -16.5 -3.3 -8.37557e-08
      vertex -16.5 -0.775 1.34234
    endloop
  endfacet
  facet normal -1 0 0
    outer loop
      vertex -16.5 0 1.55
      vertex -16.5 -0.775 1.34234
      vertex -16.5 -1.65 2.85788
    endloop
  endfacet
  facet normal -1 2.19399e-22 -4.58415e-15
    outer loop
      vertex -16.5 -1.55 -3.66374e-15
      vertex -16.5 -3.3 -8.37557e-08
      vertex -16.5 -1.34234 0.775
    endloop
  endfacet
  facet normal -1 0 0
    outer loop
      vertex -16.5 -0.775 -1.34234
      vertex -16.5 -1.65 -2.85788
      vertex -16.5 -1.34234 -0.775
    endloop
  endfacet
  facet normal -1 -3.004e-15 3.004e-15
    outer loop
      vertex -16.5 1.34234 -0.775
      vertex -16.5 3.3 8.37557e-08
      vertex -16.5 0.775 -1.34234
    endloop
  endfacet
  facet normal -1 0 0
    outer loop
      vertex -16.5 0 -1.55
      vertex -16.5 -1.65 -2.85788
      vertex -16.5 -0.775 -1.34234
    endloop
  endfacet
  facet normal -1 0 0
    outer loop
      vertex -16.5 0.775 -1.34234
      vertex -16.5 -1.65 -2.85788
      vertex -16.5 0 -1.55
    endloop
  endfacet
  facet normal -1 -9.42005e-15 1.50729e-14
    outer loop
      vertex -16.5 3.3 8.37557e-08
      vertex -16.5 -1.65 -2.85788
      vertex -16.5 0.775 -1.34234
    endloop
  endfacet
  facet normal -1 -2.03012e-15 5.43971e-16
    outer loop
      vertex -16.5 1.55 -3.66374e-15
      vertex -16.5 3.3 8.37557e-08
      vertex -16.5 1.34234 -0.775
    endloop
  endfacet
  facet normal -1 -2.03012e-15 -5.12812e-15
    outer loop
      vertex -16.5 1.34234 0.775
      vertex -16.5 3.3 8.37557e-08
      vertex -16.5 1.55 -3.66374e-15
    endloop
  endfacet
  facet normal -1 -0 -0
    outer loop
      vertex -16.5 0 1.55
      vertex -16.5 -1.65 2.85788
      vertex -16.5 0.775 1.34234
    endloop
  endfacet
  facet normal -1 0 0
    outer loop
      vertex -16.5 3.3 8.37557e-08
      vertex -16.5 1.34234 0.775
      vertex -16.5 0.775 1.34234
    endloop
  endfacet
  facet normal -1 0 0
    outer loop
      vertex -16.5 3.3 8.37557e-08
      vertex -16.5 0.775 1.34234
      vertex -16.5 -1.65 2.85788
    endloop
  endfacet
  facet normal -1 0 0
    outer loop
      vertex -16.5 -1.34234 -0.775
      vertex -16.5 -3.3 -8.37557e-08
      vertex -16.5 -1.55 -3.66374e-15
    endloop
  endfacet
  facet normal 1 1.07658e-15 6.21564e-16
    outer loop
      vertex 16.5 -1.65 2.85788
      vertex 16.5 -3.3 -8.37557e-08
      vertex 16.5 -1.65 -2.85788
    endloop
  endfacet
  facet normal 1 0 0
    outer loop
      vertex 16.5 0.775 1.34234
      vertex 16.5 1.34234 0.775
      vertex 16.5 3.3 8.37557e-08
    endloop
  endfacet
  facet normal 1 1.77636e-14 6.21563e-16
    outer loop
      vertex 16.5 -1.55 3.66374e-15
      vertex 16.5 -1.65 2.85788
      vertex 16.5 -1.65 -2.85788
    endloop
  endfacet
  facet normal 1 0 -0
    outer loop
      vertex 16.5 1.65 2.85788
      vertex 16.5 -1.65 2.85788
      vertex 16.5 3.3 8.37557e-08
    endloop
  endfacet
  facet normal 1 0 -0
    outer loop
      vertex 16.5 0.775 -1.34234
      vertex 16.5 0 -1.55
      vertex 16.5 1.65 -2.85788
    endloop
  endfacet
  facet normal 1 0 0
    outer loop
      vertex 16.5 0.775 1.34234
      vertex 16.5 -1.65 2.85788
      vertex 16.5 0 1.55
    endloop
  endfacet
  facet normal 1 1.10286e-14 1.62903e-15
    outer loop
      vertex 16.5 1.55 3.66374e-15
      vertex 16.5 1.34234 -0.775
      vertex 16.5 1.65 -2.85788
    endloop
  endfacet
  facet normal 1 0 0
    outer loop
      vertex 16.5 3.3 8.37557e-08
      vertex 16.5 -1.65 2.85788
      vertex 16.5 0.775 1.34234
    endloop
  endfacet
  facet normal 1 0 -0
    outer loop
      vertex 16.5 1.34234 -0.775
      vertex 16.5 0.775 -1.34234
      vertex 16.5 1.65 -2.85788
    endloop
  endfacet
  facet normal 1 -5.94965e-23 1.24313e-15
    outer loop
      vertex 16.5 3.3 8.37557e-08
      vertex 16.5 1.55 3.66374e-15
      vertex 16.5 1.65 -2.85788
    endloop
  endfacet
  facet normal 1 -0 0
    outer loop
      vertex 16.5 3.3 8.37557e-08
      vertex 16.5 1.34234 0.775
      vertex 16.5 1.55 3.66374e-15
    endloop
  endfacet
  facet normal 1 -0 0
    outer loop
      vertex 16.5 1.65 -2.85788
      vertex 16.5 0 -1.55
      vertex 16.5 -1.65 -2.85788
    endloop
  endfacet
  facet normal 1 -0 0
    outer loop
      vertex 16.5 0 -1.55
      vertex 16.5 -0.775 -1.34234
      vertex 16.5 -1.65 -2.85788
    endloop
  endfacet
  facet normal 1 -0 0
    outer loop
      vertex 16.5 -0.775 -1.34234
      vertex 16.5 -1.34234 -0.775
      vertex 16.5 -1.65 -2.85788
    endloop
  endfacet
  facet normal 1 -1.10286e-14 1.62903e-15
    outer loop
      vertex 16.5 -1.34234 -0.775
      vertex 16.5 -1.55 3.66374e-15
      vertex 16.5 -1.65 -2.85788
    endloop
  endfacet
  facet normal 1 0 0
    outer loop
      vertex 16.5 -1.34234 0.775
      vertex 16.5 -0.775 1.34234
      vertex 16.5 -1.65 2.85788
    endloop
  endfacet
  facet normal 1 0 0
    outer loop
      vertex 16.5 -1.55 3.66374e-15
      vertex 16.5 -1.34234 0.775
      vertex 16.5 -1.65 2.85788
    endloop
  endfacet
  facet normal 1 0 0
    outer loop
      vertex 16.5 -0.775 1.34234
      vertex 16.5 0 1.55
      vertex 16.5 -1.65 2.85788
    endloop
  endfacet
  facet normal -1 6.31024e-23 -2.48625e-15
    outer loop
      vertex 33.5 1.65 -2.85788
      vertex 33.5 -1.65 -2.85788
      vertex 33.5 3.3 8.37557e-08
    endloop
  endfacet
  facet normal -1 0 0
    outer loop
      vertex 33.5 -1.34234 -0.775
      vertex 33.5 -1.65 -2.85788
      vertex 33.5 -3.3 -8.37557e-08
    endloop
  endfacet
  facet normal -1 -2.15316e-15 -1.24313e-15
    outer loop
      vertex 33.5 -0.775 1.34234
      vertex 33.5 -3.3 -8.37557e-08
      vertex 33.5 -1.65 2.85788
    endloop
  endfacet
  facet normal -1 0 0
    outer loop
      vertex 33.5 3.3 8.37557e-08
      vertex 33.5 -1.65 2.85788
      vertex 33.5 1.65 2.85788
    endloop
  endfacet
  facet normal -1 -6.008e-15 6.008e-15
    outer loop
      vertex 33.5 -1.34234 0.775
      vertex 33.5 -3.3 -8.37557e-08
      vertex 33.5 -0.775 1.34234
    endloop
  endfacet
  facet normal -1 0 0
    outer loop
      vertex 33.5 0 1.55
      vertex 33.5 -0.775 1.34234
      vertex 33.5 -1.65 2.85788
    endloop
  endfacet
  facet normal -1 -4.06024e-15 1.08794e-15
    outer loop
      vertex 33.5 -1.55 7.43849e-15
      vertex 33.5 -3.3 -8.37557e-08
      vertex 33.5 -1.34234 0.775
    endloop
  endfacet
  facet normal -1 0 0
    outer loop
      vertex 33.5 -0.775 -1.34234
      vertex 33.5 -1.65 -2.85788
      vertex 33.5 -1.34234 -0.775
    endloop
  endfacet
  facet normal -1 -6.008e-15 6.008e-15
    outer loop
      vertex 33.5 1.34234 -0.775
      vertex 33.5 3.3 8.37557e-08
      vertex 33.5 0.775 -1.34234
    endloop
  endfacet
  facet normal -1 0 0
    outer loop
      vertex 33.5 0 -1.55
      vertex 33.5 -1.65 -2.85788
      vertex 33.5 -0.775 -1.34234
    endloop
  endfacet
  facet normal -1 0 0
    outer loop
      vertex 33.5 0.775 -1.34234
      vertex 33.5 -1.65 -2.85788
      vertex 33.5 0 -1.55
    endloop
  endfacet
  facet normal -1 -1.88401e-14 3.01457e-14
    outer loop
      vertex 33.5 3.3 8.37557e-08
      vertex 33.5 -1.65 -2.85788
      vertex 33.5 0.775 -1.34234
    endloop
  endfacet
  facet normal -1 4.38798e-22 -9.16829e-15
    outer loop
      vertex 33.5 1.55 7.43849e-15
      vertex 33.5 3.3 8.37557e-08
      vertex 33.5 1.34234 -0.775
    endloop
  endfacet
  facet normal -1 0 0
    outer loop
      vertex 33.5 1.34234 0.775
      vertex 33.5 3.3 8.37557e-08
      vertex 33.5 1.55 7.43849e-15
    endloop
  endfacet
  facet normal -1 -0 -0
    outer loop
      vertex 33.5 0 1.55
      vertex 33.5 -1.65 2.85788
      vertex 33.5 0.775 1.34234
    endloop
  endfacet
  facet normal -1 0 0
    outer loop
      vertex 33.5 3.3 8.37557e-08
      vertex 33.5 1.34234 0.775
      vertex 33.5 0.775 1.34234
    endloop
  endfacet
  facet normal -1 0 0
    outer loop
      vertex 33.5 3.3 8.37557e-08
      vertex 33.5 0.775 1.34234
      vertex 33.5 -1.65 2.85788
    endloop
  endfacet
  facet normal -1 -4.06024e-15 -1.02562e-14
    outer loop
      vertex 33.5 -1.34234 -0.775
      vertex 33.5 -3.3 -8.37557e-08
      vertex 33.5 -1.55 7.43849e-15
    endloop
  endfacet
endsolid OpenSCAD_Model
