solid OpenSCAD_Model
  facet normal -0.991445 3.26565e-17 0.130526
    outer loop
      vertex -19.45 -12 5
      vertex -19.0599 -12 7.96348
      vertex -19.45 -8.45 5
    endloop
  endfacet
  facet normal -0.991445 3.29644e-17 0.130526
    outer loop
      vertex -19.45 -8.45 5
      vertex -19.0599 -12 7.96348
      vertex -19.0599 -8.45 7.96348
    endloop
  endfacet
  facet normal 0 -1 0
    outer loop
      vertex -19.0599 -12 7.96348
      vertex -19.45 -12 5
      vertex -19.0599 -12 2.03652
    endloop
  endfacet
  facet normal 0 -1 0
    outer loop
      vertex -11.3423 -12 4.225
      vertex -19.0599 -12 7.96348
      vertex -18.2163 -12 0
    endloop
  endfacet
  facet normal 0 -1 0
    outer loop
      vertex -18.2163 -12 0
      vertex -19.0599 -12 7.96348
      vertex -19.0599 -12 2.03652
    endloop
  endfacet
  facet normal 0 -1 -0
    outer loop
      vertex -11.3423 -12 5.775
      vertex -10.775 -12 6.34234
      vertex -19.0599 -12 7.96348
    endloop
  endfacet
  facet normal 0 -1 0
    outer loop
      vertex 3.05985 -12 7.96348
      vertex -19.0599 -12 7.96348
      vertex 3.45 -12 5
    endloop
  endfacet
  facet normal 0 -1 0
    outer loop
      vertex 2.2163 -12 10
      vertex -19.0599 -12 7.96348
      vertex 3.05985 -12 7.96348
    endloop
  endfacet
  facet normal 0 -1 0
    outer loop
      vertex -18.2163 -12 10
      vertex -19.0599 -12 7.96348
      vertex 2.2163 -12 10
    endloop
  endfacet
  facet normal 0 -1 0
    outer loop
      vertex -10.775 -12 3.65766
      vertex -11.3423 -12 4.225
      vertex -18.2163 -12 0
    endloop
  endfacet
  facet normal 0 -1 0
    outer loop
      vertex -11.55 -12 5
      vertex -19.0599 -12 7.96348
      vertex -11.3423 -12 4.225
    endloop
  endfacet
  facet normal 0 -1 0
    outer loop
      vertex -8.65766 -12 5.775
      vertex -8.45 -12 5
      vertex 3.05985 -12 2.03652
    endloop
  endfacet
  facet normal 0 -1 0
    outer loop
      vertex -8.65766 -12 4.225
      vertex -9.225 -12 3.65766
      vertex 2.2163 -12 0
    endloop
  endfacet
  facet normal 0 -1 0
    outer loop
      vertex -9.225 -12 6.34234
      vertex -8.65766 -12 5.775
      vertex 3.45 -12 5
    endloop
  endfacet
  facet normal 0 -1 0
    outer loop
      vertex -10 -12 6.55
      vertex -19.0599 -12 7.96348
      vertex -10.775 -12 6.34234
    endloop
  endfacet
  facet normal 0 -1 0
    outer loop
      vertex 3.45 -12 5
      vertex -19.0599 -12 7.96348
      vertex -10 -12 6.55
    endloop
  endfacet
  facet normal 0 -1 0
    outer loop
      vertex 3.45 -12 5
      vertex -10 -12 6.55
      vertex -9.225 -12 6.34234
    endloop
  endfacet
  facet normal 0 -1 0
    outer loop
      vertex 3.45 -12 5
      vertex -8.65766 -12 5.775
      vertex 3.05985 -12 2.03652
    endloop
  endfacet
  facet normal 0 -1 0
    outer loop
      vertex 3.05985 -12 2.03652
      vertex -8.45 -12 5
      vertex 2.2163 -12 0
    endloop
  endfacet
  facet normal 0 -1 0
    outer loop
      vertex -8.45 -12 5
      vertex -8.65766 -12 4.225
      vertex 2.2163 -12 0
    endloop
  endfacet
  facet normal 0 -1 0
    outer loop
      vertex 2.2163 -12 0
      vertex -10 -12 3.45
      vertex -18.2163 -12 0
    endloop
  endfacet
  facet normal 0 -1 0
    outer loop
      vertex -10 -12 3.45
      vertex -10.775 -12 3.65766
      vertex -18.2163 -12 0
    endloop
  endfacet
  facet normal 0 -1 0
    outer loop
      vertex -9.225 -12 3.65766
      vertex -10 -12 3.45
      vertex 2.2163 -12 0
    endloop
  endfacet
  facet normal 0 -1 -0
    outer loop
      vertex -11.55 -12 5
      vertex -11.3423 -12 5.775
      vertex -19.0599 -12 7.96348
    endloop
  endfacet
  facet normal -0.991445 -3.26565e-17 -0.130526
    outer loop
      vertex -19.45 -12 5
      vertex -19.45 -8.45 5
      vertex -19.0599 -12 2.03652
    endloop
  endfacet
  facet normal -0.991445 -1.63282e-17 -0.130526
    outer loop
      vertex -19.0599 -12 2.03652
      vertex -19.45 -8.45 5
      vertex -19.0599 -8.45 2.03652
    endloop
  endfacet
  facet normal 0 1 -0
    outer loop
      vertex -18.2163 -8.45 10
      vertex -3 -8.45 10
      vertex -19.0599 -8.45 7.96348
    endloop
  endfacet
  facet normal 0 1 0
    outer loop
      vertex -8.65766 -8.45 4.225
      vertex -3 -8.45 10
      vertex -3 -8.45 0
    endloop
  endfacet
  facet normal 0 1 -0
    outer loop
      vertex -10.775 -8.45 3.65766
      vertex -3 -8.45 0
      vertex -18.2163 -8.45 0
    endloop
  endfacet
  facet normal 0 1 -0
    outer loop
      vertex -19.0599 -8.45 7.96348
      vertex -18.2163 -8.45 0
      vertex -19.0599 -8.45 2.03652
    endloop
  endfacet
  facet normal 0 1 0
    outer loop
      vertex -19.0599 -8.45 7.96348
      vertex -19.0599 -8.45 2.03652
      vertex -19.45 -8.45 5
    endloop
  endfacet
  facet normal 0 1 0
    outer loop
      vertex -10.775 -8.45 6.34234
      vertex -19.0599 -8.45 7.96348
      vertex -10 -8.45 6.55
    endloop
  endfacet
  facet normal -0 1 -0
    outer loop
      vertex -10 -8.45 3.45
      vertex -3 -8.45 0
      vertex -10.775 -8.45 3.65766
    endloop
  endfacet
  facet normal 0 1 0
    outer loop
      vertex -19.0599 -8.45 7.96348
      vertex -10.775 -8.45 3.65766
      vertex -18.2163 -8.45 0
    endloop
  endfacet
  facet normal 0 1 -0
    outer loop
      vertex -9.225 -8.45 3.65766
      vertex -3 -8.45 0
      vertex -10 -8.45 3.45
    endloop
  endfacet
  facet normal 0 1 0
    outer loop
      vertex -9.225 -8.45 6.34234
      vertex -3 -8.45 10
      vertex -8.65766 -8.45 5.775
    endloop
  endfacet
  facet normal 0 1 -0
    outer loop
      vertex -8.45 -8.45 5
      vertex -3 -8.45 10
      vertex -8.65766 -8.45 4.225
    endloop
  endfacet
  facet normal 0 1 0
    outer loop
      vertex -9.225 -8.45 3.65766
      vertex -8.65766 -8.45 4.225
      vertex -3 -8.45 0
    endloop
  endfacet
  facet normal 0 1 0
    outer loop
      vertex -8.65766 -8.45 5.775
      vertex -3 -8.45 10
      vertex -8.45 -8.45 5
    endloop
  endfacet
  facet normal 0 1 0
    outer loop
      vertex -10 -8.45 6.55
      vertex -3 -8.45 10
      vertex -9.225 -8.45 6.34234
    endloop
  endfacet
  facet normal 0 1 0
    outer loop
      vertex -19.0599 -8.45 7.96348
      vertex -3 -8.45 10
      vertex -10 -8.45 6.55
    endloop
  endfacet
  facet normal 0 1 0
    outer loop
      vertex -19.0599 -8.45 7.96348
      vertex -10.775 -8.45 6.34234
      vertex -11.3423 -8.45 5.775
    endloop
  endfacet
  facet normal 0 1 0
    outer loop
      vertex -19.0599 -8.45 7.96348
      vertex -11.3423 -8.45 5.775
      vertex -11.55 -8.45 5
    endloop
  endfacet
  facet normal 0 1 0
    outer loop
      vertex -19.0599 -8.45 7.96348
      vertex -11.55 -8.45 5
      vertex -11.3423 -8.45 4.225
    endloop
  endfacet
  facet normal 0 1 0
    outer loop
      vertex -10.775 -8.45 3.65766
      vertex -19.0599 -8.45 7.96348
      vertex -11.3423 -8.45 4.225
    endloop
  endfacet
  facet normal -0.92388 9.5744e-17 0.382683
    outer loop
      vertex -19.0599 -12 7.96348
      vertex -18.2163 -12 10
      vertex -19.0599 -8.45 7.96348
    endloop
  endfacet
  facet normal -0.92388 9.38694e-16 0.382683
    outer loop
      vertex -19.0599 -8.45 7.96348
      vertex -18.2163 -12 10
      vertex -18.2163 -8.45 10
    endloop
  endfacet
  facet normal 0 -0 1
    outer loop
      vertex -18.2163 -8.45 10
      vertex -18.2163 -12 10
      vertex 2.2163 -12 10
    endloop
  endfacet
  facet normal -0 0 1
    outer loop
      vertex 5.8267 -10.45 10
      vertex -18.2163 -8.45 10
      vertex 2.2163 -10.45 10
    endloop
  endfacet
  facet normal -0 0 1
    outer loop
      vertex 2.2163 -10.45 10
      vertex -18.2163 -8.45 10
      vertex 2.2163 -12 10
    endloop
  endfacet
  facet normal 0 -0 1
    outer loop
      vertex -3 -8.45 10
      vertex -18.2163 -8.45 10
      vertex 5.8267 -10.45 10
    endloop
  endfacet
  facet normal 0 -0 1
    outer loop
      vertex 7.22662 -4.175 10
      vertex -3 -8.35 10
      vertex 18 -3.00556 10
    endloop
  endfacet
  facet normal 0 -0 1
    outer loop
      vertex 7.22662 4.175 10
      vertex 7.22662 -4.175 10
      vertex 18 3.00556 10
    endloop
  endfacet
  facet normal 0 -0 1
    outer loop
      vertex -18.2163 12 10
      vertex -18.2163 8.45 10
      vertex 2.2163 12 10
    endloop
  endfacet
  facet normal 0 0 1
    outer loop
      vertex -18.2163 8.45 10
      vertex -3 8.45 10
      vertex 2.2163 12 10
    endloop
  endfacet
  facet normal 0 -0 1
    outer loop
      vertex -3 8.45 10
      vertex -3 8.35 10
      vertex 2.2163 12 10
    endloop
  endfacet
  facet normal 0 0 1
    outer loop
      vertex 5.8267 10.45 10
      vertex 7.22662 4.175 10
      vertex 18 3.00556 10
    endloop
  endfacet
  facet normal 0 0 1
    outer loop
      vertex 18 3.00556 10
      vertex 7.22662 -4.175 10
      vertex 18 -3.00556 10
    endloop
  endfacet
  facet normal 0 0 1
    outer loop
      vertex 18 -3.00556 10
      vertex -3 -8.35 10
      vertex 5.8267 -10.45 10
    endloop
  endfacet
  facet normal 0 -0 1
    outer loop
      vertex -3 -8.35 10
      vertex -3 -8.45 10
      vertex 5.8267 -10.45 10
    endloop
  endfacet
  facet normal 0 0 1
    outer loop
      vertex -3 8.35 10
      vertex 2.2163 10.45 10
      vertex 2.2163 12 10
    endloop
  endfacet
  facet normal 0 0 1
    outer loop
      vertex -3 8.35 10
      vertex 5.8267 10.45 10
      vertex 2.2163 10.45 10
    endloop
  endfacet
  facet normal 0 0 1
    outer loop
      vertex -3 8.35 10
      vertex 7.22662 4.175 10
      vertex 5.8267 10.45 10
    endloop
  endfacet
  facet normal 0.92388 0 0.382683
    outer loop
      vertex 3.05985 -10.45 7.96348
      vertex 2.2163 -10.45 10
      vertex 2.2163 -12 10
    endloop
  endfacet
  facet normal 0.92388 0 0.382683
    outer loop
      vertex 3.05985 -12 7.96348
      vertex 3.05985 -10.45 7.96348
      vertex 2.2163 -12 10
    endloop
  endfacet
  facet normal 0.991445 -0 0.130526
    outer loop
      vertex 3.05985 -10.45 7.96348
      vertex 3.05985 -12 7.96348
      vertex 3.45 -12 5
    endloop
  endfacet
  facet normal 0.991445 7.47938e-17 0.130526
    outer loop
      vertex 3.45 -10.45 5
      vertex 3.05985 -10.45 7.96348
      vertex 3.45 -12 5
    endloop
  endfacet
  facet normal 0.991445 0 -0.130526
    outer loop
      vertex 3.45 -12 5
      vertex 3.05985 -12 2.03652
      vertex 3.05985 -10.45 2.03652
    endloop
  endfacet
  facet normal 0.991445 -7.47938e-17 -0.130526
    outer loop
      vertex 3.45 -10.45 5
      vertex 3.45 -12 5
      vertex 3.05985 -10.45 2.03652
    endloop
  endfacet
  facet normal 0.92388 0 -0.382683
    outer loop
      vertex 3.05985 -12 2.03652
      vertex 2.2163 -12 0
      vertex 2.2163 -10.45 0
    endloop
  endfacet
  facet normal 0.92388 0 -0.382683
    outer loop
      vertex 3.05985 -10.45 2.03652
      vertex 3.05985 -12 2.03652
      vertex 2.2163 -10.45 0
    endloop
  endfacet
  facet normal 0 0 -1
    outer loop
      vertex -18.2163 12 0
      vertex 2.2163 12 0
      vertex -18.2163 8.45 0
    endloop
  endfacet
  facet normal 0 0 -1
    outer loop
      vertex -18.2163 8.45 0
      vertex 2.2163 12 0
      vertex 2.2163 10.45 0
    endloop
  endfacet
  facet normal 0 0 -1
    outer loop
      vertex -18.2163 8.45 0
      vertex 2.2163 10.45 0
      vertex 5.8267 10.45 0
    endloop
  endfacet
  facet normal -0 0 -1
    outer loop
      vertex -3 8.35 0
      vertex 5.8267 10.45 0
      vertex 18 3.00556 0
    endloop
  endfacet
  facet normal 0 0 -1
    outer loop
      vertex 7.22662 4.175 0
      vertex 18 3.00556 0
      vertex 18 -3.00556 0
    endloop
  endfacet
  facet normal -0 0 -1
    outer loop
      vertex 7.22662 -4.175 0
      vertex 18 -3.00556 0
      vertex 5.8267 -10.45 0
    endloop
  endfacet
  facet normal 0 0 -1
    outer loop
      vertex -18.2163 -8.45 0
      vertex 2.2163 -12 0
      vertex -18.2163 -12 0
    endloop
  endfacet
  facet normal 0 0 -1
    outer loop
      vertex -3 -8.45 0
      vertex 2.2163 -12 0
      vertex -18.2163 -8.45 0
    endloop
  endfacet
  facet normal 0 0 -1
    outer loop
      vertex -3 -8.35 0
      vertex 2.2163 -12 0
      vertex -3 -8.45 0
    endloop
  endfacet
  facet normal 0 0 -1
    outer loop
      vertex 7.22662 4.175 0
      vertex 18 -3.00556 0
      vertex 7.22662 -4.175 0
    endloop
  endfacet
  facet normal 0 0 -1
    outer loop
      vertex -3 8.35 0
      vertex 18 3.00556 0
      vertex 7.22662 4.175 0
    endloop
  endfacet
  facet normal -0 0 -1
    outer loop
      vertex -3 8.45 0
      vertex 5.8267 10.45 0
      vertex -3 8.35 0
    endloop
  endfacet
  facet normal -0 0 -1
    outer loop
      vertex -18.2163 8.45 0
      vertex 5.8267 10.45 0
      vertex -3 8.45 0
    endloop
  endfacet
  facet normal 0 0 -1
    outer loop
      vertex 7.22662 -4.175 0
      vertex 5.8267 -10.45 0
      vertex 2.2163 -10.45 0
    endloop
  endfacet
  facet normal 0 0 -1
    outer loop
      vertex 2.2163 -10.45 0
      vertex 2.2163 -12 0
      vertex -3 -8.35 0
    endloop
  endfacet
  facet normal 0 0 -1
    outer loop
      vertex 7.22662 -4.175 0
      vertex 2.2163 -10.45 0
      vertex -3 -8.35 0
    endloop
  endfacet
  facet normal -0.92388 -4.7872e-17 -0.382683
    outer loop
      vertex -19.0599 -12 2.03652
      vertex -19.0599 -8.45 2.03652
      vertex -18.2163 -12 0
    endloop
  endfacet
  facet normal -0.92388 -0 -0.382683
    outer loop
      vertex -18.2163 -12 0
      vertex -19.0599 -8.45 2.03652
      vertex -18.2163 -8.45 0
    endloop
  endfacet
  facet normal 0.965926 6.47543e-17 0.258819
    outer loop
      vertex -11.3423 -12 4.225
      vertex -11.3423 -8.45 4.225
      vertex -11.55 -8.45 5
    endloop
  endfacet
  facet normal 0.965926 6.47543e-17 0.258819
    outer loop
      vertex -11.55 -12 5
      vertex -11.3423 -12 4.225
      vertex -11.55 -8.45 5
    endloop
  endfacet
  facet normal 0.707107 8.84559e-17 0.707107
    outer loop
      vertex -10.775 -12 3.65766
      vertex -10.775 -8.45 3.65766
      vertex -11.3423 -8.45 4.225
    endloop
  endfacet
  facet normal 0.707107 1.76912e-16 0.707107
    outer loop
      vertex -11.3423 -12 4.225
      vertex -10.775 -12 3.65766
      vertex -11.3423 -8.45 4.225
    endloop
  endfacet
  facet normal 0.258819 1.20833e-16 0.965926
    outer loop
      vertex -10 -12 3.45
      vertex -10 -8.45 3.45
      vertex -10.775 -8.45 3.65766
    endloop
  endfacet
  facet normal 0.258819 1.20833e-16 0.965926
    outer loop
      vertex -10.775 -12 3.65766
      vertex -10 -12 3.45
      vertex -10.775 -8.45 3.65766
    endloop
  endfacet
  facet normal -0.258819 1.20833e-16 0.965926
    outer loop
      vertex -9.225 -12 3.65766
      vertex -9.225 -8.45 3.65766
      vertex -10 -8.45 3.45
    endloop
  endfacet
  facet normal -0.258819 1.20833e-16 0.965926
    outer loop
      vertex -10 -12 3.45
      vertex -9.225 -12 3.65766
      vertex -10 -8.45 3.45
    endloop
  endfacet
  facet normal -0.707107 1.76912e-16 0.707107
    outer loop
      vertex -8.65766 -8.45 4.225
      vertex -9.225 -8.45 3.65766
      vertex -8.65766 -12 4.225
    endloop
  endfacet
  facet normal -0.707107 1.07456e-16 0.707107
    outer loop
      vertex -8.65766 -12 4.225
      vertex -9.225 -8.45 3.65766
      vertex -9.225 -12 3.65766
    endloop
  endfacet
  facet normal -0.965926 6.47543e-17 0.258819
    outer loop
      vertex -8.45 -8.45 5
      vertex -8.65766 -8.45 4.225
      vertex -8.45 -12 5
    endloop
  endfacet
  facet normal -0.965926 6.14031e-17 0.258819
    outer loop
      vertex -8.45 -12 5
      vertex -8.65766 -8.45 4.225
      vertex -8.65766 -12 4.225
    endloop
  endfacet
  facet normal -0.965926 -6.47543e-17 -0.258819
    outer loop
      vertex -8.45 -8.45 5
      vertex -8.45 -12 5
      vertex -8.65766 -8.45 5.775
    endloop
  endfacet
  facet normal -0.965926 -6.47543e-17 -0.258819
    outer loop
      vertex -8.65766 -8.45 5.775
      vertex -8.45 -12 5
      vertex -8.65766 -12 5.775
    endloop
  endfacet
  facet normal -0.707107 -1.76912e-16 -0.707107
    outer loop
      vertex -8.65766 -8.45 5.775
      vertex -8.65766 -12 5.775
      vertex -9.225 -8.45 6.34234
    endloop
  endfacet
  facet normal -0.707107 -1.76912e-16 -0.707107
    outer loop
      vertex -9.225 -8.45 6.34234
      vertex -8.65766 -12 5.775
      vertex -9.225 -12 6.34234
    endloop
  endfacet
  facet normal -0.258819 -2.41666e-16 -0.965926
    outer loop
      vertex -9.225 -8.45 6.34234
      vertex -9.225 -12 6.34234
      vertex -10 -8.45 6.55
    endloop
  endfacet
  facet normal -0.258819 -2.41666e-16 -0.965926
    outer loop
      vertex -10 -8.45 6.55
      vertex -9.225 -12 6.34234
      vertex -10 -12 6.55
    endloop
  endfacet
  facet normal 0.258819 -2.41666e-16 -0.965926
    outer loop
      vertex -10 -8.45 6.55
      vertex -10 -12 6.55
      vertex -10.775 -8.45 6.34234
    endloop
  endfacet
  facet normal 0.258819 -2.41666e-16 -0.965926
    outer loop
      vertex -10.775 -8.45 6.34234
      vertex -10 -12 6.55
      vertex -10.775 -12 6.34234
    endloop
  endfacet
  facet normal 0.707107 -1.68859e-16 -0.707107
    outer loop
      vertex -11.3423 -8.45 5.775
      vertex -10.775 -8.45 6.34234
      vertex -10.775 -12 6.34234
    endloop
  endfacet
  facet normal 0.707107 -1.76912e-16 -0.707107
    outer loop
      vertex -11.3423 -12 5.775
      vertex -11.3423 -8.45 5.775
      vertex -10.775 -12 6.34234
    endloop
  endfacet
  facet normal 0.965926 -6.90785e-17 -0.258819
    outer loop
      vertex -11.55 -8.45 5
      vertex -11.3423 -8.45 5.775
      vertex -11.3423 -12 5.775
    endloop
  endfacet
  facet normal 0.965926 -6.47543e-17 -0.258819
    outer loop
      vertex -11.55 -12 5
      vertex -11.55 -8.45 5
      vertex -11.3423 -12 5.775
    endloop
  endfacet
  facet normal -1 0 0
    outer loop
      vertex -3 -8.35 10
      vertex -3 -8.06132 9.29289
      vertex -3 -8.45 10
    endloop
  endfacet
  facet normal -1 0 0
    outer loop
      vertex -3 -8.45 10
      vertex -3 -8.06132 9.29289
      vertex -3 -8.06132 0.707107
    endloop
  endfacet
  facet normal -1 0 0
    outer loop
      vertex -3 -8.45 10
      vertex -3 -8.06132 0.707107
      vertex -3 -8.35 0
    endloop
  endfacet
  facet normal -1 0 0
    outer loop
      vertex -3 -8.45 10
      vertex -3 -8.35 0
      vertex -3 -8.45 0
    endloop
  endfacet
  facet normal -0.353553 0.866025 0.353553
    outer loop
      vertex 3.73131 -4.175 6.50469
      vertex -3 -8.06132 9.29289
      vertex 7.22662 -4.175 10
    endloop
  endfacet
  facet normal -0.353553 0.866025 0.353553
    outer loop
      vertex 7.22662 -4.175 10
      vertex -3 -8.06132 9.29289
      vertex -3 -8.35 10
    endloop
  endfacet
  facet normal -0.707107 7.28144e-09 0.707107
    outer loop
      vertex 7.22662 -4.175 10
      vertex 7.22662 4.175 10
      vertex 3.73131 4.175 6.50469
    endloop
  endfacet
  facet normal -0.707107 7.28144e-09 0.707107
    outer loop
      vertex 3.73131 -4.175 6.50469
      vertex 7.22662 -4.175 10
      vertex 3.73131 4.175 6.50469
    endloop
  endfacet
  facet normal -0.353553 -0.866025 0.353553
    outer loop
      vertex 3.73131 4.175 6.50469
      vertex 7.22662 4.175 10
      vertex -3 8.35 10
    endloop
  endfacet
  facet normal -0.353553 -0.866025 0.353553
    outer loop
      vertex -3 8.06132 9.29289
      vertex 3.73131 4.175 6.50469
      vertex -3 8.35 10
    endloop
  endfacet
  facet normal -1 -0 0
    outer loop
      vertex -3 8.35 10
      vertex -3 8.45 10
      vertex -3 8.06132 9.29289
    endloop
  endfacet
  facet normal -1 0 0
    outer loop
      vertex -3 8.45 10
      vertex -3 8.45 0
      vertex -3 8.06132 9.29289
    endloop
  endfacet
  facet normal -8.59841e-07 0 0
    outer loop
      vertex -3 8.45 0
      vertex -3 8.35 0
      vertex -3 8.35 8.59842e-08
    endloop
  endfacet
  facet normal -1 0 0
    outer loop
      vertex -3 8.45 0
      vertex -3 8.35 8.59842e-08
      vertex -3 8.06132 9.29289
    endloop
  endfacet
  facet normal -1 -0 -0
    outer loop
      vertex -3 8.06132 0.707107
      vertex -3 8.06132 9.29289
      vertex -3 8.35 8.59842e-08
    endloop
  endfacet
  facet normal 0 -1 0
    outer loop
      vertex -19.0599 8.45 2.03652
      vertex -18.2163 8.45 0
      vertex -3 8.45 0
    endloop
  endfacet
  facet normal 0 -1 0
    outer loop
      vertex -10 8.45 3.45
      vertex -19.0599 8.45 2.03652
      vertex -3 8.45 0
    endloop
  endfacet
  facet normal -0 -1 0
    outer loop
      vertex -19.0599 8.45 7.96348
      vertex -19.0599 8.45 2.03652
      vertex -18.2163 8.45 10
    endloop
  endfacet
  facet normal -0 -1 0
    outer loop
      vertex -19.45 8.45 5
      vertex -19.0599 8.45 2.03652
      vertex -19.0599 8.45 7.96348
    endloop
  endfacet
  facet normal 0 -1 0
    outer loop
      vertex -11.3423 8.45 5.775
      vertex -19.0599 8.45 2.03652
      vertex -11.55 8.45 5
    endloop
  endfacet
  facet normal 0 -1 0
    outer loop
      vertex -8.65766 8.45 5.775
      vertex -8.45 8.45 5
      vertex -3 8.45 0
    endloop
  endfacet
  facet normal -0 -1 0
    outer loop
      vertex -10 8.45 6.55
      vertex -9.225 8.45 6.34234
      vertex -3 8.45 10
    endloop
  endfacet
  facet normal 0 -1 0
    outer loop
      vertex -18.2163 8.45 10
      vertex -10.775 8.45 6.34234
      vertex -3 8.45 10
    endloop
  endfacet
  facet normal 0 -1 0
    outer loop
      vertex -18.2163 8.45 10
      vertex -19.0599 8.45 2.03652
      vertex -10.775 8.45 6.34234
    endloop
  endfacet
  facet normal 0 -1 0
    outer loop
      vertex -10.775 8.45 6.34234
      vertex -10 8.45 6.55
      vertex -3 8.45 10
    endloop
  endfacet
  facet normal 0 -1 0
    outer loop
      vertex -9.225 8.45 3.65766
      vertex -10 8.45 3.45
      vertex -3 8.45 0
    endloop
  endfacet
  facet normal 0 -1 0
    outer loop
      vertex -3 8.45 10
      vertex -8.65766 8.45 5.775
      vertex -3 8.45 0
    endloop
  endfacet
  facet normal 0 -1 0
    outer loop
      vertex -3 8.45 10
      vertex -9.225 8.45 6.34234
      vertex -8.65766 8.45 5.775
    endloop
  endfacet
  facet normal 0 -1 0
    outer loop
      vertex -8.45 8.45 5
      vertex -8.65766 8.45 4.225
      vertex -3 8.45 0
    endloop
  endfacet
  facet normal 0 -1 0
    outer loop
      vertex -8.65766 8.45 4.225
      vertex -9.225 8.45 3.65766
      vertex -3 8.45 0
    endloop
  endfacet
  facet normal 0 -1 0
    outer loop
      vertex -10.775 8.45 3.65766
      vertex -19.0599 8.45 2.03652
      vertex -10 8.45 3.45
    endloop
  endfacet
  facet normal 0 -1 0
    outer loop
      vertex -11.3423 8.45 4.225
      vertex -19.0599 8.45 2.03652
      vertex -10.775 8.45 3.65766
    endloop
  endfacet
  facet normal 0 -1 0
    outer loop
      vertex -11.55 8.45 5
      vertex -19.0599 8.45 2.03652
      vertex -11.3423 8.45 4.225
    endloop
  endfacet
  facet normal 0 -1 -0
    outer loop
      vertex -11.3423 8.45 5.775
      vertex -10.775 8.45 6.34234
      vertex -19.0599 8.45 2.03652
    endloop
  endfacet
  facet normal -0.92388 9.5744e-17 0.382683
    outer loop
      vertex -19.0599 8.45 7.96348
      vertex -18.2163 8.45 10
      vertex -19.0599 12 7.96348
    endloop
  endfacet
  facet normal -0.92388 0 0.382683
    outer loop
      vertex -19.0599 12 7.96348
      vertex -18.2163 8.45 10
      vertex -18.2163 12 10
    endloop
  endfacet
  facet normal 0 1 0
    outer loop
      vertex -19.45 12 5
      vertex -19.0599 12 7.96348
      vertex -19.0599 12 2.03652
    endloop
  endfacet
  facet normal 0 1 0
    outer loop
      vertex -19.0599 12 2.03652
      vertex -19.0599 12 7.96348
      vertex -18.2163 12 10
    endloop
  endfacet
  facet normal 0 1 0
    outer loop
      vertex -9.225 12 6.34234
      vertex -18.2163 12 10
      vertex 2.2163 12 10
    endloop
  endfacet
  facet normal 0 1 0
    outer loop
      vertex -8.45 12 5
      vertex 2.2163 12 10
      vertex 3.05985 12 7.96348
    endloop
  endfacet
  facet normal 0 1 0
    outer loop
      vertex -8.65766 12 4.225
      vertex 3.05985 12 7.96348
      vertex 3.45 12 5
    endloop
  endfacet
  facet normal 0 1 0
    outer loop
      vertex -19.0599 12 2.03652
      vertex 3.45 12 5
      vertex 3.05985 12 2.03652
    endloop
  endfacet
  facet normal 0 1 0
    outer loop
      vertex -19.0599 12 2.03652
      vertex 3.05985 12 2.03652
      vertex 2.2163 12 0
    endloop
  endfacet
  facet normal 0 1 0
    outer loop
      vertex -19.0599 12 2.03652
      vertex 2.2163 12 0
      vertex -18.2163 12 0
    endloop
  endfacet
  facet normal 0 1 0
    outer loop
      vertex -19.0599 12 2.03652
      vertex -18.2163 12 10
      vertex -11.55 12 5
    endloop
  endfacet
  facet normal 0 1 0
    outer loop
      vertex -9.225 12 6.34234
      vertex 2.2163 12 10
      vertex -8.65766 12 5.775
    endloop
  endfacet
  facet normal 0 1 -0
    outer loop
      vertex -8.65766 12 4.225
      vertex 3.45 12 5
      vertex -9.225 12 3.65766
    endloop
  endfacet
  facet normal 0 1 0
    outer loop
      vertex -19.0599 12 2.03652
      vertex -10.775 12 3.65766
      vertex -10 12 3.45
    endloop
  endfacet
  facet normal 0 1 0
    outer loop
      vertex -19.0599 12 2.03652
      vertex -10 12 3.45
      vertex 3.45 12 5
    endloop
  endfacet
  facet normal 0 1 0
    outer loop
      vertex -10 12 3.45
      vertex -9.225 12 3.65766
      vertex 3.45 12 5
    endloop
  endfacet
  facet normal 0 1 -0
    outer loop
      vertex -8.45 12 5
      vertex 3.05985 12 7.96348
      vertex -8.65766 12 4.225
    endloop
  endfacet
  facet normal 0 1 0
    outer loop
      vertex -8.65766 12 5.775
      vertex 2.2163 12 10
      vertex -8.45 12 5
    endloop
  endfacet
  facet normal -0 1 0
    outer loop
      vertex -10.775 12 3.65766
      vertex -19.0599 12 2.03652
      vertex -11.3423 12 4.225
    endloop
  endfacet
  facet normal 0 1 0
    outer loop
      vertex -10 12 6.55
      vertex -18.2163 12 10
      vertex -9.225 12 6.34234
    endloop
  endfacet
  facet normal 0 1 0
    outer loop
      vertex -10.775 12 6.34234
      vertex -18.2163 12 10
      vertex -10 12 6.55
    endloop
  endfacet
  facet normal 0 1 0
    outer loop
      vertex -11.3423 12 5.775
      vertex -18.2163 12 10
      vertex -10.775 12 6.34234
    endloop
  endfacet
  facet normal 0 1 0
    outer loop
      vertex -11.55 12 5
      vertex -18.2163 12 10
      vertex -11.3423 12 5.775
    endloop
  endfacet
  facet normal -0 1 0
    outer loop
      vertex -11.3423 12 4.225
      vertex -19.0599 12 2.03652
      vertex -11.55 12 5
    endloop
  endfacet
  facet normal 0.92388 0 0.382683
    outer loop
      vertex 3.05985 12 7.96348
      vertex 2.2163 12 10
      vertex 2.2163 10.45 10
    endloop
  endfacet
  facet normal 0.92388 0 0.382683
    outer loop
      vertex 3.05985 10.45 7.96348
      vertex 3.05985 12 7.96348
      vertex 2.2163 10.45 10
    endloop
  endfacet
  facet normal 0 1 0
    outer loop
      vertex 2.2163 10.45 10
      vertex 5.8267 10.45 10
      vertex 3.05985 10.45 7.96348
    endloop
  endfacet
  facet normal 0 1 0
    outer loop
      vertex 3.05985 10.45 7.96348
      vertex 5.8267 10.45 10
      vertex 10.5472 10.45 5
    endloop
  endfacet
  facet normal 0 1 0
    outer loop
      vertex 3.05985 10.45 7.96348
      vertex 10.5472 10.45 5
      vertex 10.2256 10.45 4.6594
    endloop
  endfacet
  facet normal 0 1 0
    outer loop
      vertex 3.05985 10.45 7.96348
      vertex 10.2256 10.45 4.6594
      vertex 5.8267 10.45 0
    endloop
  endfacet
  facet normal -0 1 0
    outer loop
      vertex 5.8267 10.45 0
      vertex 2.2163 10.45 0
      vertex 3.05985 10.45 2.03652
    endloop
  endfacet
  facet normal 0 1 0
    outer loop
      vertex 5.8267 10.45 0
      vertex 3.05985 10.45 2.03652
      vertex 3.45 10.45 5
    endloop
  endfacet
  facet normal 0 1 0
    outer loop
      vertex 3.05985 10.45 7.96348
      vertex 5.8267 10.45 0
      vertex 3.45 10.45 5
    endloop
  endfacet
  facet normal 0.468023 0.765321 0.441858
    outer loop
      vertex 5.8267 10.45 10
      vertex 18 3.00556 10
      vertex 10.5472 10.45 5
    endloop
  endfacet
  facet normal 0.468023 0.765321 0.441858
    outer loop
      vertex 10.5472 10.45 5
      vertex 18 3.00556 10
      vertex 18 5.89231 5
    endloop
  endfacet
  facet normal 1 0 -0
    outer loop
      vertex 18 -5.54615 5.59956
      vertex 18 -5.89231 5
      vertex 18 -3.00556 0
    endloop
  endfacet
  facet normal 1 -0 0
    outer loop
      vertex 18 -1.4 2.57513
      vertex 18 -5.54615 5.59956
      vertex 18 -3.00556 0
    endloop
  endfacet
  facet normal 1 0 -0
    outer loop
      vertex 18 2.8 5
      vertex 18 2.42487 3.6
      vertex 18 5.54615 4.40044
    endloop
  endfacet
  facet normal 1 0 -0
    outer loop
      vertex 18 -3.00556 10
      vertex 18 -5.54615 5.59956
      vertex 18 3.00556 10
    endloop
  endfacet
  facet normal 1 -0 -0
    outer loop
      vertex 18 -2.8 5
      vertex 18 -5.54615 5.59956
      vertex 18 -2.42487 3.6
    endloop
  endfacet
  facet normal 1 -0 -0
    outer loop
      vertex 18 0 2.2
      vertex 18 -1.4 2.57513
      vertex 18 3.00556 0
    endloop
  endfacet
  facet normal 1 0 0
    outer loop
      vertex 18 -1.4 7.42487
      vertex 18 -5.54615 5.59956
      vertex 18 -2.42487 6.4
    endloop
  endfacet
  facet normal 1 0 0
    outer loop
      vertex 18 1.4 7.42487
      vertex 18 2.42487 6.4
      vertex 18 5.89231 5
    endloop
  endfacet
  facet normal 1 0 0
    outer loop
      vertex 18 3.00556 10
      vertex 18 -5.54615 5.59956
      vertex 18 -1.4 7.42487
    endloop
  endfacet
  facet normal 1 0 0
    outer loop
      vertex 18 2.42487 6.4
      vertex 18 2.8 5
      vertex 18 5.89231 5
    endloop
  endfacet
  facet normal 1 0 -0
    outer loop
      vertex 18 3.00556 10
      vertex 18 1.4 7.42487
      vertex 18 5.89231 5
    endloop
  endfacet
  facet normal 1 0 0
    outer loop
      vertex 18 3.00556 10
      vertex 18 0 7.8
      vertex 18 1.4 7.42487
    endloop
  endfacet
  facet normal 1 -0 0
    outer loop
      vertex 18 5.89231 5
      vertex 18 2.8 5
      vertex 18 5.54615 4.40044
    endloop
  endfacet
  facet normal 1 0 0
    outer loop
      vertex 18 -1.4 7.42487
      vertex 18 0 7.8
      vertex 18 3.00556 10
    endloop
  endfacet
  facet normal 1 0 0
    outer loop
      vertex 18 5.54615 4.40044
      vertex 18 2.42487 3.6
      vertex 18 3.00556 0
    endloop
  endfacet
  facet normal 1 0 -0
    outer loop
      vertex 18 2.42487 3.6
      vertex 18 1.4 2.57513
      vertex 18 3.00556 0
    endloop
  endfacet
  facet normal 1 0 -0
    outer loop
      vertex 18 1.4 2.57513
      vertex 18 0 2.2
      vertex 18 3.00556 0
    endloop
  endfacet
  facet normal 1 -0 0
    outer loop
      vertex 18 3.00556 0
      vertex 18 -1.4 2.57513
      vertex 18 -3.00556 0
    endloop
  endfacet
  facet normal 1 0 0
    outer loop
      vertex 18 -1.4 2.57513
      vertex 18 -2.42487 3.6
      vertex 18 -5.54615 5.59956
    endloop
  endfacet
  facet normal 1 0 0
    outer loop
      vertex 18 -2.8 5
      vertex 18 -2.42487 6.4
      vertex 18 -5.54615 5.59956
    endloop
  endfacet
  facet normal 0.468023 -0.765321 0.441858
    outer loop
      vertex 18 -3.00556 10
      vertex 5.8267 -10.45 10
      vertex 10.2256 -10.45 5.3406
    endloop
  endfacet
  facet normal 0.468023 -0.765321 0.441858
    outer loop
      vertex 18 -5.54615 5.59956
      vertex 18 -3.00556 10
      vertex 10.2256 -10.45 5.3406
    endloop
  endfacet
  facet normal 0 -1 0
    outer loop
      vertex 3.05985 -10.45 2.03652
      vertex 2.2163 -10.45 0
      vertex 5.8267 -10.45 0
    endloop
  endfacet
  facet normal 0 -1 0
    outer loop
      vertex 10.2256 -10.45 5.3406
      vertex 3.05985 -10.45 2.03652
      vertex 10.5472 -10.45 5
    endloop
  endfacet
  facet normal 0 -1 0
    outer loop
      vertex 10.5472 -10.45 5
      vertex 3.05985 -10.45 2.03652
      vertex 5.8267 -10.45 0
    endloop
  endfacet
  facet normal 0 -1 0
    outer loop
      vertex 5.8267 -10.45 10
      vertex 3.05985 -10.45 2.03652
      vertex 10.2256 -10.45 5.3406
    endloop
  endfacet
  facet normal 0 -1 0
    outer loop
      vertex 2.2163 -10.45 10
      vertex 3.05985 -10.45 7.96348
      vertex 5.8267 -10.45 10
    endloop
  endfacet
  facet normal -0 -1 0
    outer loop
      vertex 3.05985 -10.45 7.96348
      vertex 3.45 -10.45 5
      vertex 5.8267 -10.45 10
    endloop
  endfacet
  facet normal -0 -1 0
    outer loop
      vertex 3.45 -10.45 5
      vertex 3.05985 -10.45 2.03652
      vertex 5.8267 -10.45 10
    endloop
  endfacet
  facet normal -0.92388 -9.5744e-17 -0.382683
    outer loop
      vertex -19.0599 8.45 2.03652
      vertex -19.0599 12 2.03652
      vertex -18.2163 8.45 0
    endloop
  endfacet
  facet normal -0.92388 -9.24586e-16 -0.382683
    outer loop
      vertex -18.2163 8.45 0
      vertex -19.0599 12 2.03652
      vertex -18.2163 12 0
    endloop
  endfacet
  facet normal -3.4325e-09 -8.40788e-09 -3.4325e-09
    outer loop
      vertex -3 8.35 8.59842e-08
      vertex -3 8.35 0
      vertex 7.22662 4.175 0
    endloop
  endfacet
  facet normal -0.353553 -0.866025 -0.353553
    outer loop
      vertex -3 8.06132 0.707107
      vertex -3 8.35 8.59842e-08
      vertex 3.73131 4.175 3.49531
    endloop
  endfacet
  facet normal -0.353553 -0.866025 -0.353553
    outer loop
      vertex 3.73131 4.175 3.49531
      vertex -3 8.35 8.59842e-08
      vertex 7.22662 4.175 0
    endloop
  endfacet
  facet normal -0.707107 7.28144e-09 -0.707107
    outer loop
      vertex 7.22662 4.175 0
      vertex 7.22662 -4.175 0
      vertex 3.73131 4.175 3.49531
    endloop
  endfacet
  facet normal -0.707107 7.28144e-09 -0.707107
    outer loop
      vertex 3.73131 4.175 3.49531
      vertex 7.22662 -4.175 0
      vertex 3.73131 -4.175 3.49531
    endloop
  endfacet
  facet normal -0.353553 0.866025 -0.353553
    outer loop
      vertex 3.73131 -4.175 3.49531
      vertex 7.22662 -4.175 0
      vertex -3 -8.06132 0.707107
    endloop
  endfacet
  facet normal -0.353553 0.866025 -0.353553
    outer loop
      vertex -3 -8.06132 0.707107
      vertex 7.22662 -4.175 0
      vertex -3 -8.35 0
    endloop
  endfacet
  facet normal 0.468023 -0.765321 -0.441858
    outer loop
      vertex 10.5472 -10.45 5
      vertex 5.8267 -10.45 0
      vertex 18 -3.00556 0
    endloop
  endfacet
  facet normal 0.468023 -0.765321 -0.441858
    outer loop
      vertex 18 -5.89231 5
      vertex 10.5472 -10.45 5
      vertex 18 -3.00556 0
    endloop
  endfacet
  facet normal 0.468023 0.765321 -0.441858
    outer loop
      vertex 5.8267 10.45 0
      vertex 10.2256 10.45 4.6594
      vertex 18 3.00556 0
    endloop
  endfacet
  facet normal 0.468023 0.765321 -0.441858
    outer loop
      vertex 18 3.00556 0
      vertex 10.2256 10.45 4.6594
      vertex 18 5.54615 4.40044
    endloop
  endfacet
  facet normal 0.92388 0 -0.382683
    outer loop
      vertex 3.05985 10.45 2.03652
      vertex 2.2163 10.45 0
      vertex 2.2163 12 0
    endloop
  endfacet
  facet normal 0.92388 -1.09642e-16 -0.382683
    outer loop
      vertex 3.05985 12 2.03652
      vertex 3.05985 10.45 2.03652
      vertex 2.2163 12 0
    endloop
  endfacet
  facet normal -0.5 0.866025 0
    outer loop
      vertex 3.73131 -4.175 6.50469
      vertex 3.73131 -4.175 3.49531
      vertex -3 -8.06132 9.29289
    endloop
  endfacet
  facet normal -0.5 0.866025 0
    outer loop
      vertex -3 -8.06132 9.29289
      vertex 3.73131 -4.175 3.49531
      vertex -3 -8.06132 0.707107
    endloop
  endfacet
  facet normal -1 7.28144e-09 0
    outer loop
      vertex 3.73131 4.175 6.50469
      vertex 3.73131 4.175 3.49531
      vertex 3.73131 -4.175 6.50469
    endloop
  endfacet
  facet normal -1 7.28144e-09 0
    outer loop
      vertex 3.73131 -4.175 6.50469
      vertex 3.73131 4.175 3.49531
      vertex 3.73131 -4.175 3.49531
    endloop
  endfacet
  facet normal -0.5 -0.866025 -0
    outer loop
      vertex 3.73131 4.175 3.49531
      vertex 3.73131 4.175 6.50469
      vertex -3 8.06132 9.29289
    endloop
  endfacet
  facet normal -0.5 -0.866025 -0
    outer loop
      vertex -3 8.06132 0.707107
      vertex 3.73131 4.175 3.49531
      vertex -3 8.06132 9.29289
    endloop
  endfacet
  facet normal -0.991445 -0 -0.130526
    outer loop
      vertex -19.45 8.45 5
      vertex -19.45 12 5
      vertex -19.0599 8.45 2.03652
    endloop
  endfacet
  facet normal -0.991445 -3.26565e-17 -0.130526
    outer loop
      vertex -19.0599 8.45 2.03652
      vertex -19.45 12 5
      vertex -19.0599 12 2.03652
    endloop
  endfacet
  facet normal -0.991445 0 0.130526
    outer loop
      vertex -19.45 8.45 5
      vertex -19.0599 8.45 7.96348
      vertex -19.45 12 5
    endloop
  endfacet
  facet normal -0.991445 3.29644e-17 0.130526
    outer loop
      vertex -19.45 12 5
      vertex -19.0599 8.45 7.96348
      vertex -19.0599 12 7.96348
    endloop
  endfacet
  facet normal 0.965926 -6.90785e-17 -0.258819
    outer loop
      vertex -11.55 12 5
      vertex -11.3423 12 5.775
      vertex -11.3423 8.45 5.775
    endloop
  endfacet
  facet normal 0.965926 0 -0.258819
    outer loop
      vertex -11.55 8.45 5
      vertex -11.55 12 5
      vertex -11.3423 8.45 5.775
    endloop
  endfacet
  facet normal 0.965926 6.47543e-17 0.258819
    outer loop
      vertex -11.3423 8.45 4.225
      vertex -11.3423 12 4.225
      vertex -11.55 12 5
    endloop
  endfacet
  facet normal 0.965926 0 0.258819
    outer loop
      vertex -11.55 8.45 5
      vertex -11.3423 8.45 4.225
      vertex -11.55 12 5
    endloop
  endfacet
  facet normal 0.707107 1.76912e-16 0.707107
    outer loop
      vertex -10.775 8.45 3.65766
      vertex -10.775 12 3.65766
      vertex -11.3423 12 4.225
    endloop
  endfacet
  facet normal 0.707107 1.76912e-16 0.707107
    outer loop
      vertex -11.3423 8.45 4.225
      vertex -10.775 8.45 3.65766
      vertex -11.3423 12 4.225
    endloop
  endfacet
  facet normal 0.258819 2.41666e-16 0.965926
    outer loop
      vertex -10 8.45 3.45
      vertex -10 12 3.45
      vertex -10.775 12 3.65766
    endloop
  endfacet
  facet normal 0.258819 2.41666e-16 0.965926
    outer loop
      vertex -10.775 8.45 3.65766
      vertex -10 8.45 3.45
      vertex -10.775 12 3.65766
    endloop
  endfacet
  facet normal -0.258819 2.41666e-16 0.965926
    outer loop
      vertex -9.225 8.45 3.65766
      vertex -9.225 12 3.65766
      vertex -10 12 3.45
    endloop
  endfacet
  facet normal -0.258819 2.41666e-16 0.965926
    outer loop
      vertex -10 8.45 3.45
      vertex -9.225 8.45 3.65766
      vertex -10 12 3.45
    endloop
  endfacet
  facet normal -0.707107 1.76912e-16 0.707107
    outer loop
      vertex -8.65766 12 4.225
      vertex -9.225 12 3.65766
      vertex -8.65766 8.45 4.225
    endloop
  endfacet
  facet normal -0.707107 1.8421e-16 0.707107
    outer loop
      vertex -8.65766 8.45 4.225
      vertex -9.225 12 3.65766
      vertex -9.225 8.45 3.65766
    endloop
  endfacet
  facet normal -0.965926 0 0.258819
    outer loop
      vertex -8.45 12 5
      vertex -8.65766 12 4.225
      vertex -8.45 8.45 5
    endloop
  endfacet
  facet normal -0.965926 6.90785e-17 0.258819
    outer loop
      vertex -8.45 8.45 5
      vertex -8.65766 12 4.225
      vertex -8.65766 8.45 4.225
    endloop
  endfacet
  facet normal -0.965926 0 -0.258819
    outer loop
      vertex -8.45 12 5
      vertex -8.45 8.45 5
      vertex -8.65766 12 5.775
    endloop
  endfacet
  facet normal -0.965926 -6.47543e-17 -0.258819
    outer loop
      vertex -8.65766 12 5.775
      vertex -8.45 8.45 5
      vertex -8.65766 8.45 5.775
    endloop
  endfacet
  facet normal -0.707107 -1.76912e-16 -0.707107
    outer loop
      vertex -8.65766 12 5.775
      vertex -8.65766 8.45 5.775
      vertex -9.225 12 6.34234
    endloop
  endfacet
  facet normal -0.707107 0 -0.707107
    outer loop
      vertex -9.225 12 6.34234
      vertex -8.65766 8.45 5.775
      vertex -9.225 8.45 6.34234
    endloop
  endfacet
  facet normal -0.258819 0 -0.965926
    outer loop
      vertex -9.225 12 6.34234
      vertex -9.225 8.45 6.34234
      vertex -10 12 6.55
    endloop
  endfacet
  facet normal -0.258819 0 -0.965926
    outer loop
      vertex -10 12 6.55
      vertex -9.225 8.45 6.34234
      vertex -10 8.45 6.55
    endloop
  endfacet
  facet normal 0.258819 0 -0.965926
    outer loop
      vertex -10 12 6.55
      vertex -10 8.45 6.55
      vertex -10.775 12 6.34234
    endloop
  endfacet
  facet normal 0.258819 0 -0.965926
    outer loop
      vertex -10.775 12 6.34234
      vertex -10 8.45 6.55
      vertex -10.775 8.45 6.34234
    endloop
  endfacet
  facet normal 0.707107 0 -0.707107
    outer loop
      vertex -11.3423 12 5.775
      vertex -10.775 12 6.34234
      vertex -10.775 8.45 6.34234
    endloop
  endfacet
  facet normal 0.707107 -1.76912e-16 -0.707107
    outer loop
      vertex -11.3423 8.45 5.775
      vertex -11.3423 12 5.775
      vertex -10.775 8.45 6.34234
    endloop
  endfacet
  facet normal 0.991445 -5.26125e-17 -0.130526
    outer loop
      vertex 3.45 10.45 5
      vertex 3.05985 10.45 2.03652
      vertex 3.05985 12 2.03652
    endloop
  endfacet
  facet normal 0.991445 0 -0.130526
    outer loop
      vertex 3.45 12 5
      vertex 3.45 10.45 5
      vertex 3.05985 12 2.03652
    endloop
  endfacet
  facet normal 0.991445 -0 0.130526
    outer loop
      vertex 3.05985 12 7.96348
      vertex 3.05985 10.45 7.96348
      vertex 3.45 10.45 5
    endloop
  endfacet
  facet normal 0.991445 -0 0.130526
    outer loop
      vertex 3.45 12 5
      vertex 3.05985 12 7.96348
      vertex 3.45 10.45 5
    endloop
  endfacet
  facet normal 0.468023 0.765321 -0.441858
    outer loop
      vertex 10.2256 10.45 4.6594
      vertex 10.5472 10.45 5
      vertex 18 5.54615 4.40044
    endloop
  endfacet
  facet normal 0.468023 0.765321 -0.441858
    outer loop
      vertex 18 5.54615 4.40044
      vertex 10.5472 10.45 5
      vertex 18 5.89231 5
    endloop
  endfacet
  facet normal 0.468023 -0.765321 0.441858
    outer loop
      vertex 18 -5.54615 5.59956
      vertex 10.2256 -10.45 5.3406
      vertex 10.5472 -10.45 5
    endloop
  endfacet
  facet normal 0.468023 -0.765321 0.441858
    outer loop
      vertex 18 -5.89231 5
      vertex 18 -5.54615 5.59956
      vertex 10.5472 -10.45 5
    endloop
  endfacet
  facet normal -4.92595e-17 0.965926 0.258819
    outer loop
      vertex 18 -2.42487 3.6
      vertex 11 -2.42487 3.6
      vertex 18 -2.8 5
    endloop
  endfacet
  facet normal -6.56793e-17 0.965926 0.258819
    outer loop
      vertex 18 -2.8 5
      vertex 11 -2.42487 3.6
      vertex 11 -2.8 5
    endloop
  endfacet
  facet normal -1.34579e-16 0.707107 0.707107
    outer loop
      vertex 18 -1.4 2.57513
      vertex 11 -1.4 2.57513
      vertex 18 -2.42487 3.6
    endloop
  endfacet
  facet normal -1.34579e-16 0.707107 0.707107
    outer loop
      vertex 18 -2.42487 3.6
      vertex 11 -1.4 2.57513
      vertex 11 -2.42487 3.6
    endloop
  endfacet
  facet normal -1.84318e-16 0.258819 0.965926
    outer loop
      vertex 18 -1.4 2.57513
      vertex 18 0 2.2
      vertex 11 0 2.2
    endloop
  endfacet
  facet normal -1.83839e-16 0.258819 0.965926
    outer loop
      vertex 11 -1.4 2.57513
      vertex 18 -1.4 2.57513
      vertex 11 0 2.2
    endloop
  endfacet
  facet normal -1.83839e-16 -0.258819 0.965926
    outer loop
      vertex 11 0 2.2
      vertex 18 0 2.2
      vertex 18 1.4 2.57513
    endloop
  endfacet
  facet normal -1.83839e-16 -0.258819 0.965926
    outer loop
      vertex 11 1.4 2.57513
      vertex 11 0 2.2
      vertex 18 1.4 2.57513
    endloop
  endfacet
  facet normal -1.34579e-16 -0.707107 0.707107
    outer loop
      vertex 11 1.4 2.57513
      vertex 18 1.4 2.57513
      vertex 18 2.42487 3.6
    endloop
  endfacet
  facet normal -1.34579e-16 -0.707107 0.707107
    outer loop
      vertex 11 2.42487 3.6
      vertex 11 1.4 2.57513
      vertex 18 2.42487 3.6
    endloop
  endfacet
  facet normal -4.92595e-17 -0.965926 0.258819
    outer loop
      vertex 11 2.42487 3.6
      vertex 18 2.42487 3.6
      vertex 18 2.8 5
    endloop
  endfacet
  facet normal -6.56793e-17 -0.965926 0.258819
    outer loop
      vertex 11 2.8 5
      vertex 11 2.42487 3.6
      vertex 18 2.8 5
    endloop
  endfacet
  facet normal 6.56793e-17 -0.965926 -0.258819
    outer loop
      vertex 11 2.8 5
      vertex 18 2.8 5
      vertex 18 2.42487 6.4
    endloop
  endfacet
  facet normal 3.28397e-17 -0.965926 -0.258819
    outer loop
      vertex 11 2.42487 6.4
      vertex 11 2.8 5
      vertex 18 2.42487 6.4
    endloop
  endfacet
  facet normal 8.97196e-17 -0.707107 -0.707107
    outer loop
      vertex 11 2.42487 6.4
      vertex 18 2.42487 6.4
      vertex 18 1.4 7.42487
    endloop
  endfacet
  facet normal 8.97196e-17 -0.707107 -0.707107
    outer loop
      vertex 11 1.4 7.42487
      vertex 11 2.42487 6.4
      vertex 18 1.4 7.42487
    endloop
  endfacet
  facet normal 1.22559e-16 -0.258819 -0.965926
    outer loop
      vertex 18 1.4 7.42487
      vertex 18 0 7.8
      vertex 11 1.4 7.42487
    endloop
  endfacet
  facet normal 2.34586e-16 -0.258819 -0.965926
    outer loop
      vertex 11 1.4 7.42487
      vertex 18 0 7.8
      vertex 11 0 7.8
    endloop
  endfacet
  facet normal 1.22559e-16 0.258819 -0.965926
    outer loop
      vertex 18 -1.4 7.42487
      vertex 11 -1.4 7.42487
      vertex 18 0 7.8
    endloop
  endfacet
  facet normal 2.45118e-16 0.258819 -0.965926
    outer loop
      vertex 18 0 7.8
      vertex 11 -1.4 7.42487
      vertex 11 0 7.8
    endloop
  endfacet
  facet normal 8.97196e-17 0.707107 -0.707107
    outer loop
      vertex 18 -2.42487 6.4
      vertex 11 -2.42487 6.4
      vertex 18 -1.4 7.42487
    endloop
  endfacet
  facet normal 8.97196e-17 0.707107 -0.707107
    outer loop
      vertex 18 -1.4 7.42487
      vertex 11 -2.42487 6.4
      vertex 11 -1.4 7.42487
    endloop
  endfacet
  facet normal 6.56793e-17 0.965926 -0.258819
    outer loop
      vertex 18 -2.8 5
      vertex 11 -2.8 5
      vertex 18 -2.42487 6.4
    endloop
  endfacet
  facet normal 3.28397e-17 0.965926 -0.258819
    outer loop
      vertex 18 -2.42487 6.4
      vertex 11 -2.8 5
      vertex 11 -2.42487 6.4
    endloop
  endfacet
  facet normal 1 -1.73325e-15 1.73325e-15
    outer loop
      vertex 11 -1.4 7.42487
      vertex 11 -2.42487 6.4
      vertex 11 -2.8 5
    endloop
  endfacet
  facet normal 1 3.66279e-16 3.66279e-16
    outer loop
      vertex 11 -1.4 2.57513
      vertex 11 -1.4 7.42487
      vertex 11 -2.42487 3.6
    endloop
  endfacet
  facet normal 1 8.66624e-16 2.32211e-16
    outer loop
      vertex 11 -2.42487 3.6
      vertex 11 -1.4 7.42487
      vertex 11 -2.8 5
    endloop
  endfacet
  facet normal 1 9.81441e-17 3.66279e-16
    outer loop
      vertex 11 0 2.2
      vertex 11 -1.4 7.42487
      vertex 11 -1.4 2.57513
    endloop
  endfacet
  facet normal 1 -8.49953e-17 3.17207e-16
    outer loop
      vertex 11 1.4 2.57513
      vertex 11 -1.4 7.42487
      vertex 11 0 2.2
    endloop
  endfacet
  facet normal 1 -2.32211e-16 2.32211e-16
    outer loop
      vertex 11 2.42487 3.6
      vertex 11 -1.4 7.42487
      vertex 11 1.4 2.57513
    endloop
  endfacet
  facet normal 1 -3.66279e-16 9.81441e-17
    outer loop
      vertex 11 2.8 5
      vertex 11 -1.4 7.42487
      vertex 11 2.42487 3.6
    endloop
  endfacet
  facet normal 1 3.66279e-16 1.36697e-15
    outer loop
      vertex 11 2.42487 6.4
      vertex 11 -1.4 7.42487
      vertex 11 2.8 5
    endloop
  endfacet
  facet normal 1 0 -0
    outer loop
      vertex 11 1.4 7.42487
      vertex 11 -1.4 7.42487
      vertex 11 2.42487 6.4
    endloop
  endfacet
  facet normal 1 0 -0
    outer loop
      vertex 11 0 7.8
      vertex 11 -1.4 7.42487
      vertex 11 1.4 7.42487
    endloop
  endfacet
endsolid OpenSCAD_Model
