solid OpenSCAD_Model
  facet normal 4.04125e-15 -1 5.3204e-16
    outer loop
      vertex -6.23022 -10.45 6.66938
      vertex -6.45 -10.45 5
      vertex -6.23022 -10.45 3.33062
    endloop
  endfacet
  facet normal 5.70949e-16 -1 4.38105e-16
    outer loop
      vertex -4.56084 -10.45 0.439161
      vertex -6.23022 -10.45 6.66938
      vertex -5.58586 -10.45 1.775
    endloop
  endfacet
  facet normal 1.28446e-15 -1 5.3204e-16
    outer loop
      vertex -5.58586 -10.45 1.775
      vertex -6.23022 -10.45 6.66938
      vertex -6.23022 -10.45 3.33062
    endloop
  endfacet
  facet normal 2.75404e-16 -1 3.58914e-16
    outer loop
      vertex -3.98851 -10.45 0
      vertex -6.23022 -10.45 6.66938
      vertex -4.56084 -10.45 0.439161
    endloop
  endfacet
  facet normal 0 -1 2.66345e-16
    outer loop
      vertex 3.98851 -10.45 0
      vertex -6.23022 -10.45 6.66938
      vertex -3.98851 -10.45 0
    endloop
  endfacet
  facet normal -9.39352e-17 -1 1.22419e-16
    outer loop
      vertex 4.56084 -10.45 0.439161
      vertex -6.23022 -10.45 6.66938
      vertex 3.98851 -10.45 0
    endloop
  endfacet
  facet normal -3.84332e-15 -1 -6.37171e-15
    outer loop
      vertex -0.775 -10.45 3.65766
      vertex -6.23022 -10.45 6.66938
      vertex 4.56084 -10.45 0.439161
    endloop
  endfacet
  facet normal 0 -1 0
    outer loop
      vertex 6 -10.45 5
      vertex 1.55 -10.45 5
      vertex 6 -10.45 2.77481
    endloop
  endfacet
  facet normal 0 -1 0
    outer loop
      vertex 6 -10.45 2.77481
      vertex 1.34234 -10.45 4.225
      vertex 5.58586 -10.45 1.775
    endloop
  endfacet
  facet normal 0 -1 0
    outer loop
      vertex 5.58586 -10.45 1.775
      vertex 0.775 -10.45 3.65766
      vertex 4.56084 -10.45 0.439161
    endloop
  endfacet
  facet normal 0 -1 0
    outer loop
      vertex 0.775 -10.45 3.65766
      vertex 0 -10.45 3.45
      vertex 4.56084 -10.45 0.439161
    endloop
  endfacet
  facet normal 0 -1 0
    outer loop
      vertex 0 -10.45 3.45
      vertex -0.775 -10.45 3.65766
      vertex 4.56084 -10.45 0.439161
    endloop
  endfacet
  facet normal -3.83556e-15 -1 -6.35764e-15
    outer loop
      vertex -3 -10.45 5
      vertex -6.23022 -10.45 6.66938
      vertex -0.775 -10.45 3.65766
    endloop
  endfacet
  facet normal 0 -1 0
    outer loop
      vertex -1.55 -10.45 5
      vertex -3 -10.45 5
      vertex -1.34234 -10.45 4.225
    endloop
  endfacet
  facet normal 0 -1 0
    outer loop
      vertex -0.775 -10.45 3.65766
      vertex -1.34234 -10.45 4.225
      vertex -3 -10.45 5
    endloop
  endfacet
  facet normal 0 -1 0
    outer loop
      vertex -3.98851 -10.45 10
      vertex -6.23022 -10.45 6.66938
      vertex -3 -10.45 10
    endloop
  endfacet
  facet normal -0 -1 0
    outer loop
      vertex -4.56084 -10.45 9.56084
      vertex -6.23022 -10.45 6.66938
      vertex -3.98851 -10.45 10
    endloop
  endfacet
  facet normal -0 -1 0
    outer loop
      vertex -5.58586 -10.45 8.225
      vertex -6.23022 -10.45 6.66938
      vertex -4.56084 -10.45 9.56084
    endloop
  endfacet
  facet normal 0 -1 0
    outer loop
      vertex 1.55 -10.45 5
      vertex 1.34234 -10.45 4.225
      vertex 6 -10.45 2.77481
    endloop
  endfacet
  facet normal 0 -1 0
    outer loop
      vertex 1.34234 -10.45 4.225
      vertex 0.775 -10.45 3.65766
      vertex 5.58586 -10.45 1.775
    endloop
  endfacet
  facet normal -3.66313e-16 -1 3.55271e-16
    outer loop
      vertex -3 -10.45 5
      vertex -3 -10.45 10
      vertex -6.23022 -10.45 6.66938
    endloop
  endfacet
  facet normal -0.991445 -0 -0.130526
    outer loop
      vertex -6.45 -10.45 5
      vertex -6.45 -8.45 5
      vertex -6.23022 -10.45 3.33062
    endloop
  endfacet
  facet normal -0.991445 -2.89826e-17 -0.130526
    outer loop
      vertex -6.23022 -10.45 3.33062
      vertex -6.45 -8.45 5
      vertex -6.23022 -8.45 3.33062
    endloop
  endfacet
  facet normal -0.991445 0 0.130526
    outer loop
      vertex -6.45 -10.45 5
      vertex -6.23022 -10.45 6.66938
      vertex -6.45 -8.45 5
    endloop
  endfacet
  facet normal -0.991445 0 0.130526
    outer loop
      vertex -6.45 -8.45 5
      vertex -6.23022 -10.45 6.66938
      vertex -6.23022 -8.45 6.66938
    endloop
  endfacet
  facet normal -0.923879 0 0.382684
    outer loop
      vertex -6.23022 -10.45 6.66938
      vertex -5.58586 -10.45 8.225
      vertex -6.23022 -8.45 6.66938
    endloop
  endfacet
  facet normal -0.923879 0 0.382684
    outer loop
      vertex -6.23022 -8.45 6.66938
      vertex -5.58586 -10.45 8.225
      vertex -5.58586 -8.45 8.225
    endloop
  endfacet
  facet normal -0.793353 0 0.608761
    outer loop
      vertex -5.58586 -10.45 8.225
      vertex -4.56084 -10.45 9.56084
      vertex -5.58586 -8.45 8.225
    endloop
  endfacet
  facet normal -0.793353 0 0.608761
    outer loop
      vertex -5.58586 -8.45 8.225
      vertex -4.56084 -10.45 9.56084
      vertex -4.56084 -8.45 9.56084
    endloop
  endfacet
  facet normal -0.608761 0 0.793353
    outer loop
      vertex -4.56084 -8.45 9.56084
      vertex -4.56084 -10.45 9.56084
      vertex -3.98851 -10.45 10
    endloop
  endfacet
  facet normal -0.608761 1.35172e-16 0.793353
    outer loop
      vertex -3.98851 -8.45 10
      vertex -4.56084 -8.45 9.56084
      vertex -3.98851 -10.45 10
    endloop
  endfacet
  facet normal 0 -0 1
    outer loop
      vertex 10.9501 -4.28789 10
      vertex 2 -7.94175 10
      vertex 19.1615 -5.38177 10
    endloop
  endfacet
  facet normal 0 -0 1
    outer loop
      vertex -3.98851 -8.45 10
      vertex -3.98851 -10.45 10
      vertex -3 -10.45 10
    endloop
  endfacet
  facet normal 0 0 1
    outer loop
      vertex 6.14872 -10.45 10
      vertex -3.98851 -8.45 10
      vertex -3 -10.45 10
    endloop
  endfacet
  facet normal 0 -0 1
    outer loop
      vertex 10.9501 4.28789 10
      vertex 10.9501 -4.28789 10
      vertex 23 3.88675 10
    endloop
  endfacet
  facet normal 0 0 1
    outer loop
      vertex 3.98851 10.45 10
      vertex -3.98851 10.45 10
      vertex -3.98851 8.45 10
    endloop
  endfacet
  facet normal 0 0 1
    outer loop
      vertex 3.98851 10.45 10
      vertex -3.98851 8.45 10
      vertex 2 8.45 10
    endloop
  endfacet
  facet normal 0 0 1
    outer loop
      vertex 3.98851 10.45 10
      vertex 2 8.45 10
      vertex 2 7.94175 10
    endloop
  endfacet
  facet normal 0 0 1
    outer loop
      vertex 10.9501 -4.28789 10
      vertex 19.1615 -5.38177 10
      vertex 23 -3.88675 10
    endloop
  endfacet
  facet normal 0 0 1
    outer loop
      vertex 23 3.88675 10
      vertex 6.14872 10.45 10
      vertex 10.9501 4.28789 10
    endloop
  endfacet
  facet normal -0 0 1
    outer loop
      vertex 23 -3.88675 10
      vertex 23 3.88675 10
      vertex 10.9501 -4.28789 10
    endloop
  endfacet
  facet normal 0 0 1
    outer loop
      vertex 6.14872 -10.45 10
      vertex 19.1615 -5.38177 10
      vertex 2 -7.94175 10
    endloop
  endfacet
  facet normal 0 0 1
    outer loop
      vertex 6.14872 -10.45 10
      vertex 2 -8.45 10
      vertex -3.98851 -8.45 10
    endloop
  endfacet
  facet normal 0 0 1
    outer loop
      vertex 6.14872 -10.45 10
      vertex 2 -7.94175 10
      vertex 2 -8.45 10
    endloop
  endfacet
  facet normal 0 0 1
    outer loop
      vertex 2 7.94175 10
      vertex 6.14872 10.45 10
      vertex 3.98851 10.45 10
    endloop
  endfacet
  facet normal 0 0 1
    outer loop
      vertex 2 7.94175 10
      vertex 10.9501 4.28789 10
      vertex 6.14872 10.45 10
    endloop
  endfacet
  facet normal -0 -1 0
    outer loop
      vertex 5.58586 -10.45 1.775
      vertex 6.14872 -10.45 0
      vertex 6 -10.45 2.77481
    endloop
  endfacet
  facet normal 0 -1 0
    outer loop
      vertex -3 -10.45 10
      vertex -3 -10.45 5
      vertex -1.55 -10.45 5
    endloop
  endfacet
  facet normal 0 -1 0
    outer loop
      vertex -0.775 -10.45 6.34234
      vertex -3 -10.45 10
      vertex -1.34234 -10.45 5.775
    endloop
  endfacet
  facet normal 0 -1 0
    outer loop
      vertex -1.34234 -10.45 5.775
      vertex -3 -10.45 10
      vertex -1.55 -10.45 5
    endloop
  endfacet
  facet normal 0 -1 0
    outer loop
      vertex 0 -10.45 6.55
      vertex -3 -10.45 10
      vertex -0.775 -10.45 6.34234
    endloop
  endfacet
  facet normal 0 -1 0
    outer loop
      vertex 0.775 -10.45 6.34234
      vertex -3 -10.45 10
      vertex 0 -10.45 6.55
    endloop
  endfacet
  facet normal 0 -1 0
    outer loop
      vertex 6 -10.45 5
      vertex -3 -10.45 10
      vertex 0.775 -10.45 6.34234
    endloop
  endfacet
  facet normal 0 -1 0
    outer loop
      vertex 6 -10.45 5
      vertex 0.775 -10.45 6.34234
      vertex 1.34234 -10.45 5.775
    endloop
  endfacet
  facet normal 0 -1 0
    outer loop
      vertex 6 -10.45 5
      vertex 1.34234 -10.45 5.775
      vertex 1.55 -10.45 5
    endloop
  endfacet
  facet normal 0 -1 0
    outer loop
      vertex 13.5605 -10.45 5
      vertex -3 -10.45 10
      vertex 6 -10.45 5
    endloop
  endfacet
  facet normal 0 -1 0
    outer loop
      vertex 6.14872 -10.45 0
      vertex 6 -10.45 5
      vertex 6 -10.45 2.77481
    endloop
  endfacet
  facet normal -0 -1 0
    outer loop
      vertex 4.56084 -10.45 0.439161
      vertex 6.14872 -10.45 0
      vertex 5.58586 -10.45 1.775
    endloop
  endfacet
  facet normal -0 -1 0
    outer loop
      vertex 3.98851 -10.45 0
      vertex 6.14872 -10.45 0
      vertex 4.56084 -10.45 0.439161
    endloop
  endfacet
  facet normal 0 -1 -0
    outer loop
      vertex 6.14872 -10.45 0
      vertex 13.5605 -10.45 5
      vertex 6 -10.45 5
    endloop
  endfacet
  facet normal 0 -1 0
    outer loop
      vertex 13.5605 -10.45 5
      vertex 9.41004 -10.45 7.79991
      vertex -3 -10.45 10
    endloop
  endfacet
  facet normal 0 -1 0
    outer loop
      vertex 9.41004 -10.45 7.79991
      vertex 6.14872 -10.45 10
      vertex -3 -10.45 10
    endloop
  endfacet
  facet normal 0.965926 -1.0378e-16 -0.258819
    outer loop
      vertex -1.55 -8.45 5
      vertex -1.34234 -8.45 5.775
      vertex -1.34234 -10.45 5.775
    endloop
  endfacet
  facet normal 0.965926 0 -0.258819
    outer loop
      vertex -1.55 -10.45 5
      vertex -1.55 -8.45 5
      vertex -1.34234 -10.45 5.775
    endloop
  endfacet
  facet normal 0.965926 1.14939e-16 0.258819
    outer loop
      vertex -1.34234 -10.45 4.225
      vertex -1.34234 -8.45 4.225
      vertex -1.55 -8.45 5
    endloop
  endfacet
  facet normal 0.965926 0 0.258819
    outer loop
      vertex -1.55 -10.45 5
      vertex -1.34234 -10.45 4.225
      vertex -1.55 -8.45 5
    endloop
  endfacet
  facet normal 0.707107 1.57009e-16 0.707107
    outer loop
      vertex -0.775 -10.45 3.65766
      vertex -0.775 -8.45 3.65766
      vertex -1.34234 -8.45 4.225
    endloop
  endfacet
  facet normal 0.707107 3.14018e-16 0.707107
    outer loop
      vertex -1.34234 -10.45 4.225
      vertex -0.775 -10.45 3.65766
      vertex -1.34234 -8.45 4.225
    endloop
  endfacet
  facet normal 0.258819 2.14479e-16 0.965926
    outer loop
      vertex 0 -10.45 3.45
      vertex 0 -8.45 3.45
      vertex -0.775 -8.45 3.65766
    endloop
  endfacet
  facet normal 0.258819 2.14479e-16 0.965926
    outer loop
      vertex -0.775 -10.45 3.65766
      vertex 0 -10.45 3.45
      vertex -0.775 -8.45 3.65766
    endloop
  endfacet
  facet normal -0.258819 2.14479e-16 0.965926
    outer loop
      vertex 0.775 -10.45 3.65766
      vertex 0.775 -8.45 3.65766
      vertex 0 -8.45 3.45
    endloop
  endfacet
  facet normal -0.258819 2.14479e-16 0.965926
    outer loop
      vertex 0 -10.45 3.45
      vertex 0.775 -10.45 3.65766
      vertex 0 -8.45 3.45
    endloop
  endfacet
  facet normal -0.707107 3.14018e-16 0.707107
    outer loop
      vertex 1.34234 -8.45 4.225
      vertex 0.775 -8.45 3.65766
      vertex 1.34234 -10.45 4.225
    endloop
  endfacet
  facet normal -0.707107 1.38373e-16 0.707107
    outer loop
      vertex 1.34234 -10.45 4.225
      vertex 0.775 -8.45 3.65766
      vertex 0.775 -10.45 3.65766
    endloop
  endfacet
  facet normal -0.965926 0 0.258819
    outer loop
      vertex 1.55 -8.45 5
      vertex 1.34234 -8.45 4.225
      vertex 1.55 -10.45 5
    endloop
  endfacet
  facet normal -0.965926 1.0378e-16 0.258819
    outer loop
      vertex 1.55 -10.45 5
      vertex 1.34234 -8.45 4.225
      vertex 1.34234 -10.45 4.225
    endloop
  endfacet
  facet normal -0.965926 0 -0.258819
    outer loop
      vertex 1.55 -8.45 5
      vertex 1.55 -10.45 5
      vertex 1.34234 -8.45 5.775
    endloop
  endfacet
  facet normal -0.965926 -1.14939e-16 -0.258819
    outer loop
      vertex 1.34234 -8.45 5.775
      vertex 1.55 -10.45 5
      vertex 1.34234 -10.45 5.775
    endloop
  endfacet
  facet normal 0 0 -1
    outer loop
      vertex -3.98851 10.45 0
      vertex -3 10.45 0
      vertex -3.98851 8.45 0
    endloop
  endfacet
  facet normal 0 0 -1
    outer loop
      vertex -3.98851 8.45 0
      vertex -3 10.45 0
      vertex 6.14872 10.45 0
    endloop
  endfacet
  facet normal -0 0 -1
    outer loop
      vertex 2 7.94175 0
      vertex 6.14872 10.45 0
      vertex 19.1615 5.38177 0
    endloop
  endfacet
  facet normal 0 0 -1
    outer loop
      vertex 10.9501 4.28789 0
      vertex 23 3.88675 0
      vertex 23 -3.88675 0
    endloop
  endfacet
  facet normal -0 0 -1
    outer loop
      vertex 10.9501 -4.28789 0
      vertex 23 -3.88675 0
      vertex 6.14872 -10.45 0
    endloop
  endfacet
  facet normal 0 0 -1
    outer loop
      vertex -3.98851 -8.45 0
      vertex 3.98851 -10.45 0
      vertex -3.98851 -10.45 0
    endloop
  endfacet
  facet normal 0 0 -1
    outer loop
      vertex 2 -8.45 0
      vertex 3.98851 -10.45 0
      vertex -3.98851 -8.45 0
    endloop
  endfacet
  facet normal 0 0 -1
    outer loop
      vertex 2 -7.94175 0
      vertex 3.98851 -10.45 0
      vertex 2 -8.45 0
    endloop
  endfacet
  facet normal 0 0 -1
    outer loop
      vertex 2 7.94175 0
      vertex 23 3.88675 0
      vertex 10.9501 4.28789 0
    endloop
  endfacet
  facet normal 0 0 -1
    outer loop
      vertex 10.9501 4.28789 0
      vertex 23 -3.88675 0
      vertex 10.9501 -4.28789 0
    endloop
  endfacet
  facet normal 0 0 -1
    outer loop
      vertex 2 7.94175 0
      vertex 19.1615 5.38177 0
      vertex 23 3.88675 0
    endloop
  endfacet
  facet normal -0 0 -1
    outer loop
      vertex 2 8.45 0
      vertex 6.14872 10.45 0
      vertex 2 7.94175 0
    endloop
  endfacet
  facet normal -0 0 -1
    outer loop
      vertex -3.98851 8.45 0
      vertex 6.14872 10.45 0
      vertex 2 8.45 0
    endloop
  endfacet
  facet normal 0 0 -1
    outer loop
      vertex 10.9501 -4.28789 0
      vertex 6.14872 -10.45 0
      vertex 3.98851 -10.45 0
    endloop
  endfacet
  facet normal 0 0 -1
    outer loop
      vertex 10.9501 -4.28789 0
      vertex 3.98851 -10.45 0
      vertex 2 -7.94175 0
    endloop
  endfacet
  facet normal -0.608761 -1.7616e-16 -0.793353
    outer loop
      vertex -4.56084 -10.45 0.439161
      vertex -4.56084 -8.45 0.439161
      vertex -3.98851 -10.45 0
    endloop
  endfacet
  facet normal -0.608761 -2.70344e-16 -0.793353
    outer loop
      vertex -3.98851 -10.45 0
      vertex -4.56084 -8.45 0.439161
      vertex -3.98851 -8.45 0
    endloop
  endfacet
  facet normal -0.793353 -1.35172e-16 -0.608761
    outer loop
      vertex -5.58586 -10.45 1.775
      vertex -5.58586 -8.45 1.775
      vertex -4.56084 -10.45 0.439161
    endloop
  endfacet
  facet normal -0.793353 -1.35172e-16 -0.608761
    outer loop
      vertex -4.56084 -10.45 0.439161
      vertex -5.58586 -8.45 1.775
      vertex -4.56084 -8.45 0.439161
    endloop
  endfacet
  facet normal -0.923879 -8.49728e-17 -0.382684
    outer loop
      vertex -6.23022 -10.45 3.33062
      vertex -6.23022 -8.45 3.33062
      vertex -5.58586 -10.45 1.775
    endloop
  endfacet
  facet normal -0.923879 -8.49728e-17 -0.382684
    outer loop
      vertex -5.58586 -10.45 1.775
      vertex -6.23022 -8.45 3.33062
      vertex -5.58586 -8.45 1.775
    endloop
  endfacet
  facet normal 0 1 -0
    outer loop
      vertex -5.58586 -8.45 8.225
      vertex -4.56084 -8.45 9.56084
      vertex -6.23022 -8.45 6.66938
    endloop
  endfacet
  facet normal 0 1 0
    outer loop
      vertex -6.23022 -8.45 6.66938
      vertex -4.56084 -8.45 9.56084
      vertex -3.98851 -8.45 10
    endloop
  endfacet
  facet normal 0 1 0
    outer loop
      vertex -6.23022 -8.45 6.66938
      vertex -3.98851 -8.45 10
      vertex 2 -8.45 10
    endloop
  endfacet
  facet normal 0 1 0
    outer loop
      vertex 1.55 -8.45 5
      vertex 2 -8.45 10
      vertex 2 -8.45 0
    endloop
  endfacet
  facet normal 0 1 0
    outer loop
      vertex -6.23022 -8.45 6.66938
      vertex 2 -8.45 0
      vertex -3.98851 -8.45 0
    endloop
  endfacet
  facet normal 0 1 0
    outer loop
      vertex -6.23022 -8.45 6.66938
      vertex -3.98851 -8.45 0
      vertex -4.56084 -8.45 0.439161
    endloop
  endfacet
  facet normal 0 1 0
    outer loop
      vertex -6.23022 -8.45 6.66938
      vertex -4.56084 -8.45 0.439161
      vertex -5.58586 -8.45 1.775
    endloop
  endfacet
  facet normal 0 1 -0
    outer loop
      vertex -6.23022 -8.45 6.66938
      vertex -5.58586 -8.45 1.775
      vertex -6.23022 -8.45 3.33062
    endloop
  endfacet
  facet normal 0 1 0
    outer loop
      vertex -6.23022 -8.45 6.66938
      vertex -6.23022 -8.45 3.33062
      vertex -6.45 -8.45 5
    endloop
  endfacet
  facet normal 0 1 0
    outer loop
      vertex -6.23022 -8.45 6.66938
      vertex -1.34234 -8.45 4.225
      vertex 2 -8.45 0
    endloop
  endfacet
  facet normal 0 1 0
    outer loop
      vertex -1.34234 -8.45 4.225
      vertex -0.775 -8.45 3.65766
      vertex 2 -8.45 0
    endloop
  endfacet
  facet normal 0 1 0
    outer loop
      vertex 0 -8.45 6.55
      vertex 2 -8.45 10
      vertex 0.775 -8.45 6.34234
    endloop
  endfacet
  facet normal 0 1 0
    outer loop
      vertex -0.775 -8.45 3.65766
      vertex 0 -8.45 3.45
      vertex 2 -8.45 0
    endloop
  endfacet
  facet normal 0 1 0
    outer loop
      vertex 0 -8.45 3.45
      vertex 0.775 -8.45 3.65766
      vertex 2 -8.45 0
    endloop
  endfacet
  facet normal 0 1 0
    outer loop
      vertex 0.775 -8.45 6.34234
      vertex 2 -8.45 10
      vertex 1.34234 -8.45 5.775
    endloop
  endfacet
  facet normal 0 1 0
    outer loop
      vertex 0.775 -8.45 3.65766
      vertex 1.34234 -8.45 4.225
      vertex 2 -8.45 0
    endloop
  endfacet
  facet normal 0 1 0
    outer loop
      vertex 1.34234 -8.45 4.225
      vertex 1.55 -8.45 5
      vertex 2 -8.45 0
    endloop
  endfacet
  facet normal 0 1 0
    outer loop
      vertex -6.23022 -8.45 6.66938
      vertex 2 -8.45 10
      vertex 0 -8.45 6.55
    endloop
  endfacet
  facet normal 0 1 0
    outer loop
      vertex -6.23022 -8.45 6.66938
      vertex 0 -8.45 6.55
      vertex -0.775 -8.45 6.34234
    endloop
  endfacet
  facet normal 0 1 0
    outer loop
      vertex -6.23022 -8.45 6.66938
      vertex -0.775 -8.45 6.34234
      vertex -1.34234 -8.45 5.775
    endloop
  endfacet
  facet normal 0 1 0
    outer loop
      vertex -6.23022 -8.45 6.66938
      vertex -1.34234 -8.45 5.775
      vertex -1.55 -8.45 5
    endloop
  endfacet
  facet normal 0 1 0
    outer loop
      vertex -6.23022 -8.45 6.66938
      vertex -1.55 -8.45 5
      vertex -1.34234 -8.45 4.225
    endloop
  endfacet
  facet normal 0 1 0
    outer loop
      vertex 1.34234 -8.45 5.775
      vertex 2 -8.45 10
      vertex 1.55 -8.45 5
    endloop
  endfacet
  facet normal -1 0 0
    outer loop
      vertex 2 -7.94175 10
      vertex 2 -6.32927 6.05025
      vertex 2 -8.45 10
    endloop
  endfacet
  facet normal -1 0 0
    outer loop
      vertex 2 -8.45 10
      vertex 2 -6.32927 6.05025
      vertex 2 -6.32927 3.94975
    endloop
  endfacet
  facet normal -1 0 0
    outer loop
      vertex 2 -8.45 10
      vertex 2 -6.32927 3.94975
      vertex 2 -7.94175 0
    endloop
  endfacet
  facet normal -1 0 0
    outer loop
      vertex 2 -8.45 10
      vertex 2 -7.94175 0
      vertex 2 -8.45 0
    endloop
  endfacet
  facet normal -0.353553 0.866025 0.353553
    outer loop
      vertex 11.0884 -4.175 9.86174
      vertex 6.22662 -4.175 5
      vertex 10.9501 -4.28789 10
    endloop
  endfacet
  facet normal -0.353553 0.866025 0.353553
    outer loop
      vertex 10.9501 -4.28789 10
      vertex 6.22662 -4.175 5
      vertex 4.53553 -4.86538 5
    endloop
  endfacet
  facet normal -0.353553 0.866025 0.353553
    outer loop
      vertex 10.9501 -4.28789 10
      vertex 4.53553 -4.86538 5
      vertex 2 -6.32927 6.05025
    endloop
  endfacet
  facet normal -0.353553 0.866025 0.353553
    outer loop
      vertex 10.9501 -4.28789 10
      vertex 2 -6.32927 6.05025
      vertex 2 -7.94175 10
    endloop
  endfacet
  facet normal -0.707107 4.63642e-23 -0.707107
    outer loop
      vertex 11.0884 4.175 9.86174
      vertex 11.0884 -4.175 9.86174
      vertex 10.9501 4.28789 10
    endloop
  endfacet
  facet normal -0.707107 0 -0.707107
    outer loop
      vertex 10.9501 4.28789 10
      vertex 11.0884 -4.175 9.86174
      vertex 10.9501 -4.28789 10
    endloop
  endfacet
  facet normal -0.353553 -0.866025 0.353553
    outer loop
      vertex 4.53553 4.86538 5
      vertex 6.22662 4.175 5
      vertex 11.0884 4.175 9.86174
    endloop
  endfacet
  facet normal -0.353553 -0.866025 0.353553
    outer loop
      vertex 2 7.94175 10
      vertex 4.53553 4.86538 5
      vertex 10.9501 4.28789 10
    endloop
  endfacet
  facet normal -0.353553 -0.866025 0.353553
    outer loop
      vertex 10.9501 4.28789 10
      vertex 4.53553 4.86538 5
      vertex 11.0884 4.175 9.86174
    endloop
  endfacet
  facet normal -0.353553 -0.866025 0.353553
    outer loop
      vertex 2 6.32927 6.05025
      vertex 4.53553 4.86538 5
      vertex 2 7.94175 10
    endloop
  endfacet
  facet normal -1 0 0
    outer loop
      vertex 2 7.94175 10
      vertex 2 8.45 10
      vertex 2 6.32927 6.05025
    endloop
  endfacet
  facet normal -1 -0 0
    outer loop
      vertex 2 6.32927 6.05025
      vertex 2 8.45 10
      vertex 2 8.45 0
    endloop
  endfacet
  facet normal -1 0 0
    outer loop
      vertex 2 6.32927 6.05025
      vertex 2 8.45 0
      vertex 2 7.94175 0
    endloop
  endfacet
  facet normal -1 0 0
    outer loop
      vertex 2 6.32927 6.05025
      vertex 2 7.94175 0
      vertex 2 6.32927 3.94975
    endloop
  endfacet
  facet normal 0 -1 0
    outer loop
      vertex -6.23022 8.45 3.33062
      vertex -5.58586 8.45 1.775
      vertex -4.56084 8.45 0.439161
    endloop
  endfacet
  facet normal 0 -1 0
    outer loop
      vertex 2 8.45 0
      vertex -6.23022 8.45 3.33062
      vertex -3.98851 8.45 0
    endloop
  endfacet
  facet normal 0 -1 0
    outer loop
      vertex -3.98851 8.45 0
      vertex -6.23022 8.45 3.33062
      vertex -4.56084 8.45 0.439161
    endloop
  endfacet
  facet normal 0 -1 0
    outer loop
      vertex -0.775 8.45 3.65766
      vertex -6.23022 8.45 3.33062
      vertex 2 8.45 0
    endloop
  endfacet
  facet normal 0 -1 0
    outer loop
      vertex -3.98851 8.45 10
      vertex -6.23022 8.45 3.33062
      vertex 2 8.45 10
    endloop
  endfacet
  facet normal -0 -1 0
    outer loop
      vertex -4.56084 8.45 9.56084
      vertex -6.23022 8.45 3.33062
      vertex -3.98851 8.45 10
    endloop
  endfacet
  facet normal -0 -1 0
    outer loop
      vertex -5.58586 8.45 8.225
      vertex -6.23022 8.45 3.33062
      vertex -4.56084 8.45 9.56084
    endloop
  endfacet
  facet normal -0 -1 0
    outer loop
      vertex -6.23022 8.45 6.66938
      vertex -6.23022 8.45 3.33062
      vertex -5.58586 8.45 8.225
    endloop
  endfacet
  facet normal -0 -1 0
    outer loop
      vertex -6.45 8.45 5
      vertex -6.23022 8.45 3.33062
      vertex -6.23022 8.45 6.66938
    endloop
  endfacet
  facet normal 0 -1 0
    outer loop
      vertex -1.34234 8.45 5.775
      vertex -6.23022 8.45 3.33062
      vertex -1.55 8.45 5
    endloop
  endfacet
  facet normal 0 -1 0
    outer loop
      vertex 2 8.45 10
      vertex -6.23022 8.45 3.33062
      vertex -1.34234 8.45 5.775
    endloop
  endfacet
  facet normal 0 -1 0
    outer loop
      vertex 1.55 8.45 5
      vertex 1.34234 8.45 4.225
      vertex 2 8.45 0
    endloop
  endfacet
  facet normal 0 -1 0
    outer loop
      vertex 2 8.45 10
      vertex -1.34234 8.45 5.775
      vertex -0.775 8.45 6.34234
    endloop
  endfacet
  facet normal 0 -1 0
    outer loop
      vertex 0 8.45 3.45
      vertex -0.775 8.45 3.65766
      vertex 2 8.45 0
    endloop
  endfacet
  facet normal 0 -1 0
    outer loop
      vertex 2 8.45 10
      vertex 0 8.45 6.55
      vertex 0.775 8.45 6.34234
    endloop
  endfacet
  facet normal 0 -1 0
    outer loop
      vertex 2 8.45 10
      vertex 0.775 8.45 6.34234
      vertex 1.34234 8.45 5.775
    endloop
  endfacet
  facet normal 0 -1 0
    outer loop
      vertex 2 8.45 10
      vertex 1.55 8.45 5
      vertex 2 8.45 0
    endloop
  endfacet
  facet normal 0 -1 0
    outer loop
      vertex 2 8.45 10
      vertex 1.34234 8.45 5.775
      vertex 1.55 8.45 5
    endloop
  endfacet
  facet normal 0 -1 0
    outer loop
      vertex 0.775 8.45 3.65766
      vertex 0 8.45 3.45
      vertex 2 8.45 0
    endloop
  endfacet
  facet normal 0 -1 0
    outer loop
      vertex -1.34234 8.45 4.225
      vertex -6.23022 8.45 3.33062
      vertex -0.775 8.45 3.65766
    endloop
  endfacet
  facet normal 0 -1 0
    outer loop
      vertex -1.55 8.45 5
      vertex -6.23022 8.45 3.33062
      vertex -1.34234 8.45 4.225
    endloop
  endfacet
  facet normal 0 -1 0
    outer loop
      vertex -0.775 8.45 6.34234
      vertex 0 8.45 6.55
      vertex 2 8.45 10
    endloop
  endfacet
  facet normal 0 -1 0
    outer loop
      vertex 1.34234 8.45 4.225
      vertex 0.775 8.45 3.65766
      vertex 2 8.45 0
    endloop
  endfacet
  facet normal -0.608761 0 0.793353
    outer loop
      vertex -4.56084 10.45 9.56084
      vertex -4.56084 8.45 9.56084
      vertex -3.98851 8.45 10
    endloop
  endfacet
  facet normal -0.608761 2.70344e-16 0.793353
    outer loop
      vertex -3.98851 10.45 10
      vertex -4.56084 10.45 9.56084
      vertex -3.98851 8.45 10
    endloop
  endfacet
  facet normal 4.04125e-15 1 -5.3204e-16
    outer loop
      vertex -6.45 10.45 5
      vertex -6.23022 10.45 6.66938
      vertex -6.23022 10.45 3.33062
    endloop
  endfacet
  facet normal 1.28446e-15 1 -5.3204e-16
    outer loop
      vertex -6.23022 10.45 3.33062
      vertex -6.23022 10.45 6.66938
      vertex -5.58586 10.45 8.225
    endloop
  endfacet
  facet normal 5.70949e-16 1 -4.38105e-16
    outer loop
      vertex -6.23022 10.45 3.33062
      vertex -5.58586 10.45 8.225
      vertex -4.56084 10.45 9.56084
    endloop
  endfacet
  facet normal 2.75404e-16 1 -3.58914e-16
    outer loop
      vertex -6.23022 10.45 3.33062
      vertex -4.56084 10.45 9.56084
      vertex -3.98851 10.45 10
    endloop
  endfacet
  facet normal 0 1 -2.66345e-16
    outer loop
      vertex -6.23022 10.45 3.33062
      vertex -3.98851 10.45 10
      vertex 3.98851 10.45 10
    endloop
  endfacet
  facet normal -9.39352e-17 1 -1.22419e-16
    outer loop
      vertex -6.23022 10.45 3.33062
      vertex 3.98851 10.45 10
      vertex 4.56084 10.45 9.56084
    endloop
  endfacet
  facet normal 0 1 0
    outer loop
      vertex 0.775 10.45 6.34234
      vertex 4.56084 10.45 9.56084
      vertex 5.58586 10.45 8.225
    endloop
  endfacet
  facet normal 0 1 0
    outer loop
      vertex 1.34234 10.45 5.775
      vertex 5.58586 10.45 8.225
      vertex 6 10.45 7.22519
    endloop
  endfacet
  facet normal 0 1 0
    outer loop
      vertex 1.55 10.45 5
      vertex 6 10.45 7.22519
      vertex 6 10.45 5
    endloop
  endfacet
  facet normal 0 1 0
    outer loop
      vertex -3 10.45 5
      vertex -1.34234 10.45 5.775
      vertex -1.55 10.45 5
    endloop
  endfacet
  facet normal -0 1 0
    outer loop
      vertex -1.34234 10.45 5.775
      vertex -3 10.45 5
      vertex -0.775 10.45 6.34234
    endloop
  endfacet
  facet normal 0 1 0
    outer loop
      vertex 0.775 10.45 6.34234
      vertex 5.58586 10.45 8.225
      vertex 1.34234 10.45 5.775
    endloop
  endfacet
  facet normal 0 1 0
    outer loop
      vertex 0 10.45 6.55
      vertex 4.56084 10.45 9.56084
      vertex 0.775 10.45 6.34234
    endloop
  endfacet
  facet normal 0 1 0
    outer loop
      vertex -0.775 10.45 6.34234
      vertex 4.56084 10.45 9.56084
      vertex 0 10.45 6.55
    endloop
  endfacet
  facet normal -3.84332e-15 1 6.37171e-15
    outer loop
      vertex -6.23022 10.45 3.33062
      vertex 4.56084 10.45 9.56084
      vertex -0.775 10.45 6.34234
    endloop
  endfacet
  facet normal 0 1 0
    outer loop
      vertex -3 10.45 0
      vertex -6.23022 10.45 3.33062
      vertex -3 10.45 5
    endloop
  endfacet
  facet normal -3.83556e-15 1 6.35764e-15
    outer loop
      vertex -6.23022 10.45 3.33062
      vertex -0.775 10.45 6.34234
      vertex -3 10.45 5
    endloop
  endfacet
  facet normal 0 1 0
    outer loop
      vertex -6.23022 10.45 3.33062
      vertex -3 10.45 0
      vertex -3.98851 10.45 0
    endloop
  endfacet
  facet normal 0 1 0
    outer loop
      vertex -6.23022 10.45 3.33062
      vertex -3.98851 10.45 0
      vertex -4.56084 10.45 0.439161
    endloop
  endfacet
  facet normal 0 1 0
    outer loop
      vertex -6.23022 10.45 3.33062
      vertex -4.56084 10.45 0.439161
      vertex -5.58586 10.45 1.775
    endloop
  endfacet
  facet normal 0 1 0
    outer loop
      vertex 1.34234 10.45 5.775
      vertex 6 10.45 7.22519
      vertex 1.55 10.45 5
    endloop
  endfacet
  facet normal 0 1 0
    outer loop
      vertex -3 10.45 0
      vertex -3 10.45 5
      vertex -1.55 10.45 5
    endloop
  endfacet
  facet normal 0 1 0
    outer loop
      vertex -3 10.45 0
      vertex -1.55 10.45 5
      vertex -1.34234 10.45 4.225
    endloop
  endfacet
  facet normal 0 1 0
    outer loop
      vertex -3 10.45 0
      vertex -1.34234 10.45 4.225
      vertex -0.775 10.45 3.65766
    endloop
  endfacet
  facet normal 0 1 -0
    outer loop
      vertex -0.775 10.45 3.65766
      vertex 0 10.45 3.45
      vertex -3 10.45 0
    endloop
  endfacet
  facet normal 0 1 -0
    outer loop
      vertex 0 10.45 3.45
      vertex 0.775 10.45 3.65766
      vertex -3 10.45 0
    endloop
  endfacet
  facet normal 0 1 -0
    outer loop
      vertex 0.775 10.45 3.65766
      vertex 6 10.45 5
      vertex -3 10.45 0
    endloop
  endfacet
  facet normal 0 1 0
    outer loop
      vertex 1.34234 10.45 4.225
      vertex 1.55 10.45 5
      vertex 6 10.45 5
    endloop
  endfacet
  facet normal 0 1 -0
    outer loop
      vertex 1.34234 10.45 4.225
      vertex 6 10.45 5
      vertex 0.775 10.45 3.65766
    endloop
  endfacet
  facet normal 0 1 -0
    outer loop
      vertex 6 10.45 7.22519
      vertex 6.14872 10.45 10
      vertex 6 10.45 5
    endloop
  endfacet
  facet normal 0 1 0
    outer loop
      vertex 5.58586 10.45 8.225
      vertex 6.14872 10.45 10
      vertex 6 10.45 7.22519
    endloop
  endfacet
  facet normal 0 1 0
    outer loop
      vertex 4.56084 10.45 9.56084
      vertex 3.98851 10.45 10
      vertex 6.14872 10.45 10
    endloop
  endfacet
  facet normal 0 1 0
    outer loop
      vertex 4.56084 10.45 9.56084
      vertex 6.14872 10.45 10
      vertex 5.58586 10.45 8.225
    endloop
  endfacet
  facet normal 0 1 0
    outer loop
      vertex 6 10.45 5
      vertex 6.14872 10.45 10
      vertex 13.5605 10.45 5
    endloop
  endfacet
  facet normal 0 1 -0
    outer loop
      vertex 6 10.45 5
      vertex 13.5605 10.45 5
      vertex -3 10.45 0
    endloop
  endfacet
  facet normal 0 1 0
    outer loop
      vertex -3 10.45 0
      vertex 13.5605 10.45 5
      vertex 9.41004 10.45 2.20009
    endloop
  endfacet
  facet normal 0 1 0
    outer loop
      vertex -3 10.45 0
      vertex 9.41004 10.45 2.20009
      vertex 6.14872 10.45 0
    endloop
  endfacet
  facet normal 0.319609 0.820602 0.473775
    outer loop
      vertex 6.14872 10.45 10
      vertex 23 3.88675 10
      vertex 13.5605 10.45 5
    endloop
  endfacet
  facet normal 0.319609 0.820602 0.473775
    outer loop
      vertex 13.5605 10.45 5
      vertex 23 3.88675 10
      vertex 23 6.7735 5
    endloop
  endfacet
  facet normal 1 9.89292e-16 1.39375e-16
    outer loop
      vertex 23 -3.4641 7
      vertex 23 -3.88675 10
      vertex 23 -6.7735 5
    endloop
  endfacet
  facet normal 1 -0 0
    outer loop
      vertex 23 -2 8.4641
      vertex 23 -3.88675 10
      vertex 23 -3.4641 7
    endloop
  endfacet
  facet normal 1 -0 0
    outer loop
      vertex 23 0 9
      vertex 23 -3.88675 10
      vertex 23 -2 8.4641
    endloop
  endfacet
  facet normal 1 0 0
    outer loop
      vertex 23 3.88675 10
      vertex 23 -3.88675 10
      vertex 23 0 9
    endloop
  endfacet
  facet normal 1 0 0
    outer loop
      vertex 23 3.4641 7
      vertex 23 3.88675 10
      vertex 23 2 8.4641
    endloop
  endfacet
  facet normal 1 -4.34496e-15 6.1213e-16
    outer loop
      vertex 23 4 5
      vertex 23 3.88675 10
      vertex 23 3.4641 7
    endloop
  endfacet
  facet normal 1 -0 7.10543e-16
    outer loop
      vertex 23 6.7735 5
      vertex 23 3.88675 10
      vertex 23 4 5
    endloop
  endfacet
  facet normal 1 -0 1.77636e-15
    outer loop
      vertex 23 -4 5
      vertex 23 -3.4641 7
      vertex 23 -6.7735 5
    endloop
  endfacet
  facet normal 1 0 0
    outer loop
      vertex 23 0 9
      vertex 23 2 8.4641
      vertex 23 3.88675 10
    endloop
  endfacet
  facet normal 0.319609 -0.820602 0.473775
    outer loop
      vertex 19.1615 -5.38177 10
      vertex 9.41004 -10.45 7.79991
      vertex 13.5605 -10.45 5
    endloop
  endfacet
  facet normal 0.319609 -0.820602 0.473775
    outer loop
      vertex 23 -6.7735 5
      vertex 19.1615 -5.38177 10
      vertex 13.5605 -10.45 5
    endloop
  endfacet
  facet normal 0.319609 -0.820602 0.473775
    outer loop
      vertex 23 -3.88675 10
      vertex 19.1615 -5.38177 10
      vertex 23 -6.7735 5
    endloop
  endfacet
  facet normal 0.319609 -0.820602 0.473775
    outer loop
      vertex 19.1615 -5.38177 10
      vertex 6.14872 -10.45 10
      vertex 9.41004 -10.45 7.79991
    endloop
  endfacet
  facet normal 0.319609 -0.820602 -0.473775
    outer loop
      vertex 13.5605 -10.45 5
      vertex 6.14872 -10.45 0
      vertex 23 -3.88675 0
    endloop
  endfacet
  facet normal 0.319609 -0.820602 -0.473775
    outer loop
      vertex 23 -6.7735 5
      vertex 13.5605 -10.45 5
      vertex 23 -3.88675 0
    endloop
  endfacet
  facet normal -0.707107 -3.14018e-16 -0.707107
    outer loop
      vertex 1.34234 -8.45 5.775
      vertex 1.34234 -10.45 5.775
      vertex 0.775 -8.45 6.34234
    endloop
  endfacet
  facet normal -0.707107 0 -0.707107
    outer loop
      vertex 0.775 -8.45 6.34234
      vertex 1.34234 -10.45 5.775
      vertex 0.775 -10.45 6.34234
    endloop
  endfacet
  facet normal -0.258819 0 -0.965926
    outer loop
      vertex 0.775 -8.45 6.34234
      vertex 0.775 -10.45 6.34234
      vertex 0 -8.45 6.55
    endloop
  endfacet
  facet normal -0.258819 0 -0.965926
    outer loop
      vertex 0 -8.45 6.55
      vertex 0.775 -10.45 6.34234
      vertex 0 -10.45 6.55
    endloop
  endfacet
  facet normal 0.258819 0 -0.965926
    outer loop
      vertex 0 -8.45 6.55
      vertex 0 -10.45 6.55
      vertex -0.775 -8.45 6.34234
    endloop
  endfacet
  facet normal 0.258819 0 -0.965926
    outer loop
      vertex -0.775 -8.45 6.34234
      vertex 0 -10.45 6.55
      vertex -0.775 -10.45 6.34234
    endloop
  endfacet
  facet normal 0.707107 0 -0.707107
    outer loop
      vertex -1.34234 -8.45 5.775
      vertex -0.775 -8.45 6.34234
      vertex -0.775 -10.45 6.34234
    endloop
  endfacet
  facet normal 0.707107 -3.14018e-16 -0.707107
    outer loop
      vertex -1.34234 -10.45 5.775
      vertex -1.34234 -8.45 5.775
      vertex -0.775 -10.45 6.34234
    endloop
  endfacet
  facet normal -0.608761 -1.7616e-16 -0.793353
    outer loop
      vertex -4.56084 8.45 0.439161
      vertex -4.56084 10.45 0.439161
      vertex -3.98851 8.45 0
    endloop
  endfacet
  facet normal -0.608761 -1.35172e-16 -0.793353
    outer loop
      vertex -3.98851 8.45 0
      vertex -4.56084 10.45 0.439161
      vertex -3.98851 10.45 0
    endloop
  endfacet
  facet normal -0.353553 -0.866025 -0.353553
    outer loop
      vertex 2 7.94175 0
      vertex 10.9501 4.28789 0
      vertex 11.0884 4.175 0.138258
    endloop
  endfacet
  facet normal -0.353553 -0.866025 -0.353553
    outer loop
      vertex 4.53553 4.86538 5
      vertex 2 7.94175 0
      vertex 6.22662 4.175 5
    endloop
  endfacet
  facet normal -0.353553 -0.866025 -0.353553
    outer loop
      vertex 6.22662 4.175 5
      vertex 2 7.94175 0
      vertex 11.0884 4.175 0.138258
    endloop
  endfacet
  facet normal -0.353553 -0.866025 -0.353553
    outer loop
      vertex 2 6.32927 3.94975
      vertex 2 7.94175 0
      vertex 4.53553 4.86538 5
    endloop
  endfacet
  facet normal -0.707107 -4.70085e-18 0.707107
    outer loop
      vertex 11.0884 4.175 0.138258
      vertex 10.9501 4.28789 0
      vertex 11.0884 -4.175 0.138257
    endloop
  endfacet
  facet normal -0.707107 0 0.707107
    outer loop
      vertex 11.0884 -4.175 0.138257
      vertex 10.9501 4.28789 0
      vertex 10.9501 -4.28789 0
    endloop
  endfacet
  facet normal -0.353553 0.866025 -0.353553
    outer loop
      vertex 4.53553 -4.86538 5
      vertex 6.22662 -4.175 5
      vertex 2 -6.32927 3.94975
    endloop
  endfacet
  facet normal -0.353553 0.866025 -0.353553
    outer loop
      vertex 2 -6.32927 3.94975
      vertex 6.22662 -4.175 5
      vertex 11.0884 -4.175 0.138257
    endloop
  endfacet
  facet normal -0.353553 0.866025 -0.353553
    outer loop
      vertex 2 -6.32927 3.94975
      vertex 11.0884 -4.175 0.138257
      vertex 10.9501 -4.28789 0
    endloop
  endfacet
  facet normal -0.353553 0.866025 -0.353553
    outer loop
      vertex 2 -6.32927 3.94975
      vertex 10.9501 -4.28789 0
      vertex 2 -7.94175 0
    endloop
  endfacet
  facet normal 1 -0 0
    outer loop
      vertex 23 -2 1.5359
      vertex 23 -6.7735 5
      vertex 23 -3.88675 0
    endloop
  endfacet
  facet normal 1 0 -0
    outer loop
      vertex 23 2 1.5359
      vertex 23 0 1
      vertex 23 3.88675 0
    endloop
  endfacet
  facet normal 1 0 0
    outer loop
      vertex 23 6.7735 5
      vertex 23 4 5
      vertex 23 3.88675 0
    endloop
  endfacet
  facet normal 1 0 -0
    outer loop
      vertex 23 3.4641 3
      vertex 23 2 1.5359
      vertex 23 3.88675 0
    endloop
  endfacet
  facet normal 1 -0 0
    outer loop
      vertex 23 3.88675 0
      vertex 23 0 1
      vertex 23 -3.88675 0
    endloop
  endfacet
  facet normal 1 -0 0
    outer loop
      vertex 23 0 1
      vertex 23 -2 1.5359
      vertex 23 -3.88675 0
    endloop
  endfacet
  facet normal 1 -0 -0
    outer loop
      vertex 23 -3.4641 3
      vertex 23 -6.7735 5
      vertex 23 -2 1.5359
    endloop
  endfacet
  facet normal 1 0 0
    outer loop
      vertex 23 4 5
      vertex 23 3.4641 3
      vertex 23 3.88675 0
    endloop
  endfacet
  facet normal 1 0 0
    outer loop
      vertex 23 -3.4641 3
      vertex 23 -4 5
      vertex 23 -6.7735 5
    endloop
  endfacet
  facet normal 0.319609 0.820602 -0.473775
    outer loop
      vertex 9.41004 10.45 2.20009
      vertex 13.5605 10.45 5
      vertex 19.1615 5.38177 0
    endloop
  endfacet
  facet normal 0.319609 0.820602 -0.473775
    outer loop
      vertex 19.1615 5.38177 0
      vertex 13.5605 10.45 5
      vertex 23 6.7735 5
    endloop
  endfacet
  facet normal 0.319609 0.820602 -0.473775
    outer loop
      vertex 19.1615 5.38177 0
      vertex 23 6.7735 5
      vertex 23 3.88675 0
    endloop
  endfacet
  facet normal 0.319609 0.820602 -0.473775
    outer loop
      vertex 19.1615 5.38177 0
      vertex 6.14872 10.45 0
      vertex 9.41004 10.45 2.20009
    endloop
  endfacet
  facet normal -0.5 0.866025 0
    outer loop
      vertex 2 -6.32927 6.05025
      vertex 4.53553 -4.86538 5
      vertex 2 -6.32927 3.94975
    endloop
  endfacet
  facet normal -0.707107 7.28144e-09 -0.707107
    outer loop
      vertex 11.0884 4.175 0.138258
      vertex 11.0884 -4.175 0.138257
      vertex 6.22662 4.175 5
    endloop
  endfacet
  facet normal -0.707107 7.28144e-09 -0.707107
    outer loop
      vertex 6.22662 4.175 5
      vertex 11.0884 -4.175 0.138257
      vertex 6.22662 -4.175 5
    endloop
  endfacet
  facet normal -0.707107 7.28144e-09 0.707107
    outer loop
      vertex 11.0884 -4.175 9.86174
      vertex 11.0884 4.175 9.86174
      vertex 6.22662 4.175 5
    endloop
  endfacet
  facet normal -0.707107 7.28144e-09 0.707107
    outer loop
      vertex 6.22662 -4.175 5
      vertex 11.0884 -4.175 9.86174
      vertex 6.22662 4.175 5
    endloop
  endfacet
  facet normal -0.5 -0.866025 0
    outer loop
      vertex 4.53553 4.86538 5
      vertex 2 6.32927 6.05025
      vertex 2 6.32927 3.94975
    endloop
  endfacet
  facet normal -0.991445 -0 -0.130526
    outer loop
      vertex -6.45 8.45 5
      vertex -6.45 10.45 5
      vertex -6.23022 8.45 3.33062
    endloop
  endfacet
  facet normal -0.991445 -2.89826e-17 -0.130526
    outer loop
      vertex -6.23022 8.45 3.33062
      vertex -6.45 10.45 5
      vertex -6.23022 10.45 3.33062
    endloop
  endfacet
  facet normal -0.923879 -8.49728e-17 -0.382684
    outer loop
      vertex -6.23022 8.45 3.33062
      vertex -6.23022 10.45 3.33062
      vertex -5.58586 8.45 1.775
    endloop
  endfacet
  facet normal -0.923879 -8.49728e-17 -0.382684
    outer loop
      vertex -5.58586 8.45 1.775
      vertex -6.23022 10.45 3.33062
      vertex -5.58586 10.45 1.775
    endloop
  endfacet
  facet normal -0.991445 0 0.130526
    outer loop
      vertex -6.45 8.45 5
      vertex -6.23022 8.45 6.66938
      vertex -6.45 10.45 5
    endloop
  endfacet
  facet normal -0.991445 0 0.130526
    outer loop
      vertex -6.45 10.45 5
      vertex -6.23022 8.45 6.66938
      vertex -6.23022 10.45 6.66938
    endloop
  endfacet
  facet normal -0.923879 0 0.382684
    outer loop
      vertex -6.23022 8.45 6.66938
      vertex -5.58586 8.45 8.225
      vertex -6.23022 10.45 6.66938
    endloop
  endfacet
  facet normal -0.923879 0 0.382684
    outer loop
      vertex -6.23022 10.45 6.66938
      vertex -5.58586 8.45 8.225
      vertex -5.58586 10.45 8.225
    endloop
  endfacet
  facet normal -0.793353 0 0.608761
    outer loop
      vertex -5.58586 8.45 8.225
      vertex -4.56084 8.45 9.56084
      vertex -5.58586 10.45 8.225
    endloop
  endfacet
  facet normal -0.793353 0 0.608761
    outer loop
      vertex -5.58586 10.45 8.225
      vertex -4.56084 8.45 9.56084
      vertex -4.56084 10.45 9.56084
    endloop
  endfacet
  facet normal -0.793353 -1.35172e-16 -0.608761
    outer loop
      vertex -5.58586 8.45 1.775
      vertex -5.58586 10.45 1.775
      vertex -4.56084 8.45 0.439161
    endloop
  endfacet
  facet normal -0.793353 -1.35172e-16 -0.608761
    outer loop
      vertex -4.56084 8.45 0.439161
      vertex -5.58586 10.45 1.775
      vertex -4.56084 10.45 0.439161
    endloop
  endfacet
  facet normal 0.965926 -1.0378e-16 -0.258819
    outer loop
      vertex -1.55 10.45 5
      vertex -1.34234 10.45 5.775
      vertex -1.34234 8.45 5.775
    endloop
  endfacet
  facet normal 0.965926 0 -0.258819
    outer loop
      vertex -1.55 8.45 5
      vertex -1.55 10.45 5
      vertex -1.34234 8.45 5.775
    endloop
  endfacet
  facet normal 0.965926 1.14939e-16 0.258819
    outer loop
      vertex -1.34234 8.45 4.225
      vertex -1.34234 10.45 4.225
      vertex -1.55 10.45 5
    endloop
  endfacet
  facet normal 0.965926 0 0.258819
    outer loop
      vertex -1.55 8.45 5
      vertex -1.34234 8.45 4.225
      vertex -1.55 10.45 5
    endloop
  endfacet
  facet normal 0.707107 1.57009e-16 0.707107
    outer loop
      vertex -0.775 8.45 3.65766
      vertex -0.775 10.45 3.65766
      vertex -1.34234 10.45 4.225
    endloop
  endfacet
  facet normal 0.707107 3.14018e-16 0.707107
    outer loop
      vertex -1.34234 8.45 4.225
      vertex -0.775 8.45 3.65766
      vertex -1.34234 10.45 4.225
    endloop
  endfacet
  facet normal 0.258819 2.14479e-16 0.965926
    outer loop
      vertex 0 8.45 3.45
      vertex 0 10.45 3.45
      vertex -0.775 10.45 3.65766
    endloop
  endfacet
  facet normal 0.258819 2.14479e-16 0.965926
    outer loop
      vertex -0.775 8.45 3.65766
      vertex 0 8.45 3.45
      vertex -0.775 10.45 3.65766
    endloop
  endfacet
  facet normal -0.258819 2.14479e-16 0.965926
    outer loop
      vertex 0.775 8.45 3.65766
      vertex 0.775 10.45 3.65766
      vertex 0 10.45 3.45
    endloop
  endfacet
  facet normal -0.258819 2.14479e-16 0.965926
    outer loop
      vertex 0 8.45 3.45
      vertex 0.775 8.45 3.65766
      vertex 0 10.45 3.45
    endloop
  endfacet
  facet normal -0.707107 3.14018e-16 0.707107
    outer loop
      vertex 1.34234 10.45 4.225
      vertex 0.775 10.45 3.65766
      vertex 1.34234 8.45 4.225
    endloop
  endfacet
  facet normal -0.707107 1.38373e-16 0.707107
    outer loop
      vertex 1.34234 8.45 4.225
      vertex 0.775 10.45 3.65766
      vertex 0.775 8.45 3.65766
    endloop
  endfacet
  facet normal -0.965926 0 0.258819
    outer loop
      vertex 1.55 10.45 5
      vertex 1.34234 10.45 4.225
      vertex 1.55 8.45 5
    endloop
  endfacet
  facet normal -0.965926 1.0378e-16 0.258819
    outer loop
      vertex 1.55 8.45 5
      vertex 1.34234 10.45 4.225
      vertex 1.34234 8.45 4.225
    endloop
  endfacet
  facet normal -0.965926 0 -0.258819
    outer loop
      vertex 1.55 10.45 5
      vertex 1.55 8.45 5
      vertex 1.34234 10.45 5.775
    endloop
  endfacet
  facet normal -0.965926 -1.14939e-16 -0.258819
    outer loop
      vertex 1.34234 10.45 5.775
      vertex 1.55 8.45 5
      vertex 1.34234 8.45 5.775
    endloop
  endfacet
  facet normal -0.707107 -3.14018e-16 -0.707107
    outer loop
      vertex 1.34234 10.45 5.775
      vertex 1.34234 8.45 5.775
      vertex 0.775 10.45 6.34234
    endloop
  endfacet
  facet normal -0.707107 0 -0.707107
    outer loop
      vertex 0.775 10.45 6.34234
      vertex 1.34234 8.45 5.775
      vertex 0.775 8.45 6.34234
    endloop
  endfacet
  facet normal -0.258819 0 -0.965926
    outer loop
      vertex 0.775 10.45 6.34234
      vertex 0.775 8.45 6.34234
      vertex 0 10.45 6.55
    endloop
  endfacet
  facet normal -0.258819 0 -0.965926
    outer loop
      vertex 0 10.45 6.55
      vertex 0.775 8.45 6.34234
      vertex 0 8.45 6.55
    endloop
  endfacet
  facet normal 0.258819 0 -0.965926
    outer loop
      vertex 0 10.45 6.55
      vertex 0 8.45 6.55
      vertex -0.775 10.45 6.34234
    endloop
  endfacet
  facet normal 0.258819 0 -0.965926
    outer loop
      vertex -0.775 10.45 6.34234
      vertex 0 8.45 6.55
      vertex -0.775 8.45 6.34234
    endloop
  endfacet
  facet normal 0.707107 0 -0.707107
    outer loop
      vertex -1.34234 10.45 5.775
      vertex -0.775 10.45 6.34234
      vertex -0.775 8.45 6.34234
    endloop
  endfacet
  facet normal 0.707107 -3.14018e-16 -0.707107
    outer loop
      vertex -1.34234 8.45 5.775
      vertex -1.34234 10.45 5.775
      vertex -0.775 8.45 6.34234
    endloop
  endfacet
  facet normal 5.74693e-17 -0.965926 -0.258819
    outer loop
      vertex 11 3.4641 7
      vertex 11 4 5
      vertex 23 3.4641 7
    endloop
  endfacet
  facet normal 4.02147e-17 -0.965926 -0.258819
    outer loop
      vertex 23 3.4641 7
      vertex 11 4 5
      vertex 23 4 5
    endloop
  endfacet
  facet normal 1.57009e-16 -0.707107 -0.707107
    outer loop
      vertex 11 3.4641 7
      vertex 23 3.4641 7
      vertex 23 2 8.4641
    endloop
  endfacet
  facet normal 2.09346e-16 -0.707107 -0.707107
    outer loop
      vertex 11 2 8.4641
      vertex 11 3.4641 7
      vertex 23 2 8.4641
    endloop
  endfacet
  facet normal 2.85972e-16 -0.258819 -0.965926
    outer loop
      vertex 23 2 8.4641
      vertex 23 0 9
      vertex 11 2 8.4641
    endloop
  endfacet
  facet normal 2.81503e-16 -0.258819 -0.965926
    outer loop
      vertex 11 2 8.4641
      vertex 23 0 9
      vertex 11 0 9
    endloop
  endfacet
  facet normal 2.85972e-16 0.258819 -0.965926
    outer loop
      vertex 23 -2 8.4641
      vertex 11 -2 8.4641
      vertex 23 0 9
    endloop
  endfacet
  facet normal 2.85972e-16 0.258819 -0.965926
    outer loop
      vertex 23 0 9
      vertex 11 -2 8.4641
      vertex 11 0 9
    endloop
  endfacet
  facet normal 1.57009e-16 0.707107 -0.707107
    outer loop
      vertex 23 -3.4641 7
      vertex 11 -3.4641 7
      vertex 23 -2 8.4641
    endloop
  endfacet
  facet normal 2.09346e-16 0.707107 -0.707107
    outer loop
      vertex 23 -2 8.4641
      vertex 11 -3.4641 7
      vertex 11 -2 8.4641
    endloop
  endfacet
  facet normal 5.52953e-17 0.965926 -0.258819
    outer loop
      vertex 23 -3.4641 7
      vertex 23 -4 5
      vertex 11 -4 5
    endloop
  endfacet
  facet normal 5.74693e-17 0.965926 -0.258819
    outer loop
      vertex 23 -3.4641 7
      vertex 11 -4 5
      vertex 11 -3.4641 7
    endloop
  endfacet
  facet normal -4.78911e-17 0.965926 0.258819
    outer loop
      vertex 23 -3.4641 3
      vertex 11 -3.4641 3
      vertex 23 -4 5
    endloop
  endfacet
  facet normal -5.74693e-17 0.965926 0.258819
    outer loop
      vertex 23 -4 5
      vertex 11 -3.4641 3
      vertex 11 -4 5
    endloop
  endfacet
  facet normal -1.43925e-16 0.707107 0.707107
    outer loop
      vertex 23 -2 1.5359
      vertex 11 -2 1.5359
      vertex 23 -3.4641 3
    endloop
  endfacet
  facet normal -1.30841e-16 0.707107 0.707107
    outer loop
      vertex 23 -3.4641 3
      vertex 11 -2 1.5359
      vertex 11 -3.4641 3
    endloop
  endfacet
  facet normal -1.9102e-16 0.258819 0.965926
    outer loop
      vertex 23 -2 1.5359
      vertex 23 0 1
      vertex 11 0 1
    endloop
  endfacet
  facet normal -1.96605e-16 0.258819 0.965926
    outer loop
      vertex 11 -2 1.5359
      vertex 23 -2 1.5359
      vertex 11 0 1
    endloop
  endfacet
  facet normal -1.96605e-16 -0.258819 0.965926
    outer loop
      vertex 11 0 1
      vertex 23 0 1
      vertex 23 2 1.5359
    endloop
  endfacet
  facet normal -1.96605e-16 -0.258819 0.965926
    outer loop
      vertex 11 2 1.5359
      vertex 11 0 1
      vertex 23 2 1.5359
    endloop
  endfacet
  facet normal -1.43925e-16 -0.707107 0.707107
    outer loop
      vertex 11 2 1.5359
      vertex 23 2 1.5359
      vertex 23 3.4641 3
    endloop
  endfacet
  facet normal -1.30841e-16 -0.707107 0.707107
    outer loop
      vertex 11 3.4641 3
      vertex 11 2 1.5359
      vertex 23 3.4641 3
    endloop
  endfacet
  facet normal -4.78911e-17 -0.965926 0.258819
    outer loop
      vertex 11 3.4641 3
      vertex 23 3.4641 3
      vertex 23 4 5
    endloop
  endfacet
  facet normal -5.74693e-17 -0.965926 0.258819
    outer loop
      vertex 11 4 5
      vertex 11 3.4641 3
      vertex 23 4 5
    endloop
  endfacet
  facet normal 1 -1.21327e-15 1.21327e-15
    outer loop
      vertex 11 -2 8.4641
      vertex 11 -3.4641 7
      vertex 11 -4 5
    endloop
  endfacet
  facet normal 1 2.56395e-16 2.56395e-16
    outer loop
      vertex 11 -2 1.5359
      vertex 11 -2 8.4641
      vertex 11 -3.4641 3
    endloop
  endfacet
  facet normal 1 6.06637e-16 1.62548e-16
    outer loop
      vertex 11 -3.4641 3
      vertex 11 -2 8.4641
      vertex 11 -4 5
    endloop
  endfacet
  facet normal 1 6.87008e-17 2.56395e-16
    outer loop
      vertex 11 0 1
      vertex 11 -2 8.4641
      vertex 11 -2 1.5359
    endloop
  endfacet
  facet normal 1 -5.94966e-17 2.22045e-16
    outer loop
      vertex 11 2 1.5359
      vertex 11 -2 8.4641
      vertex 11 0 1
    endloop
  endfacet
  facet normal 1 -1.62548e-16 1.62548e-16
    outer loop
      vertex 11 3.4641 3
      vertex 11 -2 8.4641
      vertex 11 2 1.5359
    endloop
  endfacet
  facet normal 1 -2.56395e-16 6.87008e-17
    outer loop
      vertex 11 4 5
      vertex 11 -2 8.4641
      vertex 11 3.4641 3
    endloop
  endfacet
  facet normal 1 2.56395e-16 9.56879e-16
    outer loop
      vertex 11 3.4641 7
      vertex 11 -2 8.4641
      vertex 11 4 5
    endloop
  endfacet
  facet normal 1 0 -0
    outer loop
      vertex 11 2 8.4641
      vertex 11 -2 8.4641
      vertex 11 3.4641 7
    endloop
  endfacet
  facet normal 1 0 -0
    outer loop
      vertex 11 0 9
      vertex 11 -2 8.4641
      vertex 11 2 8.4641
    endloop
  endfacet
endsolid OpenSCAD_Model
