solid OpenSCAD_Model
  facet normal -0 -0 -1
    outer loop
      vertex -87.5 34.8878 0
      vertex -87.5 58.3333 0
      vertex -8 -102.81 0
    endloop
  endfacet
  facet normal 0 -0 -1
    outer loop
      vertex -30 52.5333 0
      vertex -87.5 58.3333 0
      vertex 87.5 58.3333 0
    endloop
  endfacet
  facet normal -0 0 -1
    outer loop
      vertex 77 38.8679 0
      vertex 87.5 58.3333 0
      vertex 87.5 34.8878 0
    endloop
  endfacet
  facet normal -0 0 -1
    outer loop
      vertex -2.09832e-14 -94.5 0
      vertex 87.5 34.8878 0
      vertex 8 -102.81 0
    endloop
  endfacet
  facet normal 0 0 -1
    outer loop
      vertex -8 -102.81 0
      vertex 8 -102.81 0
      vertex 8 -116.667 0
    endloop
  endfacet
  facet normal 0 0 -1
    outer loop
      vertex -8 -102.81 0
      vertex 8 -116.667 0
      vertex 6.9282 -120.667 0
    endloop
  endfacet
  facet normal 0 0 -1
    outer loop
      vertex 1.90526 -117.767 0
      vertex 6.9282 -120.667 0
      vertex 4 -123.595 0
    endloop
  endfacet
  facet normal 0 0 -1
    outer loop
      vertex -44.456 -17.5 0
      vertex -8 -102.81 0
      vertex -77 38.8679 0
    endloop
  endfacet
  facet normal 0 0 -1
    outer loop
      vertex -4 -123.595 0
      vertex -6.9282 -120.667 0
      vertex -8 -116.667 0
    endloop
  endfacet
  facet normal 0 0 -1
    outer loop
      vertex -77 38.8679 0
      vertex -87.5 58.3333 0
      vertex -77 47.25 0
    endloop
  endfacet
  facet normal 0 0 -1
    outer loop
      vertex -8 -102.81 0
      vertex -87.5 58.3333 0
      vertex -77 38.8679 0
    endloop
  endfacet
  facet normal 0 0 -1
    outer loop
      vertex -26 43.4051 0
      vertex -22.8262 47.25 0
      vertex -23.0718 46.3333 0
    endloop
  endfacet
  facet normal 0 0 -1
    outer loop
      vertex -37.1738 47.25 0
      vertex 87.5 58.3333 0
      vertex -22.8262 47.25 0
    endloop
  endfacet
  facet normal 0 0 -1
    outer loop
      vertex -36.9282 46.3333 0
      vertex -26 43.4051 0
      vertex -34 43.4051 0
    endloop
  endfacet
  facet normal 0 -0 -1
    outer loop
      vertex -30 42.3333 0
      vertex -34 43.4051 0
      vertex -26 43.4051 0
    endloop
  endfacet
  facet normal 0 0 -1
    outer loop
      vertex -2.09832e-14 -94.5 0
      vertex -8 -102.81 0
      vertex -37.3834 -29.75 0
    endloop
  endfacet
  facet normal 0 -0 -1
    outer loop
      vertex -26 43.4051 0
      vertex -36.9282 46.3333 0
      vertex -22.8262 47.25 0
    endloop
  endfacet
  facet normal 0 -0 -1
    outer loop
      vertex -36.9282 46.3333 0
      vertex -37.1738 47.25 0
      vertex -22.8262 47.25 0
    endloop
  endfacet
  facet normal 0 0 -1
    outer loop
      vertex 4.56861 -21.5833 0
      vertex -4.23528 -29.75 0
      vertex -4.56861 -21.5833 0
    endloop
  endfacet
  facet normal 0 0 -1
    outer loop
      vertex 37.3834 -21.5833 0
      vertex 4.23528 -29.75 0
      vertex 4.56861 -21.5833 0
    endloop
  endfacet
  facet normal 0 0 -1
    outer loop
      vertex -8 -102.81 0
      vertex -44.456 -17.5 0
      vertex -37.3834 -29.75 0
    endloop
  endfacet
  facet normal 0 0 -1
    outer loop
      vertex -4.56861 -21.5833 0
      vertex -4.23528 -29.75 0
      vertex -37.3834 -21.5833 0
    endloop
  endfacet
  facet normal -0 0 -1
    outer loop
      vertex 4.23528 -29.75 0
      vertex 37.3834 -21.5833 0
      vertex 37.3834 -29.75 0
    endloop
  endfacet
  facet normal -0 0 -1
    outer loop
      vertex -8 -102.81 0
      vertex -2.09832e-14 -94.5 0
      vertex 8 -102.81 0
    endloop
  endfacet
  facet normal 0 0 -1
    outer loop
      vertex 30 42.3333 0
      vertex 36.9282 46.3333 0
      vertex 34 43.4051 0
    endloop
  endfacet
  facet normal 0 -0 -1
    outer loop
      vertex 6.66134e-16 -33.9853 0
      vertex -4.23528 -29.75 0
      vertex 4.23528 -29.75 0
    endloop
  endfacet
  facet normal 0 0 -1
    outer loop
      vertex -31.9053 49.2333 0
      vertex -77 47.25 0
      vertex -32.2 50.3333 0
    endloop
  endfacet
  facet normal 0 -0 -1
    outer loop
      vertex -37.3834 -29.75 0
      vertex -44.456 -17.5 0
      vertex -37.3834 -21.5833 0
    endloop
  endfacet
  facet normal -0 0 -1
    outer loop
      vertex -37.3834 -29.75 0
      vertex -37.3834 -21.5833 0
      vertex -4.23528 -29.75 0
    endloop
  endfacet
  facet normal 0 0 -1
    outer loop
      vertex 4.56861 -21.5833 0
      vertex -4.56861 -21.5833 0
      vertex -6.66134e-16 -17.0147 0
    endloop
  endfacet
  facet normal -0 0 -1
    outer loop
      vertex 23.0718 46.3333 0
      vertex 37.1738 47.25 0
      vertex 26 43.4051 0
    endloop
  endfacet
  facet normal 0 -0 -1
    outer loop
      vertex 4.23528 -29.75 0
      vertex -4.23528 -29.75 0
      vertex 4.56861 -21.5833 0
    endloop
  endfacet
  facet normal 0 0 -1
    outer loop
      vertex -44.456 -17.5 0
      vertex -7.07254 47.25 0
      vertex 3.23661e-07 43.1667 0
    endloop
  endfacet
  facet normal 0 0 -1
    outer loop
      vertex 44.456 -17.5 0
      vertex 37.3834 -21.5833 0
      vertex 3.23661e-07 43.1667 0
    endloop
  endfacet
  facet normal 0 -0 -1
    outer loop
      vertex -77 47.25 0
      vertex -87.5 58.3333 0
      vertex -32.2 50.3333 0
    endloop
  endfacet
  facet normal 0 -0 -1
    outer loop
      vertex -37.1738 47.25 0
      vertex -77 47.25 0
      vertex -31.9053 49.2333 0
    endloop
  endfacet
  facet normal 0 0 -1
    outer loop
      vertex -37.1738 47.25 0
      vertex -31.9053 49.2333 0
      vertex -31.1 48.4281 0
    endloop
  endfacet
  facet normal 0 0 -1
    outer loop
      vertex -37.1738 47.25 0
      vertex -31.1 48.4281 0
      vertex -30 48.1333 0
    endloop
  endfacet
  facet normal 0 0 -1
    outer loop
      vertex -37.1738 47.25 0
      vertex -30 48.1333 0
      vertex 87.5 58.3333 0
    endloop
  endfacet
  facet normal 0 0 -1
    outer loop
      vertex -30 48.1333 0
      vertex -28.9 48.4281 0
      vertex 87.5 58.3333 0
    endloop
  endfacet
  facet normal -0 0 -1
    outer loop
      vertex -27.8 50.3333 0
      vertex 87.5 58.3333 0
      vertex -28.0947 49.2333 0
    endloop
  endfacet
  facet normal -0 0 -1
    outer loop
      vertex -28.0947 49.2333 0
      vertex 87.5 58.3333 0
      vertex -28.9 48.4281 0
    endloop
  endfacet
  facet normal -0 0 -1
    outer loop
      vertex -28.0947 51.4333 0
      vertex 87.5 58.3333 0
      vertex -27.8 50.3333 0
    endloop
  endfacet
  facet normal 0 0 -1
    outer loop
      vertex -1.1 -118.572 0
      vertex 0 -124.667 0
      vertex -1.90526 -117.767 0
    endloop
  endfacet
  facet normal 0 -0 -1
    outer loop
      vertex -31.1 52.2386 0
      vertex -87.5 58.3333 0
      vertex -30 52.5333 0
    endloop
  endfacet
  facet normal 0 -0 -1
    outer loop
      vertex -31.9053 51.4333 0
      vertex -87.5 58.3333 0
      vertex -31.1 52.2386 0
    endloop
  endfacet
  facet normal 0 -0 -1
    outer loop
      vertex -28.0947 51.4333 0
      vertex -28.9 52.2386 0
      vertex 87.5 58.3333 0
    endloop
  endfacet
  facet normal 0 -0 -1
    outer loop
      vertex -28.9 52.2386 0
      vertex -30 52.5333 0
      vertex 87.5 58.3333 0
    endloop
  endfacet
  facet normal 0 -0 -1
    outer loop
      vertex -32.2 50.3333 0
      vertex -87.5 58.3333 0
      vertex -31.9053 51.4333 0
    endloop
  endfacet
  facet normal 0 0 -1
    outer loop
      vertex 0 -118.867 0
      vertex 4 -123.595 0
      vertex -1.1 -118.572 0
    endloop
  endfacet
  facet normal -0 0 -1
    outer loop
      vertex 37.3834 -29.75 0
      vertex 87.5 34.8878 0
      vertex -2.09832e-14 -94.5 0
    endloop
  endfacet
  facet normal 0 0 -1
    outer loop
      vertex 4 -123.595 0
      vertex 0 -124.667 0
      vertex -1.1 -118.572 0
    endloop
  endfacet
  facet normal 0 -0 -1
    outer loop
      vertex -1.90526 -115.567 0
      vertex -8 -102.81 0
      vertex -1.1 -114.761 0
    endloop
  endfacet
  facet normal 0 0 -1
    outer loop
      vertex 1.90526 -117.767 0
      vertex 4 -123.595 0
      vertex 1.1 -118.572 0
    endloop
  endfacet
  facet normal 0 0 -1
    outer loop
      vertex 4 -123.595 0
      vertex 0 -118.867 0
      vertex 1.1 -118.572 0
    endloop
  endfacet
  facet normal 0 -0 -1
    outer loop
      vertex -37.3834 -21.5833 0
      vertex -44.456 -17.5 0
      vertex 3.23661e-07 43.1667 0
    endloop
  endfacet
  facet normal 0 0 -1
    outer loop
      vertex 2.2 -116.667 0
      vertex 6.9282 -120.667 0
      vertex 1.90526 -117.767 0
    endloop
  endfacet
  facet normal -0 -0 -1
    outer loop
      vertex 0 -114.467 0
      vertex -8 -102.81 0
      vertex 1.1 -114.761 0
    endloop
  endfacet
  facet normal 0 0 -1
    outer loop
      vertex 1.90526 -115.567 0
      vertex 6.9282 -120.667 0
      vertex 2.2 -116.667 0
    endloop
  endfacet
  facet normal 0 0 -1
    outer loop
      vertex -8 -102.81 0
      vertex 6.9282 -120.667 0
      vertex 1.90526 -115.567 0
    endloop
  endfacet
  facet normal 0 0 -1
    outer loop
      vertex -8 -102.81 0
      vertex 1.90526 -115.567 0
      vertex 1.1 -114.761 0
    endloop
  endfacet
  facet normal 0 -0 -1
    outer loop
      vertex -1.1 -114.761 0
      vertex -8 -102.81 0
      vertex 0 -114.467 0
    endloop
  endfacet
  facet normal 0 0 -1
    outer loop
      vertex 30 42.3333 0
      vertex 37.1738 47.25 0
      vertex 36.9282 46.3333 0
    endloop
  endfacet
  facet normal 0 0 -1
    outer loop
      vertex 44.456 -17.5 0
      vertex 37.3834 -29.75 0
      vertex 37.3834 -21.5833 0
    endloop
  endfacet
  facet normal -0 0 -1
    outer loop
      vertex 77 47.25 0
      vertex 87.5 58.3333 0
      vertex 77 38.8679 0
    endloop
  endfacet
  facet normal 0 0 -1
    outer loop
      vertex 37.3834 -29.75 0
      vertex 44.456 -17.5 0
      vertex 87.5 34.8878 0
    endloop
  endfacet
  facet normal 0 0 -1
    outer loop
      vertex 44.456 -17.5 0
      vertex 77 38.8679 0
      vertex 87.5 34.8878 0
    endloop
  endfacet
  facet normal 0 -0 -1
    outer loop
      vertex 27.8 50.3333 0
      vertex -7.07254 47.25 0
      vertex 28.0947 51.4333 0
    endloop
  endfacet
  facet normal 0 -0 -1
    outer loop
      vertex 28.0947 51.4333 0
      vertex -22.8262 47.25 0
      vertex 28.9 52.2386 0
    endloop
  endfacet
  facet normal -0 0 -1
    outer loop
      vertex 37.1738 47.25 0
      vertex 87.5 58.3333 0
      vertex 77 47.25 0
    endloop
  endfacet
  facet normal 0 -0 -1
    outer loop
      vertex 30 42.3333 0
      vertex 26 43.4051 0
      vertex 37.1738 47.25 0
    endloop
  endfacet
  facet normal 0 -0 -1
    outer loop
      vertex 37.1738 47.25 0
      vertex 23.0718 46.3333 0
      vertex 87.5 58.3333 0
    endloop
  endfacet
  facet normal 0 -0 -1
    outer loop
      vertex 7.07254 47.25 0
      vertex -7.07254 47.25 0
      vertex 27.8 50.3333 0
    endloop
  endfacet
  facet normal 0 -0 -1
    outer loop
      vertex 22.8262 47.25 0
      vertex 7.07254 47.25 0
      vertex 28.0947 49.2333 0
    endloop
  endfacet
  facet normal 0 0 -1
    outer loop
      vertex 22.8262 47.25 0
      vertex 28.0947 49.2333 0
      vertex 28.9 48.4281 0
    endloop
  endfacet
  facet normal 0 0 -1
    outer loop
      vertex 44.456 -17.5 0
      vertex 3.23661e-07 43.1667 0
      vertex 7.07254 47.25 0
    endloop
  endfacet
  facet normal 0 0 -1
    outer loop
      vertex 23.0718 46.3333 0
      vertex 30 48.1333 0
      vertex 87.5 58.3333 0
    endloop
  endfacet
  facet normal 0 -0 -1
    outer loop
      vertex 3.23661e-07 43.1667 0
      vertex -7.07254 47.25 0
      vertex 7.07254 47.25 0
    endloop
  endfacet
  facet normal 0 0 -1
    outer loop
      vertex 30 48.1333 0
      vertex 31.1 48.4281 0
      vertex 87.5 58.3333 0
    endloop
  endfacet
  facet normal -0 0 -1
    outer loop
      vertex 32.2 50.3333 0
      vertex 87.5 58.3333 0
      vertex 31.9053 49.2333 0
    endloop
  endfacet
  facet normal 0 0 -1
    outer loop
      vertex 30 48.1333 0
      vertex 22.8262 47.25 0
      vertex 28.9 48.4281 0
    endloop
  endfacet
  facet normal -0 0 -1
    outer loop
      vertex 31.9053 51.4333 0
      vertex 87.5 58.3333 0
      vertex 32.2 50.3333 0
    endloop
  endfacet
  facet normal 0 0 -1
    outer loop
      vertex 28.0947 49.2333 0
      vertex 7.07254 47.25 0
      vertex 27.8 50.3333 0
    endloop
  endfacet
  facet normal -0 0 -1
    outer loop
      vertex 31.1 52.2386 0
      vertex 87.5 58.3333 0
      vertex 31.9053 51.4333 0
    endloop
  endfacet
  facet normal -0 0 -1
    outer loop
      vertex 30 52.5333 0
      vertex 87.5 58.3333 0
      vertex 31.1 52.2386 0
    endloop
  endfacet
  facet normal 0 0 -1
    outer loop
      vertex -22.8262 47.25 0
      vertex 87.5 58.3333 0
      vertex 30 52.5333 0
    endloop
  endfacet
  facet normal 0 0 -1
    outer loop
      vertex -22.8262 47.25 0
      vertex 30 52.5333 0
      vertex 28.9 52.2386 0
    endloop
  endfacet
  facet normal 0 0 -1
    outer loop
      vertex 28.0947 51.4333 0
      vertex -7.07254 47.25 0
      vertex -22.8262 47.25 0
    endloop
  endfacet
  facet normal -0 0 -1
    outer loop
      vertex 22.8262 47.25 0
      vertex 30 48.1333 0
      vertex 23.0718 46.3333 0
    endloop
  endfacet
  facet normal -0 0 -1
    outer loop
      vertex 31.9053 49.2333 0
      vertex 87.5 58.3333 0
      vertex 31.1 48.4281 0
    endloop
  endfacet
  facet normal 0 0 -1
    outer loop
      vertex -8 -102.81 0
      vertex -1.90526 -115.567 0
      vertex -2.2 -116.667 0
    endloop
  endfacet
  facet normal 0 0 -1
    outer loop
      vertex -8 -102.81 0
      vertex -2.2 -116.667 0
      vertex -1.90526 -117.767 0
    endloop
  endfacet
  facet normal 0 0 -1
    outer loop
      vertex -8 -102.81 0
      vertex -1.90526 -117.767 0
      vertex 0 -124.667 0
    endloop
  endfacet
  facet normal 0 0 -1
    outer loop
      vertex -8 -102.81 0
      vertex 0 -124.667 0
      vertex -4 -123.595 0
    endloop
  endfacet
  facet normal 0 0 -1
    outer loop
      vertex -8 -102.81 0
      vertex -4 -123.595 0
      vertex -8 -116.667 0
    endloop
  endfacet
  facet normal -1 -0 -0
    outer loop
      vertex -87.5 34.8878 0
      vertex -87.5 34.8878 4
      vertex -87.5 58.3333 0
    endloop
  endfacet
  facet normal -1 0 0
    outer loop
      vertex -87.5 58.3333 0
      vertex -87.5 34.8878 4
      vertex -87.5 58.3333 4
    endloop
  endfacet
  facet normal -0.866025 -0.5 -0
    outer loop
      vertex -87.5 34.8878 0
      vertex -8 -102.81 0
      vertex -87.5 34.8878 4
    endloop
  endfacet
  facet normal -0.866025 -0.5 0
    outer loop
      vertex -87.5 34.8878 4
      vertex -8 -102.81 0
      vertex -8 -102.81 4
    endloop
  endfacet
  facet normal -1 -0 -0
    outer loop
      vertex -8 -116.667 0
      vertex -8 -116.667 4
      vertex -8 -102.81 0
    endloop
  endfacet
  facet normal -1 0 0
    outer loop
      vertex -8 -102.81 0
      vertex -8 -116.667 4
      vertex -8 -102.81 4
    endloop
  endfacet
  facet normal -0.965926 -0.258819 -0
    outer loop
      vertex -8 -116.667 0
      vertex -6.9282 -120.667 0
      vertex -8 -116.667 4
    endloop
  endfacet
  facet normal -0.965926 -0.258819 0
    outer loop
      vertex -8 -116.667 4
      vertex -6.9282 -120.667 0
      vertex -6.9282 -120.667 4
    endloop
  endfacet
  facet normal -0.707107 -0.707107 0
    outer loop
      vertex -6.9282 -120.667 4
      vertex -6.9282 -120.667 0
      vertex -4 -123.595 0
    endloop
  endfacet
  facet normal -0.707107 -0.707107 0
    outer loop
      vertex -4 -123.595 4
      vertex -6.9282 -120.667 4
      vertex -4 -123.595 0
    endloop
  endfacet
  facet normal -0.258819 -0.965926 0
    outer loop
      vertex -4 -123.595 4
      vertex -4 -123.595 0
      vertex 0 -124.667 0
    endloop
  endfacet
  facet normal -0.258819 -0.965926 0
    outer loop
      vertex 0 -124.667 4
      vertex -4 -123.595 4
      vertex 0 -124.667 0
    endloop
  endfacet
  facet normal 0.258819 -0.965926 0
    outer loop
      vertex 0 -124.667 4
      vertex 0 -124.667 0
      vertex 4 -123.595 0
    endloop
  endfacet
  facet normal 0.258819 -0.965926 0
    outer loop
      vertex 4 -123.595 4
      vertex 0 -124.667 4
      vertex 4 -123.595 0
    endloop
  endfacet
  facet normal 0.707107 -0.707107 0
    outer loop
      vertex 4 -123.595 4
      vertex 4 -123.595 0
      vertex 6.9282 -120.667 0
    endloop
  endfacet
  facet normal 0.707107 -0.707107 0
    outer loop
      vertex 6.9282 -120.667 4
      vertex 4 -123.595 4
      vertex 6.9282 -120.667 0
    endloop
  endfacet
  facet normal 0.965926 -0.258819 0
    outer loop
      vertex 6.9282 -120.667 4
      vertex 6.9282 -120.667 0
      vertex 8 -116.667 0
    endloop
  endfacet
  facet normal 0.965926 -0.258819 0
    outer loop
      vertex 8 -116.667 4
      vertex 6.9282 -120.667 4
      vertex 8 -116.667 0
    endloop
  endfacet
  facet normal 1 0 -0
    outer loop
      vertex 8 -116.667 4
      vertex 8 -116.667 0
      vertex 8 -102.81 0
    endloop
  endfacet
  facet normal 1 0 0
    outer loop
      vertex 8 -102.81 4
      vertex 8 -116.667 4
      vertex 8 -102.81 0
    endloop
  endfacet
  facet normal 0.866025 -0.5 0
    outer loop
      vertex 8 -102.81 4
      vertex 8 -102.81 0
      vertex 87.5 34.8878 0
    endloop
  endfacet
  facet normal 0.866025 -0.5 0
    outer loop
      vertex 87.5 34.8878 4
      vertex 8 -102.81 4
      vertex 87.5 34.8878 0
    endloop
  endfacet
  facet normal 1 0 -0
    outer loop
      vertex 87.5 34.8878 4
      vertex 87.5 34.8878 0
      vertex 87.5 58.3333 0
    endloop
  endfacet
  facet normal 1 0 0
    outer loop
      vertex 87.5 58.3333 4
      vertex 87.5 34.8878 4
      vertex 87.5 58.3333 0
    endloop
  endfacet
  facet normal -4.63648e-10 1 0
    outer loop
      vertex -87.5 58.3333 0
      vertex -87.5 58.3333 4
      vertex 87.5 58.3333 0
    endloop
  endfacet
  facet normal -4.63648e-10 1 0
    outer loop
      vertex 87.5 58.3333 0
      vertex -87.5 58.3333 4
      vertex 87.5 58.3333 4
    endloop
  endfacet
  facet normal 1 0 0
    outer loop
      vertex -77 47.25 0
      vertex -77 47.25 1
      vertex -77 38.8679 1
    endloop
  endfacet
  facet normal 1 0 0
    outer loop
      vertex -77 38.8679 0
      vertex -77 47.25 0
      vertex -77 38.8679 1
    endloop
  endfacet
  facet normal 8.10483e-10 -1 0
    outer loop
      vertex -37.1738 47.25 0
      vertex -37.1738 47.25 1
      vertex -77 47.25 1
    endloop
  endfacet
  facet normal 8.10483e-10 -1 0
    outer loop
      vertex -77 47.25 0
      vertex -37.1738 47.25 0
      vertex -77 47.25 1
    endloop
  endfacet
  facet normal -0.965926 -0.258819 -0
    outer loop
      vertex -38 50.3333 1
      vertex -37.1738 47.25 1
      vertex -38 50.3333 4
    endloop
  endfacet
  facet normal -0.965926 -0.258819 0
    outer loop
      vertex -36.9282 46.3333 0
      vertex -37.1738 47.25 1
      vertex -37.1738 47.25 0
    endloop
  endfacet
  facet normal -0.965926 -0.258819 0
    outer loop
      vertex -36.9282 46.3333 4
      vertex -37.1738 47.25 1
      vertex -36.9282 46.3333 0
    endloop
  endfacet
  facet normal -0.965926 -0.258819 3.57464e-16
    outer loop
      vertex -38 50.3333 4
      vertex -37.1738 47.25 1
      vertex -36.9282 46.3333 4
    endloop
  endfacet
  facet normal -0.707107 -0.707107 0
    outer loop
      vertex -36.9282 46.3333 4
      vertex -36.9282 46.3333 0
      vertex -34 43.4051 0
    endloop
  endfacet
  facet normal -0.707107 -0.707107 0
    outer loop
      vertex -34 43.4051 4
      vertex -36.9282 46.3333 4
      vertex -34 43.4051 0
    endloop
  endfacet
  facet normal -0.258819 -0.965926 0
    outer loop
      vertex -34 43.4051 4
      vertex -34 43.4051 0
      vertex -30 42.3333 0
    endloop
  endfacet
  facet normal -0.258819 -0.965926 0
    outer loop
      vertex -30 42.3333 4
      vertex -34 43.4051 4
      vertex -30 42.3333 0
    endloop
  endfacet
  facet normal 0.258819 -0.965926 0
    outer loop
      vertex -30 42.3333 4
      vertex -30 42.3333 0
      vertex -26 43.4051 0
    endloop
  endfacet
  facet normal 0.258819 -0.965926 0
    outer loop
      vertex -26 43.4051 4
      vertex -30 42.3333 4
      vertex -26 43.4051 0
    endloop
  endfacet
  facet normal 0.707107 -0.707107 0
    outer loop
      vertex -26 43.4051 4
      vertex -26 43.4051 0
      vertex -23.0718 46.3333 0
    endloop
  endfacet
  facet normal 0.707107 -0.707107 0
    outer loop
      vertex -23.0718 46.3333 4
      vertex -26 43.4051 4
      vertex -23.0718 46.3333 0
    endloop
  endfacet
  facet normal 0.965926 -0.258819 0
    outer loop
      vertex -23.0718 46.3333 4
      vertex -23.0718 46.3333 0
      vertex -22.8262 47.25 0
    endloop
  endfacet
  facet normal 0.965926 -0.258819 8.81101e-16
    outer loop
      vertex -22 50.3333 1
      vertex -23.0718 46.3333 4
      vertex -22.8262 47.25 1
    endloop
  endfacet
  facet normal 0.965926 -0.258819 0
    outer loop
      vertex -22.8262 47.25 1
      vertex -23.0718 46.3333 4
      vertex -22.8262 47.25 0
    endloop
  endfacet
  facet normal 0.965926 -0.258819 0
    outer loop
      vertex -22 50.3333 4
      vertex -23.0718 46.3333 4
      vertex -22 50.3333 1
    endloop
  endfacet
  facet normal 8.10483e-10 -1 0
    outer loop
      vertex -7.07254 47.25 0
      vertex -7.07254 47.25 1
      vertex -22.8262 47.25 1
    endloop
  endfacet
  facet normal 8.10483e-10 -1 0
    outer loop
      vertex -22.8262 47.25 0
      vertex -7.07254 47.25 0
      vertex -22.8262 47.25 1
    endloop
  endfacet
  facet normal -0.866025 0.5 0
    outer loop
      vertex -7.07254 47.25 1
      vertex -7.07254 47.25 0
      vertex -44.456 -17.5 1
    endloop
  endfacet
  facet normal -0.866025 0.5 0
    outer loop
      vertex -44.456 -17.5 1
      vertex -7.07254 47.25 0
      vertex -44.456 -17.5 0
    endloop
  endfacet
  facet normal 0.866025 0.5 0
    outer loop
      vertex -77 38.8679 1
      vertex -44.456 -17.5 1
      vertex -44.456 -17.5 0
    endloop
  endfacet
  facet normal 0.866025 0.5 0
    outer loop
      vertex -77 38.8679 0
      vertex -77 38.8679 1
      vertex -44.456 -17.5 0
    endloop
  endfacet
  facet normal -2.14354e-16 -1 -0
    outer loop
      vertex -4.23528 -29.75 0
      vertex -4.23528 -29.75 1
      vertex -37.3834 -29.75 1
    endloop
  endfacet
  facet normal -2.14354e-16 -1 -0
    outer loop
      vertex -37.3834 -29.75 0
      vertex -4.23528 -29.75 0
      vertex -37.3834 -29.75 1
    endloop
  endfacet
  facet normal -0.707107 -0.707107 0
    outer loop
      vertex -4.23528 -29.75 1
      vertex -4.23528 -29.75 0
      vertex 6.66134e-16 -33.9853 0
    endloop
  endfacet
  facet normal -0.707107 -0.707107 0
    outer loop
      vertex 6.66134e-16 -33.9853 1
      vertex -4.23528 -29.75 1
      vertex 6.66134e-16 -33.9853 0
    endloop
  endfacet
  facet normal 0.707107 -0.707107 0
    outer loop
      vertex 6.66134e-16 -33.9853 1
      vertex 6.66134e-16 -33.9853 0
      vertex 4.23528 -29.75 0
    endloop
  endfacet
  facet normal 0.707107 -0.707107 0
    outer loop
      vertex 4.23528 -29.75 1
      vertex 6.66134e-16 -33.9853 1
      vertex 4.23528 -29.75 0
    endloop
  endfacet
  facet normal -2.14354e-16 -1 -0
    outer loop
      vertex 37.3834 -29.75 0
      vertex 37.3834 -29.75 1
      vertex 4.23528 -29.75 1
    endloop
  endfacet
  facet normal -2.14354e-16 -1 -0
    outer loop
      vertex 4.23528 -29.75 0
      vertex 37.3834 -29.75 0
      vertex 4.23528 -29.75 1
    endloop
  endfacet
  facet normal -0.866025 0.5 0
    outer loop
      vertex 37.3834 -29.75 1
      vertex 37.3834 -29.75 0
      vertex -2.09832e-14 -94.5 1
    endloop
  endfacet
  facet normal -0.866025 0.5 0
    outer loop
      vertex -2.09832e-14 -94.5 1
      vertex 37.3834 -29.75 0
      vertex -2.09832e-14 -94.5 0
    endloop
  endfacet
  facet normal 0.866025 0.5 0
    outer loop
      vertex -37.3834 -29.75 1
      vertex -2.09832e-14 -94.5 1
      vertex -2.09832e-14 -94.5 0
    endloop
  endfacet
  facet normal 0.866025 0.5 0
    outer loop
      vertex -37.3834 -29.75 0
      vertex -37.3834 -29.75 1
      vertex -2.09832e-14 -94.5 0
    endloop
  endfacet
  facet normal 0.866025 -0.5 0
    outer loop
      vertex 3.23661e-07 43.1667 0
      vertex 3.23661e-07 43.1667 1
      vertex -37.3834 -21.5833 1
    endloop
  endfacet
  facet normal 0.866025 -0.5 0
    outer loop
      vertex -37.3834 -21.5833 0
      vertex 3.23661e-07 43.1667 0
      vertex -37.3834 -21.5833 1
    endloop
  endfacet
  facet normal -8.10483e-10 1 0
    outer loop
      vertex -4.56861 -21.5833 1
      vertex -4.56861 -21.5833 0
      vertex -37.3834 -21.5833 1
    endloop
  endfacet
  facet normal -8.10483e-10 1 0
    outer loop
      vertex -37.3834 -21.5833 1
      vertex -4.56861 -21.5833 0
      vertex -37.3834 -21.5833 0
    endloop
  endfacet
  facet normal -0.866025 -0.5 0
    outer loop
      vertex 37.3834 -21.5833 1
      vertex 3.23661e-07 43.1667 1
      vertex 37.3834 -21.5833 0
    endloop
  endfacet
  facet normal -0.866025 -0.5 0
    outer loop
      vertex 37.3834 -21.5833 0
      vertex 3.23661e-07 43.1667 1
      vertex 3.23661e-07 43.1667 0
    endloop
  endfacet
  facet normal -8.10483e-10 1 0
    outer loop
      vertex 37.3834 -21.5833 1
      vertex 37.3834 -21.5833 0
      vertex 4.56861 -21.5833 1
    endloop
  endfacet
  facet normal -8.10483e-10 1 0
    outer loop
      vertex 4.56861 -21.5833 1
      vertex 37.3834 -21.5833 0
      vertex 4.56861 -21.5833 0
    endloop
  endfacet
  facet normal 0.707107 0.707107 0
    outer loop
      vertex -6.66134e-16 -17.0147 0
      vertex -6.66134e-16 -17.0147 1
      vertex 4.56861 -21.5833 0
    endloop
  endfacet
  facet normal 0.707107 0.707107 0
    outer loop
      vertex 4.56861 -21.5833 0
      vertex -6.66134e-16 -17.0147 1
      vertex 4.56861 -21.5833 1
    endloop
  endfacet
  facet normal -0.707107 0.707107 0
    outer loop
      vertex -4.56861 -21.5833 0
      vertex -4.56861 -21.5833 1
      vertex -6.66134e-16 -17.0147 0
    endloop
  endfacet
  facet normal -0.707107 0.707107 0
    outer loop
      vertex -6.66134e-16 -17.0147 0
      vertex -4.56861 -21.5833 1
      vertex -6.66134e-16 -17.0147 1
    endloop
  endfacet
  facet normal 0.965926 -0.258819 0
    outer loop
      vertex -31.9053 51.4333 0
      vertex -31.9053 51.4333 4
      vertex -32.2 50.3333 4
    endloop
  endfacet
  facet normal 0.965926 -0.258819 0
    outer loop
      vertex -32.2 50.3333 0
      vertex -31.9053 51.4333 0
      vertex -32.2 50.3333 4
    endloop
  endfacet
  facet normal 0.965926 0.258819 0
    outer loop
      vertex -32.2 50.3333 4
      vertex -31.9053 49.2333 4
      vertex -31.9053 49.2333 0
    endloop
  endfacet
  facet normal 0.965926 0.258819 0
    outer loop
      vertex -32.2 50.3333 0
      vertex -32.2 50.3333 4
      vertex -31.9053 49.2333 0
    endloop
  endfacet
  facet normal 0.707107 -0.707107 0
    outer loop
      vertex -31.1 52.2386 0
      vertex -31.1 52.2386 4
      vertex -31.9053 51.4333 4
    endloop
  endfacet
  facet normal 0.707107 -0.707107 0
    outer loop
      vertex -31.9053 51.4333 0
      vertex -31.1 52.2386 0
      vertex -31.9053 51.4333 4
    endloop
  endfacet
  facet normal 0.258819 -0.965926 0
    outer loop
      vertex -30 52.5333 0
      vertex -30 52.5333 4
      vertex -31.1 52.2386 4
    endloop
  endfacet
  facet normal 0.258819 -0.965926 0
    outer loop
      vertex -31.1 52.2386 0
      vertex -30 52.5333 0
      vertex -31.1 52.2386 4
    endloop
  endfacet
  facet normal -0.258819 -0.965926 -0
    outer loop
      vertex -28.9 52.2386 0
      vertex -28.9 52.2386 4
      vertex -30 52.5333 4
    endloop
  endfacet
  facet normal -0.258819 -0.965926 -0
    outer loop
      vertex -30 52.5333 0
      vertex -28.9 52.2386 0
      vertex -30 52.5333 4
    endloop
  endfacet
  facet normal -0.707107 -0.707107 -0
    outer loop
      vertex -28.0947 51.4333 0
      vertex -28.0947 51.4333 4
      vertex -28.9 52.2386 4
    endloop
  endfacet
  facet normal -0.707107 -0.707107 -0
    outer loop
      vertex -28.9 52.2386 0
      vertex -28.0947 51.4333 0
      vertex -28.9 52.2386 4
    endloop
  endfacet
  facet normal -0.965926 -0.258819 0
    outer loop
      vertex -27.8 50.3333 4
      vertex -28.0947 51.4333 4
      vertex -27.8 50.3333 0
    endloop
  endfacet
  facet normal -0.965926 -0.258819 0
    outer loop
      vertex -27.8 50.3333 0
      vertex -28.0947 51.4333 4
      vertex -28.0947 51.4333 0
    endloop
  endfacet
  facet normal -0.965926 0.258819 0
    outer loop
      vertex -27.8 50.3333 4
      vertex -27.8 50.3333 0
      vertex -28.0947 49.2333 4
    endloop
  endfacet
  facet normal -0.965926 0.258819 0
    outer loop
      vertex -28.0947 49.2333 4
      vertex -27.8 50.3333 0
      vertex -28.0947 49.2333 0
    endloop
  endfacet
  facet normal -0.707107 0.707107 0
    outer loop
      vertex -28.0947 49.2333 4
      vertex -28.0947 49.2333 0
      vertex -28.9 48.4281 4
    endloop
  endfacet
  facet normal -0.707107 0.707107 0
    outer loop
      vertex -28.9 48.4281 4
      vertex -28.0947 49.2333 0
      vertex -28.9 48.4281 0
    endloop
  endfacet
  facet normal -0.258819 0.965926 0
    outer loop
      vertex -28.9 48.4281 4
      vertex -28.9 48.4281 0
      vertex -30 48.1333 4
    endloop
  endfacet
  facet normal -0.258819 0.965926 0
    outer loop
      vertex -30 48.1333 4
      vertex -28.9 48.4281 0
      vertex -30 48.1333 0
    endloop
  endfacet
  facet normal 0.258819 0.965926 -0
    outer loop
      vertex -30 48.1333 4
      vertex -30 48.1333 0
      vertex -31.1 48.4281 4
    endloop
  endfacet
  facet normal 0.258819 0.965926 -0
    outer loop
      vertex -31.1 48.4281 4
      vertex -30 48.1333 0
      vertex -31.1 48.4281 0
    endloop
  endfacet
  facet normal 0.707107 0.707107 -0
    outer loop
      vertex -31.1 48.4281 4
      vertex -31.1 48.4281 0
      vertex -31.9053 49.2333 4
    endloop
  endfacet
  facet normal 0.707107 0.707107 -0
    outer loop
      vertex -31.9053 49.2333 4
      vertex -31.1 48.4281 0
      vertex -31.9053 49.2333 0
    endloop
  endfacet
  facet normal 0.965926 -0.258819 0
    outer loop
      vertex -1.90526 -115.567 0
      vertex -1.90526 -115.567 4
      vertex -2.2 -116.667 4
    endloop
  endfacet
  facet normal 0.965926 -0.258819 0
    outer loop
      vertex -2.2 -116.667 0
      vertex -1.90526 -115.567 0
      vertex -2.2 -116.667 4
    endloop
  endfacet
  facet normal 0.965926 0.258819 0
    outer loop
      vertex -2.2 -116.667 4
      vertex -1.90526 -117.767 4
      vertex -1.90526 -117.767 0
    endloop
  endfacet
  facet normal 0.965926 0.258819 0
    outer loop
      vertex -2.2 -116.667 0
      vertex -2.2 -116.667 4
      vertex -1.90526 -117.767 0
    endloop
  endfacet
  facet normal 0.707107 -0.707107 0
    outer loop
      vertex -1.1 -114.761 0
      vertex -1.1 -114.761 4
      vertex -1.90526 -115.567 4
    endloop
  endfacet
  facet normal 0.707107 -0.707107 0
    outer loop
      vertex -1.90526 -115.567 0
      vertex -1.1 -114.761 0
      vertex -1.90526 -115.567 4
    endloop
  endfacet
  facet normal 0.258819 -0.965926 0
    outer loop
      vertex 0 -114.467 0
      vertex 0 -114.467 4
      vertex -1.1 -114.761 4
    endloop
  endfacet
  facet normal 0.258819 -0.965926 0
    outer loop
      vertex -1.1 -114.761 0
      vertex 0 -114.467 0
      vertex -1.1 -114.761 4
    endloop
  endfacet
  facet normal -0.258819 -0.965926 -0
    outer loop
      vertex 1.1 -114.761 0
      vertex 1.1 -114.761 4
      vertex 0 -114.467 4
    endloop
  endfacet
  facet normal -0.258819 -0.965926 -0
    outer loop
      vertex 0 -114.467 0
      vertex 1.1 -114.761 0
      vertex 0 -114.467 4
    endloop
  endfacet
  facet normal -0.707107 -0.707107 -0
    outer loop
      vertex 1.90526 -115.567 0
      vertex 1.90526 -115.567 4
      vertex 1.1 -114.761 4
    endloop
  endfacet
  facet normal -0.707107 -0.707107 -0
    outer loop
      vertex 1.1 -114.761 0
      vertex 1.90526 -115.567 0
      vertex 1.1 -114.761 4
    endloop
  endfacet
  facet normal -0.965926 -0.258819 0
    outer loop
      vertex 2.2 -116.667 4
      vertex 1.90526 -115.567 4
      vertex 2.2 -116.667 0
    endloop
  endfacet
  facet normal -0.965926 -0.258819 0
    outer loop
      vertex 2.2 -116.667 0
      vertex 1.90526 -115.567 4
      vertex 1.90526 -115.567 0
    endloop
  endfacet
  facet normal -0.965926 0.258819 0
    outer loop
      vertex 2.2 -116.667 4
      vertex 2.2 -116.667 0
      vertex 1.90526 -117.767 4
    endloop
  endfacet
  facet normal -0.965926 0.258819 0
    outer loop
      vertex 1.90526 -117.767 4
      vertex 2.2 -116.667 0
      vertex 1.90526 -117.767 0
    endloop
  endfacet
  facet normal -0.707107 0.707107 0
    outer loop
      vertex 1.90526 -117.767 4
      vertex 1.90526 -117.767 0
      vertex 1.1 -118.572 4
    endloop
  endfacet
  facet normal -0.707107 0.707107 0
    outer loop
      vertex 1.1 -118.572 4
      vertex 1.90526 -117.767 0
      vertex 1.1 -118.572 0
    endloop
  endfacet
  facet normal -0.258819 0.965926 0
    outer loop
      vertex 1.1 -118.572 4
      vertex 1.1 -118.572 0
      vertex 0 -118.867 4
    endloop
  endfacet
  facet normal -0.258819 0.965926 0
    outer loop
      vertex 0 -118.867 4
      vertex 1.1 -118.572 0
      vertex 0 -118.867 0
    endloop
  endfacet
  facet normal 0.258819 0.965926 -0
    outer loop
      vertex 0 -118.867 4
      vertex 0 -118.867 0
      vertex -1.1 -118.572 4
    endloop
  endfacet
  facet normal 0.258819 0.965926 -0
    outer loop
      vertex -1.1 -118.572 4
      vertex 0 -118.867 0
      vertex -1.1 -118.572 0
    endloop
  endfacet
  facet normal 0.707107 0.707107 -0
    outer loop
      vertex -1.1 -118.572 4
      vertex -1.1 -118.572 0
      vertex -1.90526 -117.767 4
    endloop
  endfacet
  facet normal 0.707107 0.707107 -0
    outer loop
      vertex -1.90526 -117.767 4
      vertex -1.1 -118.572 0
      vertex -1.90526 -117.767 0
    endloop
  endfacet
  facet normal -8.10484e-10 -1 -0
    outer loop
      vertex 22.8262 47.25 0
      vertex 22.8262 47.25 1
      vertex 7.07254 47.25 1
    endloop
  endfacet
  facet normal -8.10484e-10 -1 -0
    outer loop
      vertex 7.07254 47.25 0
      vertex 22.8262 47.25 0
      vertex 7.07254 47.25 1
    endloop
  endfacet
  facet normal -0.965926 -0.258819 -0
    outer loop
      vertex 22 50.3333 1
      vertex 22.8262 47.25 1
      vertex 22 50.3333 4
    endloop
  endfacet
  facet normal -0.965926 -0.258819 0
    outer loop
      vertex 23.0718 46.3333 0
      vertex 22.8262 47.25 1
      vertex 22.8262 47.25 0
    endloop
  endfacet
  facet normal -0.965926 -0.258819 0
    outer loop
      vertex 23.0718 46.3333 4
      vertex 22.8262 47.25 1
      vertex 23.0718 46.3333 0
    endloop
  endfacet
  facet normal -0.965926 -0.258819 1.32262e-15
    outer loop
      vertex 22 50.3333 4
      vertex 22.8262 47.25 1
      vertex 23.0718 46.3333 4
    endloop
  endfacet
  facet normal -0.707107 -0.707107 0
    outer loop
      vertex 23.0718 46.3333 4
      vertex 23.0718 46.3333 0
      vertex 26 43.4051 0
    endloop
  endfacet
  facet normal -0.707107 -0.707107 0
    outer loop
      vertex 26 43.4051 4
      vertex 23.0718 46.3333 4
      vertex 26 43.4051 0
    endloop
  endfacet
  facet normal -0.258819 -0.965926 0
    outer loop
      vertex 26 43.4051 4
      vertex 26 43.4051 0
      vertex 30 42.3333 0
    endloop
  endfacet
  facet normal -0.258819 -0.965926 0
    outer loop
      vertex 30 42.3333 4
      vertex 26 43.4051 4
      vertex 30 42.3333 0
    endloop
  endfacet
  facet normal 0.258819 -0.965926 0
    outer loop
      vertex 30 42.3333 4
      vertex 30 42.3333 0
      vertex 34 43.4051 0
    endloop
  endfacet
  facet normal 0.258819 -0.965926 0
    outer loop
      vertex 34 43.4051 4
      vertex 30 42.3333 4
      vertex 34 43.4051 0
    endloop
  endfacet
  facet normal 0.707107 -0.707107 0
    outer loop
      vertex 34 43.4051 4
      vertex 34 43.4051 0
      vertex 36.9282 46.3333 0
    endloop
  endfacet
  facet normal 0.707107 -0.707107 0
    outer loop
      vertex 36.9282 46.3333 4
      vertex 34 43.4051 4
      vertex 36.9282 46.3333 0
    endloop
  endfacet
  facet normal 0.965926 -0.258819 0
    outer loop
      vertex 36.9282 46.3333 4
      vertex 36.9282 46.3333 0
      vertex 37.1738 47.25 0
    endloop
  endfacet
  facet normal 0.965926 -0.258819 4.63738e-16
    outer loop
      vertex 38 50.3333 1
      vertex 36.9282 46.3333 4
      vertex 37.1738 47.25 1
    endloop
  endfacet
  facet normal 0.965926 -0.258819 0
    outer loop
      vertex 37.1738 47.25 1
      vertex 36.9282 46.3333 4
      vertex 37.1738 47.25 0
    endloop
  endfacet
  facet normal 0.965926 -0.258819 0
    outer loop
      vertex 38 50.3333 4
      vertex 36.9282 46.3333 4
      vertex 38 50.3333 1
    endloop
  endfacet
  facet normal -8.10483e-10 -1 -0
    outer loop
      vertex 77 47.25 0
      vertex 77 47.25 1
      vertex 37.1738 47.25 1
    endloop
  endfacet
  facet normal -8.10483e-10 -1 -0
    outer loop
      vertex 37.1738 47.25 0
      vertex 77 47.25 0
      vertex 37.1738 47.25 1
    endloop
  endfacet
  facet normal -1 0 0
    outer loop
      vertex 77 47.25 1
      vertex 77 47.25 0
      vertex 77 38.8679 1
    endloop
  endfacet
  facet normal -1 0 0
    outer loop
      vertex 77 38.8679 1
      vertex 77 47.25 0
      vertex 77 38.8679 0
    endloop
  endfacet
  facet normal -0.866025 0.5 0
    outer loop
      vertex 77 38.8679 1
      vertex 77 38.8679 0
      vertex 44.456 -17.5 1
    endloop
  endfacet
  facet normal -0.866025 0.5 0
    outer loop
      vertex 44.456 -17.5 1
      vertex 77 38.8679 0
      vertex 44.456 -17.5 0
    endloop
  endfacet
  facet normal 0.866025 0.5 0
    outer loop
      vertex 7.07254 47.25 1
      vertex 44.456 -17.5 1
      vertex 44.456 -17.5 0
    endloop
  endfacet
  facet normal 0.866025 0.5 0
    outer loop
      vertex 7.07254 47.25 0
      vertex 7.07254 47.25 1
      vertex 44.456 -17.5 0
    endloop
  endfacet
  facet normal 0.965926 -0.258819 0
    outer loop
      vertex 28.0947 51.4333 0
      vertex 28.0947 51.4333 4
      vertex 27.8 50.3333 4
    endloop
  endfacet
  facet normal 0.965926 -0.258819 0
    outer loop
      vertex 27.8 50.3333 0
      vertex 28.0947 51.4333 0
      vertex 27.8 50.3333 4
    endloop
  endfacet
  facet normal 0.965926 0.258819 0
    outer loop
      vertex 27.8 50.3333 4
      vertex 28.0947 49.2333 4
      vertex 28.0947 49.2333 0
    endloop
  endfacet
  facet normal 0.965926 0.258819 0
    outer loop
      vertex 27.8 50.3333 0
      vertex 27.8 50.3333 4
      vertex 28.0947 49.2333 0
    endloop
  endfacet
  facet normal 0.707107 -0.707107 0
    outer loop
      vertex 28.9 52.2386 0
      vertex 28.9 52.2386 4
      vertex 28.0947 51.4333 4
    endloop
  endfacet
  facet normal 0.707107 -0.707107 0
    outer loop
      vertex 28.0947 51.4333 0
      vertex 28.9 52.2386 0
      vertex 28.0947 51.4333 4
    endloop
  endfacet
  facet normal 0.258819 -0.965926 0
    outer loop
      vertex 30 52.5333 0
      vertex 30 52.5333 4
      vertex 28.9 52.2386 4
    endloop
  endfacet
  facet normal 0.258819 -0.965926 0
    outer loop
      vertex 28.9 52.2386 0
      vertex 30 52.5333 0
      vertex 28.9 52.2386 4
    endloop
  endfacet
  facet normal -0.258819 -0.965926 -0
    outer loop
      vertex 31.1 52.2386 0
      vertex 31.1 52.2386 4
      vertex 30 52.5333 4
    endloop
  endfacet
  facet normal -0.258819 -0.965926 -0
    outer loop
      vertex 30 52.5333 0
      vertex 31.1 52.2386 0
      vertex 30 52.5333 4
    endloop
  endfacet
  facet normal -0.707107 -0.707107 -0
    outer loop
      vertex 31.9053 51.4333 0
      vertex 31.9053 51.4333 4
      vertex 31.1 52.2386 4
    endloop
  endfacet
  facet normal -0.707107 -0.707107 -0
    outer loop
      vertex 31.1 52.2386 0
      vertex 31.9053 51.4333 0
      vertex 31.1 52.2386 4
    endloop
  endfacet
  facet normal -0.965926 -0.258819 0
    outer loop
      vertex 32.2 50.3333 4
      vertex 31.9053 51.4333 4
      vertex 32.2 50.3333 0
    endloop
  endfacet
  facet normal -0.965926 -0.258819 0
    outer loop
      vertex 32.2 50.3333 0
      vertex 31.9053 51.4333 4
      vertex 31.9053 51.4333 0
    endloop
  endfacet
  facet normal -0.965926 0.258819 0
    outer loop
      vertex 32.2 50.3333 4
      vertex 32.2 50.3333 0
      vertex 31.9053 49.2333 4
    endloop
  endfacet
  facet normal -0.965926 0.258819 0
    outer loop
      vertex 31.9053 49.2333 4
      vertex 32.2 50.3333 0
      vertex 31.9053 49.2333 0
    endloop
  endfacet
  facet normal -0.707107 0.707107 0
    outer loop
      vertex 31.9053 49.2333 4
      vertex 31.9053 49.2333 0
      vertex 31.1 48.4281 4
    endloop
  endfacet
  facet normal -0.707107 0.707107 0
    outer loop
      vertex 31.1 48.4281 4
      vertex 31.9053 49.2333 0
      vertex 31.1 48.4281 0
    endloop
  endfacet
  facet normal -0.258819 0.965926 0
    outer loop
      vertex 31.1 48.4281 4
      vertex 31.1 48.4281 0
      vertex 30 48.1333 4
    endloop
  endfacet
  facet normal -0.258819 0.965926 0
    outer loop
      vertex 30 48.1333 4
      vertex 31.1 48.4281 0
      vertex 30 48.1333 0
    endloop
  endfacet
  facet normal 0.258819 0.965926 -0
    outer loop
      vertex 30 48.1333 4
      vertex 30 48.1333 0
      vertex 28.9 48.4281 4
    endloop
  endfacet
  facet normal 0.258819 0.965926 -0
    outer loop
      vertex 28.9 48.4281 4
      vertex 30 48.1333 0
      vertex 28.9 48.4281 0
    endloop
  endfacet
  facet normal 0.707107 0.707107 -0
    outer loop
      vertex 28.9 48.4281 4
      vertex 28.9 48.4281 0
      vertex 28.0947 49.2333 4
    endloop
  endfacet
  facet normal 0.707107 0.707107 -0
    outer loop
      vertex 28.0947 49.2333 4
      vertex 28.9 48.4281 0
      vertex 28.0947 49.2333 0
    endloop
  endfacet
  facet normal 0 0 1
    outer loop
      vertex -8 -116.667 4
      vertex -6.9282 -120.667 4
      vertex -8 -102.81 4
    endloop
  endfacet
  facet normal 0 -0 1
    outer loop
      vertex -83.125 35.4767 4
      vertex -87.5 34.8878 4
      vertex -8 -102.81 4
    endloop
  endfacet
  facet normal 0 0 1
    outer loop
      vertex -31.1 52.2386 4
      vertex -30 52.5333 4
      vertex -36.9505 54.25 4
    endloop
  endfacet
  facet normal 0 0 1
    outer loop
      vertex -28.9 52.2386 4
      vertex -28.0947 51.4333 4
      vertex -22 50.3333 4
    endloop
  endfacet
  facet normal 0 0 1
    outer loop
      vertex -6.9282 -120.667 4
      vertex -4 -123.595 4
      vertex -8 -102.81 4
    endloop
  endfacet
  facet normal 0 0 1
    outer loop
      vertex -4 -123.595 4
      vertex 0 -124.667 4
      vertex -8 -102.81 4
    endloop
  endfacet
  facet normal 0 0 1
    outer loop
      vertex -28.9 52.2386 4
      vertex -23.0495 54.25 4
      vertex -30 52.5333 4
    endloop
  endfacet
  facet normal 0 0 1
    outer loop
      vertex 30 42.3333 4
      vertex 34 43.4051 4
      vertex 26 43.4051 4
    endloop
  endfacet
  facet normal 0 0 1
    outer loop
      vertex -36.9505 54.25 4
      vertex 87.5 58.3333 4
      vertex -87.5 58.3333 4
    endloop
  endfacet
  facet normal 0 -0 1
    outer loop
      vertex -87.5 58.3333 4
      vertex -87.5 34.8878 4
      vertex -83.125 35.4767 4
    endloop
  endfacet
  facet normal 0 -0 1
    outer loop
      vertex -28.9 48.4281 4
      vertex -30 48.1333 4
      vertex -23.0718 46.3333 4
    endloop
  endfacet
  facet normal -0 0 1
    outer loop
      vertex -23.0495 54.25 4
      vertex 87.5 58.3333 4
      vertex -36.9505 54.25 4
    endloop
  endfacet
  facet normal 0 0 1
    outer loop
      vertex -23.0718 46.3333 4
      vertex -27.8 50.3333 4
      vertex -28.0947 49.2333 4
    endloop
  endfacet
  facet normal 0 0 1
    outer loop
      vertex 31.1 52.2386 4
      vertex 31.9053 51.4333 4
      vertex 38 50.3333 4
    endloop
  endfacet
  facet normal 0 0 1
    outer loop
      vertex 4.52258 -100.667 4
      vertex 6.9282 -120.667 4
      vertex 8 -116.667 4
    endloop
  endfacet
  facet normal 0 -0 1
    outer loop
      vertex 4.52258 -100.667 4
      vertex -4.52258 -100.667 4
      vertex 6.9282 -120.667 4
    endloop
  endfacet
  facet normal 0 0 1
    outer loop
      vertex -26 43.4051 4
      vertex -23.0718 46.3333 4
      vertex -36.9282 46.3333 4
    endloop
  endfacet
  facet normal 0 0 1
    outer loop
      vertex 28.9 48.4281 4
      vertex 28.0947 49.2333 4
      vertex 22 50.3333 4
    endloop
  endfacet
  facet normal 0 0 1
    outer loop
      vertex -34 43.4051 4
      vertex -26 43.4051 4
      vertex -36.9282 46.3333 4
    endloop
  endfacet
  facet normal -0 0 1
    outer loop
      vertex 23.0495 54.25 4
      vertex 87.5 58.3333 4
      vertex -23.0495 54.25 4
    endloop
  endfacet
  facet normal -0 0 1
    outer loop
      vertex 36.9505 54.25 4
      vertex 87.5 58.3333 4
      vertex 23.0495 54.25 4
    endloop
  endfacet
  facet normal 0 0 1
    outer loop
      vertex 28.0947 49.2333 4
      vertex 23.0495 54.25 4
      vertex 22 50.3333 4
    endloop
  endfacet
  facet normal -0 0 1
    outer loop
      vertex 28.9 48.4281 4
      vertex 22 50.3333 4
      vertex 23.0718 46.3333 4
    endloop
  endfacet
  facet normal 0 -0 1
    outer loop
      vertex -31.1 48.4281 4
      vertex -36.9282 46.3333 4
      vertex -30 48.1333 4
    endloop
  endfacet
  facet normal 0 0 1
    outer loop
      vertex -23.0718 46.3333 4
      vertex -28.0947 49.2333 4
      vertex -28.9 48.4281 4
    endloop
  endfacet
  facet normal 0 0 1
    outer loop
      vertex 36.9282 46.3333 4
      vertex 31.9053 51.4333 4
      vertex 32.2 50.3333 4
    endloop
  endfacet
  facet normal 0 0 1
    outer loop
      vertex 36.9282 46.3333 4
      vertex 31.9053 49.2333 4
      vertex 31.1 48.4281 4
    endloop
  endfacet
  facet normal 0 0 1
    outer loop
      vertex 30 52.5333 4
      vertex 36.9505 54.25 4
      vertex 23.0495 54.25 4
    endloop
  endfacet
  facet normal 0 0 1
    outer loop
      vertex 87.5 34.8878 4
      vertex 87.5 58.3333 4
      vertex 83.125 54.25 4
    endloop
  endfacet
  facet normal 0 0 1
    outer loop
      vertex -38 50.3333 4
      vertex -36.9282 46.3333 4
      vertex -31.1 48.4281 4
    endloop
  endfacet
  facet normal 0 0 1
    outer loop
      vertex 34 43.4051 4
      vertex 36.9282 46.3333 4
      vertex 23.0718 46.3333 4
    endloop
  endfacet
  facet normal 0 0 1
    outer loop
      vertex -36.9505 54.25 4
      vertex -31.9053 51.4333 4
      vertex -31.1 52.2386 4
    endloop
  endfacet
  facet normal 0 0 1
    outer loop
      vertex 8 -116.667 4
      vertex 8 -102.81 4
      vertex 4.52258 -100.667 4
    endloop
  endfacet
  facet normal 0 0 1
    outer loop
      vertex 1.90526 -115.567 4
      vertex 6.9282 -120.667 4
      vertex -4.52258 -100.667 4
    endloop
  endfacet
  facet normal 0 0 1
    outer loop
      vertex -1.1 -114.761 4
      vertex 0 -114.467 4
      vertex -8 -102.81 4
    endloop
  endfacet
  facet normal 0 0 1
    outer loop
      vertex 36.9282 46.3333 4
      vertex 38 50.3333 4
      vertex 31.9053 51.4333 4
    endloop
  endfacet
  facet normal 0 0 1
    outer loop
      vertex 36.9282 46.3333 4
      vertex 32.2 50.3333 4
      vertex 31.9053 49.2333 4
    endloop
  endfacet
  facet normal 0 -0 1
    outer loop
      vertex -30 48.1333 4
      vertex -36.9282 46.3333 4
      vertex -23.0718 46.3333 4
    endloop
  endfacet
  facet normal 0 0 1
    outer loop
      vertex 0 -114.467 4
      vertex 1.1 -114.761 4
      vertex -4.52258 -100.667 4
    endloop
  endfacet
  facet normal 0 0 1
    outer loop
      vertex 23.0718 46.3333 4
      vertex 26 43.4051 4
      vertex 34 43.4051 4
    endloop
  endfacet
  facet normal 0 0 1
    outer loop
      vertex -31.9053 49.2333 4
      vertex -32.2 50.3333 4
      vertex -38 50.3333 4
    endloop
  endfacet
  facet normal 0 0 1
    outer loop
      vertex -22 50.3333 4
      vertex -23.0495 54.25 4
      vertex -28.9 52.2386 4
    endloop
  endfacet
  facet normal 0 0 1
    outer loop
      vertex -28.0947 51.4333 4
      vertex -27.8 50.3333 4
      vertex -22 50.3333 4
    endloop
  endfacet
  facet normal 0 -0 1
    outer loop
      vertex 1.1 -118.572 4
      vertex 0 -118.867 4
      vertex 4 -123.595 4
    endloop
  endfacet
  facet normal 0 0 1
    outer loop
      vertex -30 42.3333 4
      vertex -26 43.4051 4
      vertex -34 43.4051 4
    endloop
  endfacet
  facet normal 0 0 1
    outer loop
      vertex 0 -124.667 4
      vertex -1.90526 -117.767 4
      vertex -8 -102.81 4
    endloop
  endfacet
  facet normal 0 0 1
    outer loop
      vertex -1.90526 -117.767 4
      vertex -2.2 -116.667 4
      vertex -8 -102.81 4
    endloop
  endfacet
  facet normal 0 0 1
    outer loop
      vertex -2.2 -116.667 4
      vertex -1.90526 -115.567 4
      vertex -8 -102.81 4
    endloop
  endfacet
  facet normal 0 0 1
    outer loop
      vertex -1.90526 -115.567 4
      vertex -1.1 -114.761 4
      vertex -8 -102.81 4
    endloop
  endfacet
  facet normal 0 0 1
    outer loop
      vertex -31.1 48.4281 4
      vertex -31.9053 49.2333 4
      vertex -38 50.3333 4
    endloop
  endfacet
  facet normal 0 -0 1
    outer loop
      vertex 1.90526 -117.767 4
      vertex 1.1 -118.572 4
      vertex 4 -123.595 4
    endloop
  endfacet
  facet normal 0 0 1
    outer loop
      vertex 1.1 -114.761 4
      vertex 1.90526 -115.567 4
      vertex -4.52258 -100.667 4
    endloop
  endfacet
  facet normal 0 -0 1
    outer loop
      vertex 2.2 -116.667 4
      vertex 1.90526 -117.767 4
      vertex 4 -123.595 4
    endloop
  endfacet
  facet normal 0 0 1
    outer loop
      vertex 4 -123.595 4
      vertex 6.9282 -120.667 4
      vertex 2.2 -116.667 4
    endloop
  endfacet
  facet normal 0 0 1
    outer loop
      vertex 1.90526 -115.567 4
      vertex 2.2 -116.667 4
      vertex 6.9282 -120.667 4
    endloop
  endfacet
  facet normal 0 0 1
    outer loop
      vertex 0 -124.667 4
      vertex -1.1 -118.572 4
      vertex -1.90526 -117.767 4
    endloop
  endfacet
  facet normal 0 0 1
    outer loop
      vertex 0 -124.667 4
      vertex 4 -123.595 4
      vertex -1.1 -118.572 4
    endloop
  endfacet
  facet normal -0 -0 1
    outer loop
      vertex 27.8 50.3333 4
      vertex 23.0495 54.25 4
      vertex 28.0947 49.2333 4
    endloop
  endfacet
  facet normal -0 0 1
    outer loop
      vertex 28.0947 51.4333 4
      vertex 23.0495 54.25 4
      vertex 27.8 50.3333 4
    endloop
  endfacet
  facet normal -0 0 1
    outer loop
      vertex 28.9 52.2386 4
      vertex 23.0495 54.25 4
      vertex 28.0947 51.4333 4
    endloop
  endfacet
  facet normal 0 0 1
    outer loop
      vertex 31.1 52.2386 4
      vertex 36.9505 54.25 4
      vertex 30 52.5333 4
    endloop
  endfacet
  facet normal 0 -0 1
    outer loop
      vertex 31.1 48.4281 4
      vertex 30 48.1333 4
      vertex 36.9282 46.3333 4
    endloop
  endfacet
  facet normal 0 0 1
    outer loop
      vertex 38 50.3333 4
      vertex 36.9505 54.25 4
      vertex 31.1 52.2386 4
    endloop
  endfacet
  facet normal 0 0 1
    outer loop
      vertex 36.9505 54.25 4
      vertex 83.125 54.25 4
      vertex 87.5 58.3333 4
    endloop
  endfacet
  facet normal 0 -0 1
    outer loop
      vertex 83.125 54.25 4
      vertex 83.125 35.4767 4
      vertex 87.5 34.8878 4
    endloop
  endfacet
  facet normal 0 -0 1
    outer loop
      vertex 83.125 35.4767 4
      vertex 8 -102.81 4
      vertex 87.5 34.8878 4
    endloop
  endfacet
  facet normal 0 0 1
    outer loop
      vertex 83.125 35.4767 4
      vertex 4.52258 -100.667 4
      vertex 8 -102.81 4
    endloop
  endfacet
  facet normal -0 0 1
    outer loop
      vertex 36.9282 46.3333 4
      vertex 30 48.1333 4
      vertex 23.0718 46.3333 4
    endloop
  endfacet
  facet normal 0 0 1
    outer loop
      vertex 28.9 52.2386 4
      vertex 30 52.5333 4
      vertex 23.0495 54.25 4
    endloop
  endfacet
  facet normal -0 0 1
    outer loop
      vertex 30 48.1333 4
      vertex 28.9 48.4281 4
      vertex 23.0718 46.3333 4
    endloop
  endfacet
  facet normal 0 0 1
    outer loop
      vertex -30 52.5333 4
      vertex -23.0495 54.25 4
      vertex -36.9505 54.25 4
    endloop
  endfacet
  facet normal -0 -0 1
    outer loop
      vertex 0 -118.867 4
      vertex -1.1 -118.572 4
      vertex 4 -123.595 4
    endloop
  endfacet
  facet normal 0 -0 1
    outer loop
      vertex -4.52258 -100.667 4
      vertex -8 -102.81 4
      vertex 0 -114.467 4
    endloop
  endfacet
  facet normal -0 0 1
    outer loop
      vertex -4.52258 -100.667 4
      vertex -83.125 35.4767 4
      vertex -8 -102.81 4
    endloop
  endfacet
  facet normal 0 0 1
    outer loop
      vertex -83.125 35.4767 4
      vertex -83.125 54.25 4
      vertex -87.5 58.3333 4
    endloop
  endfacet
  facet normal 0 0 1
    outer loop
      vertex -36.9505 54.25 4
      vertex -32.2 50.3333 4
      vertex -31.9053 51.4333 4
    endloop
  endfacet
  facet normal 0 -0 1
    outer loop
      vertex -36.9505 54.25 4
      vertex -38 50.3333 4
      vertex -32.2 50.3333 4
    endloop
  endfacet
  facet normal 0 0 1
    outer loop
      vertex -83.125 54.25 4
      vertex -36.9505 54.25 4
      vertex -87.5 58.3333 4
    endloop
  endfacet
  facet normal 0 0 1
    outer loop
      vertex -23.0718 46.3333 4
      vertex -22 50.3333 4
      vertex -27.8 50.3333 4
    endloop
  endfacet
  facet normal 0 0 1
    outer loop
      vertex -2.09832e-14 -94.5 1
      vertex 4.52258 -100.667 1
      vertex 83.125 35.4767 1
    endloop
  endfacet
  facet normal 0 0 1
    outer loop
      vertex -7.07254 47.25 1
      vertex -44.456 -17.5 1
      vertex -37.3834 -21.5833 1
    endloop
  endfacet
  facet normal 0 0 1
    outer loop
      vertex 36.9505 54.25 1
      vertex 38 50.3333 1
      vertex 83.125 54.25 1
    endloop
  endfacet
  facet normal 0 0 1
    outer loop
      vertex -37.3834 -29.75 1
      vertex -4.23528 -29.75 1
      vertex -8.48528 -25.5 1
    endloop
  endfacet
  facet normal 0 -0 1
    outer loop
      vertex 38 50.3333 1
      vertex 37.1738 47.25 1
      vertex 83.125 54.25 1
    endloop
  endfacet
  facet normal 0 0 1
    outer loop
      vertex 3.23661e-07 43.1667 1
      vertex 37.3834 -21.5833 1
      vertex 44.456 -17.5 1
    endloop
  endfacet
  facet normal 0 0 1
    outer loop
      vertex 37.1738 47.25 1
      vertex 77 47.25 1
      vertex 83.125 54.25 1
    endloop
  endfacet
  facet normal 0 0 1
    outer loop
      vertex 83.125 54.25 1
      vertex 77 38.8679 1
      vertex 83.125 35.4767 1
    endloop
  endfacet
  facet normal 0 -0 1
    outer loop
      vertex 77 38.8679 1
      vertex 44.456 -17.5 1
      vertex 83.125 35.4767 1
    endloop
  endfacet
  facet normal -0 0 1
    outer loop
      vertex -2.09832e-14 -94.5 1
      vertex -37.3834 -29.75 1
      vertex -4.52258 -100.667 1
    endloop
  endfacet
  facet normal 0 0 1
    outer loop
      vertex -22.8262 47.25 1
      vertex -7.07254 47.25 1
      vertex -22 50.3333 1
    endloop
  endfacet
  facet normal 0 0 1
    outer loop
      vertex 7.07254 47.25 1
      vertex 22.8262 47.25 1
      vertex 22 50.3333 1
    endloop
  endfacet
  facet normal 0 0 1
    outer loop
      vertex -23.0495 54.25 1
      vertex 7.07254 47.25 1
      vertex 23.0495 54.25 1
    endloop
  endfacet
  facet normal 0 0 1
    outer loop
      vertex -77 47.25 1
      vertex -37.1738 47.25 1
      vertex -38 50.3333 1
    endloop
  endfacet
  facet normal 0 0 1
    outer loop
      vertex -23.0495 54.25 1
      vertex -22 50.3333 1
      vertex 7.07254 47.25 1
    endloop
  endfacet
  facet normal 0 0 1
    outer loop
      vertex -22 50.3333 1
      vertex -7.07254 47.25 1
      vertex 7.07254 47.25 1
    endloop
  endfacet
  facet normal 0 0 1
    outer loop
      vertex -37.3834 -21.5833 1
      vertex 3.23661e-07 43.1667 1
      vertex -7.07254 47.25 1
    endloop
  endfacet
  facet normal 0 0 1
    outer loop
      vertex -77 38.8679 1
      vertex -4.52258 -100.667 1
      vertex -44.456 -17.5 1
    endloop
  endfacet
  facet normal -0 0 1
    outer loop
      vertex -38 50.3333 1
      vertex -36.9505 54.25 1
      vertex -77 47.25 1
    endloop
  endfacet
  facet normal 0 0 1
    outer loop
      vertex -83.125 35.4767 1
      vertex -4.52258 -100.667 1
      vertex -77 38.8679 1
    endloop
  endfacet
  facet normal 0 0 1
    outer loop
      vertex -83.125 54.25 1
      vertex -77 38.8679 1
      vertex -77 47.25 1
    endloop
  endfacet
  facet normal 0 0 1
    outer loop
      vertex -37.3834 -29.75 1
      vertex -8.48528 -25.5 1
      vertex -37.3834 -21.5833 1
    endloop
  endfacet
  facet normal 0 0 1
    outer loop
      vertex -83.125 54.25 1
      vertex -77 47.25 1
      vertex -36.9505 54.25 1
    endloop
  endfacet
  facet normal 0 0 1
    outer loop
      vertex -83.125 35.4767 1
      vertex -77 38.8679 1
      vertex -83.125 54.25 1
    endloop
  endfacet
  facet normal 0 0 1
    outer loop
      vertex -4.56861 -21.5833 1
      vertex -37.3834 -21.5833 1
      vertex -8.48528 -25.5 1
    endloop
  endfacet
  facet normal 0 0 1
    outer loop
      vertex 3.23661e-07 43.1667 1
      vertex 44.456 -17.5 1
      vertex 7.07254 47.25 1
    endloop
  endfacet
  facet normal 0 0 1
    outer loop
      vertex -7.07254 47.25 1
      vertex 3.23661e-07 43.1667 1
      vertex 7.07254 47.25 1
    endloop
  endfacet
  facet normal 0 0 1
    outer loop
      vertex 37.3834 -21.5833 1
      vertex 4.56861 -21.5833 1
      vertex 8.48528 -25.5 1
    endloop
  endfacet
  facet normal 0 0 1
    outer loop
      vertex 4.23528 -29.75 1
      vertex 37.3834 -29.75 1
      vertex 37.3834 -21.5833 1
    endloop
  endfacet
  facet normal -0 0 1
    outer loop
      vertex 22 50.3333 1
      vertex 23.0495 54.25 1
      vertex 7.07254 47.25 1
    endloop
  endfacet
  facet normal 0 -0 1
    outer loop
      vertex 44.456 -17.5 1
      vertex 37.3834 -29.75 1
      vertex 83.125 35.4767 1
    endloop
  endfacet
  facet normal 0 0 1
    outer loop
      vertex -4.52258 -100.667 1
      vertex 4.52258 -100.667 1
      vertex -2.09832e-14 -94.5 1
    endloop
  endfacet
  facet normal 0 0 1
    outer loop
      vertex -44.456 -17.5 1
      vertex -37.3834 -29.75 1
      vertex -37.3834 -21.5833 1
    endloop
  endfacet
  facet normal 0 0 1
    outer loop
      vertex -44.456 -17.5 1
      vertex -4.52258 -100.667 1
      vertex -37.3834 -29.75 1
    endloop
  endfacet
  facet normal 0 -0 1
    outer loop
      vertex 77 47.25 1
      vertex 77 38.8679 1
      vertex 83.125 54.25 1
    endloop
  endfacet
  facet normal 0 -0 1
    outer loop
      vertex 37.3834 -29.75 1
      vertex -2.09832e-14 -94.5 1
      vertex 83.125 35.4767 1
    endloop
  endfacet
  facet normal 0 0 1
    outer loop
      vertex 4.23528 -29.75 1
      vertex 37.3834 -21.5833 1
      vertex 8.48528 -25.5 1
    endloop
  endfacet
  facet normal 0 -0 1
    outer loop
      vertex 37.3834 -21.5833 1
      vertex 37.3834 -29.75 1
      vertex 44.456 -17.5 1
    endloop
  endfacet
  facet normal -0.965926 0.258819 0
    outer loop
      vertex -38 50.3333 1
      vertex -38 50.3333 4
      vertex -36.9505 54.25 1
    endloop
  endfacet
  facet normal -0.965926 0.258819 0
    outer loop
      vertex -36.9505 54.25 1
      vertex -38 50.3333 4
      vertex -36.9505 54.25 4
    endloop
  endfacet
  facet normal 0.965926 0.258819 0
    outer loop
      vertex -22 50.3333 1
      vertex -23.0495 54.25 1
      vertex -23.0495 54.25 4
    endloop
  endfacet
  facet normal 0.965926 0.258819 -0
    outer loop
      vertex -22 50.3333 4
      vertex -22 50.3333 1
      vertex -23.0495 54.25 4
    endloop
  endfacet
  facet normal 0 0 1
    outer loop
      vertex -4.23528 -29.75 1
      vertex 6.66134e-16 -33.9853 1
      vertex 4.23528 -29.75 1
    endloop
  endfacet
  facet normal 0 -0 1
    outer loop
      vertex 4.56861 -21.5833 1
      vertex -4.23528 -29.75 1
      vertex 8.48528 -25.5 1
    endloop
  endfacet
  facet normal 0 0 1
    outer loop
      vertex 8.48528 -25.5 1
      vertex -4.23528 -29.75 1
      vertex 4.23528 -29.75 1
    endloop
  endfacet
  facet normal 0 -0 1
    outer loop
      vertex -6.66134e-16 -17.0147 1
      vertex -4.23528 -29.75 1
      vertex 4.56861 -21.5833 1
    endloop
  endfacet
  facet normal 0 0 1
    outer loop
      vertex -4.56861 -21.5833 1
      vertex -4.23528 -29.75 1
      vertex -6.66134e-16 -17.0147 1
    endloop
  endfacet
  facet normal 0 0 1
    outer loop
      vertex -8.48528 -25.5 1
      vertex -4.23528 -29.75 1
      vertex -4.56861 -21.5833 1
    endloop
  endfacet
  facet normal -0.965926 0.258819 0
    outer loop
      vertex 22 50.3333 1
      vertex 22 50.3333 4
      vertex 23.0495 54.25 1
    endloop
  endfacet
  facet normal -0.965926 0.258819 0
    outer loop
      vertex 23.0495 54.25 1
      vertex 22 50.3333 4
      vertex 23.0495 54.25 4
    endloop
  endfacet
  facet normal 0.965926 0.258819 0
    outer loop
      vertex 38 50.3333 1
      vertex 36.9505 54.25 1
      vertex 36.9505 54.25 4
    endloop
  endfacet
  facet normal 0.965926 0.258819 -0
    outer loop
      vertex 38 50.3333 4
      vertex 38 50.3333 1
      vertex 36.9505 54.25 4
    endloop
  endfacet
  facet normal 1 0 0
    outer loop
      vertex -83.125 54.25 1
      vertex -83.125 54.25 4
      vertex -83.125 35.4767 4
    endloop
  endfacet
  facet normal 1 0 0
    outer loop
      vertex -83.125 35.4767 1
      vertex -83.125 54.25 1
      vertex -83.125 35.4767 4
    endloop
  endfacet
  facet normal 0.866025 0.5 0
    outer loop
      vertex -83.125 35.4767 4
      vertex -4.52258 -100.667 4
      vertex -4.52258 -100.667 1
    endloop
  endfacet
  facet normal 0.866025 0.5 0
    outer loop
      vertex -83.125 35.4767 1
      vertex -83.125 35.4767 4
      vertex -4.52258 -100.667 1
    endloop
  endfacet
  facet normal 0 1 0
    outer loop
      vertex -4.52258 -100.667 1
      vertex -4.52258 -100.667 4
      vertex 4.52258 -100.667 1
    endloop
  endfacet
  facet normal 0 1 0
    outer loop
      vertex 4.52258 -100.667 1
      vertex -4.52258 -100.667 4
      vertex 4.52258 -100.667 4
    endloop
  endfacet
  facet normal -0.866025 0.5 0
    outer loop
      vertex 83.125 35.4767 4
      vertex 83.125 35.4767 1
      vertex 4.52258 -100.667 4
    endloop
  endfacet
  facet normal -0.866025 0.5 0
    outer loop
      vertex 4.52258 -100.667 4
      vertex 83.125 35.4767 1
      vertex 4.52258 -100.667 1
    endloop
  endfacet
  facet normal -1 0 0
    outer loop
      vertex 83.125 54.25 4
      vertex 83.125 54.25 1
      vertex 83.125 35.4767 4
    endloop
  endfacet
  facet normal -1 0 0
    outer loop
      vertex 83.125 35.4767 4
      vertex 83.125 54.25 1
      vertex 83.125 35.4767 1
    endloop
  endfacet
  facet normal 1.43139e-09 -1 0
    outer loop
      vertex 83.125 54.25 1
      vertex 83.125 54.25 4
      vertex 36.9505 54.25 4
    endloop
  endfacet
  facet normal 1.43139e-09 -1 0
    outer loop
      vertex 36.9505 54.25 1
      vertex 83.125 54.25 1
      vertex 36.9505 54.25 4
    endloop
  endfacet
  facet normal 1.43139e-09 -1 0
    outer loop
      vertex 23.0495 54.25 1
      vertex 23.0495 54.25 4
      vertex -23.0495 54.25 4
    endloop
  endfacet
  facet normal 1.43139e-09 -1 0
    outer loop
      vertex -23.0495 54.25 1
      vertex 23.0495 54.25 1
      vertex -23.0495 54.25 4
    endloop
  endfacet
  facet normal 1.43139e-09 -1 0
    outer loop
      vertex -36.9505 54.25 1
      vertex -36.9505 54.25 4
      vertex -83.125 54.25 4
    endloop
  endfacet
  facet normal 1.43139e-09 -1 0
    outer loop
      vertex -83.125 54.25 1
      vertex -36.9505 54.25 1
      vertex -83.125 54.25 4
    endloop
  endfacet
endsolid OpenSCAD_Model
