  0
SECTION
  2
BLOCKS
  0
ENDSEC
  0
SECTION
  2
ENTITIES
  0
LINE
  8
0
 10
-87.5
 11
-87.5
 20
34.888
 21
58.333
  0
LINE
  8
0
 10
-87.5
 11
87.5
 20
58.333
 21
58.334
  0
LINE
  8
0
 10
87.5
 11
87.5
 20
58.334
 21
34.887
  0
LINE
  8
0
 10
87.5
 11
8
 20
34.887
 21
-102.81
  0
LINE
  8
0
 10
8
 11
8
 20
-102.81
 21
-116.667
  0
LINE
  8
0
 10
8
 11
6.928
 20
-116.667
 21
-120.667
  0
LINE
  8
0
 10
6.928
 11
4
 20
-120.667
 21
-123.595
  0
LINE
  8
0
 10
4
 11
0
 20
-123.595
 21
-124.667
  0
LINE
  8
0
 10
0
 11
-4
 20
-124.667
 21
-123.595
  0
LINE
  8
0
 10
-4
 11
-6.928
 20
-123.595
 21
-120.667
  0
LINE
  8
0
 10
-6.928
 11
-8
 20
-120.667
 21
-116.667
  0
LINE
  8
0
 10
-8
 11
-8
 20
-116.667
 21
-102.81
  0
LINE
  8
0
 10
-8
 11
-87.5
 20
-102.81
 21
34.888
  0
LINE
  8
0
 10
-83.125
 11
-83.125
 20
35.476
 21
54.25
  0
LINE
  8
0
 10
-83.125
 11
-36.95
 20
54.25
 21
54.25
  0
LINE
  8
0
 10
-36.95
 11
-38
 20
54.25
 21
50.333
  0
LINE
  8
0
 10
-38
 11
-36.928
 20
50.333
 21
46.333
  0
LINE
  8
0
 10
-36.928
 11
-34
 20
46.333
 21
43.405
  0
LINE
  8
0
 10
-34
 11
-30
 20
43.405
 21
42.333
  0
LINE
  8
0
 10
-30
 11
-26
 20
42.333
 21
43.405
  0
LINE
  8
0
 10
-26
 11
-23.072
 20
43.405
 21
46.333
  0
LINE
  8
0
 10
-23.072
 11
-22
 20
46.333
 21
50.333
  0
LINE
  8
0
 10
-22
 11
-23.05
 20
50.333
 21
54.25
  0
LINE
  8
0
 10
-23.05
 11
23.05
 20
54.25
 21
54.25
  0
LINE
  8
0
 10
23.05
 11
22
 20
54.25
 21
50.333
  0
LINE
  8
0
 10
22
 11
23.072
 20
50.333
 21
46.333
  0
LINE
  8
0
 10
23.072
 11
26
 20
46.333
 21
43.405
  0
LINE
  8
0
 10
26
 11
30
 20
43.405
 21
42.333
  0
LINE
  8
0
 10
30
 11
34
 20
42.333
 21
43.405
  0
LINE
  8
0
 10
34
 11
36.928
 20
43.405
 21
46.333
  0
LINE
  8
0
 10
36.928
 11
38
 20
46.333
 21
50.333
  0
LINE
  8
0
 10
38
 11
36.95
 20
50.333
 21
54.25
  0
LINE
  8
0
 10
36.95
 11
83.125
 20
54.25
 21
54.25
  0
LINE
  8
0
 10
83.125
 11
83.125
 20
54.25
 21
35.476
  0
LINE
  8
0
 10
83.125
 11
4.522
 20
35.476
 21
-100.667
  0
LINE
  8
0
 10
4.522
 11
-4.522
 20
-100.667
 21
-100.667
  0
LINE
  8
0
 10
-4.522
 11
-83.125
 20
-100.667
 21
35.476
  0
LINE
  8
0
 10
-32.2
 11
-31.905
 20
50.333
 21
51.433
  0
LINE
  8
0
 10
-31.905
 11
-31.1
 20
51.433
 21
52.238
  0
LINE
  8
0
 10
-31.1
 11
-30
 20
52.238
 21
52.533
  0
LINE
  8
0
 10
-30
 11
-28.9
 20
52.533
 21
52.238
  0
LINE
  8
0
 10
-28.9
 11
-28.095
 20
52.238
 21
51.433
  0
LINE
  8
0
 10
-28.095
 11
-27.8
 20
51.433
 21
50.333
  0
LINE
  8
0
 10
-27.8
 11
-28.095
 20
50.333
 21
49.233
  0
LINE
  8
0
 10
-28.095
 11
-28.9
 20
49.233
 21
48.428
  0
LINE
  8
0
 10
-28.9
 11
-30
 20
48.428
 21
48.133
  0
LINE
  8
0
 10
-30
 11
-31.1
 20
48.133
 21
48.428
  0
LINE
  8
0
 10
-31.1
 11
-31.905
 20
48.428
 21
49.233
  0
LINE
  8
0
 10
-31.905
 11
-32.2
 20
49.233
 21
50.333
  0
LINE
  8
0
 10
-8.485
 11
0
 20
-25.5
 21
-17.015
  0
LINE
  8
0
 10
0
 11
8.485
 20
-17.015
 21
-25.5
  0
LINE
  8
0
 10
8.485
 11
0
 20
-25.5
 21
-33.985
  0
LINE
  8
0
 10
0
 11
-8.485
 20
-33.985
 21
-25.5
  0
LINE
  8
0
 10
-2.2
 11
-1.905
 20
-116.667
 21
-115.567
  0
LINE
  8
0
 10
-1.905
 11
-1.1
 20
-115.567
 21
-114.762
  0
LINE
  8
0
 10
-1.1
 11
0
 20
-114.762
 21
-114.467
  0
LINE
  8
0
 10
0
 11
1.1
 20
-114.467
 21
-114.762
  0
LINE
  8
0
 10
1.1
 11
1.905
 20
-114.762
 21
-115.567
  0
LINE
  8
0
 10
1.905
 11
2.2
 20
-115.567
 21
-116.667
  0
LINE
  8
0
 10
2.2
 11
1.905
 20
-116.667
 21
-117.767
  0
LINE
  8
0
 10
1.905
 11
1.1
 20
-117.767
 21
-118.572
  0
LINE
  8
0
 10
1.1
 11
0
 20
-118.572
 21
-118.867
  0
LINE
  8
0
 10
0
 11
-1.1
 20
-118.867
 21
-118.572
  0
LINE
  8
0
 10
-1.1
 11
-1.905
 20
-118.572
 21
-117.767
  0
LINE
  8
0
 10
-1.905
 11
-2.2
 20
-117.767
 21
-116.667
  0
LINE
  8
0
 10
27.8
 11
28.095
 20
50.333
 21
51.433
  0
LINE
  8
0
 10
28.095
 11
28.9
 20
51.433
 21
52.238
  0
LINE
  8
0
 10
28.9
 11
30
 20
52.238
 21
52.533
  0
LINE
  8
0
 10
30
 11
31.1
 20
52.533
 21
52.238
  0
LINE
  8
0
 10
31.1
 11
31.905
 20
52.238
 21
51.433
  0
LINE
  8
0
 10
31.905
 11
32.2
 20
51.433
 21
50.333
  0
LINE
  8
0
 10
32.2
 11
31.905
 20
50.333
 21
49.233
  0
LINE
  8
0
 10
31.905
 11
31.1
 20
49.233
 21
48.428
  0
LINE
  8
0
 10
31.1
 11
30
 20
48.428
 21
48.133
  0
LINE
  8
0
 10
30
 11
28.9
 20
48.133
 21
48.428
  0
LINE
  8
0
 10
28.9
 11
28.095
 20
48.428
 21
49.233
  0
LINE
  8
0
 10
28.095
 11
27.8
 20
49.233
 21
50.333
  0
ENDSEC
  0
SECTION
  2
OBJECTS
  0
DICTIONARY
  0
ENDSEC
  0
EOF
