solid OpenSCAD_Model
  facet normal -0.995185 0.0980169 0
    outer loop
      vertex -7.5 0 -12
      vertex -7.5 0 12
      vertex -7.35589 1.46318 -12
    endloop
  endfacet
  facet normal -0.995185 0.0980169 0
    outer loop
      vertex -7.35589 1.46318 -12
      vertex -7.5 0 12
      vertex -7.35589 1.46318 12
    endloop
  endfacet
  facet normal -0.995185 -0.0980169 -0
    outer loop
      vertex -7.5 0 -12
      vertex -7.35589 -1.46318 -12
      vertex -7.5 0 12
    endloop
  endfacet
  facet normal -0.995185 -0.0980169 0
    outer loop
      vertex -7.5 0 12
      vertex -7.35589 -1.46318 -12
      vertex -7.35589 -1.46318 12
    endloop
  endfacet
  facet normal -0 0 -1
    outer loop
      vertex -7.5 0 -12
      vertex -7.35589 1.46318 -12
      vertex -7.35589 -1.46318 -12
    endloop
  endfacet
  facet normal 0 -0 -1
    outer loop
      vertex -7.35589 -1.46318 -12
      vertex -7.35589 1.46318 -12
      vertex -6.9291 2.87013 -12
    endloop
  endfacet
  facet normal 0 0 -1
    outer loop
      vertex -7.35589 -1.46318 -12
      vertex -6.9291 2.87013 -12
      vertex -6.23602 4.16678 -12
    endloop
  endfacet
  facet normal 0 0 -1
    outer loop
      vertex -7.35589 -1.46318 -12
      vertex -6.23602 4.16678 -12
      vertex -5.3033 5.3033 -12
    endloop
  endfacet
  facet normal 0 0 -1
    outer loop
      vertex -5.4877 3.66676 -12
      vertex -5.3033 5.3033 -12
      vertex -4.16678 6.23602 -12
    endloop
  endfacet
  facet normal 0 -0 -1
    outer loop
      vertex -3.66676 5.4877 -12
      vertex -4.16678 6.23602 -12
      vertex -2.87013 6.9291 -12
    endloop
  endfacet
  facet normal 0 -0 -1
    outer loop
      vertex -2.65516 6.02841 -12
      vertex -2.87013 6.9291 -12
      vertex -1.46318 7.35589 -12
    endloop
  endfacet
  facet normal 0 -0 -1
    outer loop
      vertex -1.2876 6.47318 -12
      vertex -1.46318 7.35589 -12
      vertex 0 7.5 -12
    endloop
  endfacet
  facet normal 0 0 -1
    outer loop
      vertex -0.14607 6.58561 -12
      vertex 0 7.5 -12
      vertex 1.46318 7.35589 -12
    endloop
  endfacet
  facet normal 0 0 -1
    outer loop
      vertex 1.2876 6.47318 -12
      vertex 1.46318 7.35589 -12
      vertex 2.87013 6.9291 -12
    endloop
  endfacet
  facet normal 0 -0 -1
    outer loop
      vertex 3.26695 5.7014 -12
      vertex 2.87013 6.9291 -12
      vertex 4.16678 6.23602 -12
    endloop
  endfacet
  facet normal -0 0 -1
    outer loop
      vertex 3.66676 5.4877 -12
      vertex 4.16678 6.23602 -12
      vertex 5.3033 5.3033 -12
    endloop
  endfacet
  facet normal 0 0 -1
    outer loop
      vertex 5.2001 4.0172 -12
      vertex 5.3033 5.3033 -12
      vertex 6.23602 4.16678 -12
    endloop
  endfacet
  facet normal 0 0 -1
    outer loop
      vertex 6.02841 2.65516 -12
      vertex 6.23602 4.16678 -12
      vertex 6.9291 2.87013 -12
    endloop
  endfacet
  facet normal -0 0 -1
    outer loop
      vertex 6.34158 1.72142 -12
      vertex 6.9291 2.87013 -12
      vertex 7.35589 1.46318 -12
    endloop
  endfacet
  facet normal -0 0 -1
    outer loop
      vertex 6.58561 0.14607 -12
      vertex 7.35589 1.46318 -12
      vertex 7.5 0 -12
    endloop
  endfacet
  facet normal -0 0 -1
    outer loop
      vertex 6.47318 -1.2876 -12
      vertex 7.5 0 -12
      vertex 7.35589 -1.46318 -12
    endloop
  endfacet
  facet normal -0 0 -1
    outer loop
      vertex 6.14021 -2.38525 -12
      vertex 7.35589 -1.46318 -12
      vertex 6.9291 -2.87013 -12
    endloop
  endfacet
  facet normal -0 0 -1
    outer loop
      vertex 5.4877 -3.66676 -12
      vertex 6.9291 -2.87013 -12
      vertex 6.23602 -4.16678 -12
    endloop
  endfacet
  facet normal -0 0 -1
    outer loop
      vertex 4.76002 -4.55344 -12
      vertex 6.23602 -4.16678 -12
      vertex 5.3033 -5.3033 -12
    endloop
  endfacet
  facet normal -0 0 -1
    outer loop
      vertex 3.66676 -5.4877 -12
      vertex 5.3033 -5.3033 -12
      vertex 4.16678 -6.23602 -12
    endloop
  endfacet
  facet normal 0 0 -1
    outer loop
      vertex 2.65516 -6.02841 -12
      vertex 4.16678 -6.23602 -12
      vertex 2.87013 -6.9291 -12
    endloop
  endfacet
  facet normal 0 0 -1
    outer loop
      vertex 1.2876 -6.47318 -12
      vertex 2.87013 -6.9291 -12
      vertex 1.46318 -7.35589 -12
    endloop
  endfacet
  facet normal 0 0 -1
    outer loop
      vertex -0.836438 -6.51762 -12
      vertex 1.46318 -7.35589 -12
      vertex 0 -7.5 -12
    endloop
  endfacet
  facet normal 0 0 -1
    outer loop
      vertex -2.38525 -6.14021 -12
      vertex 0 -7.5 -12
      vertex -1.46318 -7.35589 -12
    endloop
  endfacet
  facet normal 0 0 -1
    outer loop
      vertex -4.55344 -4.76002 -12
      vertex -1.46318 -7.35589 -12
      vertex -2.87013 -6.9291 -12
    endloop
  endfacet
  facet normal 0 0 -1
    outer loop
      vertex -7.35589 -1.46318 -12
      vertex -2.87013 -6.9291 -12
      vertex -4.16678 -6.23602 -12
    endloop
  endfacet
  facet normal 0 0 -1
    outer loop
      vertex -7.35589 -1.46318 -12
      vertex -4.16678 -6.23602 -12
      vertex -5.3033 -5.3033 -12
    endloop
  endfacet
  facet normal 0 0 -1
    outer loop
      vertex -7.35589 -1.46318 -12
      vertex -5.3033 -5.3033 -12
      vertex -6.23602 -4.16678 -12
    endloop
  endfacet
  facet normal 0 0 -1
    outer loop
      vertex -7.35589 -1.46318 -12
      vertex -6.23602 -4.16678 -12
      vertex -6.9291 -2.87013 -12
    endloop
  endfacet
  facet normal 0 0 -1
    outer loop
      vertex -6.47318 -1.2876 -12
      vertex -7.35589 -1.46318 -12
      vertex -6.58561 -0.14607 -12
    endloop
  endfacet
  facet normal 0 0 -1
    outer loop
      vertex -6.34158 -1.72142 -12
      vertex -7.35589 -1.46318 -12
      vertex -6.47318 -1.2876 -12
    endloop
  endfacet
  facet normal 0 0 -1
    outer loop
      vertex 6.34158 1.72142 -12
      vertex 7.35589 1.46318 -12
      vertex 6.47318 1.2876 -12
    endloop
  endfacet
  facet normal 0 -0 -1
    outer loop
      vertex 4.40857 -0.0498622 -12
      vertex 3.80054 0.613687 -12
      vertex 6.34158 1.72142 -12
    endloop
  endfacet
  facet normal 0 0 -1
    outer loop
      vertex -5.4877 -3.66676 -12
      vertex -7.35589 -1.46318 -12
      vertex -6.02841 -2.65516 -12
    endloop
  endfacet
  facet normal 0 0 -1
    outer loop
      vertex 1.2876 -6.47318 -12
      vertex 1.46318 -7.35589 -12
      vertex 0.14607 -6.58561 -12
    endloop
  endfacet
  facet normal 0 0 -1
    outer loop
      vertex -7.35589 -1.46318 -12
      vertex -5.4877 -3.66676 -12
      vertex -2.87013 -6.9291 -12
    endloop
  endfacet
  facet normal 0 0 -1
    outer loop
      vertex -5.4877 -3.66676 -12
      vertex -5.2001 -4.0172 -12
      vertex -2.87013 -6.9291 -12
    endloop
  endfacet
  facet normal 0 0 -1
    outer loop
      vertex 6.02841 2.65516 -12
      vertex 6.34158 1.72142 -12
      vertex 3.80054 0.613687 -12
    endloop
  endfacet
  facet normal -0 0 -1
    outer loop
      vertex 6.02841 2.65516 -12
      vertex 6.9291 2.87013 -12
      vertex 6.34158 1.72142 -12
    endloop
  endfacet
  facet normal -0 0 -1
    outer loop
      vertex 6.47318 1.2876 -12
      vertex 7.35589 1.46318 -12
      vertex 6.58561 0.14607 -12
    endloop
  endfacet
  facet normal 0 0 -1
    outer loop
      vertex 3.12133 -2.25345 -12
      vertex 5.7014 -3.26695 -12
      vertex 3.08207 -3.15259 -12
    endloop
  endfacet
  facet normal 0 0 -1
    outer loop
      vertex -3.66676 -5.4877 -12
      vertex -1.46318 -7.35589 -12
      vertex -4.55344 -4.76002 -12
    endloop
  endfacet
  facet normal 0 0 -1
    outer loop
      vertex -5.2001 -4.0172 -12
      vertex -4.55344 -4.76002 -12
      vertex -2.87013 -6.9291 -12
    endloop
  endfacet
  facet normal 0 -0 -1
    outer loop
      vertex -2.38525 -6.14021 -12
      vertex -3.15259 -3.08207 -12
      vertex -2.25345 -3.12133 -12
    endloop
  endfacet
  facet normal 0 0 -1
    outer loop
      vertex -0.836438 -6.51762 -12
      vertex 0 -7.5 -12
      vertex -1.2876 -6.47318 -12
    endloop
  endfacet
  facet normal 0 0 -1
    outer loop
      vertex -1.2876 -6.47318 -12
      vertex 0 -7.5 -12
      vertex -2.38525 -6.14021 -12
    endloop
  endfacet
  facet normal 0 0 -1
    outer loop
      vertex -3.15259 -3.08207 -12
      vertex -2.38525 -6.14021 -12
      vertex -3.26695 -5.7014 -12
    endloop
  endfacet
  facet normal 0 0 -1
    outer loop
      vertex 0.14607 -6.58561 -12
      vertex 1.46318 -7.35589 -12
      vertex -0.836438 -6.51762 -12
    endloop
  endfacet
  facet normal 0 0 -1
    outer loop
      vertex -3.26695 -5.7014 -12
      vertex -1.46318 -7.35589 -12
      vertex -3.66676 -5.4877 -12
    endloop
  endfacet
  facet normal 0 0 -1
    outer loop
      vertex 1.72142 -6.34158 -12
      vertex 2.87013 -6.9291 -12
      vertex 1.2876 -6.47318 -12
    endloop
  endfacet
  facet normal 0 0 -1
    outer loop
      vertex -2.38525 -6.14021 -12
      vertex -1.46318 -7.35589 -12
      vertex -3.26695 -5.7014 -12
    endloop
  endfacet
  facet normal 0 0 -1
    outer loop
      vertex 0.14607 -6.58561 -12
      vertex -1.73315 -4.05391 -12
      vertex -0.887431 -3.74609 -12
    endloop
  endfacet
  facet normal 0 0 -1
    outer loop
      vertex 3.66676 -5.4877 -12
      vertex 4.16678 -6.23602 -12
      vertex 2.65516 -6.02841 -12
    endloop
  endfacet
  facet normal 0 0 -1
    outer loop
      vertex 4.0172 -5.2001 -12
      vertex 5.3033 -5.3033 -12
      vertex 3.66676 -5.4877 -12
    endloop
  endfacet
  facet normal 0 0 -1
    outer loop
      vertex 5.4877 -3.66676 -12
      vertex 6.23602 -4.16678 -12
      vertex 4.76002 -4.55344 -12
    endloop
  endfacet
  facet normal 0 0 -1
    outer loop
      vertex 1.64102 -4.09207 -12
      vertex 4.76002 -4.55344 -12
      vertex 5.3033 -5.3033 -12
    endloop
  endfacet
  facet normal -0 0 -1
    outer loop
      vertex 5.7014 -3.26695 -12
      vertex 6.9291 -2.87013 -12
      vertex 5.4877 -3.66676 -12
    endloop
  endfacet
  facet normal 0 0 -1
    outer loop
      vertex 3.12133 -2.25345 -12
      vertex 6.9291 -2.87013 -12
      vertex 5.7014 -3.26695 -12
    endloop
  endfacet
  facet normal 0 0 -1
    outer loop
      vertex 6.58561 0.14607 -12
      vertex 7.5 0 -12
      vertex 3.74609 -0.887431 -12
    endloop
  endfacet
  facet normal 0 0 -1
    outer loop
      vertex 6.47318 -1.2876 -12
      vertex 7.35589 -1.46318 -12
      vertex 6.14021 -2.38525 -12
    endloop
  endfacet
  facet normal 0 0 -1
    outer loop
      vertex 4.55344 4.76002 -12
      vertex 5.2001 4.0172 -12
      vertex 4.09207 1.64102 -12
    endloop
  endfacet
  facet normal 0 0 -1
    outer loop
      vertex 3.12133 -2.25345 -12
      vertex 6.14021 -2.38525 -12
      vertex 6.9291 -2.87013 -12
    endloop
  endfacet
  facet normal -0 0 -1
    outer loop
      vertex 6.51762 -0.836438 -12
      vertex 7.5 0 -12
      vertex 6.47318 -1.2876 -12
    endloop
  endfacet
  facet normal 0 0 -1
    outer loop
      vertex 3.74609 -0.887431 -12
      vertex 7.5 0 -12
      vertex 6.51762 -0.836438 -12
    endloop
  endfacet
  facet normal 0 -0 -1
    outer loop
      vertex 4.05391 -1.73315 -12
      vertex 3.74609 -0.887431 -12
      vertex 6.51762 -0.836438 -12
    endloop
  endfacet
  facet normal 0 0 -1
    outer loop
      vertex -0.0498622 -4.40857 -12
      vertex 2.87013 -6.9291 -12
      vertex 1.72142 -6.34158 -12
    endloop
  endfacet
  facet normal 0 0 -1
    outer loop
      vertex -1.73315 -4.05391 -12
      vertex 0.14607 -6.58561 -12
      vertex -0.836438 -6.51762 -12
    endloop
  endfacet
  facet normal -0 0 -1
    outer loop
      vertex -4.76002 4.55344 -12
      vertex -4.0172 5.2001 -12
      vertex -1.64102 4.09207 -12
    endloop
  endfacet
  facet normal 0 0 -1
    outer loop
      vertex 2.65516 -6.02841 -12
      vertex -0.0498622 -4.40857 -12
      vertex 0.613687 -3.80054 -12
    endloop
  endfacet
  facet normal -0 0 -1
    outer loop
      vertex 5.4877 3.66676 -12
      vertex 6.23602 4.16678 -12
      vertex 6.02841 2.65516 -12
    endloop
  endfacet
  facet normal 0 0 -1
    outer loop
      vertex 1.64102 -4.09207 -12
      vertex 5.3033 -5.3033 -12
      vertex 4.0172 -5.2001 -12
    endloop
  endfacet
  facet normal -0 0 -1
    outer loop
      vertex 4.55344 4.76002 -12
      vertex 5.3033 5.3033 -12
      vertex 5.2001 4.0172 -12
    endloop
  endfacet
  facet normal 0 0 -1
    outer loop
      vertex 3.66676 5.4877 -12
      vertex 5.3033 5.3033 -12
      vertex 4.55344 4.76002 -12
    endloop
  endfacet
  facet normal -0 0 -1
    outer loop
      vertex 3.26695 5.7014 -12
      vertex 4.16678 6.23602 -12
      vertex 3.66676 5.4877 -12
    endloop
  endfacet
  facet normal -0 0 -1
    outer loop
      vertex 2.38525 6.14021 -12
      vertex 2.87013 6.9291 -12
      vertex 3.26695 5.7014 -12
    endloop
  endfacet
  facet normal 0 -0 -1
    outer loop
      vertex -4.55344 -4.76002 -12
      vertex -5.2001 -4.0172 -12
      vertex -4.09207 -1.64102 -12
    endloop
  endfacet
  facet normal 0 0 -1
    outer loop
      vertex 2.38525 6.14021 -12
      vertex 3.15259 3.08207 -12
      vertex 2.25345 3.12133 -12
    endloop
  endfacet
  facet normal 0 0 -1
    outer loop
      vertex -4.55344 -4.76002 -12
      vertex -4.09207 -1.64102 -12
      vertex -3.27639 -2.02138 -12
    endloop
  endfacet
  facet normal -0 0 -1
    outer loop
      vertex 0.836438 6.51762 -12
      vertex 1.46318 7.35589 -12
      vertex 1.2876 6.47318 -12
    endloop
  endfacet
  facet normal 0 0 -1
    outer loop
      vertex -4.76002 4.55344 -12
      vertex -1.64102 4.09207 -12
      vertex -2.02138 3.27639 -12
    endloop
  endfacet
  facet normal 0 0 -1
    outer loop
      vertex 2.38525 6.14021 -12
      vertex 3.26695 5.7014 -12
      vertex 3.15259 3.08207 -12
    endloop
  endfacet
  facet normal 0 0 -1
    outer loop
      vertex -0.0498622 -4.40857 -12
      vertex 2.65516 -6.02841 -12
      vertex 2.87013 -6.9291 -12
    endloop
  endfacet
  facet normal 0 0 -1
    outer loop
      vertex -1.2876 6.47318 -12
      vertex 0 7.5 -12
      vertex -0.14607 6.58561 -12
    endloop
  endfacet
  facet normal 0 0 -1
    outer loop
      vertex -1.72142 6.34158 -12
      vertex -1.46318 7.35589 -12
      vertex -1.2876 6.47318 -12
    endloop
  endfacet
  facet normal -0 0 -1
    outer loop
      vertex -0.14607 6.58561 -12
      vertex 1.46318 7.35589 -12
      vertex 0.836438 6.51762 -12
    endloop
  endfacet
  facet normal 0 -0 -1
    outer loop
      vertex -6.02841 -2.65516 -12
      vertex -6.34158 -1.72142 -12
      vertex -4.40857 0.0498622 -12
    endloop
  endfacet
  facet normal 0 0 -1
    outer loop
      vertex -0.14607 6.58561 -12
      vertex 0.836438 6.51762 -12
      vertex 1.73315 4.05391 -12
    endloop
  endfacet
  facet normal 0 0 -1
    outer loop
      vertex -3.66676 5.4877 -12
      vertex -2.87013 6.9291 -12
      vertex -2.65516 6.02841 -12
    endloop
  endfacet
  facet normal 0 -0 -1
    outer loop
      vertex -4.0172 5.2001 -12
      vertex -4.16678 6.23602 -12
      vertex -3.66676 5.4877 -12
    endloop
  endfacet
  facet normal 0 0 -1
    outer loop
      vertex -4.76002 4.55344 -12
      vertex -4.16678 6.23602 -12
      vertex -4.0172 5.2001 -12
    endloop
  endfacet
  facet normal 0 0 -1
    outer loop
      vertex 4.55344 4.76002 -12
      vertex 4.09207 1.64102 -12
      vertex 3.27639 2.02138 -12
    endloop
  endfacet
  facet normal 0 0 -1
    outer loop
      vertex -2.65516 6.02841 -12
      vertex -1.46318 7.35589 -12
      vertex -1.72142 6.34158 -12
    endloop
  endfacet
  facet normal 0 0 -1
    outer loop
      vertex -6.02841 -2.65516 -12
      vertex -7.35589 -1.46318 -12
      vertex -6.34158 -1.72142 -12
    endloop
  endfacet
  facet normal 0 0 -1
    outer loop
      vertex -5.4877 3.66676 -12
      vertex -4.16678 6.23602 -12
      vertex -4.76002 4.55344 -12
    endloop
  endfacet
  facet normal 0 0 -1
    outer loop
      vertex -5.7014 3.26695 -12
      vertex -5.3033 5.3033 -12
      vertex -5.4877 3.66676 -12
    endloop
  endfacet
  facet normal 0 -0 -1
    outer loop
      vertex -6.58561 -0.14607 -12
      vertex -7.35589 -1.46318 -12
      vertex -6.51762 0.836438 -12
    endloop
  endfacet
  facet normal 0 0 -1
    outer loop
      vertex -6.14021 2.38525 -12
      vertex -5.3033 5.3033 -12
      vertex -5.7014 3.26695 -12
    endloop
  endfacet
  facet normal 0 0 -1
    outer loop
      vertex 4.76002 -4.55344 -12
      vertex 1.64102 -4.09207 -12
      vertex 2.02138 -3.27639 -12
    endloop
  endfacet
  facet normal 0 0 -1
    outer loop
      vertex -6.02841 -2.65516 -12
      vertex -4.40857 0.0498622 -12
      vertex -3.80054 -0.613687 -12
    endloop
  endfacet
  facet normal 0 0 -1
    outer loop
      vertex -7.35589 -1.46318 -12
      vertex -5.3033 5.3033 -12
      vertex -6.14021 2.38525 -12
    endloop
  endfacet
  facet normal 0 0 -1
    outer loop
      vertex -3.74609 0.887431 -12
      vertex -6.58561 -0.14607 -12
      vertex -4.05391 1.73315 -12
    endloop
  endfacet
  facet normal 0 0 -1
    outer loop
      vertex -7.35589 -1.46318 -12
      vertex -6.14021 2.38525 -12
      vertex -6.47318 1.2876 -12
    endloop
  endfacet
  facet normal 0 -0 -1
    outer loop
      vertex -6.51762 0.836438 -12
      vertex -7.35589 -1.46318 -12
      vertex -6.47318 1.2876 -12
    endloop
  endfacet
  facet normal -0 0 -1
    outer loop
      vertex 5.2001 4.0172 -12
      vertex 6.23602 4.16678 -12
      vertex 5.4877 3.66676 -12
    endloop
  endfacet
  facet normal 0 0 -1
    outer loop
      vertex -4.05391 1.73315 -12
      vertex -6.58561 -0.14607 -12
      vertex -6.51762 0.836438 -12
    endloop
  endfacet
  facet normal -0 0 -1
    outer loop
      vertex -6.14021 2.38525 -12
      vertex -3.08207 3.15259 -12
      vertex -3.12133 2.25345 -12
    endloop
  endfacet
  facet normal 0 0 -1
    outer loop
      vertex -2.65516 6.02841 -12
      vertex 0.0498622 4.40857 -12
      vertex -0.613687 3.80054 -12
    endloop
  endfacet
  facet normal -0 0 -1
    outer loop
      vertex -2.65516 6.02841 -12
      vertex -1.72142 6.34158 -12
      vertex 0.0498622 4.40857 -12
    endloop
  endfacet
  facet normal 0 0 -1
    outer loop
      vertex -6.14021 2.38525 -12
      vertex -5.7014 3.26695 -12
      vertex -3.08207 3.15259 -12
    endloop
  endfacet
  facet normal -0 0 -1
    outer loop
      vertex 1.2876 6.47318 -12
      vertex 2.87013 6.9291 -12
      vertex 2.38525 6.14021 -12
    endloop
  endfacet
  facet normal 0 0 -1
    outer loop
      vertex -0.14607 6.58561 -12
      vertex 1.73315 4.05391 -12
      vertex 0.887431 3.74609 -12
    endloop
  endfacet
  facet normal -0.95694 0.290285 0
    outer loop
      vertex -7.35589 1.46318 -12
      vertex -7.35589 1.46318 12
      vertex -6.9291 2.87013 -12
    endloop
  endfacet
  facet normal -0.95694 0.290285 0
    outer loop
      vertex -6.9291 2.87013 -12
      vertex -7.35589 1.46318 12
      vertex -6.9291 2.87013 12
    endloop
  endfacet
  facet normal 0 0 1
    outer loop
      vertex -7.35589 1.46318 12
      vertex -7.5 0 12
      vertex -7.35589 -1.46318 12
    endloop
  endfacet
  facet normal 0 0 1
    outer loop
      vertex -6.23602 -4.16678 12
      vertex -7.35589 1.46318 12
      vertex -6.9291 -2.87013 12
    endloop
  endfacet
  facet normal 0 0 1
    outer loop
      vertex -6.9291 -2.87013 12
      vertex -7.35589 1.46318 12
      vertex -7.35589 -1.46318 12
    endloop
  endfacet
  facet normal 0 0 1
    outer loop
      vertex -5.3033 -5.3033 12
      vertex -7.35589 1.46318 12
      vertex -6.23602 -4.16678 12
    endloop
  endfacet
  facet normal -0 -0 1
    outer loop
      vertex -6.47318 -1.2876 12
      vertex -7.35589 1.46318 12
      vertex -5.3033 -5.3033 12
    endloop
  endfacet
  facet normal 0 -0 1
    outer loop
      vertex 6.47318 -1.2876 12
      vertex 6.14021 -2.38525 12
      vertex 6.9291 -2.87013 12
    endloop
  endfacet
  facet normal 0 0 1
    outer loop
      vertex 3.66676 5.4877 12
      vertex 4.55344 4.76002 12
      vertex 5.3033 5.3033 12
    endloop
  endfacet
  facet normal 0 0 1
    outer loop
      vertex -3.66676 5.4877 12
      vertex -2.65516 6.02841 12
      vertex -1.46318 7.35589 12
    endloop
  endfacet
  facet normal -0 0 1
    outer loop
      vertex -6.14021 2.38525 12
      vertex -5.7014 3.26695 12
      vertex -7.35589 1.46318 12
    endloop
  endfacet
  facet normal 0 0 1
    outer loop
      vertex -2.65516 6.02841 12
      vertex -0.613687 3.80054 12
      vertex 0.0498622 4.40857 12
    endloop
  endfacet
  facet normal 0 0 1
    outer loop
      vertex 4.09207 1.64102 12
      vertex 5.2001 4.0172 12
      vertex 4.55344 4.76002 12
    endloop
  endfacet
  facet normal 0 -0 1
    outer loop
      vertex -4.16678 6.23602 12
      vertex -7.35589 1.46318 12
      vertex -2.87013 6.9291 12
    endloop
  endfacet
  facet normal 0 -0 1
    outer loop
      vertex -5.3033 5.3033 12
      vertex -7.35589 1.46318 12
      vertex -4.16678 6.23602 12
    endloop
  endfacet
  facet normal 0 -0 1
    outer loop
      vertex -6.23602 4.16678 12
      vertex -7.35589 1.46318 12
      vertex -5.3033 5.3033 12
    endloop
  endfacet
  facet normal 0 -0 1
    outer loop
      vertex -6.9291 2.87013 12
      vertex -7.35589 1.46318 12
      vertex -6.23602 4.16678 12
    endloop
  endfacet
  facet normal -0 -0 1
    outer loop
      vertex -6.34158 -1.72142 12
      vertex -6.47318 -1.2876 12
      vertex -5.3033 -5.3033 12
    endloop
  endfacet
  facet normal -0 -0 1
    outer loop
      vertex -5.2001 -4.0172 12
      vertex -5.4877 -3.66676 12
      vertex -4.16678 -6.23602 12
    endloop
  endfacet
  facet normal 0 0 1
    outer loop
      vertex 4.05391 -1.73315 12
      vertex 6.51762 -0.836438 12
      vertex 6.58561 0.14607 12
    endloop
  endfacet
  facet normal 0 0 1
    outer loop
      vertex -6.47318 1.2876 12
      vertex -6.14021 2.38525 12
      vertex -7.35589 1.46318 12
    endloop
  endfacet
  facet normal 0 0 1
    outer loop
      vertex 1.2876 6.47318 12
      vertex 2.38525 6.14021 12
      vertex 2.87013 6.9291 12
    endloop
  endfacet
  facet normal 0 0 1
    outer loop
      vertex 4.40857 -0.0498622 12
      vertex 6.34158 1.72142 12
      vertex 6.02841 2.65516 12
    endloop
  endfacet
  facet normal -0 0 1
    outer loop
      vertex -3.08207 3.15259 12
      vertex -5.7014 3.26695 12
      vertex -6.14021 2.38525 12
    endloop
  endfacet
  facet normal 0 0 1
    outer loop
      vertex -2.02138 3.27639 12
      vertex -1.64102 4.09207 12
      vertex -4.76002 4.55344 12
    endloop
  endfacet
  facet normal 0 0 1
    outer loop
      vertex -1.64102 4.09207 12
      vertex -4.0172 5.2001 12
      vertex -4.76002 4.55344 12
    endloop
  endfacet
  facet normal 0 0 1
    outer loop
      vertex -5.4877 3.66676 12
      vertex -7.35589 1.46318 12
      vertex -5.7014 3.26695 12
    endloop
  endfacet
  facet normal 0 0 1
    outer loop
      vertex -2.87013 6.9291 12
      vertex -7.35589 1.46318 12
      vertex -5.4877 3.66676 12
    endloop
  endfacet
  facet normal 0 0 1
    outer loop
      vertex -2.87013 6.9291 12
      vertex -5.4877 3.66676 12
      vertex -4.76002 4.55344 12
    endloop
  endfacet
  facet normal 0 0 1
    outer loop
      vertex 0.0498622 4.40857 12
      vertex -1.72142 6.34158 12
      vertex -2.65516 6.02841 12
    endloop
  endfacet
  facet normal 0 0 1
    outer loop
      vertex -3.12133 2.25345 12
      vertex -3.08207 3.15259 12
      vertex -6.14021 2.38525 12
    endloop
  endfacet
  facet normal 0 -0 1
    outer loop
      vertex -2.87013 6.9291 12
      vertex -4.0172 5.2001 12
      vertex -1.46318 7.35589 12
    endloop
  endfacet
  facet normal 0 0 1
    outer loop
      vertex -4.0172 5.2001 12
      vertex -3.66676 5.4877 12
      vertex -1.46318 7.35589 12
    endloop
  endfacet
  facet normal 0 -0 1
    outer loop
      vertex -1.46318 7.35589 12
      vertex -2.65516 6.02841 12
      vertex 0 7.5 12
    endloop
  endfacet
  facet normal 0 0 1
    outer loop
      vertex -2.65516 6.02841 12
      vertex -1.72142 6.34158 12
      vertex 0 7.5 12
    endloop
  endfacet
  facet normal 0 0 1
    outer loop
      vertex -4.76002 4.55344 12
      vertex -4.0172 5.2001 12
      vertex -2.87013 6.9291 12
    endloop
  endfacet
  facet normal 0 0 1
    outer loop
      vertex -1.72142 6.34158 12
      vertex -1.2876 6.47318 12
      vertex 0 7.5 12
    endloop
  endfacet
  facet normal 0 -0 1
    outer loop
      vertex 0 7.5 12
      vertex -0.14607 6.58561 12
      vertex 1.46318 7.35589 12
    endloop
  endfacet
  facet normal 0 0 1
    outer loop
      vertex 2.38525 6.14021 12
      vertex 3.26695 5.7014 12
      vertex 4.16678 6.23602 12
    endloop
  endfacet
  facet normal 0 -0 1
    outer loop
      vertex 1.46318 7.35589 12
      vertex 0.836438 6.51762 12
      vertex 2.87013 6.9291 12
    endloop
  endfacet
  facet normal 0 0 1
    outer loop
      vertex 3.15259 3.08207 12
      vertex 2.38525 6.14021 12
      vertex 2.25345 3.12133 12
    endloop
  endfacet
  facet normal 0 0 1
    outer loop
      vertex 0.836438 6.51762 12
      vertex 1.2876 6.47318 12
      vertex 2.87013 6.9291 12
    endloop
  endfacet
  facet normal 0 -0 1
    outer loop
      vertex 2.87013 6.9291 12
      vertex 2.38525 6.14021 12
      vertex 4.16678 6.23602 12
    endloop
  endfacet
  facet normal 0 0 1
    outer loop
      vertex 4.55344 4.76002 12
      vertex 5.2001 4.0172 12
      vertex 6.23602 4.16678 12
    endloop
  endfacet
  facet normal 0 0 1
    outer loop
      vertex 4.40857 -0.0498622 12
      vertex 6.02841 2.65516 12
      vertex 3.80054 0.613687 12
    endloop
  endfacet
  facet normal 0 0 1
    outer loop
      vertex 5.2001 4.0172 12
      vertex 5.4877 3.66676 12
      vertex 6.23602 4.16678 12
    endloop
  endfacet
  facet normal 0 -0 1
    outer loop
      vertex 4.16678 6.23602 12
      vertex 3.26695 5.7014 12
      vertex 5.3033 5.3033 12
    endloop
  endfacet
  facet normal 0 0 1
    outer loop
      vertex 3.26695 5.7014 12
      vertex 3.66676 5.4877 12
      vertex 5.3033 5.3033 12
    endloop
  endfacet
  facet normal 0 0 1
    outer loop
      vertex 1.73315 4.05391 12
      vertex 0.836438 6.51762 12
      vertex -0.14607 6.58561 12
    endloop
  endfacet
  facet normal 0 -0 1
    outer loop
      vertex 5.3033 5.3033 12
      vertex 4.55344 4.76002 12
      vertex 6.23602 4.16678 12
    endloop
  endfacet
  facet normal 0 0 1
    outer loop
      vertex 5.4877 3.66676 12
      vertex 6.02841 2.65516 12
      vertex 6.9291 2.87013 12
    endloop
  endfacet
  facet normal 0 0 1
    outer loop
      vertex -6.02841 -2.65516 12
      vertex -3.80054 -0.613687 12
      vertex -4.40857 0.0498622 12
    endloop
  endfacet
  facet normal 0 0 1
    outer loop
      vertex 3.15259 3.08207 12
      vertex 3.26695 5.7014 12
      vertex 2.38525 6.14021 12
    endloop
  endfacet
  facet normal 0 -0 1
    outer loop
      vertex 6.23602 4.16678 12
      vertex 5.4877 3.66676 12
      vertex 6.9291 2.87013 12
    endloop
  endfacet
  facet normal 0 0 1
    outer loop
      vertex 4.09207 1.64102 12
      vertex 4.55344 4.76002 12
      vertex 3.27639 2.02138 12
    endloop
  endfacet
  facet normal 0 -0 1
    outer loop
      vertex 6.9291 2.87013 12
      vertex 6.02841 2.65516 12
      vertex 7.35589 1.46318 12
    endloop
  endfacet
  facet normal 0 0 1
    outer loop
      vertex 6.34158 1.72142 12
      vertex 6.47318 1.2876 12
      vertex 7.35589 1.46318 12
    endloop
  endfacet
  facet normal 0 -0 1
    outer loop
      vertex 6.51762 -0.836438 12
      vertex 6.47318 -1.2876 12
      vertex 7.35589 -1.46318 12
    endloop
  endfacet
  facet normal 0 -0 1
    outer loop
      vertex -4.05391 1.73315 12
      vertex -6.58561 -0.14607 12
      vertex -3.74609 0.887431 12
    endloop
  endfacet
  facet normal 0 0 1
    outer loop
      vertex 6.47318 1.2876 12
      vertex 7.5 0 12
      vertex 7.35589 1.46318 12
    endloop
  endfacet
  facet normal 0 0 1
    outer loop
      vertex 6.02841 2.65516 12
      vertex 6.34158 1.72142 12
      vertex 7.35589 1.46318 12
    endloop
  endfacet
  facet normal 0 -0 1
    outer loop
      vertex 6.58561 0.14607 12
      vertex 6.51762 -0.836438 12
      vertex 7.5 0 12
    endloop
  endfacet
  facet normal 0 0 1
    outer loop
      vertex -4.05391 1.73315 12
      vertex -6.51762 0.836438 12
      vertex -6.58561 -0.14607 12
    endloop
  endfacet
  facet normal 0 0 1
    outer loop
      vertex 3.08207 -3.15259 12
      vertex 5.7014 -3.26695 12
      vertex 3.12133 -2.25345 12
    endloop
  endfacet
  facet normal 0 0 1
    outer loop
      vertex 6.47318 1.2876 12
      vertex 6.58561 0.14607 12
      vertex 7.5 0 12
    endloop
  endfacet
  facet normal 0 0 1
    outer loop
      vertex 7.5 0 12
      vertex 6.51762 -0.836438 12
      vertex 7.35589 -1.46318 12
    endloop
  endfacet
  facet normal 0 0 1
    outer loop
      vertex 4.05391 -1.73315 12
      vertex 6.58561 0.14607 12
      vertex 3.74609 -0.887431 12
    endloop
  endfacet
  facet normal -0 -0 1
    outer loop
      vertex 6.14021 -2.38525 12
      vertex 3.12133 -2.25345 12
      vertex 6.9291 -2.87013 12
    endloop
  endfacet
  facet normal 0 -0 1
    outer loop
      vertex -3.15259 -3.08207 12
      vertex -3.26695 -5.7014 12
      vertex -2.38525 -6.14021 12
    endloop
  endfacet
  facet normal 0 -0 1
    outer loop
      vertex 5.4877 -3.66676 12
      vertex 4.76002 -4.55344 12
      vertex 6.23602 -4.16678 12
    endloop
  endfacet
  facet normal 0 0 1
    outer loop
      vertex 6.9291 -2.87013 12
      vertex 5.7014 -3.26695 12
      vertex 6.23602 -4.16678 12
    endloop
  endfacet
  facet normal -0 0 1
    outer loop
      vertex 6.9291 -2.87013 12
      vertex 3.12133 -2.25345 12
      vertex 5.7014 -3.26695 12
    endloop
  endfacet
  facet normal 0 -0 1
    outer loop
      vertex 5.7014 -3.26695 12
      vertex 5.4877 -3.66676 12
      vertex 6.23602 -4.16678 12
    endloop
  endfacet
  facet normal 0 0 1
    outer loop
      vertex 6.23602 -4.16678 12
      vertex 4.76002 -4.55344 12
      vertex 5.3033 -5.3033 12
    endloop
  endfacet
  facet normal 0 0 1
    outer loop
      vertex -1.2876 6.47318 12
      vertex -0.14607 6.58561 12
      vertex 0 7.5 12
    endloop
  endfacet
  facet normal 0 0 1
    outer loop
      vertex -0.0498622 -4.40857 12
      vertex 1.72142 -6.34158 12
      vertex 2.87013 -6.9291 12
    endloop
  endfacet
  facet normal -0 0 1
    outer loop
      vertex 5.3033 -5.3033 12
      vertex 4.0172 -5.2001 12
      vertex 4.16678 -6.23602 12
    endloop
  endfacet
  facet normal 0 0 1
    outer loop
      vertex 5.3033 -5.3033 12
      vertex 1.64102 -4.09207 12
      vertex 4.0172 -5.2001 12
    endloop
  endfacet
  facet normal 0 -0 1
    outer loop
      vertex 4.0172 -5.2001 12
      vertex 3.66676 -5.4877 12
      vertex 4.16678 -6.23602 12
    endloop
  endfacet
  facet normal -0 0 1
    outer loop
      vertex 4.16678 -6.23602 12
      vertex 2.65516 -6.02841 12
      vertex 2.87013 -6.9291 12
    endloop
  endfacet
  facet normal 0 -0 1
    outer loop
      vertex 0.613687 -3.80054 12
      vertex -0.0498622 -4.40857 12
      vertex 2.65516 -6.02841 12
    endloop
  endfacet
  facet normal -0 -0 1
    outer loop
      vertex 2.65516 -6.02841 12
      vertex -0.0498622 -4.40857 12
      vertex 2.87013 -6.9291 12
    endloop
  endfacet
  facet normal -0 0 1
    outer loop
      vertex 2.87013 -6.9291 12
      vertex 1.72142 -6.34158 12
      vertex 1.46318 -7.35589 12
    endloop
  endfacet
  facet normal 0 0 1
    outer loop
      vertex 1.72142 -6.34158 12
      vertex 1.2876 -6.47318 12
      vertex 1.46318 -7.35589 12
    endloop
  endfacet
  facet normal -0 0 1
    outer loop
      vertex 1.46318 -7.35589 12
      vertex 0.14607 -6.58561 12
      vertex 0 -7.5 12
    endloop
  endfacet
  facet normal 0 -0 1
    outer loop
      vertex 1.2876 -6.47318 12
      vertex 0.14607 -6.58561 12
      vertex 1.46318 -7.35589 12
    endloop
  endfacet
  facet normal 0 0 1
    outer loop
      vertex -4.09207 -1.64102 12
      vertex -5.2001 -4.0172 12
      vertex -4.55344 -4.76002 12
    endloop
  endfacet
  facet normal 0 0 1
    outer loop
      vertex 0 -7.5 12
      vertex -0.836438 -6.51762 12
      vertex -1.46318 -7.35589 12
    endloop
  endfacet
  facet normal -0 0 1
    outer loop
      vertex -0.836438 -6.51762 12
      vertex -1.2876 -6.47318 12
      vertex -1.46318 -7.35589 12
    endloop
  endfacet
  facet normal 0 0 1
    outer loop
      vertex -1.46318 -7.35589 12
      vertex -2.38525 -6.14021 12
      vertex -2.87013 -6.9291 12
    endloop
  endfacet
  facet normal 0 0 1
    outer loop
      vertex -1.73315 -4.05391 12
      vertex 0 -7.5 12
      vertex 0.14607 -6.58561 12
    endloop
  endfacet
  facet normal -0 0 1
    outer loop
      vertex -1.2876 -6.47318 12
      vertex -2.38525 -6.14021 12
      vertex -1.46318 -7.35589 12
    endloop
  endfacet
  facet normal -0 0 1
    outer loop
      vertex -2.38525 -6.14021 12
      vertex -3.26695 -5.7014 12
      vertex -2.87013 -6.9291 12
    endloop
  endfacet
  facet normal 0 0 1
    outer loop
      vertex -2.87013 -6.9291 12
      vertex -3.66676 -5.4877 12
      vertex -4.16678 -6.23602 12
    endloop
  endfacet
  facet normal -0 0 1
    outer loop
      vertex -3.66676 -5.4877 12
      vertex -4.55344 -4.76002 12
      vertex -4.16678 -6.23602 12
    endloop
  endfacet
  facet normal -0 -0 1
    outer loop
      vertex -3.26695 -5.7014 12
      vertex -3.66676 -5.4877 12
      vertex -2.87013 -6.9291 12
    endloop
  endfacet
  facet normal -0 -0 1
    outer loop
      vertex -4.55344 -4.76002 12
      vertex -5.2001 -4.0172 12
      vertex -4.16678 -6.23602 12
    endloop
  endfacet
  facet normal 0 0 1
    outer loop
      vertex 6.47318 -1.2876 12
      vertex 6.9291 -2.87013 12
      vertex 7.35589 -1.46318 12
    endloop
  endfacet
  facet normal 0 0 1
    outer loop
      vertex -4.16678 -6.23602 12
      vertex -5.4877 -3.66676 12
      vertex -5.3033 -5.3033 12
    endloop
  endfacet
  facet normal -0 -0 1
    outer loop
      vertex -5.4877 -3.66676 12
      vertex -6.02841 -2.65516 12
      vertex -5.3033 -5.3033 12
    endloop
  endfacet
  facet normal 0 0 1
    outer loop
      vertex -0.14607 6.58561 12
      vertex 0.887431 3.74609 12
      vertex 1.73315 4.05391 12
    endloop
  endfacet
  facet normal -0 -0 1
    outer loop
      vertex -6.02841 -2.65516 12
      vertex -6.34158 -1.72142 12
      vertex -5.3033 -5.3033 12
    endloop
  endfacet
  facet normal 0 0 1
    outer loop
      vertex -6.47318 -1.2876 12
      vertex -6.58561 -0.14607 12
      vertex -7.35589 1.46318 12
    endloop
  endfacet
  facet normal 0 -0 1
    outer loop
      vertex 2.02138 -3.27639 12
      vertex 1.64102 -4.09207 12
      vertex 5.3033 -5.3033 12
    endloop
  endfacet
  facet normal -0 -0 1
    outer loop
      vertex 4.76002 -4.55344 12
      vertex 2.02138 -3.27639 12
      vertex 5.3033 -5.3033 12
    endloop
  endfacet
  facet normal 0 -0 1
    outer loop
      vertex 3.66676 -5.4877 12
      vertex 2.65516 -6.02841 12
      vertex 4.16678 -6.23602 12
    endloop
  endfacet
  facet normal 0 0 1
    outer loop
      vertex -2.38525 -6.14021 12
      vertex -2.25345 -3.12133 12
      vertex -3.15259 -3.08207 12
    endloop
  endfacet
  facet normal 0 -0 1
    outer loop
      vertex -0.887431 -3.74609 12
      vertex -1.73315 -4.05391 12
      vertex 0.14607 -6.58561 12
    endloop
  endfacet
  facet normal 0 0 1
    outer loop
      vertex -1.73315 -4.05391 12
      vertex -0.836438 -6.51762 12
      vertex 0 -7.5 12
    endloop
  endfacet
  facet normal 0 0 1
    outer loop
      vertex -4.55344 -4.76002 12
      vertex -3.27639 -2.02138 12
      vertex -4.09207 -1.64102 12
    endloop
  endfacet
  facet normal 0 0 1
    outer loop
      vertex -4.40857 0.0498622 12
      vertex -6.34158 -1.72142 12
      vertex -6.02841 -2.65516 12
    endloop
  endfacet
  facet normal 0 0 1
    outer loop
      vertex -6.58561 -0.14607 12
      vertex -6.51762 0.836438 12
      vertex -7.35589 1.46318 12
    endloop
  endfacet
  facet normal 0 0 1
    outer loop
      vertex -6.51762 0.836438 12
      vertex -6.47318 1.2876 12
      vertex -7.35589 1.46318 12
    endloop
  endfacet
  facet normal 0 0 1
    outer loop
      vertex -0.14607 6.58561 12
      vertex 0.836438 6.51762 12
      vertex 1.46318 7.35589 12
    endloop
  endfacet
  facet normal -0.95694 -0.290285 -0
    outer loop
      vertex -7.35589 -1.46318 -12
      vertex -6.9291 -2.87013 -12
      vertex -7.35589 -1.46318 12
    endloop
  endfacet
  facet normal -0.95694 -0.290285 0
    outer loop
      vertex -7.35589 -1.46318 12
      vertex -6.9291 -2.87013 -12
      vertex -6.9291 -2.87013 12
    endloop
  endfacet
  facet normal -0.881921 -0.471397 -0
    outer loop
      vertex -6.9291 -2.87013 -12
      vertex -6.23602 -4.16678 -12
      vertex -6.9291 -2.87013 12
    endloop
  endfacet
  facet normal -0.881921 -0.471397 0
    outer loop
      vertex -6.9291 -2.87013 12
      vertex -6.23602 -4.16678 -12
      vertex -6.23602 -4.16678 12
    endloop
  endfacet
  facet normal -0.773011 -0.634393 -0
    outer loop
      vertex -6.23602 -4.16678 -12
      vertex -5.3033 -5.3033 -12
      vertex -6.23602 -4.16678 12
    endloop
  endfacet
  facet normal -0.773011 -0.634393 0
    outer loop
      vertex -6.23602 -4.16678 12
      vertex -5.3033 -5.3033 -12
      vertex -5.3033 -5.3033 12
    endloop
  endfacet
  facet normal -0.634393 -0.773011 0
    outer loop
      vertex -5.3033 -5.3033 12
      vertex -5.3033 -5.3033 -12
      vertex -4.16678 -6.23602 -12
    endloop
  endfacet
  facet normal -0.634393 -0.773011 0
    outer loop
      vertex -4.16678 -6.23602 12
      vertex -5.3033 -5.3033 12
      vertex -4.16678 -6.23602 -12
    endloop
  endfacet
  facet normal -0.471397 -0.881921 0
    outer loop
      vertex -4.16678 -6.23602 12
      vertex -4.16678 -6.23602 -12
      vertex -2.87013 -6.9291 -12
    endloop
  endfacet
  facet normal -0.471397 -0.881921 0
    outer loop
      vertex -2.87013 -6.9291 12
      vertex -4.16678 -6.23602 12
      vertex -2.87013 -6.9291 -12
    endloop
  endfacet
  facet normal -0.290285 -0.95694 0
    outer loop
      vertex -2.87013 -6.9291 12
      vertex -2.87013 -6.9291 -12
      vertex -1.46318 -7.35589 -12
    endloop
  endfacet
  facet normal -0.290285 -0.95694 0
    outer loop
      vertex -1.46318 -7.35589 12
      vertex -2.87013 -6.9291 12
      vertex -1.46318 -7.35589 -12
    endloop
  endfacet
  facet normal -0.0980169 -0.995185 0
    outer loop
      vertex -1.46318 -7.35589 12
      vertex -1.46318 -7.35589 -12
      vertex 0 -7.5 -12
    endloop
  endfacet
  facet normal -0.0980169 -0.995185 0
    outer loop
      vertex 0 -7.5 12
      vertex -1.46318 -7.35589 12
      vertex 0 -7.5 -12
    endloop
  endfacet
  facet normal 0.0980169 -0.995185 0
    outer loop
      vertex 0 -7.5 12
      vertex 0 -7.5 -12
      vertex 1.46318 -7.35589 -12
    endloop
  endfacet
  facet normal 0.0980169 -0.995185 0
    outer loop
      vertex 1.46318 -7.35589 12
      vertex 0 -7.5 12
      vertex 1.46318 -7.35589 -12
    endloop
  endfacet
  facet normal 0.290285 -0.95694 0
    outer loop
      vertex 1.46318 -7.35589 12
      vertex 1.46318 -7.35589 -12
      vertex 2.87013 -6.9291 -12
    endloop
  endfacet
  facet normal 0.290285 -0.95694 0
    outer loop
      vertex 2.87013 -6.9291 12
      vertex 1.46318 -7.35589 12
      vertex 2.87013 -6.9291 -12
    endloop
  endfacet
  facet normal 0.471397 -0.881921 0
    outer loop
      vertex 2.87013 -6.9291 12
      vertex 2.87013 -6.9291 -12
      vertex 4.16678 -6.23602 -12
    endloop
  endfacet
  facet normal 0.471397 -0.881921 0
    outer loop
      vertex 4.16678 -6.23602 12
      vertex 2.87013 -6.9291 12
      vertex 4.16678 -6.23602 -12
    endloop
  endfacet
  facet normal 0.634393 -0.773011 0
    outer loop
      vertex 4.16678 -6.23602 12
      vertex 4.16678 -6.23602 -12
      vertex 5.3033 -5.3033 -12
    endloop
  endfacet
  facet normal 0.634393 -0.773011 0
    outer loop
      vertex 5.3033 -5.3033 12
      vertex 4.16678 -6.23602 12
      vertex 5.3033 -5.3033 -12
    endloop
  endfacet
  facet normal 0.773011 -0.634393 0
    outer loop
      vertex 5.3033 -5.3033 12
      vertex 5.3033 -5.3033 -12
      vertex 6.23602 -4.16678 -12
    endloop
  endfacet
  facet normal 0.773011 -0.634393 0
    outer loop
      vertex 6.23602 -4.16678 12
      vertex 5.3033 -5.3033 12
      vertex 6.23602 -4.16678 -12
    endloop
  endfacet
  facet normal 0.881921 -0.471397 0
    outer loop
      vertex 6.23602 -4.16678 12
      vertex 6.23602 -4.16678 -12
      vertex 6.9291 -2.87013 -12
    endloop
  endfacet
  facet normal 0.881921 -0.471397 0
    outer loop
      vertex 6.9291 -2.87013 12
      vertex 6.23602 -4.16678 12
      vertex 6.9291 -2.87013 -12
    endloop
  endfacet
  facet normal 0.95694 -0.290285 0
    outer loop
      vertex 6.9291 -2.87013 12
      vertex 6.9291 -2.87013 -12
      vertex 7.35589 -1.46318 -12
    endloop
  endfacet
  facet normal 0.95694 -0.290285 0
    outer loop
      vertex 7.35589 -1.46318 12
      vertex 6.9291 -2.87013 12
      vertex 7.35589 -1.46318 -12
    endloop
  endfacet
  facet normal 0.995185 -0.0980169 0
    outer loop
      vertex 7.35589 -1.46318 12
      vertex 7.35589 -1.46318 -12
      vertex 7.5 0 -12
    endloop
  endfacet
  facet normal 0.995185 -0.0980169 0
    outer loop
      vertex 7.5 0 12
      vertex 7.35589 -1.46318 12
      vertex 7.5 0 -12
    endloop
  endfacet
  facet normal 0.995185 0.0980169 0
    outer loop
      vertex 7.5 0 -12
      vertex 7.35589 1.46318 -12
      vertex 7.35589 1.46318 12
    endloop
  endfacet
  facet normal 0.995185 0.0980169 -0
    outer loop
      vertex 7.5 0 12
      vertex 7.5 0 -12
      vertex 7.35589 1.46318 12
    endloop
  endfacet
  facet normal 0.95694 0.290285 0
    outer loop
      vertex 7.35589 1.46318 -12
      vertex 6.9291 2.87013 -12
      vertex 6.9291 2.87013 12
    endloop
  endfacet
  facet normal 0.95694 0.290285 -0
    outer loop
      vertex 7.35589 1.46318 12
      vertex 7.35589 1.46318 -12
      vertex 6.9291 2.87013 12
    endloop
  endfacet
  facet normal 0.881921 0.471397 0
    outer loop
      vertex 6.9291 2.87013 -12
      vertex 6.23602 4.16678 -12
      vertex 6.23602 4.16678 12
    endloop
  endfacet
  facet normal 0.881921 0.471397 -0
    outer loop
      vertex 6.9291 2.87013 12
      vertex 6.9291 2.87013 -12
      vertex 6.23602 4.16678 12
    endloop
  endfacet
  facet normal 0.773011 0.634393 0
    outer loop
      vertex 6.23602 4.16678 -12
      vertex 5.3033 5.3033 -12
      vertex 5.3033 5.3033 12
    endloop
  endfacet
  facet normal 0.773011 0.634393 -0
    outer loop
      vertex 6.23602 4.16678 12
      vertex 6.23602 4.16678 -12
      vertex 5.3033 5.3033 12
    endloop
  endfacet
  facet normal 0.634393 0.773011 0
    outer loop
      vertex 4.16678 6.23602 -12
      vertex 4.16678 6.23602 12
      vertex 5.3033 5.3033 -12
    endloop
  endfacet
  facet normal 0.634393 0.773011 0
    outer loop
      vertex 5.3033 5.3033 -12
      vertex 4.16678 6.23602 12
      vertex 5.3033 5.3033 12
    endloop
  endfacet
  facet normal 0.471397 0.881921 0
    outer loop
      vertex 2.87013 6.9291 -12
      vertex 2.87013 6.9291 12
      vertex 4.16678 6.23602 -12
    endloop
  endfacet
  facet normal 0.471397 0.881921 0
    outer loop
      vertex 4.16678 6.23602 -12
      vertex 2.87013 6.9291 12
      vertex 4.16678 6.23602 12
    endloop
  endfacet
  facet normal 0.290285 0.95694 0
    outer loop
      vertex 1.46318 7.35589 -12
      vertex 1.46318 7.35589 12
      vertex 2.87013 6.9291 -12
    endloop
  endfacet
  facet normal 0.290285 0.95694 0
    outer loop
      vertex 2.87013 6.9291 -12
      vertex 1.46318 7.35589 12
      vertex 2.87013 6.9291 12
    endloop
  endfacet
  facet normal 0.0980169 0.995185 0
    outer loop
      vertex 0 7.5 -12
      vertex 0 7.5 12
      vertex 1.46318 7.35589 -12
    endloop
  endfacet
  facet normal 0.0980169 0.995185 0
    outer loop
      vertex 1.46318 7.35589 -12
      vertex 0 7.5 12
      vertex 1.46318 7.35589 12
    endloop
  endfacet
  facet normal -0.0980169 0.995185 0
    outer loop
      vertex -1.46318 7.35589 -12
      vertex -1.46318 7.35589 12
      vertex 0 7.5 -12
    endloop
  endfacet
  facet normal -0.0980169 0.995185 0
    outer loop
      vertex 0 7.5 -12
      vertex -1.46318 7.35589 12
      vertex 0 7.5 12
    endloop
  endfacet
  facet normal -0.290285 0.95694 0
    outer loop
      vertex -2.87013 6.9291 -12
      vertex -2.87013 6.9291 12
      vertex -1.46318 7.35589 -12
    endloop
  endfacet
  facet normal -0.290285 0.95694 0
    outer loop
      vertex -1.46318 7.35589 -12
      vertex -2.87013 6.9291 12
      vertex -1.46318 7.35589 12
    endloop
  endfacet
  facet normal -0.471397 0.881921 0
    outer loop
      vertex -4.16678 6.23602 -12
      vertex -4.16678 6.23602 12
      vertex -2.87013 6.9291 -12
    endloop
  endfacet
  facet normal -0.471397 0.881921 0
    outer loop
      vertex -2.87013 6.9291 -12
      vertex -4.16678 6.23602 12
      vertex -2.87013 6.9291 12
    endloop
  endfacet
  facet normal -0.634393 0.773011 0
    outer loop
      vertex -5.3033 5.3033 -12
      vertex -5.3033 5.3033 12
      vertex -4.16678 6.23602 -12
    endloop
  endfacet
  facet normal -0.634393 0.773011 0
    outer loop
      vertex -4.16678 6.23602 -12
      vertex -5.3033 5.3033 12
      vertex -4.16678 6.23602 12
    endloop
  endfacet
  facet normal -0.773011 0.634393 0
    outer loop
      vertex -6.23602 4.16678 -12
      vertex -6.23602 4.16678 12
      vertex -5.3033 5.3033 -12
    endloop
  endfacet
  facet normal -0.773011 0.634393 0
    outer loop
      vertex -5.3033 5.3033 -12
      vertex -6.23602 4.16678 12
      vertex -5.3033 5.3033 12
    endloop
  endfacet
  facet normal -0.881921 0.471397 0
    outer loop
      vertex -6.9291 2.87013 -12
      vertex -6.9291 2.87013 12
      vertex -6.23602 4.16678 -12
    endloop
  endfacet
  facet normal -0.881921 0.471397 0
    outer loop
      vertex -6.23602 4.16678 -12
      vertex -6.9291 2.87013 12
      vertex -6.23602 4.16678 12
    endloop
  endfacet
  facet normal 0.995185 0.098017 0
    outer loop
      vertex -6.58561 -0.14607 12
      vertex -6.47318 -1.2876 12
      vertex -6.47318 -1.2876 -12
    endloop
  endfacet
  facet normal 0.995185 0.098017 0
    outer loop
      vertex -6.58561 -0.14607 -12
      vertex -6.58561 -0.14607 12
      vertex -6.47318 -1.2876 -12
    endloop
  endfacet
  facet normal 0.34202 -0.939693 0
    outer loop
      vertex -6.58561 -0.14607 12
      vertex -6.58561 -0.14607 -12
      vertex -3.74609 0.887431 -12
    endloop
  endfacet
  facet normal 0.34202 -0.939693 0
    outer loop
      vertex -3.74609 0.887431 12
      vertex -6.58561 -0.14607 12
      vertex -3.74609 0.887431 -12
    endloop
  endfacet
  facet normal 0.939693 0.34202 0
    outer loop
      vertex -3.74609 0.887431 -12
      vertex -4.05391 1.73315 -12
      vertex -4.05391 1.73315 12
    endloop
  endfacet
  facet normal 0.939693 0.34202 -0
    outer loop
      vertex -3.74609 0.887431 12
      vertex -3.74609 0.887431 -12
      vertex -4.05391 1.73315 12
    endloop
  endfacet
  facet normal -0.34202 0.939693 0
    outer loop
      vertex -6.51762 0.836438 -12
      vertex -6.51762 0.836438 12
      vertex -4.05391 1.73315 -12
    endloop
  endfacet
  facet normal -0.34202 0.939693 0
    outer loop
      vertex -4.05391 1.73315 -12
      vertex -6.51762 0.836438 12
      vertex -4.05391 1.73315 12
    endloop
  endfacet
  facet normal 0.995185 -0.098017 0
    outer loop
      vertex -6.47318 1.2876 -12
      vertex -6.47318 1.2876 12
      vertex -6.51762 0.836438 12
    endloop
  endfacet
  facet normal 0.995185 -0.098017 0
    outer loop
      vertex -6.51762 0.836438 -12
      vertex -6.47318 1.2876 -12
      vertex -6.51762 0.836438 12
    endloop
  endfacet
  facet normal 0.95694 -0.290285 0
    outer loop
      vertex -6.14021 2.38525 -12
      vertex -6.14021 2.38525 12
      vertex -6.47318 1.2876 12
    endloop
  endfacet
  facet normal 0.95694 -0.290285 0
    outer loop
      vertex -6.47318 1.2876 -12
      vertex -6.14021 2.38525 -12
      vertex -6.47318 1.2876 12
    endloop
  endfacet
  facet normal -0.0436194 -0.999048 0
    outer loop
      vertex -6.14021 2.38525 12
      vertex -6.14021 2.38525 -12
      vertex -3.12133 2.25345 -12
    endloop
  endfacet
  facet normal -0.0436194 -0.999048 0
    outer loop
      vertex -3.12133 2.25345 12
      vertex -6.14021 2.38525 12
      vertex -3.12133 2.25345 -12
    endloop
  endfacet
  facet normal 0.999048 -0.0436194 0
    outer loop
      vertex -3.12133 2.25345 12
      vertex -3.12133 2.25345 -12
      vertex -3.08207 3.15259 -12
    endloop
  endfacet
  facet normal 0.999048 -0.0436194 0
    outer loop
      vertex -3.08207 3.15259 12
      vertex -3.12133 2.25345 12
      vertex -3.08207 3.15259 -12
    endloop
  endfacet
  facet normal 0.0436194 0.999048 0
    outer loop
      vertex -5.7014 3.26695 -12
      vertex -5.7014 3.26695 12
      vertex -3.08207 3.15259 -12
    endloop
  endfacet
  facet normal 0.0436194 0.999048 0
    outer loop
      vertex -3.08207 3.15259 -12
      vertex -5.7014 3.26695 12
      vertex -3.08207 3.15259 12
    endloop
  endfacet
  facet normal 0.881921 -0.471397 0
    outer loop
      vertex -5.4877 3.66676 -12
      vertex -5.4877 3.66676 12
      vertex -5.7014 3.26695 12
    endloop
  endfacet
  facet normal 0.881921 -0.471397 0
    outer loop
      vertex -5.7014 3.26695 -12
      vertex -5.4877 3.66676 -12
      vertex -5.7014 3.26695 12
    endloop
  endfacet
  facet normal 0.773011 -0.634393 0
    outer loop
      vertex -4.76002 4.55344 -12
      vertex -4.76002 4.55344 12
      vertex -5.4877 3.66676 12
    endloop
  endfacet
  facet normal 0.773011 -0.634393 0
    outer loop
      vertex -5.4877 3.66676 -12
      vertex -4.76002 4.55344 -12
      vertex -5.4877 3.66676 12
    endloop
  endfacet
  facet normal -0.422618 -0.906308 0
    outer loop
      vertex -4.76002 4.55344 12
      vertex -4.76002 4.55344 -12
      vertex -2.02138 3.27639 -12
    endloop
  endfacet
  facet normal -0.422618 -0.906308 0
    outer loop
      vertex -2.02138 3.27639 12
      vertex -4.76002 4.55344 12
      vertex -2.02138 3.27639 -12
    endloop
  endfacet
  facet normal 0.906308 -0.422618 0
    outer loop
      vertex -2.02138 3.27639 12
      vertex -2.02138 3.27639 -12
      vertex -1.64102 4.09207 -12
    endloop
  endfacet
  facet normal 0.906308 -0.422618 0
    outer loop
      vertex -1.64102 4.09207 12
      vertex -2.02138 3.27639 12
      vertex -1.64102 4.09207 -12
    endloop
  endfacet
  facet normal 0.422618 0.906308 0
    outer loop
      vertex -4.0172 5.2001 -12
      vertex -4.0172 5.2001 12
      vertex -1.64102 4.09207 -12
    endloop
  endfacet
  facet normal 0.422618 0.906308 0
    outer loop
      vertex -1.64102 4.09207 -12
      vertex -4.0172 5.2001 12
      vertex -1.64102 4.09207 12
    endloop
  endfacet
  facet normal 0.634393 -0.773011 0
    outer loop
      vertex -3.66676 5.4877 -12
      vertex -3.66676 5.4877 12
      vertex -4.0172 5.2001 12
    endloop
  endfacet
  facet normal 0.634393 -0.773011 0
    outer loop
      vertex -4.0172 5.2001 -12
      vertex -3.66676 5.4877 -12
      vertex -4.0172 5.2001 12
    endloop
  endfacet
  facet normal 0.471397 -0.881921 0
    outer loop
      vertex -2.65516 6.02841 -12
      vertex -2.65516 6.02841 12
      vertex -3.66676 5.4877 12
    endloop
  endfacet
  facet normal 0.471397 -0.881921 0
    outer loop
      vertex -3.66676 5.4877 -12
      vertex -2.65516 6.02841 -12
      vertex -3.66676 5.4877 12
    endloop
  endfacet
  facet normal -0.737277 -0.67559 -0
    outer loop
      vertex -2.65516 6.02841 -12
      vertex -0.613687 3.80054 -12
      vertex -2.65516 6.02841 12
    endloop
  endfacet
  facet normal -0.737277 -0.67559 0
    outer loop
      vertex -2.65516 6.02841 12
      vertex -0.613687 3.80054 -12
      vertex -0.613687 3.80054 12
    endloop
  endfacet
  facet normal 0.67559 -0.737277 0
    outer loop
      vertex -0.613687 3.80054 12
      vertex -0.613687 3.80054 -12
      vertex 0.0498622 4.40857 -12
    endloop
  endfacet
  facet normal 0.67559 -0.737277 0
    outer loop
      vertex 0.0498622 4.40857 12
      vertex -0.613687 3.80054 12
      vertex 0.0498622 4.40857 -12
    endloop
  endfacet
  facet normal 0.737277 0.67559 0
    outer loop
      vertex 0.0498622 4.40857 -12
      vertex -1.72142 6.34158 -12
      vertex -1.72142 6.34158 12
    endloop
  endfacet
  facet normal 0.737277 0.67559 -0
    outer loop
      vertex 0.0498622 4.40857 12
      vertex 0.0498622 4.40857 -12
      vertex -1.72142 6.34158 12
    endloop
  endfacet
  facet normal 0.290285 -0.95694 0
    outer loop
      vertex -1.2876 6.47318 -12
      vertex -1.2876 6.47318 12
      vertex -1.72142 6.34158 12
    endloop
  endfacet
  facet normal 0.290285 -0.95694 0
    outer loop
      vertex -1.72142 6.34158 -12
      vertex -1.2876 6.47318 -12
      vertex -1.72142 6.34158 12
    endloop
  endfacet
  facet normal 0.098017 -0.995185 0
    outer loop
      vertex -0.14607 6.58561 -12
      vertex -0.14607 6.58561 12
      vertex -1.2876 6.47318 12
    endloop
  endfacet
  facet normal 0.098017 -0.995185 0
    outer loop
      vertex -1.2876 6.47318 -12
      vertex -0.14607 6.58561 -12
      vertex -1.2876 6.47318 12
    endloop
  endfacet
  facet normal -0.939693 -0.34202 -0
    outer loop
      vertex -0.14607 6.58561 -12
      vertex 0.887431 3.74609 -12
      vertex -0.14607 6.58561 12
    endloop
  endfacet
  facet normal -0.939693 -0.34202 0
    outer loop
      vertex -0.14607 6.58561 12
      vertex 0.887431 3.74609 -12
      vertex 0.887431 3.74609 12
    endloop
  endfacet
  facet normal 0.34202 -0.939693 0
    outer loop
      vertex 0.887431 3.74609 12
      vertex 0.887431 3.74609 -12
      vertex 1.73315 4.05391 -12
    endloop
  endfacet
  facet normal 0.34202 -0.939693 0
    outer loop
      vertex 1.73315 4.05391 12
      vertex 0.887431 3.74609 12
      vertex 1.73315 4.05391 -12
    endloop
  endfacet
  facet normal 0.939693 0.34202 0
    outer loop
      vertex 1.73315 4.05391 -12
      vertex 0.836438 6.51762 -12
      vertex 0.836438 6.51762 12
    endloop
  endfacet
  facet normal 0.939693 0.34202 -0
    outer loop
      vertex 1.73315 4.05391 12
      vertex 1.73315 4.05391 -12
      vertex 0.836438 6.51762 12
    endloop
  endfacet
  facet normal -0.098017 -0.995185 -0
    outer loop
      vertex 1.2876 6.47318 -12
      vertex 1.2876 6.47318 12
      vertex 0.836438 6.51762 12
    endloop
  endfacet
  facet normal -0.098017 -0.995185 -0
    outer loop
      vertex 0.836438 6.51762 -12
      vertex 1.2876 6.47318 -12
      vertex 0.836438 6.51762 12
    endloop
  endfacet
  facet normal -0.290285 -0.95694 -0
    outer loop
      vertex 2.38525 6.14021 -12
      vertex 2.38525 6.14021 12
      vertex 1.2876 6.47318 12
    endloop
  endfacet
  facet normal -0.290285 -0.95694 -0
    outer loop
      vertex 1.2876 6.47318 -12
      vertex 2.38525 6.14021 -12
      vertex 1.2876 6.47318 12
    endloop
  endfacet
  facet normal -0.999048 0.0436194 0
    outer loop
      vertex 2.25345 3.12133 -12
      vertex 2.25345 3.12133 12
      vertex 2.38525 6.14021 -12
    endloop
  endfacet
  facet normal -0.999048 0.0436194 0
    outer loop
      vertex 2.38525 6.14021 -12
      vertex 2.25345 3.12133 12
      vertex 2.38525 6.14021 12
    endloop
  endfacet
  facet normal -0.0436194 -0.999048 0
    outer loop
      vertex 2.25345 3.12133 12
      vertex 2.25345 3.12133 -12
      vertex 3.15259 3.08207 -12
    endloop
  endfacet
  facet normal -0.0436194 -0.999048 0
    outer loop
      vertex 3.15259 3.08207 12
      vertex 2.25345 3.12133 12
      vertex 3.15259 3.08207 -12
    endloop
  endfacet
  facet normal 0.999048 -0.0436194 0
    outer loop
      vertex 3.15259 3.08207 12
      vertex 3.15259 3.08207 -12
      vertex 3.26695 5.7014 -12
    endloop
  endfacet
  facet normal 0.999048 -0.0436194 0
    outer loop
      vertex 3.26695 5.7014 12
      vertex 3.15259 3.08207 12
      vertex 3.26695 5.7014 -12
    endloop
  endfacet
  facet normal -0.471397 -0.881921 -0
    outer loop
      vertex 3.66676 5.4877 -12
      vertex 3.66676 5.4877 12
      vertex 3.26695 5.7014 12
    endloop
  endfacet
  facet normal -0.471397 -0.881921 -0
    outer loop
      vertex 3.26695 5.7014 -12
      vertex 3.66676 5.4877 -12
      vertex 3.26695 5.7014 12
    endloop
  endfacet
  facet normal -0.634393 -0.773011 -0
    outer loop
      vertex 4.55344 4.76002 -12
      vertex 4.55344 4.76002 12
      vertex 3.66676 5.4877 12
    endloop
  endfacet
  facet normal -0.634393 -0.773011 -0
    outer loop
      vertex 3.66676 5.4877 -12
      vertex 4.55344 4.76002 -12
      vertex 3.66676 5.4877 12
    endloop
  endfacet
  facet normal -0.906308 0.422618 0
    outer loop
      vertex 3.27639 2.02138 -12
      vertex 3.27639 2.02138 12
      vertex 4.55344 4.76002 -12
    endloop
  endfacet
  facet normal -0.906308 0.422618 0
    outer loop
      vertex 4.55344 4.76002 -12
      vertex 3.27639 2.02138 12
      vertex 4.55344 4.76002 12
    endloop
  endfacet
  facet normal -0.422618 -0.906308 0
    outer loop
      vertex 3.27639 2.02138 12
      vertex 3.27639 2.02138 -12
      vertex 4.09207 1.64102 -12
    endloop
  endfacet
  facet normal -0.422618 -0.906308 0
    outer loop
      vertex 4.09207 1.64102 12
      vertex 3.27639 2.02138 12
      vertex 4.09207 1.64102 -12
    endloop
  endfacet
  facet normal 0.906308 -0.422618 0
    outer loop
      vertex 4.09207 1.64102 12
      vertex 4.09207 1.64102 -12
      vertex 5.2001 4.0172 -12
    endloop
  endfacet
  facet normal 0.906308 -0.422618 0
    outer loop
      vertex 5.2001 4.0172 12
      vertex 4.09207 1.64102 12
      vertex 5.2001 4.0172 -12
    endloop
  endfacet
  facet normal -0.773011 -0.634393 0
    outer loop
      vertex 5.4877 3.66676 12
      vertex 5.2001 4.0172 12
      vertex 5.4877 3.66676 -12
    endloop
  endfacet
  facet normal -0.773011 -0.634393 0
    outer loop
      vertex 5.4877 3.66676 -12
      vertex 5.2001 4.0172 12
      vertex 5.2001 4.0172 -12
    endloop
  endfacet
  facet normal -0.881921 -0.471397 0
    outer loop
      vertex 6.02841 2.65516 12
      vertex 5.4877 3.66676 12
      vertex 6.02841 2.65516 -12
    endloop
  endfacet
  facet normal -0.881921 -0.471397 0
    outer loop
      vertex 6.02841 2.65516 -12
      vertex 5.4877 3.66676 12
      vertex 5.4877 3.66676 -12
    endloop
  endfacet
  facet normal -0.67559 0.737277 0
    outer loop
      vertex 3.80054 0.613687 -12
      vertex 3.80054 0.613687 12
      vertex 6.02841 2.65516 -12
    endloop
  endfacet
  facet normal -0.67559 0.737277 0
    outer loop
      vertex 6.02841 2.65516 -12
      vertex 3.80054 0.613687 12
      vertex 6.02841 2.65516 12
    endloop
  endfacet
  facet normal -0.737277 -0.67559 -0
    outer loop
      vertex 3.80054 0.613687 -12
      vertex 4.40857 -0.0498622 -12
      vertex 3.80054 0.613687 12
    endloop
  endfacet
  facet normal -0.737277 -0.67559 0
    outer loop
      vertex 3.80054 0.613687 12
      vertex 4.40857 -0.0498622 -12
      vertex 4.40857 -0.0498622 12
    endloop
  endfacet
  facet normal 0.67559 -0.737277 0
    outer loop
      vertex 4.40857 -0.0498622 12
      vertex 4.40857 -0.0498622 -12
      vertex 6.34158 1.72142 -12
    endloop
  endfacet
  facet normal 0.67559 -0.737277 0
    outer loop
      vertex 6.34158 1.72142 12
      vertex 4.40857 -0.0498622 12
      vertex 6.34158 1.72142 -12
    endloop
  endfacet
  facet normal -0.95694 -0.290285 0
    outer loop
      vertex 6.47318 1.2876 12
      vertex 6.34158 1.72142 12
      vertex 6.47318 1.2876 -12
    endloop
  endfacet
  facet normal -0.95694 -0.290285 0
    outer loop
      vertex 6.47318 1.2876 -12
      vertex 6.34158 1.72142 12
      vertex 6.34158 1.72142 -12
    endloop
  endfacet
  facet normal -0.995185 -0.098017 0
    outer loop
      vertex 6.58561 0.14607 12
      vertex 6.47318 1.2876 12
      vertex 6.58561 0.14607 -12
    endloop
  endfacet
  facet normal -0.995185 -0.098017 0
    outer loop
      vertex 6.58561 0.14607 -12
      vertex 6.47318 1.2876 12
      vertex 6.47318 1.2876 -12
    endloop
  endfacet
  facet normal -0.34202 0.939693 0
    outer loop
      vertex 3.74609 -0.887431 -12
      vertex 3.74609 -0.887431 12
      vertex 6.58561 0.14607 -12
    endloop
  endfacet
  facet normal -0.34202 0.939693 0
    outer loop
      vertex 6.58561 0.14607 -12
      vertex 3.74609 -0.887431 12
      vertex 6.58561 0.14607 12
    endloop
  endfacet
  facet normal -0.939693 -0.34202 -0
    outer loop
      vertex 3.74609 -0.887431 -12
      vertex 4.05391 -1.73315 -12
      vertex 3.74609 -0.887431 12
    endloop
  endfacet
  facet normal -0.939693 -0.34202 0
    outer loop
      vertex 3.74609 -0.887431 12
      vertex 4.05391 -1.73315 -12
      vertex 4.05391 -1.73315 12
    endloop
  endfacet
  facet normal 0.34202 -0.939693 0
    outer loop
      vertex 4.05391 -1.73315 12
      vertex 4.05391 -1.73315 -12
      vertex 6.51762 -0.836438 -12
    endloop
  endfacet
  facet normal 0.34202 -0.939693 0
    outer loop
      vertex 6.51762 -0.836438 12
      vertex 4.05391 -1.73315 12
      vertex 6.51762 -0.836438 -12
    endloop
  endfacet
  facet normal -0.995185 0.098017 0
    outer loop
      vertex 6.51762 -0.836438 12
      vertex 6.51762 -0.836438 -12
      vertex 6.47318 -1.2876 12
    endloop
  endfacet
  facet normal -0.995185 0.098017 0
    outer loop
      vertex 6.47318 -1.2876 12
      vertex 6.51762 -0.836438 -12
      vertex 6.47318 -1.2876 -12
    endloop
  endfacet
  facet normal -0.95694 0.290285 0
    outer loop
      vertex 6.47318 -1.2876 12
      vertex 6.47318 -1.2876 -12
      vertex 6.14021 -2.38525 12
    endloop
  endfacet
  facet normal -0.95694 0.290285 0
    outer loop
      vertex 6.14021 -2.38525 12
      vertex 6.47318 -1.2876 -12
      vertex 6.14021 -2.38525 -12
    endloop
  endfacet
  facet normal 0.0436194 0.999048 0
    outer loop
      vertex 3.12133 -2.25345 -12
      vertex 3.12133 -2.25345 12
      vertex 6.14021 -2.38525 -12
    endloop
  endfacet
  facet normal 0.0436194 0.999048 0
    outer loop
      vertex 6.14021 -2.38525 -12
      vertex 3.12133 -2.25345 12
      vertex 6.14021 -2.38525 12
    endloop
  endfacet
  facet normal -0.999048 0.0436194 0
    outer loop
      vertex 3.08207 -3.15259 -12
      vertex 3.08207 -3.15259 12
      vertex 3.12133 -2.25345 -12
    endloop
  endfacet
  facet normal -0.999048 0.0436194 0
    outer loop
      vertex 3.12133 -2.25345 -12
      vertex 3.08207 -3.15259 12
      vertex 3.12133 -2.25345 12
    endloop
  endfacet
  facet normal -0.0436194 -0.999048 0
    outer loop
      vertex 3.08207 -3.15259 12
      vertex 3.08207 -3.15259 -12
      vertex 5.7014 -3.26695 -12
    endloop
  endfacet
  facet normal -0.0436194 -0.999048 0
    outer loop
      vertex 5.7014 -3.26695 12
      vertex 3.08207 -3.15259 12
      vertex 5.7014 -3.26695 -12
    endloop
  endfacet
  facet normal -0.881921 0.471397 0
    outer loop
      vertex 5.7014 -3.26695 12
      vertex 5.7014 -3.26695 -12
      vertex 5.4877 -3.66676 12
    endloop
  endfacet
  facet normal -0.881921 0.471397 0
    outer loop
      vertex 5.4877 -3.66676 12
      vertex 5.7014 -3.26695 -12
      vertex 5.4877 -3.66676 -12
    endloop
  endfacet
  facet normal -0.773011 0.634393 0
    outer loop
      vertex 5.4877 -3.66676 12
      vertex 5.4877 -3.66676 -12
      vertex 4.76002 -4.55344 12
    endloop
  endfacet
  facet normal -0.773011 0.634393 0
    outer loop
      vertex 4.76002 -4.55344 12
      vertex 5.4877 -3.66676 -12
      vertex 4.76002 -4.55344 -12
    endloop
  endfacet
  facet normal 0.422618 0.906308 0
    outer loop
      vertex 2.02138 -3.27639 -12
      vertex 2.02138 -3.27639 12
      vertex 4.76002 -4.55344 -12
    endloop
  endfacet
  facet normal 0.422618 0.906308 0
    outer loop
      vertex 4.76002 -4.55344 -12
      vertex 2.02138 -3.27639 12
      vertex 4.76002 -4.55344 12
    endloop
  endfacet
  facet normal -0.906308 0.422618 0
    outer loop
      vertex 1.64102 -4.09207 -12
      vertex 1.64102 -4.09207 12
      vertex 2.02138 -3.27639 -12
    endloop
  endfacet
  facet normal -0.906308 0.422618 0
    outer loop
      vertex 2.02138 -3.27639 -12
      vertex 1.64102 -4.09207 12
      vertex 2.02138 -3.27639 12
    endloop
  endfacet
  facet normal -0.422618 -0.906308 0
    outer loop
      vertex 1.64102 -4.09207 12
      vertex 1.64102 -4.09207 -12
      vertex 4.0172 -5.2001 -12
    endloop
  endfacet
  facet normal -0.422618 -0.906308 0
    outer loop
      vertex 4.0172 -5.2001 12
      vertex 1.64102 -4.09207 12
      vertex 4.0172 -5.2001 -12
    endloop
  endfacet
  facet normal -0.634393 0.773011 0
    outer loop
      vertex 4.0172 -5.2001 12
      vertex 4.0172 -5.2001 -12
      vertex 3.66676 -5.4877 12
    endloop
  endfacet
  facet normal -0.634393 0.773011 0
    outer loop
      vertex 3.66676 -5.4877 12
      vertex 4.0172 -5.2001 -12
      vertex 3.66676 -5.4877 -12
    endloop
  endfacet
  facet normal -0.471397 0.881921 0
    outer loop
      vertex 3.66676 -5.4877 12
      vertex 3.66676 -5.4877 -12
      vertex 2.65516 -6.02841 12
    endloop
  endfacet
  facet normal -0.471397 0.881921 0
    outer loop
      vertex 2.65516 -6.02841 12
      vertex 3.66676 -5.4877 -12
      vertex 2.65516 -6.02841 -12
    endloop
  endfacet
  facet normal 0.737277 0.67559 0
    outer loop
      vertex 2.65516 -6.02841 -12
      vertex 0.613687 -3.80054 -12
      vertex 0.613687 -3.80054 12
    endloop
  endfacet
  facet normal 0.737277 0.67559 -0
    outer loop
      vertex 2.65516 -6.02841 12
      vertex 2.65516 -6.02841 -12
      vertex 0.613687 -3.80054 12
    endloop
  endfacet
  facet normal -0.67559 0.737277 0
    outer loop
      vertex -0.0498622 -4.40857 -12
      vertex -0.0498622 -4.40857 12
      vertex 0.613687 -3.80054 -12
    endloop
  endfacet
  facet normal -0.67559 0.737277 0
    outer loop
      vertex 0.613687 -3.80054 -12
      vertex -0.0498622 -4.40857 12
      vertex 0.613687 -3.80054 12
    endloop
  endfacet
  facet normal -0.737277 -0.67559 -0
    outer loop
      vertex -0.0498622 -4.40857 -12
      vertex 1.72142 -6.34158 -12
      vertex -0.0498622 -4.40857 12
    endloop
  endfacet
  facet normal -0.737277 -0.67559 0
    outer loop
      vertex -0.0498622 -4.40857 12
      vertex 1.72142 -6.34158 -12
      vertex 1.72142 -6.34158 12
    endloop
  endfacet
  facet normal -0.290285 0.95694 0
    outer loop
      vertex 1.72142 -6.34158 12
      vertex 1.72142 -6.34158 -12
      vertex 1.2876 -6.47318 12
    endloop
  endfacet
  facet normal -0.290285 0.95694 0
    outer loop
      vertex 1.2876 -6.47318 12
      vertex 1.72142 -6.34158 -12
      vertex 1.2876 -6.47318 -12
    endloop
  endfacet
  facet normal -0.098017 0.995185 0
    outer loop
      vertex 1.2876 -6.47318 12
      vertex 1.2876 -6.47318 -12
      vertex 0.14607 -6.58561 12
    endloop
  endfacet
  facet normal -0.098017 0.995185 0
    outer loop
      vertex 0.14607 -6.58561 12
      vertex 1.2876 -6.47318 -12
      vertex 0.14607 -6.58561 -12
    endloop
  endfacet
  facet normal 0.939693 0.34202 0
    outer loop
      vertex 0.14607 -6.58561 -12
      vertex -0.887431 -3.74609 -12
      vertex -0.887431 -3.74609 12
    endloop
  endfacet
  facet normal 0.939693 0.34202 -0
    outer loop
      vertex 0.14607 -6.58561 12
      vertex 0.14607 -6.58561 -12
      vertex -0.887431 -3.74609 12
    endloop
  endfacet
  facet normal -0.34202 0.939693 0
    outer loop
      vertex -1.73315 -4.05391 -12
      vertex -1.73315 -4.05391 12
      vertex -0.887431 -3.74609 -12
    endloop
  endfacet
  facet normal -0.34202 0.939693 0
    outer loop
      vertex -0.887431 -3.74609 -12
      vertex -1.73315 -4.05391 12
      vertex -0.887431 -3.74609 12
    endloop
  endfacet
  facet normal -0.939693 -0.34202 -0
    outer loop
      vertex -1.73315 -4.05391 -12
      vertex -0.836438 -6.51762 -12
      vertex -1.73315 -4.05391 12
    endloop
  endfacet
  facet normal -0.939693 -0.34202 0
    outer loop
      vertex -1.73315 -4.05391 12
      vertex -0.836438 -6.51762 -12
      vertex -0.836438 -6.51762 12
    endloop
  endfacet
  facet normal 0.098017 0.995185 -0
    outer loop
      vertex -0.836438 -6.51762 12
      vertex -0.836438 -6.51762 -12
      vertex -1.2876 -6.47318 12
    endloop
  endfacet
  facet normal 0.098017 0.995185 -0
    outer loop
      vertex -1.2876 -6.47318 12
      vertex -0.836438 -6.51762 -12
      vertex -1.2876 -6.47318 -12
    endloop
  endfacet
  facet normal 0.290285 0.95694 -0
    outer loop
      vertex -1.2876 -6.47318 12
      vertex -1.2876 -6.47318 -12
      vertex -2.38525 -6.14021 12
    endloop
  endfacet
  facet normal 0.290285 0.95694 -0
    outer loop
      vertex -2.38525 -6.14021 12
      vertex -1.2876 -6.47318 -12
      vertex -2.38525 -6.14021 -12
    endloop
  endfacet
  facet normal 0.999048 -0.0436194 0
    outer loop
      vertex -2.38525 -6.14021 12
      vertex -2.38525 -6.14021 -12
      vertex -2.25345 -3.12133 -12
    endloop
  endfacet
  facet normal 0.999048 -0.0436194 0
    outer loop
      vertex -2.25345 -3.12133 12
      vertex -2.38525 -6.14021 12
      vertex -2.25345 -3.12133 -12
    endloop
  endfacet
  facet normal 0.0436194 0.999048 0
    outer loop
      vertex -3.15259 -3.08207 -12
      vertex -3.15259 -3.08207 12
      vertex -2.25345 -3.12133 -12
    endloop
  endfacet
  facet normal 0.0436194 0.999048 0
    outer loop
      vertex -2.25345 -3.12133 -12
      vertex -3.15259 -3.08207 12
      vertex -2.25345 -3.12133 12
    endloop
  endfacet
  facet normal -0.999048 0.0436194 0
    outer loop
      vertex -3.26695 -5.7014 -12
      vertex -3.26695 -5.7014 12
      vertex -3.15259 -3.08207 -12
    endloop
  endfacet
  facet normal -0.999048 0.0436194 0
    outer loop
      vertex -3.15259 -3.08207 -12
      vertex -3.26695 -5.7014 12
      vertex -3.15259 -3.08207 12
    endloop
  endfacet
  facet normal 0.471397 0.881921 -0
    outer loop
      vertex -3.26695 -5.7014 12
      vertex -3.26695 -5.7014 -12
      vertex -3.66676 -5.4877 12
    endloop
  endfacet
  facet normal 0.471397 0.881921 -0
    outer loop
      vertex -3.66676 -5.4877 12
      vertex -3.26695 -5.7014 -12
      vertex -3.66676 -5.4877 -12
    endloop
  endfacet
  facet normal 0.634393 0.773011 -0
    outer loop
      vertex -3.66676 -5.4877 12
      vertex -3.66676 -5.4877 -12
      vertex -4.55344 -4.76002 12
    endloop
  endfacet
  facet normal 0.634393 0.773011 -0
    outer loop
      vertex -4.55344 -4.76002 12
      vertex -3.66676 -5.4877 -12
      vertex -4.55344 -4.76002 -12
    endloop
  endfacet
  facet normal 0.906308 -0.422618 0
    outer loop
      vertex -4.55344 -4.76002 12
      vertex -4.55344 -4.76002 -12
      vertex -3.27639 -2.02138 -12
    endloop
  endfacet
  facet normal 0.906308 -0.422618 0
    outer loop
      vertex -3.27639 -2.02138 12
      vertex -4.55344 -4.76002 12
      vertex -3.27639 -2.02138 -12
    endloop
  endfacet
  facet normal 0.422618 0.906308 0
    outer loop
      vertex -4.09207 -1.64102 -12
      vertex -4.09207 -1.64102 12
      vertex -3.27639 -2.02138 -12
    endloop
  endfacet
  facet normal 0.422618 0.906308 0
    outer loop
      vertex -3.27639 -2.02138 -12
      vertex -4.09207 -1.64102 12
      vertex -3.27639 -2.02138 12
    endloop
  endfacet
  facet normal -0.906308 0.422618 0
    outer loop
      vertex -5.2001 -4.0172 -12
      vertex -5.2001 -4.0172 12
      vertex -4.09207 -1.64102 -12
    endloop
  endfacet
  facet normal -0.906308 0.422618 0
    outer loop
      vertex -4.09207 -1.64102 -12
      vertex -5.2001 -4.0172 12
      vertex -4.09207 -1.64102 12
    endloop
  endfacet
  facet normal 0.773011 0.634393 0
    outer loop
      vertex -5.4877 -3.66676 12
      vertex -5.2001 -4.0172 12
      vertex -5.2001 -4.0172 -12
    endloop
  endfacet
  facet normal 0.773011 0.634393 0
    outer loop
      vertex -5.4877 -3.66676 -12
      vertex -5.4877 -3.66676 12
      vertex -5.2001 -4.0172 -12
    endloop
  endfacet
  facet normal 0.881921 0.471397 0
    outer loop
      vertex -6.02841 -2.65516 12
      vertex -5.4877 -3.66676 12
      vertex -5.4877 -3.66676 -12
    endloop
  endfacet
  facet normal 0.881921 0.471397 0
    outer loop
      vertex -6.02841 -2.65516 -12
      vertex -6.02841 -2.65516 12
      vertex -5.4877 -3.66676 -12
    endloop
  endfacet
  facet normal 0.67559 -0.737277 0
    outer loop
      vertex -6.02841 -2.65516 12
      vertex -6.02841 -2.65516 -12
      vertex -3.80054 -0.613687 -12
    endloop
  endfacet
  facet normal 0.67559 -0.737277 0
    outer loop
      vertex -3.80054 -0.613687 12
      vertex -6.02841 -2.65516 12
      vertex -3.80054 -0.613687 -12
    endloop
  endfacet
  facet normal 0.737277 0.67559 0
    outer loop
      vertex -3.80054 -0.613687 -12
      vertex -4.40857 0.0498622 -12
      vertex -4.40857 0.0498622 12
    endloop
  endfacet
  facet normal 0.737277 0.67559 -0
    outer loop
      vertex -3.80054 -0.613687 12
      vertex -3.80054 -0.613687 -12
      vertex -4.40857 0.0498622 12
    endloop
  endfacet
  facet normal -0.67559 0.737277 0
    outer loop
      vertex -6.34158 -1.72142 -12
      vertex -6.34158 -1.72142 12
      vertex -4.40857 0.0498622 -12
    endloop
  endfacet
  facet normal -0.67559 0.737277 0
    outer loop
      vertex -4.40857 0.0498622 -12
      vertex -6.34158 -1.72142 12
      vertex -4.40857 0.0498622 12
    endloop
  endfacet
  facet normal 0.95694 0.290285 0
    outer loop
      vertex -6.47318 -1.2876 12
      vertex -6.34158 -1.72142 12
      vertex -6.34158 -1.72142 -12
    endloop
  endfacet
  facet normal 0.95694 0.290285 0
    outer loop
      vertex -6.47318 -1.2876 -12
      vertex -6.47318 -1.2876 12
      vertex -6.34158 -1.72142 -12
    endloop
  endfacet
endsolid OpenSCAD_Model
