solid OpenSCAD_Model
  facet normal -1 -0 -0
    outer loop
      vertex -175 -71.8911 0
      vertex -175 -71.8911 9
      vertex -175 150 0
    endloop
  endfacet
  facet normal -1 0 0
    outer loop
      vertex -175 150 0
      vertex -175 -71.8911 9
      vertex -175 150 9
    endloop
  endfacet
  facet normal -0.866025 -0.5 -0
    outer loop
      vertex -175 -71.8911 0
      vertex -129.904 -150 0
      vertex -175 -71.8911 9
    endloop
  endfacet
  facet normal -0.866025 -0.5 0
    outer loop
      vertex -175 -71.8911 9
      vertex -129.904 -150 0
      vertex -129.904 -150 9
    endloop
  endfacet
  facet normal -0 -0 -1
    outer loop
      vertex -157.426 -82.5192 0
      vertex -175 150 0
      vertex -129.904 -150 0
    endloop
  endfacet
  facet normal 0 -0 -1
    outer loop
      vertex -30 144.2 0
      vertex -175 150 0
      vertex 175 150 0
    endloop
  endfacet
  facet normal -0 0 -1
    outer loop
      vertex 150 -35 0
      vertex 175 150 0
      vertex 175 -71.8911 0
    endloop
  endfacet
  facet normal -0 0 -1
    outer loop
      vertex 131.531 -135.581 0
      vertex 175 -71.8911 0
      vertex 129.904 -150 0
    endloop
  endfacet
  facet normal -0 -0 -1
    outer loop
      vertex -175 -71.8911 0
      vertex -175 150 0
      vertex -161.531 -81.4192 0
    endloop
  endfacet
  facet normal 0 0 -1
    outer loop
      vertex -175 -71.8911 0
      vertex -161.531 -81.4192 0
      vertex -161.826 -82.5192 0
    endloop
  endfacet
  facet normal 0 0 -1
    outer loop
      vertex -175 -71.8911 0
      vertex -161.826 -82.5192 0
      vertex -161.531 -83.6192 0
    endloop
  endfacet
  facet normal 0 0 -1
    outer loop
      vertex -175 -71.8911 0
      vertex -161.531 -83.6192 0
      vertex -129.904 -150 0
    endloop
  endfacet
  facet normal 0 0 -1
    outer loop
      vertex -159.626 -84.7192 0
      vertex -129.904 -150 0
      vertex -160.726 -84.4245 0
    endloop
  endfacet
  facet normal 0 0 -1
    outer loop
      vertex -131.826 -134.481 0
      vertex -129.904 -150 0
      vertex -150 5 0
    endloop
  endfacet
  facet normal -0 -0 -1
    outer loop
      vertex -158.526 -80.614 0
      vertex -175 150 0
      vertex -157.721 -81.4192 0
    endloop
  endfacet
  facet normal 0 -0 -1
    outer loop
      vertex -160.726 -80.614 0
      vertex -175 150 0
      vertex -159.626 -80.3192 0
    endloop
  endfacet
  facet normal -0 0 -1
    outer loop
      vertex -159.626 -84.7192 0
      vertex -158.526 -84.4245 0
      vertex -129.904 -150 0
    endloop
  endfacet
  facet normal -0 -0 -1
    outer loop
      vertex -159.626 -80.3192 0
      vertex -175 150 0
      vertex -158.526 -80.614 0
    endloop
  endfacet
  facet normal -0 0 -1
    outer loop
      vertex -158.526 -84.4245 0
      vertex -157.721 -83.6192 0
      vertex -129.904 -150 0
    endloop
  endfacet
  facet normal -0 -0 -1
    outer loop
      vertex -157.721 -81.4192 0
      vertex -175 150 0
      vertex -157.426 -82.5192 0
    endloop
  endfacet
  facet normal -0 0 -1
    outer loop
      vertex -157.721 -83.6192 0
      vertex -157.426 -82.5192 0
      vertex -129.904 -150 0
    endloop
  endfacet
  facet normal 0 0 -1
    outer loop
      vertex -131.531 -133.381 0
      vertex -131.826 -134.481 0
      vertex -150 5 0
    endloop
  endfacet
  facet normal 0 -0 -1
    outer loop
      vertex -161.531 -81.4192 0
      vertex -175 150 0
      vertex -160.726 -80.614 0
    endloop
  endfacet
  facet normal 0 0 -1
    outer loop
      vertex -150 5 0
      vertex -175 150 0
      vertex -150 10 0
    endloop
  endfacet
  facet normal 0 0 -1
    outer loop
      vertex -129.904 -150 0
      vertex -175 150 0
      vertex -150 5 0
    endloop
  endfacet
  facet normal 0 0 -1
    outer loop
      vertex -130.726 -136.386 0
      vertex -129.904 -150 0
      vertex -131.531 -135.581 0
    endloop
  endfacet
  facet normal 0 -0 -1
    outer loop
      vertex 27.8 142 0
      vertex -28.0947 140.9 0
      vertex 28.0947 143.1 0
    endloop
  endfacet
  facet normal 0 -0 -1
    outer loop
      vertex -130.726 -132.576 0
      vertex -131.531 -133.381 0
      vertex -10 5 0
    endloop
  endfacet
  facet normal 0 0 -1
    outer loop
      vertex -129.904 -150 0
      vertex -131.826 -134.481 0
      vertex -131.531 -135.581 0
    endloop
  endfacet
  facet normal -0 0 -1
    outer loop
      vertex -127.426 -134.481 0
      vertex -10 5 0
      vertex -127.721 -135.581 0
    endloop
  endfacet
  facet normal 0 -0 -1
    outer loop
      vertex -129.904 -150 0
      vertex -130.726 -136.386 0
      vertex -129.626 -136.681 0
    endloop
  endfacet
  facet normal 0 0 -1
    outer loop
      vertex -129.904 -150 0
      vertex -129.626 -136.681 0
      vertex -128.526 -136.386 0
    endloop
  endfacet
  facet normal 0 0 -1
    outer loop
      vertex -129.904 -150 0
      vertex -128.526 -136.386 0
      vertex -127.721 -135.581 0
    endloop
  endfacet
  facet normal 0 0 -1
    outer loop
      vertex -129.904 -150 0
      vertex -127.721 -135.581 0
      vertex -10 5 0
    endloop
  endfacet
  facet normal -0 0 -1
    outer loop
      vertex -127.721 -133.381 0
      vertex -10 5 0
      vertex -127.426 -134.481 0
    endloop
  endfacet
  facet normal -0 0 -1
    outer loop
      vertex -128.526 -132.576 0
      vertex -10 5 0
      vertex -127.721 -133.381 0
    endloop
  endfacet
  facet normal -0 0 -1
    outer loop
      vertex -80 -105 0
      vertex 175 -71.8911 0
      vertex 80 -105 0
    endloop
  endfacet
  facet normal 0 -0 -1
    outer loop
      vertex -128.526 -132.576 0
      vertex -129.626 -132.281 0
      vertex -10 5 0
    endloop
  endfacet
  facet normal 0 -0 -1
    outer loop
      vertex -129.626 -132.281 0
      vertex -130.726 -132.576 0
      vertex -10 5 0
    endloop
  endfacet
  facet normal 0 0 -1
    outer loop
      vertex 80 -130 0
      vertex -129.904 -150 0
      vertex -80 -130 0
    endloop
  endfacet
  facet normal 0 0 -1
    outer loop
      vertex -129.904 -150 0
      vertex -80 -105 0
      vertex -80 -130 0
    endloop
  endfacet
  facet normal -0 0 -1
    outer loop
      vertex -129.904 -150 0
      vertex 80 -130 0
      vertex 129.904 -150 0
    endloop
  endfacet
  facet normal 0 -0 -1
    outer loop
      vertex -150 10 0
      vertex -175 150 0
      vertex -32.2 142 0
    endloop
  endfacet
  facet normal 0 0 -1
    outer loop
      vertex -150 10 0
      vertex -32.2 142 0
      vertex -31.9053 140.9 0
    endloop
  endfacet
  facet normal 0 -0 -1
    outer loop
      vertex -10 10 0
      vertex -150 10 0
      vertex 0 115 0
    endloop
  endfacet
  facet normal 0 0 -1
    outer loop
      vertex -150 10 0
      vertex -31.9053 140.9 0
      vertex -31.1 140.095 0
    endloop
  endfacet
  facet normal 0 0 -1
    outer loop
      vertex -150 10 0
      vertex -31.1 140.095 0
      vertex -30 139.8 0
    endloop
  endfacet
  facet normal -0 0 -1
    outer loop
      vertex 31.9053 140.9 0
      vertex 175 150 0
      vertex 31.1 140.095 0
    endloop
  endfacet
  facet normal 0 -0 -1
    outer loop
      vertex 28.0947 143.1 0
      vertex -27.8 142 0
      vertex 28.9 143.905 0
    endloop
  endfacet
  facet normal 0 -0 -1
    outer loop
      vertex 30 144.2 0
      vertex -27.8 142 0
      vertex 175 150 0
    endloop
  endfacet
  facet normal 0 0 -1
    outer loop
      vertex 0 -25 0
      vertex -129.904 -150 0
      vertex -10 5 0
    endloop
  endfacet
  facet normal 0 -0 -1
    outer loop
      vertex -31.1 143.905 0
      vertex -175 150 0
      vertex -30 144.2 0
    endloop
  endfacet
  facet normal 0 -0 -1
    outer loop
      vertex -31.9053 143.1 0
      vertex -175 150 0
      vertex -31.1 143.905 0
    endloop
  endfacet
  facet normal 0 -0 -1
    outer loop
      vertex -28.0947 143.1 0
      vertex -28.9 143.905 0
      vertex 175 150 0
    endloop
  endfacet
  facet normal 0 -0 -1
    outer loop
      vertex -28.9 143.905 0
      vertex -30 144.2 0
      vertex 175 150 0
    endloop
  endfacet
  facet normal 0 0 -1
    outer loop
      vertex 0 -25 0
      vertex -10 5 0
      vertex -10 10 0
    endloop
  endfacet
  facet normal 0 -0 -1
    outer loop
      vertex -32.2 142 0
      vertex -175 150 0
      vertex -31.9053 143.1 0
    endloop
  endfacet
  facet normal 0 0 -1
    outer loop
      vertex -150 10 0
      vertex -30 139.8 0
      vertex 0 115 0
    endloop
  endfacet
  facet normal 0 -0 -1
    outer loop
      vertex 5 115 0
      vertex 0 115 0
      vertex 175 150 0
    endloop
  endfacet
  facet normal 0 0 -1
    outer loop
      vertex 5 -25 0
      vertex -80 -105 0
      vertex 0 -25 0
    endloop
  endfacet
  facet normal 0 0 -1
    outer loop
      vertex -129.904 -150 0
      vertex 0 -25 0
      vertex -80 -105 0
    endloop
  endfacet
  facet normal 0 0 -1
    outer loop
      vertex -80 -105 0
      vertex 5 -25 0
      vertex 175 -71.8911 0
    endloop
  endfacet
  facet normal 0 -0 -1
    outer loop
      vertex 125 135 0
      vertex 5 115 0
      vertex 175 150 0
    endloop
  endfacet
  facet normal 0 -0 -1
    outer loop
      vertex 0 115 0
      vertex -30 139.8 0
      vertex 27.8 142 0
    endloop
  endfacet
  facet normal 0 0 -1
    outer loop
      vertex 125 -35 0
      vertex 5 -25 0
      vertex 5 115 0
    endloop
  endfacet
  facet normal 0 0 -1
    outer loop
      vertex 0 115 0
      vertex 27.8 142 0
      vertex 28.0947 140.9 0
    endloop
  endfacet
  facet normal 0 0 -1
    outer loop
      vertex 0 115 0
      vertex 28.0947 140.9 0
      vertex 28.9 140.095 0
    endloop
  endfacet
  facet normal 0 0 -1
    outer loop
      vertex 0 115 0
      vertex 28.9 140.095 0
      vertex 30 139.8 0
    endloop
  endfacet
  facet normal 0 0 -1
    outer loop
      vertex 0 115 0
      vertex 30 139.8 0
      vertex 175 150 0
    endloop
  endfacet
  facet normal 0 0 -1
    outer loop
      vertex 30 139.8 0
      vertex 31.1 140.095 0
      vertex 175 150 0
    endloop
  endfacet
  facet normal -0 0 -1
    outer loop
      vertex 32.2 142 0
      vertex 175 150 0
      vertex 31.9053 140.9 0
    endloop
  endfacet
  facet normal -0 0 -1
    outer loop
      vertex 31.9053 143.1 0
      vertex 175 150 0
      vertex 32.2 142 0
    endloop
  endfacet
  facet normal 0 0 -1
    outer loop
      vertex 0 -25 0
      vertex -10 10 0
      vertex 0 115 0
    endloop
  endfacet
  facet normal -0 0 -1
    outer loop
      vertex -28.0947 143.1 0
      vertex 175 150 0
      vertex -27.8 142 0
    endloop
  endfacet
  facet normal 0 -0 -1
    outer loop
      vertex 28.9 143.905 0
      vertex -27.8 142 0
      vertex 30 144.2 0
    endloop
  endfacet
  facet normal 0 -0 -1
    outer loop
      vertex 31.1 143.905 0
      vertex 30 144.2 0
      vertex 175 150 0
    endloop
  endfacet
  facet normal -0 0 -1
    outer loop
      vertex 131.826 -134.481 0
      vertex 175 -71.8911 0
      vertex 131.531 -135.581 0
    endloop
  endfacet
  facet normal 0 0 -1
    outer loop
      vertex 28.0947 143.1 0
      vertex -28.0947 140.9 0
      vertex -27.8 142 0
    endloop
  endfacet
  facet normal 0 0 -1
    outer loop
      vertex 125 -35 0
      vertex 5 115 0
      vertex 125 135 0
    endloop
  endfacet
  facet normal -0 0 -1
    outer loop
      vertex 150 135 0
      vertex 175 150 0
      vertex 150 -35 0
    endloop
  endfacet
  facet normal 0 0 -1
    outer loop
      vertex 5 -25 0
      vertex 125 -35 0
      vertex 175 -71.8911 0
    endloop
  endfacet
  facet normal 0 0 -1
    outer loop
      vertex 125 -35 0
      vertex 150 -35 0
      vertex 175 -71.8911 0
    endloop
  endfacet
  facet normal -0 0 -1
    outer loop
      vertex 31.1 143.905 0
      vertex 175 150 0
      vertex 31.9053 143.1 0
    endloop
  endfacet
  facet normal 0 0 -1
    outer loop
      vertex 157.721 -83.6192 0
      vertex 80 -130 0
      vertex 157.426 -82.5192 0
    endloop
  endfacet
  facet normal 0 0 -1
    outer loop
      vertex 80 -130 0
      vertex 127.426 -134.481 0
      vertex 129.904 -150 0
    endloop
  endfacet
  facet normal 0 0 -1
    outer loop
      vertex 128.526 -132.576 0
      vertex 175 -71.8911 0
      vertex 129.626 -132.281 0
    endloop
  endfacet
  facet normal 0 0 -1
    outer loop
      vertex 127.426 -134.481 0
      vertex 127.721 -135.581 0
      vertex 129.904 -150 0
    endloop
  endfacet
  facet normal -0 0 -1
    outer loop
      vertex 129.626 -132.281 0
      vertex 175 -71.8911 0
      vertex 130.726 -132.576 0
    endloop
  endfacet
  facet normal 0 0 -1
    outer loop
      vertex 127.721 -135.581 0
      vertex 128.526 -136.386 0
      vertex 129.904 -150 0
    endloop
  endfacet
  facet normal -0 0 -1
    outer loop
      vertex 130.726 -132.576 0
      vertex 175 -71.8911 0
      vertex 131.531 -133.381 0
    endloop
  endfacet
  facet normal 0 0 -1
    outer loop
      vertex 128.526 -136.386 0
      vertex 129.626 -136.681 0
      vertex 129.904 -150 0
    endloop
  endfacet
  facet normal -0 0 -1
    outer loop
      vertex 131.531 -133.381 0
      vertex 175 -71.8911 0
      vertex 131.826 -134.481 0
    endloop
  endfacet
  facet normal -0 0 -1
    outer loop
      vertex 129.626 -136.681 0
      vertex 130.726 -136.386 0
      vertex 129.904 -150 0
    endloop
  endfacet
  facet normal -0 0 -1
    outer loop
      vertex 130.726 -136.386 0
      vertex 131.531 -135.581 0
      vertex 129.904 -150 0
    endloop
  endfacet
  facet normal -0 0 -1
    outer loop
      vertex 159.626 -80.3192 0
      vertex 175 -71.8911 0
      vertex 160.726 -80.614 0
    endloop
  endfacet
  facet normal -0 0 -1
    outer loop
      vertex 160.726 -84.4245 0
      vertex 175 -71.8911 0
      vertex 128.526 -132.576 0
    endloop
  endfacet
  facet normal 0 0 -1
    outer loop
      vertex 80 -130 0
      vertex 128.526 -132.576 0
      vertex 127.721 -133.381 0
    endloop
  endfacet
  facet normal 0 0 -1
    outer loop
      vertex 80 -130 0
      vertex 127.721 -133.381 0
      vertex 127.426 -134.481 0
    endloop
  endfacet
  facet normal 0 -0 -1
    outer loop
      vertex 157.721 -81.4192 0
      vertex 80 -105 0
      vertex 158.526 -80.614 0
    endloop
  endfacet
  facet normal -0 0 -1
    outer loop
      vertex 80 -105 0
      vertex 157.426 -82.5192 0
      vertex 80 -130 0
    endloop
  endfacet
  facet normal -0 0 -1
    outer loop
      vertex 161.826 -82.5192 0
      vertex 175 -71.8911 0
      vertex 161.531 -83.6192 0
    endloop
  endfacet
  facet normal -0 0 -1
    outer loop
      vertex 80 -130 0
      vertex 157.721 -83.6192 0
      vertex 128.526 -132.576 0
    endloop
  endfacet
  facet normal -0 0 -1
    outer loop
      vertex 160.726 -80.614 0
      vertex 175 -71.8911 0
      vertex 161.531 -81.4192 0
    endloop
  endfacet
  facet normal 0 0 -1
    outer loop
      vertex 157.721 -83.6192 0
      vertex 158.526 -84.4245 0
      vertex 128.526 -132.576 0
    endloop
  endfacet
  facet normal -0 0 -1
    outer loop
      vertex 161.531 -81.4192 0
      vertex 175 -71.8911 0
      vertex 161.826 -82.5192 0
    endloop
  endfacet
  facet normal 0 0 -1
    outer loop
      vertex 158.526 -84.4245 0
      vertex 159.626 -84.7192 0
      vertex 128.526 -132.576 0
    endloop
  endfacet
  facet normal -0 0 -1
    outer loop
      vertex 161.531 -83.6192 0
      vertex 175 -71.8911 0
      vertex 160.726 -84.4245 0
    endloop
  endfacet
  facet normal -0 0 -1
    outer loop
      vertex 159.626 -84.7192 0
      vertex 160.726 -84.4245 0
      vertex 128.526 -132.576 0
    endloop
  endfacet
  facet normal 0 0 -1
    outer loop
      vertex 158.526 -80.614 0
      vertex 175 -71.8911 0
      vertex 159.626 -80.3192 0
    endloop
  endfacet
  facet normal 0 0 -1
    outer loop
      vertex 80 -105 0
      vertex 175 -71.8911 0
      vertex 158.526 -80.614 0
    endloop
  endfacet
  facet normal 0 0 -1
    outer loop
      vertex 80 -105 0
      vertex 157.721 -81.4192 0
      vertex 157.426 -82.5192 0
    endloop
  endfacet
  facet normal 0 0 -1
    outer loop
      vertex -160.726 -84.4245 0
      vertex -129.904 -150 0
      vertex -161.531 -83.6192 0
    endloop
  endfacet
  facet normal 0 0 -1
    outer loop
      vertex -10 5 0
      vertex -131.531 -133.381 0
      vertex -150 5 0
    endloop
  endfacet
  facet normal -0 0 -1
    outer loop
      vertex 125 135 0
      vertex 175 150 0
      vertex 150 135 0
    endloop
  endfacet
  facet normal 0 0 -1
    outer loop
      vertex 27.8 142 0
      vertex -28.9 140.095 0
      vertex -28.0947 140.9 0
    endloop
  endfacet
  facet normal 0 0 -1
    outer loop
      vertex 27.8 142 0
      vertex -30 139.8 0
      vertex -28.9 140.095 0
    endloop
  endfacet
  facet normal -4.63648e-10 1 0
    outer loop
      vertex -175 150 0
      vertex -175 150 9
      vertex 175 150 0
    endloop
  endfacet
  facet normal -4.63648e-10 1 0
    outer loop
      vertex 175 150 0
      vertex -175 150 9
      vertex 175 150 9
    endloop
  endfacet
  facet normal -0 -0 1
    outer loop
      vertex -161.531 -83.6192 9
      vertex -175 -71.8911 9
      vertex -129.904 -150 9
    endloop
  endfacet
  facet normal -0 -0 1
    outer loop
      vertex -150 5 9
      vertex -175 150 9
      vertex -129.904 -150 9
    endloop
  endfacet
  facet normal 0 0 1
    outer loop
      vertex 5 115 9
      vertex 127.426 -134.481 9
      vertex 127.721 -133.381 9
    endloop
  endfacet
  facet normal 0 -0 1
    outer loop
      vertex -175 150 9
      vertex -175 -71.8911 9
      vertex -161.826 -82.5192 9
    endloop
  endfacet
  facet normal -0 -0 1
    outer loop
      vertex -160.726 -84.4245 9
      vertex -161.531 -83.6192 9
      vertex -129.904 -150 9
    endloop
  endfacet
  facet normal 0 0 1
    outer loop
      vertex -175 150 9
      vertex -161.826 -82.5192 9
      vertex -161.531 -81.4192 9
    endloop
  endfacet
  facet normal -0 -0 1
    outer loop
      vertex -159.626 -84.7192 9
      vertex -160.726 -84.4245 9
      vertex -129.904 -150 9
    endloop
  endfacet
  facet normal 0 0 1
    outer loop
      vertex -175 150 9
      vertex -161.531 -81.4192 9
      vertex -160.726 -80.614 9
    endloop
  endfacet
  facet normal 0 -0 1
    outer loop
      vertex -158.526 -84.4245 9
      vertex -159.626 -84.7192 9
      vertex -129.904 -150 9
    endloop
  endfacet
  facet normal 0 0 1
    outer loop
      vertex -175 150 9
      vertex -160.726 -80.614 9
      vertex -159.626 -80.3192 9
    endloop
  endfacet
  facet normal 0 -0 1
    outer loop
      vertex -157.721 -83.6192 9
      vertex -158.526 -84.4245 9
      vertex -129.904 -150 9
    endloop
  endfacet
  facet normal 0 0 1
    outer loop
      vertex -175 150 9
      vertex -159.626 -80.3192 9
      vertex -158.526 -80.614 9
    endloop
  endfacet
  facet normal 0 0 1
    outer loop
      vertex -175 150 9
      vertex -157.721 -81.4192 9
      vertex -129.904 -150 9
    endloop
  endfacet
  facet normal 0 0 1
    outer loop
      vertex -175 150 9
      vertex -158.526 -80.614 9
      vertex -157.721 -81.4192 9
    endloop
  endfacet
  facet normal 0 0 1
    outer loop
      vertex -157.721 -81.4192 9
      vertex -157.426 -82.5192 9
      vertex -129.904 -150 9
    endloop
  endfacet
  facet normal 0 0 1
    outer loop
      vertex -128.526 -132.576 9
      vertex -127.721 -133.381 9
      vertex 129.904 -150 9
    endloop
  endfacet
  facet normal -0 -0 1
    outer loop
      vertex -161.826 -82.5192 9
      vertex -175 -71.8911 9
      vertex -161.531 -83.6192 9
    endloop
  endfacet
  facet normal -0 -0 1
    outer loop
      vertex -131.826 -134.481 9
      vertex -150 5 9
      vertex -129.904 -150 9
    endloop
  endfacet
  facet normal -0 0 1
    outer loop
      vertex -150 10 9
      vertex -175 150 9
      vertex -150 5 9
    endloop
  endfacet
  facet normal 0 0 1
    outer loop
      vertex -80 -105 9
      vertex 80 -105 9
      vertex -150 5 9
    endloop
  endfacet
  facet normal 0 0 1
    outer loop
      vertex 5 115 9
      vertex 127.721 -135.581 9
      vertex 127.426 -134.481 9
    endloop
  endfacet
  facet normal -0 -0 1
    outer loop
      vertex -131.531 -135.581 9
      vertex -131.826 -134.481 9
      vertex -129.904 -150 9
    endloop
  endfacet
  facet normal -0 0 1
    outer loop
      vertex -131.531 -133.381 9
      vertex -150 5 9
      vertex -131.826 -134.481 9
    endloop
  endfacet
  facet normal -0 0 1
    outer loop
      vertex -130.726 -132.576 9
      vertex -150 5 9
      vertex -131.531 -133.381 9
    endloop
  endfacet
  facet normal -0 0 1
    outer loop
      vertex -129.626 -132.281 9
      vertex -150 5 9
      vertex -130.726 -132.576 9
    endloop
  endfacet
  facet normal -0 0 1
    outer loop
      vertex -80 -130 9
      vertex -150 5 9
      vertex -129.626 -132.281 9
    endloop
  endfacet
  facet normal 0 0 1
    outer loop
      vertex -127.721 -133.381 9
      vertex -127.426 -134.481 9
      vertex 129.904 -150 9
    endloop
  endfacet
  facet normal 0 0 1
    outer loop
      vertex 129.904 -150 9
      vertex -129.626 -132.281 9
      vertex -128.526 -132.576 9
    endloop
  endfacet
  facet normal 0 -0 1
    outer loop
      vertex -127.426 -134.481 9
      vertex -127.721 -135.581 9
      vertex 129.904 -150 9
    endloop
  endfacet
  facet normal -0 -0 1
    outer loop
      vertex 80 -130 9
      vertex -80 -130 9
      vertex 129.904 -150 9
    endloop
  endfacet
  facet normal -0 0 1
    outer loop
      vertex 129.904 -150 9
      vertex -127.721 -135.581 9
      vertex -129.904 -150 9
    endloop
  endfacet
  facet normal 0 0 1
    outer loop
      vertex -127.721 -135.581 9
      vertex -128.526 -136.386 9
      vertex -129.904 -150 9
    endloop
  endfacet
  facet normal 0 0 1
    outer loop
      vertex -128.526 -136.386 9
      vertex -129.626 -136.681 9
      vertex -129.904 -150 9
    endloop
  endfacet
  facet normal -0 0 1
    outer loop
      vertex -129.626 -136.681 9
      vertex -130.726 -136.386 9
      vertex -129.904 -150 9
    endloop
  endfacet
  facet normal -0 -0 1
    outer loop
      vertex -130.726 -136.386 9
      vertex -131.531 -135.581 9
      vertex -129.904 -150 9
    endloop
  endfacet
  facet normal 0 0 1
    outer loop
      vertex 129.904 -150 9
      vertex -80 -130 9
      vertex -129.626 -132.281 9
    endloop
  endfacet
  facet normal -0 0 1
    outer loop
      vertex -80 -105 9
      vertex -150 5 9
      vertex -80 -130 9
    endloop
  endfacet
  facet normal 0 -0 1
    outer loop
      vertex 80 -105 9
      vertex 80 -130 9
      vertex 129.904 -150 9
    endloop
  endfacet
  facet normal 0 0 1
    outer loop
      vertex 159.626 -80.3192 9
      vertex 160.726 -80.614 9
      vertex 175 -71.8911 9
    endloop
  endfacet
  facet normal 0 0 1
    outer loop
      vertex -150 10 9
      vertex -10 10 9
      vertex -175 150 9
    endloop
  endfacet
  facet normal 0 0 1
    outer loop
      vertex 30 144.2 9
      vertex 31.1 143.905 9
      vertex 175 150 9
    endloop
  endfacet
  facet normal 0 0 1
    outer loop
      vertex -30 144.2 9
      vertex -28.9 143.905 9
      vertex 175 150 9
    endloop
  endfacet
  facet normal 0 0 1
    outer loop
      vertex 5 115 9
      vertex 157.426 -82.5192 9
      vertex 157.721 -81.4192 9
    endloop
  endfacet
  facet normal -0 -0 1
    outer loop
      vertex -32.2 142 9
      vertex -175 150 9
      vertex -31.9053 140.9 9
    endloop
  endfacet
  facet normal -0 0 1
    outer loop
      vertex -31.9053 143.1 9
      vertex -175 150 9
      vertex -32.2 142 9
    endloop
  endfacet
  facet normal -0 0 1
    outer loop
      vertex -31.1 143.905 9
      vertex -175 150 9
      vertex -31.9053 143.1 9
    endloop
  endfacet
  facet normal -0 0 1
    outer loop
      vertex -30 144.2 9
      vertex -175 150 9
      vertex -31.1 143.905 9
    endloop
  endfacet
  facet normal 0 0 1
    outer loop
      vertex -28.9 143.905 9
      vertex -28.0947 143.1 9
      vertex 175 150 9
    endloop
  endfacet
  facet normal 0 0 1
    outer loop
      vertex 175 150 9
      vertex -175 150 9
      vertex -30 144.2 9
    endloop
  endfacet
  facet normal 0 0 1
    outer loop
      vertex -28.0947 143.1 9
      vertex -27.8 142 9
      vertex 175 150 9
    endloop
  endfacet
  facet normal 0 0 1
    outer loop
      vertex 5 115 9
      vertex 158.526 -80.614 9
      vertex 125 -35 9
    endloop
  endfacet
  facet normal 0 0 1
    outer loop
      vertex 5 115 9
      vertex 157.721 -81.4192 9
      vertex 158.526 -80.614 9
    endloop
  endfacet
  facet normal 0 0 1
    outer loop
      vertex 129.904 -150 9
      vertex 0 -25 9
      vertex 80 -105 9
    endloop
  endfacet
  facet normal 0 0 1
    outer loop
      vertex 28.0947 140.9 9
      vertex -28.0947 140.9 9
      vertex 0 115 9
    endloop
  endfacet
  facet normal 0 0 1
    outer loop
      vertex 125 -35 9
      vertex 125 135 9
      vertex 5 115 9
    endloop
  endfacet
  facet normal 0 0 1
    outer loop
      vertex 175 150 9
      vertex 0 115 9
      vertex 5 115 9
    endloop
  endfacet
  facet normal -0 0 1
    outer loop
      vertex 28.9 140.095 9
      vertex 28.0947 140.9 9
      vertex 0 115 9
    endloop
  endfacet
  facet normal 0 -0 1
    outer loop
      vertex 27.8 142 9
      vertex -28.0947 140.9 9
      vertex 28.0947 140.9 9
    endloop
  endfacet
  facet normal 0 0 1
    outer loop
      vertex 28.0947 143.1 9
      vertex -28.0947 140.9 9
      vertex 27.8 142 9
    endloop
  endfacet
  facet normal 0 0 1
    outer loop
      vertex 30 144.2 9
      vertex -27.8 142 9
      vertex 28.9 143.905 9
    endloop
  endfacet
  facet normal 0 0 1
    outer loop
      vertex 31.1 143.905 9
      vertex 31.9053 143.1 9
      vertex 175 150 9
    endloop
  endfacet
  facet normal 0 0 1
    outer loop
      vertex 175 150 9
      vertex -27.8 142 9
      vertex 30 144.2 9
    endloop
  endfacet
  facet normal 0 0 1
    outer loop
      vertex 125 -35 9
      vertex 158.526 -80.614 9
      vertex 175 -71.8911 9
    endloop
  endfacet
  facet normal 0 -0 1
    outer loop
      vertex 32.2 142 9
      vertex 31.9053 140.9 9
      vertex 175 150 9
    endloop
  endfacet
  facet normal 0 0 1
    outer loop
      vertex 31.1 140.095 9
      vertex 30 139.8 9
      vertex 0 115 9
    endloop
  endfacet
  facet normal 0 -0 1
    outer loop
      vertex 150 -35 9
      vertex 125 -35 9
      vertex 175 -71.8911 9
    endloop
  endfacet
  facet normal 0 0 1
    outer loop
      vertex 175 150 9
      vertex 31.1 140.095 9
      vertex 0 115 9
    endloop
  endfacet
  facet normal 0 0 1
    outer loop
      vertex 175 150 9
      vertex 31.9053 140.9 9
      vertex 31.1 140.095 9
    endloop
  endfacet
  facet normal 0 -0 1
    outer loop
      vertex 150 135 9
      vertex 150 -35 9
      vertex 175 -71.8911 9
    endloop
  endfacet
  facet normal -0 0 1
    outer loop
      vertex 30 139.8 9
      vertex 28.9 140.095 9
      vertex 0 115 9
    endloop
  endfacet
  facet normal 0 0 1
    outer loop
      vertex 5 115 9
      vertex 157.721 -83.6192 9
      vertex 157.426 -82.5192 9
    endloop
  endfacet
  facet normal 0 0 1
    outer loop
      vertex 5 115 9
      vertex 127.721 -133.381 9
      vertex 157.721 -83.6192 9
    endloop
  endfacet
  facet normal 0 0 1
    outer loop
      vertex 128.526 -132.576 9
      vertex 129.626 -132.281 9
      vertex 175 -71.8911 9
    endloop
  endfacet
  facet normal 0 0 1
    outer loop
      vertex 175 150 9
      vertex 5 115 9
      vertex 125 135 9
    endloop
  endfacet
  facet normal 0 0 1
    outer loop
      vertex 175 150 9
      vertex 150 135 9
      vertex 175 -71.8911 9
    endloop
  endfacet
  facet normal 0 0 1
    outer loop
      vertex 175 150 9
      vertex 125 135 9
      vertex 150 135 9
    endloop
  endfacet
  facet normal -0 -0 1
    outer loop
      vertex 128.526 -136.386 9
      vertex 127.721 -135.581 9
      vertex 129.904 -150 9
    endloop
  endfacet
  facet normal 0 0 1
    outer loop
      vertex 129.626 -132.281 9
      vertex 130.726 -132.576 9
      vertex 175 -71.8911 9
    endloop
  endfacet
  facet normal 0 0 1
    outer loop
      vertex 175 -71.8911 9
      vertex 127.721 -133.381 9
      vertex 128.526 -132.576 9
    endloop
  endfacet
  facet normal 0 0 1
    outer loop
      vertex 131.531 -135.581 9
      vertex 130.726 -136.386 9
      vertex 129.904 -150 9
    endloop
  endfacet
  facet normal 0 0 1
    outer loop
      vertex 130.726 -136.386 9
      vertex 129.626 -136.681 9
      vertex 129.904 -150 9
    endloop
  endfacet
  facet normal 0 0 1
    outer loop
      vertex 175 -71.8911 9
      vertex 130.726 -132.576 9
      vertex 131.531 -133.381 9
    endloop
  endfacet
  facet normal 0 0 1
    outer loop
      vertex 175 -71.8911 9
      vertex 131.826 -134.481 9
      vertex 129.904 -150 9
    endloop
  endfacet
  facet normal 0 0 1
    outer loop
      vertex 175 -71.8911 9
      vertex 131.531 -133.381 9
      vertex 131.826 -134.481 9
    endloop
  endfacet
  facet normal 0 0 1
    outer loop
      vertex 131.826 -134.481 9
      vertex 131.531 -135.581 9
      vertex 129.904 -150 9
    endloop
  endfacet
  facet normal -0 -0 1
    outer loop
      vertex 129.626 -136.681 9
      vertex 128.526 -136.386 9
      vertex 129.904 -150 9
    endloop
  endfacet
  facet normal -0 0 1
    outer loop
      vertex 158.526 -84.4245 9
      vertex 157.721 -83.6192 9
      vertex 127.721 -133.381 9
    endloop
  endfacet
  facet normal 0 0 1
    outer loop
      vertex 160.726 -80.614 9
      vertex 161.531 -81.4192 9
      vertex 175 -71.8911 9
    endloop
  endfacet
  facet normal 0 -0 1
    outer loop
      vertex 5 115 9
      vertex 5 -25 9
      vertex 129.904 -150 9
    endloop
  endfacet
  facet normal 0 0 1
    outer loop
      vertex 5 115 9
      vertex 129.904 -150 9
      vertex 127.721 -135.581 9
    endloop
  endfacet
  facet normal 0 0 1
    outer loop
      vertex 175 -71.8911 9
      vertex 158.526 -80.614 9
      vertex 159.626 -80.3192 9
    endloop
  endfacet
  facet normal 0 0 1
    outer loop
      vertex 160.726 -84.4245 9
      vertex 159.626 -84.7192 9
      vertex 127.721 -133.381 9
    endloop
  endfacet
  facet normal -0 0 1
    outer loop
      vertex 159.626 -84.7192 9
      vertex 158.526 -84.4245 9
      vertex 127.721 -133.381 9
    endloop
  endfacet
  facet normal 0 0 1
    outer loop
      vertex 175 -71.8911 9
      vertex 161.531 -81.4192 9
      vertex 161.826 -82.5192 9
    endloop
  endfacet
  facet normal 0 0 1
    outer loop
      vertex 175 -71.8911 9
      vertex 161.531 -83.6192 9
      vertex 127.721 -133.381 9
    endloop
  endfacet
  facet normal 0 0 1
    outer loop
      vertex 175 -71.8911 9
      vertex 161.826 -82.5192 9
      vertex 161.531 -83.6192 9
    endloop
  endfacet
  facet normal 0 0 1
    outer loop
      vertex 161.531 -83.6192 9
      vertex 160.726 -84.4245 9
      vertex 127.721 -133.381 9
    endloop
  endfacet
  facet normal 0 -0 1
    outer loop
      vertex -157.426 -82.5192 9
      vertex -157.721 -83.6192 9
      vertex -129.904 -150 9
    endloop
  endfacet
  facet normal 0 -0 1
    outer loop
      vertex 5 -25 9
      vertex 0 -25 9
      vertex 129.904 -150 9
    endloop
  endfacet
  facet normal -0 -0 1
    outer loop
      vertex 0 -25 9
      vertex -150 5 9
      vertex 80 -105 9
    endloop
  endfacet
  facet normal -0 -0 1
    outer loop
      vertex -10 5 9
      vertex -150 5 9
      vertex 0 -25 9
    endloop
  endfacet
  facet normal -0 0 1
    outer loop
      vertex 28.0947 143.1 9
      vertex 28.9 143.905 9
      vertex -27.8 142 9
    endloop
  endfacet
  facet normal 0 0 1
    outer loop
      vertex 28.0947 143.1 9
      vertex -27.8 142 9
      vertex -28.0947 140.9 9
    endloop
  endfacet
  facet normal 0 0 1
    outer loop
      vertex 31.9053 143.1 9
      vertex 32.2 142 9
      vertex 175 150 9
    endloop
  endfacet
  facet normal 0 0 1
    outer loop
      vertex 0 -25 9
      vertex -10 10 9
      vertex -10 5 9
    endloop
  endfacet
  facet normal 0 0 1
    outer loop
      vertex -10 10 9
      vertex -31.9053 140.9 9
      vertex -175 150 9
    endloop
  endfacet
  facet normal 0 0 1
    outer loop
      vertex 0 -25 9
      vertex -31.9053 140.9 9
      vertex -10 10 9
    endloop
  endfacet
  facet normal 0 0 1
    outer loop
      vertex 0 -25 9
      vertex -31.1 140.095 9
      vertex -31.9053 140.9 9
    endloop
  endfacet
  facet normal 0 0 1
    outer loop
      vertex 0 -25 9
      vertex -30 139.8 9
      vertex -31.1 140.095 9
    endloop
  endfacet
  facet normal 0 0 1
    outer loop
      vertex 0 -25 9
      vertex -28.9 140.095 9
      vertex -30 139.8 9
    endloop
  endfacet
  facet normal 0 0 1
    outer loop
      vertex 0 -25 9
      vertex -28.0947 140.9 9
      vertex -28.9 140.095 9
    endloop
  endfacet
  facet normal 0 0 1
    outer loop
      vertex 0 -25 9
      vertex 0 115 9
      vertex -28.0947 140.9 9
    endloop
  endfacet
  facet normal 0 -1 0
    outer loop
      vertex -129.904 -150 9
      vertex -129.904 -150 0
      vertex 129.904 -150 0
    endloop
  endfacet
  facet normal 0 -1 0
    outer loop
      vertex 129.904 -150 9
      vertex -129.904 -150 9
      vertex 129.904 -150 0
    endloop
  endfacet
  facet normal 0.866025 -0.5 0
    outer loop
      vertex 129.904 -150 9
      vertex 129.904 -150 0
      vertex 175 -71.8911 0
    endloop
  endfacet
  facet normal 0.866025 -0.5 0
    outer loop
      vertex 175 -71.8911 9
      vertex 129.904 -150 9
      vertex 175 -71.8911 0
    endloop
  endfacet
  facet normal 1 0 -0
    outer loop
      vertex 175 -71.8911 9
      vertex 175 -71.8911 0
      vertex 175 150 0
    endloop
  endfacet
  facet normal 1 0 0
    outer loop
      vertex 175 150 9
      vertex 175 -71.8911 9
      vertex 175 150 0
    endloop
  endfacet
  facet normal 0.707107 -0.707107 0
    outer loop
      vertex -160.726 -80.614 0
      vertex -160.726 -80.614 9
      vertex -161.531 -81.4192 9
    endloop
  endfacet
  facet normal 0.707107 -0.707107 0
    outer loop
      vertex -161.531 -81.4192 0
      vertex -160.726 -80.614 0
      vertex -161.531 -81.4192 9
    endloop
  endfacet
  facet normal 0.965926 -0.258819 0
    outer loop
      vertex -161.531 -81.4192 0
      vertex -161.531 -81.4192 9
      vertex -161.826 -82.5192 9
    endloop
  endfacet
  facet normal 0.965926 -0.258819 0
    outer loop
      vertex -161.826 -82.5192 0
      vertex -161.531 -81.4192 0
      vertex -161.826 -82.5192 9
    endloop
  endfacet
  facet normal 0.258819 -0.965926 0
    outer loop
      vertex -159.626 -80.3192 0
      vertex -159.626 -80.3192 9
      vertex -160.726 -80.614 9
    endloop
  endfacet
  facet normal 0.258819 -0.965926 0
    outer loop
      vertex -160.726 -80.614 0
      vertex -159.626 -80.3192 0
      vertex -160.726 -80.614 9
    endloop
  endfacet
  facet normal -0.258819 -0.965926 -0
    outer loop
      vertex -158.526 -80.614 0
      vertex -158.526 -80.614 9
      vertex -159.626 -80.3192 9
    endloop
  endfacet
  facet normal -0.258819 -0.965926 -0
    outer loop
      vertex -159.626 -80.3192 0
      vertex -158.526 -80.614 0
      vertex -159.626 -80.3192 9
    endloop
  endfacet
  facet normal -0.707107 -0.707107 0
    outer loop
      vertex -157.721 -81.4192 9
      vertex -158.526 -80.614 9
      vertex -157.721 -81.4192 0
    endloop
  endfacet
  facet normal -0.707107 -0.707107 0
    outer loop
      vertex -157.721 -81.4192 0
      vertex -158.526 -80.614 9
      vertex -158.526 -80.614 0
    endloop
  endfacet
  facet normal -0.965926 -0.258819 0
    outer loop
      vertex -157.426 -82.5192 9
      vertex -157.721 -81.4192 9
      vertex -157.426 -82.5192 0
    endloop
  endfacet
  facet normal -0.965926 -0.258819 0
    outer loop
      vertex -157.426 -82.5192 0
      vertex -157.721 -81.4192 9
      vertex -157.721 -81.4192 0
    endloop
  endfacet
  facet normal -0.965926 0.258819 0
    outer loop
      vertex -157.426 -82.5192 9
      vertex -157.426 -82.5192 0
      vertex -157.721 -83.6192 9
    endloop
  endfacet
  facet normal -0.965926 0.258819 0
    outer loop
      vertex -157.721 -83.6192 9
      vertex -157.426 -82.5192 0
      vertex -157.721 -83.6192 0
    endloop
  endfacet
  facet normal -0.707107 0.707107 0
    outer loop
      vertex -157.721 -83.6192 9
      vertex -157.721 -83.6192 0
      vertex -158.526 -84.4245 9
    endloop
  endfacet
  facet normal -0.707107 0.707107 0
    outer loop
      vertex -158.526 -84.4245 9
      vertex -157.721 -83.6192 0
      vertex -158.526 -84.4245 0
    endloop
  endfacet
  facet normal -0.258819 0.965926 0
    outer loop
      vertex -158.526 -84.4245 9
      vertex -158.526 -84.4245 0
      vertex -159.626 -84.7192 9
    endloop
  endfacet
  facet normal -0.258819 0.965926 0
    outer loop
      vertex -159.626 -84.7192 9
      vertex -158.526 -84.4245 0
      vertex -159.626 -84.7192 0
    endloop
  endfacet
  facet normal 0.258819 0.965926 -0
    outer loop
      vertex -159.626 -84.7192 9
      vertex -159.626 -84.7192 0
      vertex -160.726 -84.4245 9
    endloop
  endfacet
  facet normal 0.258819 0.965926 -0
    outer loop
      vertex -160.726 -84.4245 9
      vertex -159.626 -84.7192 0
      vertex -160.726 -84.4245 0
    endloop
  endfacet
  facet normal 0.707107 0.707107 0
    outer loop
      vertex -161.531 -83.6192 9
      vertex -160.726 -84.4245 9
      vertex -160.726 -84.4245 0
    endloop
  endfacet
  facet normal 0.707107 0.707107 0
    outer loop
      vertex -161.531 -83.6192 0
      vertex -161.531 -83.6192 9
      vertex -160.726 -84.4245 0
    endloop
  endfacet
  facet normal 0.965926 0.258819 0
    outer loop
      vertex -161.826 -82.5192 9
      vertex -161.531 -83.6192 9
      vertex -161.531 -83.6192 0
    endloop
  endfacet
  facet normal 0.965926 0.258819 0
    outer loop
      vertex -161.826 -82.5192 0
      vertex -161.826 -82.5192 9
      vertex -161.531 -83.6192 0
    endloop
  endfacet
  facet normal 1 0 0
    outer loop
      vertex -150 10 0
      vertex -150 10 9
      vertex -150 5 9
    endloop
  endfacet
  facet normal 1 0 0
    outer loop
      vertex -150 5 0
      vertex -150 10 0
      vertex -150 5 9
    endloop
  endfacet
  facet normal -2.157e-16 -1 -0
    outer loop
      vertex -10 10 0
      vertex -10 10 9
      vertex -150 10 9
    endloop
  endfacet
  facet normal -2.157e-16 -1 -0
    outer loop
      vertex -150 10 0
      vertex -10 10 0
      vertex -150 10 9
    endloop
  endfacet
  facet normal -1 3.55271e-16 0
    outer loop
      vertex -10 10 9
      vertex -10 10 0
      vertex -10 5 9
    endloop
  endfacet
  facet normal -1 3.55271e-16 0
    outer loop
      vertex -10 5 9
      vertex -10 10 0
      vertex -10 5 0
    endloop
  endfacet
  facet normal 2.22045e-16 1 -0
    outer loop
      vertex -10 5 9
      vertex -10 5 0
      vertex -150 5 9
    endloop
  endfacet
  facet normal 2.22045e-16 1 -0
    outer loop
      vertex -150 5 9
      vertex -10 5 0
      vertex -150 5 0
    endloop
  endfacet
  facet normal 0.707107 -0.707107 0
    outer loop
      vertex -130.726 -132.576 0
      vertex -130.726 -132.576 9
      vertex -131.531 -133.381 9
    endloop
  endfacet
  facet normal 0.707107 -0.707107 0
    outer loop
      vertex -131.531 -133.381 0
      vertex -130.726 -132.576 0
      vertex -131.531 -133.381 9
    endloop
  endfacet
  facet normal 0.965926 -0.258819 0
    outer loop
      vertex -131.531 -133.381 0
      vertex -131.531 -133.381 9
      vertex -131.826 -134.481 9
    endloop
  endfacet
  facet normal 0.965926 -0.258819 0
    outer loop
      vertex -131.826 -134.481 0
      vertex -131.531 -133.381 0
      vertex -131.826 -134.481 9
    endloop
  endfacet
  facet normal 0.258819 -0.965926 0
    outer loop
      vertex -129.626 -132.281 0
      vertex -129.626 -132.281 9
      vertex -130.726 -132.576 9
    endloop
  endfacet
  facet normal 0.258819 -0.965926 0
    outer loop
      vertex -130.726 -132.576 0
      vertex -129.626 -132.281 0
      vertex -130.726 -132.576 9
    endloop
  endfacet
  facet normal -0.258819 -0.965926 -0
    outer loop
      vertex -128.526 -132.576 0
      vertex -128.526 -132.576 9
      vertex -129.626 -132.281 9
    endloop
  endfacet
  facet normal -0.258819 -0.965926 -0
    outer loop
      vertex -129.626 -132.281 0
      vertex -128.526 -132.576 0
      vertex -129.626 -132.281 9
    endloop
  endfacet
  facet normal -0.707107 -0.707107 0
    outer loop
      vertex -127.721 -133.381 9
      vertex -128.526 -132.576 9
      vertex -127.721 -133.381 0
    endloop
  endfacet
  facet normal -0.707107 -0.707107 0
    outer loop
      vertex -127.721 -133.381 0
      vertex -128.526 -132.576 9
      vertex -128.526 -132.576 0
    endloop
  endfacet
  facet normal -0.965926 -0.258819 0
    outer loop
      vertex -127.426 -134.481 9
      vertex -127.721 -133.381 9
      vertex -127.426 -134.481 0
    endloop
  endfacet
  facet normal -0.965926 -0.258819 0
    outer loop
      vertex -127.426 -134.481 0
      vertex -127.721 -133.381 9
      vertex -127.721 -133.381 0
    endloop
  endfacet
  facet normal -0.965926 0.258819 0
    outer loop
      vertex -127.426 -134.481 9
      vertex -127.426 -134.481 0
      vertex -127.721 -135.581 9
    endloop
  endfacet
  facet normal -0.965926 0.258819 0
    outer loop
      vertex -127.721 -135.581 9
      vertex -127.426 -134.481 0
      vertex -127.721 -135.581 0
    endloop
  endfacet
  facet normal -0.707107 0.707107 0
    outer loop
      vertex -127.721 -135.581 9
      vertex -127.721 -135.581 0
      vertex -128.526 -136.386 9
    endloop
  endfacet
  facet normal -0.707107 0.707107 0
    outer loop
      vertex -128.526 -136.386 9
      vertex -127.721 -135.581 0
      vertex -128.526 -136.386 0
    endloop
  endfacet
  facet normal -0.258819 0.965926 0
    outer loop
      vertex -128.526 -136.386 9
      vertex -128.526 -136.386 0
      vertex -129.626 -136.681 9
    endloop
  endfacet
  facet normal -0.258819 0.965926 0
    outer loop
      vertex -129.626 -136.681 9
      vertex -128.526 -136.386 0
      vertex -129.626 -136.681 0
    endloop
  endfacet
  facet normal 0.258819 0.965926 -0
    outer loop
      vertex -129.626 -136.681 9
      vertex -129.626 -136.681 0
      vertex -130.726 -136.386 9
    endloop
  endfacet
  facet normal 0.258819 0.965926 -0
    outer loop
      vertex -130.726 -136.386 9
      vertex -129.626 -136.681 0
      vertex -130.726 -136.386 0
    endloop
  endfacet
  facet normal 0.707107 0.707107 0
    outer loop
      vertex -131.531 -135.581 9
      vertex -130.726 -136.386 9
      vertex -130.726 -136.386 0
    endloop
  endfacet
  facet normal 0.707107 0.707107 0
    outer loop
      vertex -131.531 -135.581 0
      vertex -131.531 -135.581 9
      vertex -130.726 -136.386 0
    endloop
  endfacet
  facet normal 0.965926 0.258819 0
    outer loop
      vertex -131.826 -134.481 9
      vertex -131.531 -135.581 9
      vertex -131.531 -135.581 0
    endloop
  endfacet
  facet normal 0.965926 0.258819 0
    outer loop
      vertex -131.826 -134.481 0
      vertex -131.826 -134.481 9
      vertex -131.531 -135.581 0
    endloop
  endfacet
  facet normal 1 -5.68434e-16 0
    outer loop
      vertex -80 -105 0
      vertex -80 -105 9
      vertex -80 -130 9
    endloop
  endfacet
  facet normal 1 -5.68434e-16 0
    outer loop
      vertex -80 -130 0
      vertex -80 -105 0
      vertex -80 -130 9
    endloop
  endfacet
  facet normal -2.66454e-16 -1 -0
    outer loop
      vertex 80 -105 0
      vertex 80 -105 9
      vertex -80 -105 9
    endloop
  endfacet
  facet normal -2.66454e-16 -1 -0
    outer loop
      vertex -80 -105 0
      vertex 80 -105 0
      vertex -80 -105 9
    endloop
  endfacet
  facet normal -1 5.68434e-16 0
    outer loop
      vertex 80 -105 9
      vertex 80 -105 0
      vertex 80 -130 9
    endloop
  endfacet
  facet normal -1 5.68434e-16 0
    outer loop
      vertex 80 -130 9
      vertex 80 -105 0
      vertex 80 -130 0
    endloop
  endfacet
  facet normal 1.77636e-16 1 -0
    outer loop
      vertex 80 -130 9
      vertex 80 -130 0
      vertex -80 -130 9
    endloop
  endfacet
  facet normal 1.77636e-16 1 -0
    outer loop
      vertex -80 -130 9
      vertex 80 -130 0
      vertex -80 -130 0
    endloop
  endfacet
  facet normal 0.965926 -0.258819 0
    outer loop
      vertex -31.9053 143.1 0
      vertex -31.9053 143.1 9
      vertex -32.2 142 9
    endloop
  endfacet
  facet normal 0.965926 -0.258819 0
    outer loop
      vertex -32.2 142 0
      vertex -31.9053 143.1 0
      vertex -32.2 142 9
    endloop
  endfacet
  facet normal 0.965926 0.258819 0
    outer loop
      vertex -32.2 142 9
      vertex -31.9053 140.9 9
      vertex -31.9053 140.9 0
    endloop
  endfacet
  facet normal 0.965926 0.258819 0
    outer loop
      vertex -32.2 142 0
      vertex -32.2 142 9
      vertex -31.9053 140.9 0
    endloop
  endfacet
  facet normal 0.707107 -0.707107 0
    outer loop
      vertex -31.1 143.905 0
      vertex -31.1 143.905 9
      vertex -31.9053 143.1 9
    endloop
  endfacet
  facet normal 0.707107 -0.707107 0
    outer loop
      vertex -31.9053 143.1 0
      vertex -31.1 143.905 0
      vertex -31.9053 143.1 9
    endloop
  endfacet
  facet normal 0.258819 -0.965926 0
    outer loop
      vertex -30 144.2 0
      vertex -30 144.2 9
      vertex -31.1 143.905 9
    endloop
  endfacet
  facet normal 0.258819 -0.965926 0
    outer loop
      vertex -31.1 143.905 0
      vertex -30 144.2 0
      vertex -31.1 143.905 9
    endloop
  endfacet
  facet normal -0.258819 -0.965926 -0
    outer loop
      vertex -28.9 143.905 0
      vertex -28.9 143.905 9
      vertex -30 144.2 9
    endloop
  endfacet
  facet normal -0.258819 -0.965926 -0
    outer loop
      vertex -30 144.2 0
      vertex -28.9 143.905 0
      vertex -30 144.2 9
    endloop
  endfacet
  facet normal -0.707107 -0.707107 -0
    outer loop
      vertex -28.0947 143.1 0
      vertex -28.0947 143.1 9
      vertex -28.9 143.905 9
    endloop
  endfacet
  facet normal -0.707107 -0.707107 -0
    outer loop
      vertex -28.9 143.905 0
      vertex -28.0947 143.1 0
      vertex -28.9 143.905 9
    endloop
  endfacet
  facet normal -0.965926 -0.258819 0
    outer loop
      vertex -27.8 142 9
      vertex -28.0947 143.1 9
      vertex -27.8 142 0
    endloop
  endfacet
  facet normal -0.965926 -0.258819 0
    outer loop
      vertex -27.8 142 0
      vertex -28.0947 143.1 9
      vertex -28.0947 143.1 0
    endloop
  endfacet
  facet normal -0.965926 0.258819 0
    outer loop
      vertex -27.8 142 9
      vertex -27.8 142 0
      vertex -28.0947 140.9 9
    endloop
  endfacet
  facet normal -0.965926 0.258819 0
    outer loop
      vertex -28.0947 140.9 9
      vertex -27.8 142 0
      vertex -28.0947 140.9 0
    endloop
  endfacet
  facet normal -0.707107 0.707107 0
    outer loop
      vertex -28.0947 140.9 9
      vertex -28.0947 140.9 0
      vertex -28.9 140.095 9
    endloop
  endfacet
  facet normal -0.707107 0.707107 0
    outer loop
      vertex -28.9 140.095 9
      vertex -28.0947 140.9 0
      vertex -28.9 140.095 0
    endloop
  endfacet
  facet normal -0.258819 0.965926 0
    outer loop
      vertex -28.9 140.095 9
      vertex -28.9 140.095 0
      vertex -30 139.8 9
    endloop
  endfacet
  facet normal -0.258819 0.965926 0
    outer loop
      vertex -30 139.8 9
      vertex -28.9 140.095 0
      vertex -30 139.8 0
    endloop
  endfacet
  facet normal 0.258819 0.965926 -0
    outer loop
      vertex -30 139.8 9
      vertex -30 139.8 0
      vertex -31.1 140.095 9
    endloop
  endfacet
  facet normal 0.258819 0.965926 -0
    outer loop
      vertex -31.1 140.095 9
      vertex -30 139.8 0
      vertex -31.1 140.095 0
    endloop
  endfacet
  facet normal 0.707107 0.707107 -0
    outer loop
      vertex -31.1 140.095 9
      vertex -31.1 140.095 0
      vertex -31.9053 140.9 9
    endloop
  endfacet
  facet normal 0.707107 0.707107 -0
    outer loop
      vertex -31.9053 140.9 9
      vertex -31.1 140.095 0
      vertex -31.9053 140.9 0
    endloop
  endfacet
  facet normal 1 0 0
    outer loop
      vertex 0 115 0
      vertex 0 115 9
      vertex 0 -25 9
    endloop
  endfacet
  facet normal 1 0 0
    outer loop
      vertex 0 -25 0
      vertex 0 115 0
      vertex 0 -25 9
    endloop
  endfacet
  facet normal 0 -1 0
    outer loop
      vertex 5 115 0
      vertex 5 115 9
      vertex 0 115 9
    endloop
  endfacet
  facet normal -0 -1 -0
    outer loop
      vertex 0 115 0
      vertex 5 115 0
      vertex 0 115 9
    endloop
  endfacet
  facet normal -1 0 0
    outer loop
      vertex 5 115 9
      vertex 5 115 0
      vertex 5 -25 9
    endloop
  endfacet
  facet normal -1 0 0
    outer loop
      vertex 5 -25 9
      vertex 5 115 0
      vertex 5 -25 0
    endloop
  endfacet
  facet normal 0 1 0
    outer loop
      vertex 5 -25 9
      vertex 5 -25 0
      vertex 0 -25 9
    endloop
  endfacet
  facet normal 0 1 -0
    outer loop
      vertex 0 -25 9
      vertex 5 -25 0
      vertex 0 -25 0
    endloop
  endfacet
  facet normal 0.965926 0.258819 0
    outer loop
      vertex 27.8 142 9
      vertex 28.0947 140.9 9
      vertex 28.0947 140.9 0
    endloop
  endfacet
  facet normal 0.965926 0.258819 0
    outer loop
      vertex 27.8 142 0
      vertex 27.8 142 9
      vertex 28.0947 140.9 0
    endloop
  endfacet
  facet normal 0.965926 -0.258819 0
    outer loop
      vertex 28.0947 143.1 0
      vertex 28.0947 143.1 9
      vertex 27.8 142 9
    endloop
  endfacet
  facet normal 0.965926 -0.258819 0
    outer loop
      vertex 27.8 142 0
      vertex 28.0947 143.1 0
      vertex 27.8 142 9
    endloop
  endfacet
  facet normal 0.707107 -0.707107 0
    outer loop
      vertex 28.9 143.905 0
      vertex 28.9 143.905 9
      vertex 28.0947 143.1 9
    endloop
  endfacet
  facet normal 0.707107 -0.707107 0
    outer loop
      vertex 28.0947 143.1 0
      vertex 28.9 143.905 0
      vertex 28.0947 143.1 9
    endloop
  endfacet
  facet normal 0.258819 -0.965926 0
    outer loop
      vertex 30 144.2 0
      vertex 30 144.2 9
      vertex 28.9 143.905 9
    endloop
  endfacet
  facet normal 0.258819 -0.965926 0
    outer loop
      vertex 28.9 143.905 0
      vertex 30 144.2 0
      vertex 28.9 143.905 9
    endloop
  endfacet
  facet normal -0.258819 -0.965926 -0
    outer loop
      vertex 31.1 143.905 0
      vertex 31.1 143.905 9
      vertex 30 144.2 9
    endloop
  endfacet
  facet normal -0.258819 -0.965926 -0
    outer loop
      vertex 30 144.2 0
      vertex 31.1 143.905 0
      vertex 30 144.2 9
    endloop
  endfacet
  facet normal -0.707107 -0.707107 -0
    outer loop
      vertex 31.9053 143.1 0
      vertex 31.9053 143.1 9
      vertex 31.1 143.905 9
    endloop
  endfacet
  facet normal -0.707107 -0.707107 -0
    outer loop
      vertex 31.1 143.905 0
      vertex 31.9053 143.1 0
      vertex 31.1 143.905 9
    endloop
  endfacet
  facet normal -0.965926 -0.258819 0
    outer loop
      vertex 32.2 142 9
      vertex 31.9053 143.1 9
      vertex 32.2 142 0
    endloop
  endfacet
  facet normal -0.965926 -0.258819 0
    outer loop
      vertex 32.2 142 0
      vertex 31.9053 143.1 9
      vertex 31.9053 143.1 0
    endloop
  endfacet
  facet normal -0.965926 0.258819 0
    outer loop
      vertex 32.2 142 9
      vertex 32.2 142 0
      vertex 31.9053 140.9 9
    endloop
  endfacet
  facet normal -0.965926 0.258819 0
    outer loop
      vertex 31.9053 140.9 9
      vertex 32.2 142 0
      vertex 31.9053 140.9 0
    endloop
  endfacet
  facet normal -0.707107 0.707107 0
    outer loop
      vertex 31.9053 140.9 9
      vertex 31.9053 140.9 0
      vertex 31.1 140.095 9
    endloop
  endfacet
  facet normal -0.707107 0.707107 0
    outer loop
      vertex 31.1 140.095 9
      vertex 31.9053 140.9 0
      vertex 31.1 140.095 0
    endloop
  endfacet
  facet normal -0.258819 0.965926 0
    outer loop
      vertex 31.1 140.095 9
      vertex 31.1 140.095 0
      vertex 30 139.8 9
    endloop
  endfacet
  facet normal -0.258819 0.965926 0
    outer loop
      vertex 30 139.8 9
      vertex 31.1 140.095 0
      vertex 30 139.8 0
    endloop
  endfacet
  facet normal 0.258819 0.965926 -0
    outer loop
      vertex 30 139.8 9
      vertex 30 139.8 0
      vertex 28.9 140.095 9
    endloop
  endfacet
  facet normal 0.258819 0.965926 -0
    outer loop
      vertex 28.9 140.095 9
      vertex 30 139.8 0
      vertex 28.9 140.095 0
    endloop
  endfacet
  facet normal 0.707107 0.707107 -0
    outer loop
      vertex 28.9 140.095 9
      vertex 28.9 140.095 0
      vertex 28.0947 140.9 9
    endloop
  endfacet
  facet normal 0.707107 0.707107 -0
    outer loop
      vertex 28.0947 140.9 9
      vertex 28.9 140.095 0
      vertex 28.0947 140.9 0
    endloop
  endfacet
  facet normal 1 0 0
    outer loop
      vertex 125 135 0
      vertex 125 135 9
      vertex 125 -35 9
    endloop
  endfacet
  facet normal 1 0 0
    outer loop
      vertex 125 -35 0
      vertex 125 135 0
      vertex 125 -35 9
    endloop
  endfacet
  facet normal 0 -1 0
    outer loop
      vertex 150 135 0
      vertex 150 135 9
      vertex 125 135 9
    endloop
  endfacet
  facet normal -0 -1 -0
    outer loop
      vertex 125 135 0
      vertex 150 135 0
      vertex 125 135 9
    endloop
  endfacet
  facet normal -1 0 0
    outer loop
      vertex 150 135 9
      vertex 150 135 0
      vertex 150 -35 9
    endloop
  endfacet
  facet normal -1 0 0
    outer loop
      vertex 150 -35 9
      vertex 150 135 0
      vertex 150 -35 0
    endloop
  endfacet
  facet normal 0 1 0
    outer loop
      vertex 150 -35 9
      vertex 150 -35 0
      vertex 125 -35 9
    endloop
  endfacet
  facet normal 0 1 -0
    outer loop
      vertex 125 -35 9
      vertex 150 -35 0
      vertex 125 -35 0
    endloop
  endfacet
  facet normal 0.965926 -0.258819 0
    outer loop
      vertex 127.721 -133.381 0
      vertex 127.721 -133.381 9
      vertex 127.426 -134.481 9
    endloop
  endfacet
  facet normal 0.965926 -0.258819 0
    outer loop
      vertex 127.426 -134.481 0
      vertex 127.721 -133.381 0
      vertex 127.426 -134.481 9
    endloop
  endfacet
  facet normal 0.965926 0.258819 0
    outer loop
      vertex 127.426 -134.481 9
      vertex 127.721 -135.581 9
      vertex 127.721 -135.581 0
    endloop
  endfacet
  facet normal 0.965926 0.258819 0
    outer loop
      vertex 127.426 -134.481 0
      vertex 127.426 -134.481 9
      vertex 127.721 -135.581 0
    endloop
  endfacet
  facet normal 0.707107 -0.707107 0
    outer loop
      vertex 128.526 -132.576 0
      vertex 128.526 -132.576 9
      vertex 127.721 -133.381 9
    endloop
  endfacet
  facet normal 0.707107 -0.707107 0
    outer loop
      vertex 127.721 -133.381 0
      vertex 128.526 -132.576 0
      vertex 127.721 -133.381 9
    endloop
  endfacet
  facet normal 0.258819 -0.965926 0
    outer loop
      vertex 129.626 -132.281 0
      vertex 129.626 -132.281 9
      vertex 128.526 -132.576 9
    endloop
  endfacet
  facet normal 0.258819 -0.965926 0
    outer loop
      vertex 128.526 -132.576 0
      vertex 129.626 -132.281 0
      vertex 128.526 -132.576 9
    endloop
  endfacet
  facet normal -0.258819 -0.965926 -0
    outer loop
      vertex 130.726 -132.576 0
      vertex 130.726 -132.576 9
      vertex 129.626 -132.281 9
    endloop
  endfacet
  facet normal -0.258819 -0.965926 -0
    outer loop
      vertex 129.626 -132.281 0
      vertex 130.726 -132.576 0
      vertex 129.626 -132.281 9
    endloop
  endfacet
  facet normal -0.707107 -0.707107 -0
    outer loop
      vertex 131.531 -133.381 0
      vertex 131.531 -133.381 9
      vertex 130.726 -132.576 9
    endloop
  endfacet
  facet normal -0.707107 -0.707107 -0
    outer loop
      vertex 130.726 -132.576 0
      vertex 131.531 -133.381 0
      vertex 130.726 -132.576 9
    endloop
  endfacet
  facet normal -0.965926 -0.258819 0
    outer loop
      vertex 131.826 -134.481 9
      vertex 131.531 -133.381 9
      vertex 131.826 -134.481 0
    endloop
  endfacet
  facet normal -0.965926 -0.258819 0
    outer loop
      vertex 131.826 -134.481 0
      vertex 131.531 -133.381 9
      vertex 131.531 -133.381 0
    endloop
  endfacet
  facet normal -0.965926 0.258819 0
    outer loop
      vertex 131.826 -134.481 9
      vertex 131.826 -134.481 0
      vertex 131.531 -135.581 9
    endloop
  endfacet
  facet normal -0.965926 0.258819 0
    outer loop
      vertex 131.531 -135.581 9
      vertex 131.826 -134.481 0
      vertex 131.531 -135.581 0
    endloop
  endfacet
  facet normal -0.707107 0.707107 0
    outer loop
      vertex 131.531 -135.581 9
      vertex 131.531 -135.581 0
      vertex 130.726 -136.386 9
    endloop
  endfacet
  facet normal -0.707107 0.707107 0
    outer loop
      vertex 130.726 -136.386 9
      vertex 131.531 -135.581 0
      vertex 130.726 -136.386 0
    endloop
  endfacet
  facet normal -0.258819 0.965926 0
    outer loop
      vertex 130.726 -136.386 9
      vertex 130.726 -136.386 0
      vertex 129.626 -136.681 9
    endloop
  endfacet
  facet normal -0.258819 0.965926 0
    outer loop
      vertex 129.626 -136.681 9
      vertex 130.726 -136.386 0
      vertex 129.626 -136.681 0
    endloop
  endfacet
  facet normal 0.258819 0.965926 -0
    outer loop
      vertex 129.626 -136.681 9
      vertex 129.626 -136.681 0
      vertex 128.526 -136.386 9
    endloop
  endfacet
  facet normal 0.258819 0.965926 -0
    outer loop
      vertex 128.526 -136.386 9
      vertex 129.626 -136.681 0
      vertex 128.526 -136.386 0
    endloop
  endfacet
  facet normal 0.707107 0.707107 -0
    outer loop
      vertex 128.526 -136.386 9
      vertex 128.526 -136.386 0
      vertex 127.721 -135.581 9
    endloop
  endfacet
  facet normal 0.707107 0.707107 -0
    outer loop
      vertex 127.721 -135.581 9
      vertex 128.526 -136.386 0
      vertex 127.721 -135.581 0
    endloop
  endfacet
  facet normal 0.965926 -0.258819 0
    outer loop
      vertex 157.721 -81.4192 0
      vertex 157.721 -81.4192 9
      vertex 157.426 -82.5192 9
    endloop
  endfacet
  facet normal 0.965926 -0.258819 0
    outer loop
      vertex 157.426 -82.5192 0
      vertex 157.721 -81.4192 0
      vertex 157.426 -82.5192 9
    endloop
  endfacet
  facet normal 0.965926 0.258819 0
    outer loop
      vertex 157.426 -82.5192 9
      vertex 157.721 -83.6192 9
      vertex 157.721 -83.6192 0
    endloop
  endfacet
  facet normal 0.965926 0.258819 0
    outer loop
      vertex 157.426 -82.5192 0
      vertex 157.426 -82.5192 9
      vertex 157.721 -83.6192 0
    endloop
  endfacet
  facet normal 0.707107 -0.707107 0
    outer loop
      vertex 158.526 -80.614 0
      vertex 158.526 -80.614 9
      vertex 157.721 -81.4192 9
    endloop
  endfacet
  facet normal 0.707107 -0.707107 0
    outer loop
      vertex 157.721 -81.4192 0
      vertex 158.526 -80.614 0
      vertex 157.721 -81.4192 9
    endloop
  endfacet
  facet normal 0.258819 -0.965926 0
    outer loop
      vertex 159.626 -80.3192 0
      vertex 159.626 -80.3192 9
      vertex 158.526 -80.614 9
    endloop
  endfacet
  facet normal 0.258819 -0.965926 0
    outer loop
      vertex 158.526 -80.614 0
      vertex 159.626 -80.3192 0
      vertex 158.526 -80.614 9
    endloop
  endfacet
  facet normal -0.258819 -0.965926 -0
    outer loop
      vertex 160.726 -80.614 0
      vertex 160.726 -80.614 9
      vertex 159.626 -80.3192 9
    endloop
  endfacet
  facet normal -0.258819 -0.965926 -0
    outer loop
      vertex 159.626 -80.3192 0
      vertex 160.726 -80.614 0
      vertex 159.626 -80.3192 9
    endloop
  endfacet
  facet normal -0.707107 -0.707107 -0
    outer loop
      vertex 161.531 -81.4192 0
      vertex 161.531 -81.4192 9
      vertex 160.726 -80.614 9
    endloop
  endfacet
  facet normal -0.707107 -0.707107 -0
    outer loop
      vertex 160.726 -80.614 0
      vertex 161.531 -81.4192 0
      vertex 160.726 -80.614 9
    endloop
  endfacet
  facet normal -0.965926 -0.258819 0
    outer loop
      vertex 161.826 -82.5192 9
      vertex 161.531 -81.4192 9
      vertex 161.826 -82.5192 0
    endloop
  endfacet
  facet normal -0.965926 -0.258819 0
    outer loop
      vertex 161.826 -82.5192 0
      vertex 161.531 -81.4192 9
      vertex 161.531 -81.4192 0
    endloop
  endfacet
  facet normal -0.965926 0.258819 0
    outer loop
      vertex 161.826 -82.5192 9
      vertex 161.826 -82.5192 0
      vertex 161.531 -83.6192 9
    endloop
  endfacet
  facet normal -0.965926 0.258819 0
    outer loop
      vertex 161.531 -83.6192 9
      vertex 161.826 -82.5192 0
      vertex 161.531 -83.6192 0
    endloop
  endfacet
  facet normal -0.707107 0.707107 0
    outer loop
      vertex 161.531 -83.6192 9
      vertex 161.531 -83.6192 0
      vertex 160.726 -84.4245 9
    endloop
  endfacet
  facet normal -0.707107 0.707107 0
    outer loop
      vertex 160.726 -84.4245 9
      vertex 161.531 -83.6192 0
      vertex 160.726 -84.4245 0
    endloop
  endfacet
  facet normal -0.258819 0.965926 0
    outer loop
      vertex 160.726 -84.4245 9
      vertex 160.726 -84.4245 0
      vertex 159.626 -84.7192 9
    endloop
  endfacet
  facet normal -0.258819 0.965926 0
    outer loop
      vertex 159.626 -84.7192 9
      vertex 160.726 -84.4245 0
      vertex 159.626 -84.7192 0
    endloop
  endfacet
  facet normal 0.258819 0.965926 -0
    outer loop
      vertex 159.626 -84.7192 9
      vertex 159.626 -84.7192 0
      vertex 158.526 -84.4245 9
    endloop
  endfacet
  facet normal 0.258819 0.965926 -0
    outer loop
      vertex 158.526 -84.4245 9
      vertex 159.626 -84.7192 0
      vertex 158.526 -84.4245 0
    endloop
  endfacet
  facet normal 0.707107 0.707107 -0
    outer loop
      vertex 158.526 -84.4245 9
      vertex 158.526 -84.4245 0
      vertex 157.721 -83.6192 9
    endloop
  endfacet
  facet normal 0.707107 0.707107 -0
    outer loop
      vertex 157.721 -83.6192 9
      vertex 158.526 -84.4245 0
      vertex 157.721 -83.6192 0
    endloop
  endfacet
endsolid OpenSCAD_Model
