solid OpenSCAD_Model
  facet normal 0 -1 0
    outer loop
      vertex 0 0 3
      vertex 0 0 0
      vertex 100 0 0
    endloop
  endfacet
  facet normal 0 -1 0
    outer loop
      vertex 100 0 3
      vertex 0 0 3
      vertex 100 0 0
    endloop
  endfacet
  facet normal 0 0 -1
    outer loop
      vertex 100 20 0
      vertex 100 0 0
      vertex 20 20 0
    endloop
  endfacet
  facet normal 0 -0 -1
    outer loop
      vertex 0 0 0
      vertex 0 100 0
      vertex 20 20 0
    endloop
  endfacet
  facet normal -0 0 -1
    outer loop
      vertex 0 0 0
      vertex 20 20 0
      vertex 100 0 0
    endloop
  endfacet
  facet normal 0 0 -1
    outer loop
      vertex 20 20 0
      vertex 0 100 0
      vertex 20 100 0
    endloop
  endfacet
  facet normal -1 -0 -0
    outer loop
      vertex 0 0 0
      vertex 0 0 3
      vertex 0 100 0
    endloop
  endfacet
  facet normal -1 0 0
    outer loop
      vertex 0 100 0
      vertex 0 0 3
      vertex 0 100 3
    endloop
  endfacet
  facet normal 0 -0 1
    outer loop
      vertex 20 20 3
      vertex 0 0 3
      vertex 100 0 3
    endloop
  endfacet
  facet normal 0 0 1
    outer loop
      vertex 20 20 3
      vertex 20 100 3
      vertex 0 100 3
    endloop
  endfacet
  facet normal 0 -0 1
    outer loop
      vertex 0 100 3
      vertex 0 0 3
      vertex 20 20 3
    endloop
  endfacet
  facet normal 0 0 1
    outer loop
      vertex 100 20 3
      vertex 20 20 3
      vertex 100 0 3
    endloop
  endfacet
  facet normal 1 0 -0
    outer loop
      vertex 100 0 3
      vertex 100 0 0
      vertex 100 20 0
    endloop
  endfacet
  facet normal 1 0 0
    outer loop
      vertex 100 20 3
      vertex 100 0 3
      vertex 100 20 0
    endloop
  endfacet
  facet normal 0 1 0
    outer loop
      vertex 20 20 0
      vertex 20 20 3
      vertex 100 20 0
    endloop
  endfacet
  facet normal 0 1 0
    outer loop
      vertex 100 20 0
      vertex 20 20 3
      vertex 100 20 3
    endloop
  endfacet
  facet normal 1 0 -0
    outer loop
      vertex 20 20 3
      vertex 20 20 0
      vertex 20 100 0
    endloop
  endfacet
  facet normal 1 0 0
    outer loop
      vertex 20 100 3
      vertex 20 20 3
      vertex 20 100 0
    endloop
  endfacet
  facet normal 0 1 0
    outer loop
      vertex 0 100 0
      vertex 0 100 3
      vertex 20 100 0
    endloop
  endfacet
  facet normal 0 1 0
    outer loop
      vertex 20 100 0
      vertex 0 100 3
      vertex 20 100 3
    endloop
  endfacet
  facet normal -1 -0 -0
    outer loop
      vertex 25 25 0
      vertex 25 25 10
      vertex 25 65 0
    endloop
  endfacet
  facet normal -1 0 0
    outer loop
      vertex 25 65 0
      vertex 25 25 10
      vertex 25 55.0548 10
    endloop
  endfacet
  facet normal -1 0 0
    outer loop
      vertex 25 65 0
      vertex 25 55.0548 10
      vertex 25 55.0548 11.0453
    endloop
  endfacet
  facet normal -1 0 0
    outer loop
      vertex 25 65 0
      vertex 25 55.0548 11.0453
      vertex 25 55.4894 13.0902
    endloop
  endfacet
  facet normal -1 0 0
    outer loop
      vertex 25 65 0
      vertex 25 55.4894 13.0902
      vertex 25 56.3397 15
    endloop
  endfacet
  facet normal -1 0 0
    outer loop
      vertex 25 65 0
      vertex 25 56.3397 15
      vertex 25 57.5686 16.6913
    endloop
  endfacet
  facet normal -1 0 0
    outer loop
      vertex 25 65 0
      vertex 25 57.5686 16.6913
      vertex 25 59.1221 18.0902
    endloop
  endfacet
  facet normal -1 0 0
    outer loop
      vertex 25 65 0
      vertex 25 59.1221 18.0902
      vertex 25 60.9326 19.1355
    endloop
  endfacet
  facet normal -1 0 0
    outer loop
      vertex 25 65 0
      vertex 25 60.9326 19.1355
      vertex 25 62.9209 19.7815
    endloop
  endfacet
  facet normal -1 0 0
    outer loop
      vertex 25 65 0
      vertex 25 62.9209 19.7815
      vertex 25 65 20
    endloop
  endfacet
  facet normal 0 -1 0
    outer loop
      vertex 25 25 10
      vertex 25 25 0
      vertex 45 25 0
    endloop
  endfacet
  facet normal 0 -1 0
    outer loop
      vertex 45 25 10
      vertex 25 25 10
      vertex 45 25 0
    endloop
  endfacet
  facet normal 0 -0 -1
    outer loop
      vertex 32.5 60 0
      vertex 25 65 0
      vertex 45 65 0
    endloop
  endfacet
  facet normal 0 -0 -1
    outer loop
      vertex 37.5 60 0
      vertex 32.5 60 0
      vertex 45 65 0
    endloop
  endfacet
  facet normal 0 -0 -1
    outer loop
      vertex 25 25 0
      vertex 25 65 0
      vertex 32.5 30 0
    endloop
  endfacet
  facet normal -0 0 -1
    outer loop
      vertex 25 25 0
      vertex 32.5 30 0
      vertex 45 25 0
    endloop
  endfacet
  facet normal 0 0 -1
    outer loop
      vertex 37.5 60 0
      vertex 45 25 0
      vertex 37.5 30 0
    endloop
  endfacet
  facet normal 0 0 -1
    outer loop
      vertex 32.5 30 0
      vertex 37.5 30 0
      vertex 45 25 0
    endloop
  endfacet
  facet normal 0 0 -1
    outer loop
      vertex 45 25 0
      vertex 37.5 60 0
      vertex 45 65 0
    endloop
  endfacet
  facet normal 0 0 -1
    outer loop
      vertex 32.5 30 0
      vertex 25 65 0
      vertex 32.5 60 0
    endloop
  endfacet
  facet normal 0 1 0
    outer loop
      vertex 25 65 0
      vertex 25 65 20
      vertex 45 65 0
    endloop
  endfacet
  facet normal 0 1 0
    outer loop
      vertex 45 65 0
      vertex 25 65 20
      vertex 45 65 20
    endloop
  endfacet
  facet normal 0 1.77636e-16 0
    outer loop
      vertex 45 65 0
      vertex 45 65 20
      vertex 45 65 10
    endloop
  endfacet
  facet normal -1.76329e-16 -0.104528 0.994522
    outer loop
      vertex 25 65 20
      vertex 25 62.9209 19.7815
      vertex 45 62.9209 19.7815
    endloop
  endfacet
  facet normal -1.48544e-16 -0.104528 0.994522
    outer loop
      vertex 45 65 20
      vertex 25 65 20
      vertex 45 62.9209 19.7815
    endloop
  endfacet
  facet normal -1.70106e-16 -0.309017 0.951057
    outer loop
      vertex 25 62.9209 19.7815
      vertex 25 60.9326 19.1355
      vertex 45 60.9326 19.1355
    endloop
  endfacet
  facet normal -1.68942e-16 -0.309017 0.951057
    outer loop
      vertex 45 62.9209 19.7815
      vertex 25 62.9209 19.7815
      vertex 45 60.9326 19.1355
    endloop
  endfacet
  facet normal 0 -0.5 0.866025
    outer loop
      vertex 25 60.9326 19.1355
      vertex 25 59.1221 18.0902
      vertex 31 59.1221 18.0902
    endloop
  endfacet
  facet normal 0 -0.5 0.866025
    outer loop
      vertex 39 60 18.597
      vertex 25 60.9326 19.1355
      vertex 31 60 18.597
    endloop
  endfacet
  facet normal -3.08043e-16 -0.5 0.866025
    outer loop
      vertex 31 60 18.597
      vertex 25 60.9326 19.1355
      vertex 31 59.1221 18.0902
    endloop
  endfacet
  facet normal -1.53837e-16 -0.5 0.866025
    outer loop
      vertex 45 60.9326 19.1355
      vertex 25 60.9326 19.1355
      vertex 39 60 18.597
    endloop
  endfacet
  facet normal 0 -0.5 0.866025
    outer loop
      vertex 45 59.1221 18.0902
      vertex 39 60 18.597
      vertex 39 59.1221 18.0902
    endloop
  endfacet
  facet normal -3.4851e-16 -0.5 0.866025
    outer loop
      vertex 45 60.9326 19.1355
      vertex 39 60 18.597
      vertex 45 59.1221 18.0902
    endloop
  endfacet
  facet normal -4.38127e-16 -0.669131 0.743145
    outer loop
      vertex 25 59.1221 18.0902
      vertex 25 57.5686 16.6913
      vertex 31 57.5686 16.6913
    endloop
  endfacet
  facet normal 0 -0.669131 0.743145
    outer loop
      vertex 31 59.1221 18.0902
      vertex 25 59.1221 18.0902
      vertex 31 57.5686 16.6913
    endloop
  endfacet
  facet normal 0 -0.809017 0.587785
    outer loop
      vertex 25 57.5686 16.6913
      vertex 25 56.3397 15
      vertex 31 56.3397 15
    endloop
  endfacet
  facet normal -3.48039e-16 -0.809017 0.587785
    outer loop
      vertex 31 57.5686 16.6913
      vertex 25 57.5686 16.6913
      vertex 31 56.3397 15
    endloop
  endfacet
  facet normal -1.19489e-16 -0.913545 0.406737
    outer loop
      vertex 25 56.3397 15
      vertex 25 55.4894 13.0902
      vertex 31 55.4894 13.0902
    endloop
  endfacet
  facet normal 0 -0.913545 0.406737
    outer loop
      vertex 31 56.3397 15
      vertex 25 56.3397 15
      vertex 31 55.4894 13.0902
    endloop
  endfacet
  facet normal 0 -0.978148 0.207912
    outer loop
      vertex 25 55.4894 13.0902
      vertex 25 55.0548 11.0453
      vertex 31 55.0548 11.0453
    endloop
  endfacet
  facet normal -6.15543e-17 -0.978148 0.207912
    outer loop
      vertex 31 55.4894 13.0902
      vertex 25 55.4894 13.0902
      vertex 31 55.0548 11.0453
    endloop
  endfacet
  facet normal 0 -1 0
    outer loop
      vertex 31 55.0548 10.02
      vertex 25 55.0548 10
      vertex 32.5 55.0548 10
    endloop
  endfacet
  facet normal 0 -1 0
    outer loop
      vertex 31 55.0548 10.02
      vertex 31 55.0548 11.0453
      vertex 25 55.0548 11.0453
    endloop
  endfacet
  facet normal 0 -1 0
    outer loop
      vertex 25 55.0548 11.0453
      vertex 25 55.0548 10
      vertex 31 55.0548 10.02
    endloop
  endfacet
  facet normal 0 -1 0
    outer loop
      vertex 32.5 55.0548 10.02
      vertex 31 55.0548 10.02
      vertex 32.5 55.0548 10
    endloop
  endfacet
  facet normal 0 -0 1
    outer loop
      vertex 37.5 30 10
      vertex 25 25 10
      vertex 45 25 10
    endloop
  endfacet
  facet normal 0 0 1
    outer loop
      vertex 32.5 30 10
      vertex 32.5 55.0548 10
      vertex 25 55.0548 10
    endloop
  endfacet
  facet normal 0 0 1
    outer loop
      vertex 45 55.0548 10
      vertex 37.5 55.0548 10
      vertex 45 25 10
    endloop
  endfacet
  facet normal 0 -0 1
    outer loop
      vertex 32.5 30 10
      vertex 25 25 10
      vertex 37.5 30 10
    endloop
  endfacet
  facet normal 0 -0 1
    outer loop
      vertex 25 55.0548 10
      vertex 25 25 10
      vertex 32.5 30 10
    endloop
  endfacet
  facet normal 0 -0 1
    outer loop
      vertex 37.5 55.0548 10
      vertex 37.5 30 10
      vertex 45 25 10
    endloop
  endfacet
  facet normal 1 0 -0
    outer loop
      vertex 45 25 10
      vertex 45 25 0
      vertex 45 65 0
    endloop
  endfacet
  facet normal 1 0 -0
    outer loop
      vertex 45 55.0548 10
      vertex 45 25 10
      vertex 45 65 0
    endloop
  endfacet
  facet normal 1 0 0
    outer loop
      vertex 45 65 10
      vertex 45 55.0548 10
      vertex 45 65 0
    endloop
  endfacet
  facet normal 1 0 0
    outer loop
      vertex 32.5 60 0
      vertex 32.5 60 10.02
      vertex 32.5 55.0548 10.02
    endloop
  endfacet
  facet normal 1 0 0
    outer loop
      vertex 32.5 30 10
      vertex 32.5 60 0
      vertex 32.5 55.0548 10
    endloop
  endfacet
  facet normal 1 0 0
    outer loop
      vertex 32.5 55.0548 10
      vertex 32.5 60 0
      vertex 32.5 55.0548 10.02
    endloop
  endfacet
  facet normal 1 0 0
    outer loop
      vertex 32.5 30 0
      vertex 32.5 60 0
      vertex 32.5 30 10
    endloop
  endfacet
  facet normal 0 -1 0
    outer loop
      vertex 32.5 60 10.02
      vertex 32.5 60 0
      vertex 37.5 60 0
    endloop
  endfacet
  facet normal 0 -1 0
    outer loop
      vertex 39 60 18.597
      vertex 32.5 60 10.02
      vertex 37.5 60 10.02
    endloop
  endfacet
  facet normal 0 -1 0
    outer loop
      vertex 37.5 60 10.02
      vertex 32.5 60 10.02
      vertex 37.5 60 0
    endloop
  endfacet
  facet normal 0 -1 0
    outer loop
      vertex 39 60 18.597
      vertex 37.5 60 10.02
      vertex 39 60 10.02
    endloop
  endfacet
  facet normal 0 -1 0
    outer loop
      vertex 31 60 18.597
      vertex 32.5 60 10.02
      vertex 39 60 18.597
    endloop
  endfacet
  facet normal -0 -1 -0
    outer loop
      vertex 31 60 10.02
      vertex 32.5 60 10.02
      vertex 31 60 18.597
    endloop
  endfacet
  facet normal -1 0 -0
    outer loop
      vertex 37.5 55.0548 10
      vertex 37.5 55.0548 10.02
      vertex 37.5 60 10.02
    endloop
  endfacet
  facet normal -1 -0 0
    outer loop
      vertex 37.5 55.0548 10
      vertex 37.5 60 10.02
      vertex 37.5 60 0
    endloop
  endfacet
  facet normal -1 0 0
    outer loop
      vertex 37.5 55.0548 10
      vertex 37.5 60 0
      vertex 37.5 30 10
    endloop
  endfacet
  facet normal -1 0 0
    outer loop
      vertex 37.5 60 0
      vertex 37.5 30 0
      vertex 37.5 30 10
    endloop
  endfacet
  facet normal 0 1 0
    outer loop
      vertex 37.5 30 10
      vertex 37.5 30 0
      vertex 32.5 30 10
    endloop
  endfacet
  facet normal 0 1 -0
    outer loop
      vertex 32.5 30 10
      vertex 37.5 30 0
      vertex 32.5 30 0
    endloop
  endfacet
  facet normal 1 0 0
    outer loop
      vertex 45 59.1221 18.0902
      vertex 45 65 20
      vertex 45 60.9326 19.1355
    endloop
  endfacet
  facet normal 1 0 0
    outer loop
      vertex 45 60.9326 19.1355
      vertex 45 65 20
      vertex 45 62.9209 19.7815
    endloop
  endfacet
  facet normal 1 0 0
    outer loop
      vertex 45 57.5686 16.6913
      vertex 45 65 20
      vertex 45 59.1221 18.0902
    endloop
  endfacet
  facet normal 1 0 0
    outer loop
      vertex 45 56.3397 15
      vertex 45 65 20
      vertex 45 57.5686 16.6913
    endloop
  endfacet
  facet normal 1 0 0
    outer loop
      vertex 45 55.4894 13.0902
      vertex 45 65 20
      vertex 45 56.3397 15
    endloop
  endfacet
  facet normal 1 0 0
    outer loop
      vertex 45 55.0548 11.0453
      vertex 45 65 20
      vertex 45 55.4894 13.0902
    endloop
  endfacet
  facet normal 1 -6.12058e-15 6.7976e-15
    outer loop
      vertex 45 55.0548 10
      vertex 45 65 20
      vertex 45 55.0548 11.0453
    endloop
  endfacet
  facet normal 1 -0 7.10543e-16
    outer loop
      vertex 45 65 10
      vertex 45 65 20
      vertex 45 55.0548 10
    endloop
  endfacet
  facet normal -4.38127e-16 -0.669131 0.743145
    outer loop
      vertex 39 59.1221 18.0902
      vertex 39 57.5686 16.6913
      vertex 45 57.5686 16.6913
    endloop
  endfacet
  facet normal 0 -0.669131 0.743145
    outer loop
      vertex 45 59.1221 18.0902
      vertex 39 59.1221 18.0902
      vertex 45 57.5686 16.6913
    endloop
  endfacet
  facet normal -1 -0 0
    outer loop
      vertex 39 55.4894 13.0902
      vertex 39 56.3397 15
      vertex 39 55.0548 11.0453
    endloop
  endfacet
  facet normal -1 0 0
    outer loop
      vertex 39 55.0548 11.0453
      vertex 39 56.3397 15
      vertex 39 57.5686 16.6913
    endloop
  endfacet
  facet normal -1 0 0
    outer loop
      vertex 39 55.0548 11.0453
      vertex 39 57.5686 16.6913
      vertex 39 59.1221 18.0902
    endloop
  endfacet
  facet normal -1 0 0
    outer loop
      vertex 39 55.0548 11.0453
      vertex 39 59.1221 18.0902
      vertex 39 60 18.597
    endloop
  endfacet
  facet normal -1 -0 0
    outer loop
      vertex 39 55.0548 11.0453
      vertex 39 60 18.597
      vertex 39 60 10.02
    endloop
  endfacet
  facet normal -1 0 0
    outer loop
      vertex 39 55.0548 11.0453
      vertex 39 60 10.02
      vertex 39 55.0548 10.02
    endloop
  endfacet
  facet normal 1 0 0
    outer loop
      vertex 31 60 10.02
      vertex 31 60 18.597
      vertex 31 59.1221 18.0902
    endloop
  endfacet
  facet normal 1 0 0
    outer loop
      vertex 31 56.3397 15
      vertex 31 60 10.02
      vertex 31 57.5686 16.6913
    endloop
  endfacet
  facet normal 1 0 0
    outer loop
      vertex 31 57.5686 16.6913
      vertex 31 60 10.02
      vertex 31 59.1221 18.0902
    endloop
  endfacet
  facet normal 1 0 0
    outer loop
      vertex 31 55.4894 13.0902
      vertex 31 60 10.02
      vertex 31 56.3397 15
    endloop
  endfacet
  facet normal 1 0 0
    outer loop
      vertex 31 55.0548 11.0453
      vertex 31 60 10.02
      vertex 31 55.4894 13.0902
    endloop
  endfacet
  facet normal 1 0 0
    outer loop
      vertex 31 55.0548 10.02
      vertex 31 60 10.02
      vertex 31 55.0548 11.0453
    endloop
  endfacet
  facet normal 0 0 1
    outer loop
      vertex 32.5 55.0548 10.02
      vertex 32.5 60 10.02
      vertex 31 60 10.02
    endloop
  endfacet
  facet normal 0 0 1
    outer loop
      vertex 31 55.0548 10.02
      vertex 32.5 55.0548 10.02
      vertex 31 60 10.02
    endloop
  endfacet
  facet normal 0 -1 0
    outer loop
      vertex 37.5 55.0548 10.02
      vertex 37.5 55.0548 10
      vertex 45 55.0548 10
    endloop
  endfacet
  facet normal 0 -1 0
    outer loop
      vertex 39 55.0548 10.02
      vertex 37.5 55.0548 10.02
      vertex 45 55.0548 10
    endloop
  endfacet
  facet normal 0 -1 0
    outer loop
      vertex 45 55.0548 11.0453
      vertex 39 55.0548 10.02
      vertex 45 55.0548 10
    endloop
  endfacet
  facet normal -0 -1 0
    outer loop
      vertex 39 55.0548 11.0453
      vertex 39 55.0548 10.02
      vertex 45 55.0548 11.0453
    endloop
  endfacet
  facet normal 0 0 1
    outer loop
      vertex 39 55.0548 10.02
      vertex 39 60 10.02
      vertex 37.5 60 10.02
    endloop
  endfacet
  facet normal 0 0 1
    outer loop
      vertex 37.5 55.0548 10.02
      vertex 39 55.0548 10.02
      vertex 37.5 60 10.02
    endloop
  endfacet
  facet normal -5.97445e-17 -0.978148 0.207912
    outer loop
      vertex 39 55.4894 13.0902
      vertex 39 55.0548 11.0453
      vertex 45 55.0548 11.0453
    endloop
  endfacet
  facet normal -6.15543e-17 -0.978148 0.207912
    outer loop
      vertex 45 55.4894 13.0902
      vertex 39 55.4894 13.0902
      vertex 45 55.0548 11.0453
    endloop
  endfacet
  facet normal -9.95742e-17 -0.913545 0.406737
    outer loop
      vertex 39 56.3397 15
      vertex 39 55.4894 13.0902
      vertex 45 55.4894 13.0902
    endloop
  endfacet
  facet normal -1.20418e-16 -0.913545 0.406737
    outer loop
      vertex 45 56.3397 15
      vertex 39 56.3397 15
      vertex 45 55.4894 13.0902
    endloop
  endfacet
  facet normal -1.59319e-16 -0.809017 0.587785
    outer loop
      vertex 39 57.5686 16.6913
      vertex 39 56.3397 15
      vertex 45 56.3397 15
    endloop
  endfacet
  facet normal -3.48039e-16 -0.809017 0.587785
    outer loop
      vertex 45 57.5686 16.6913
      vertex 39 57.5686 16.6913
      vertex 45 56.3397 15
    endloop
  endfacet
  facet normal -1 -0 -0
    outer loop
      vertex 55 25 0
      vertex 55 25 10
      vertex 55 65 0
    endloop
  endfacet
  facet normal -1 0 0
    outer loop
      vertex 55 65 0
      vertex 55 25 10
      vertex 55 55.0548 10
    endloop
  endfacet
  facet normal -1 0 0
    outer loop
      vertex 55 65 0
      vertex 55 55.0548 10
      vertex 55 55.0548 11.0453
    endloop
  endfacet
  facet normal -1 0 0
    outer loop
      vertex 55 65 0
      vertex 55 55.0548 11.0453
      vertex 55 55.4894 13.0902
    endloop
  endfacet
  facet normal -1 0 0
    outer loop
      vertex 55 65 0
      vertex 55 55.4894 13.0902
      vertex 55 56.3397 15
    endloop
  endfacet
  facet normal -1 0 0
    outer loop
      vertex 55 65 0
      vertex 55 56.3397 15
      vertex 55 57.5686 16.6913
    endloop
  endfacet
  facet normal -1 0 0
    outer loop
      vertex 55 65 0
      vertex 55 57.5686 16.6913
      vertex 55 59.1221 18.0902
    endloop
  endfacet
  facet normal -1 0 0
    outer loop
      vertex 55 65 0
      vertex 55 59.1221 18.0902
      vertex 55 60.9326 19.1355
    endloop
  endfacet
  facet normal -1 0 0
    outer loop
      vertex 55 65 0
      vertex 55 60.9326 19.1355
      vertex 55 62.9209 19.7815
    endloop
  endfacet
  facet normal -1 0 0
    outer loop
      vertex 55 65 0
      vertex 55 62.9209 19.7815
      vertex 55 65 20
    endloop
  endfacet
  facet normal 0 -1 0
    outer loop
      vertex 55 25 10
      vertex 55 25 0
      vertex 75 25 0
    endloop
  endfacet
  facet normal 0 -1 0
    outer loop
      vertex 75 25 10
      vertex 55 25 10
      vertex 75 25 0
    endloop
  endfacet
  facet normal 0 -0 -1
    outer loop
      vertex 62.5 60 0
      vertex 55 65 0
      vertex 75 65 0
    endloop
  endfacet
  facet normal 0 -0 -1
    outer loop
      vertex 67.5 60 0
      vertex 62.5 60 0
      vertex 75 65 0
    endloop
  endfacet
  facet normal 0 -0 -1
    outer loop
      vertex 55 25 0
      vertex 55 65 0
      vertex 62.5 30 0
    endloop
  endfacet
  facet normal -0 0 -1
    outer loop
      vertex 55 25 0
      vertex 62.5 30 0
      vertex 75 25 0
    endloop
  endfacet
  facet normal 0 0 -1
    outer loop
      vertex 67.5 60 0
      vertex 75 25 0
      vertex 67.5 30 0
    endloop
  endfacet
  facet normal 0 0 -1
    outer loop
      vertex 62.5 30 0
      vertex 67.5 30 0
      vertex 75 25 0
    endloop
  endfacet
  facet normal 0 0 -1
    outer loop
      vertex 75 25 0
      vertex 67.5 60 0
      vertex 75 65 0
    endloop
  endfacet
  facet normal 0 0 -1
    outer loop
      vertex 62.5 30 0
      vertex 55 65 0
      vertex 62.5 60 0
    endloop
  endfacet
  facet normal 0 1 0
    outer loop
      vertex 55 65 0
      vertex 55 65 20
      vertex 75 65 0
    endloop
  endfacet
  facet normal 0 1 0
    outer loop
      vertex 75 65 0
      vertex 55 65 20
      vertex 75 65 20
    endloop
  endfacet
  facet normal 0 3.55271e-16 0
    outer loop
      vertex 75 65 0
      vertex 75 65 20
      vertex 75 65 10
    endloop
  endfacet
  facet normal -1.76329e-16 -0.104528 0.994522
    outer loop
      vertex 55 65 20
      vertex 55 62.9209 19.7815
      vertex 75 62.9209 19.7815
    endloop
  endfacet
  facet normal -1.48544e-16 -0.104528 0.994522
    outer loop
      vertex 75 65 20
      vertex 55 65 20
      vertex 75 62.9209 19.7815
    endloop
  endfacet
  facet normal -1.70106e-16 -0.309017 0.951057
    outer loop
      vertex 55 62.9209 19.7815
      vertex 55 60.9326 19.1355
      vertex 75 60.9326 19.1355
    endloop
  endfacet
  facet normal -1.68942e-16 -0.309017 0.951057
    outer loop
      vertex 75 62.9209 19.7815
      vertex 55 62.9209 19.7815
      vertex 75 60.9326 19.1355
    endloop
  endfacet
  facet normal 0 -0.5 0.866025
    outer loop
      vertex 55 60.9326 19.1355
      vertex 55 59.1221 18.0902
      vertex 61 59.1221 18.0902
    endloop
  endfacet
  facet normal 0 -0.5 0.866025
    outer loop
      vertex 69 60 18.597
      vertex 55 60.9326 19.1355
      vertex 61 60 18.597
    endloop
  endfacet
  facet normal -3.08043e-16 -0.5 0.866025
    outer loop
      vertex 61 60 18.597
      vertex 55 60.9326 19.1355
      vertex 61 59.1221 18.0902
    endloop
  endfacet
  facet normal -1.53837e-16 -0.5 0.866025
    outer loop
      vertex 75 60.9326 19.1355
      vertex 55 60.9326 19.1355
      vertex 69 60 18.597
    endloop
  endfacet
  facet normal 0 -0.5 0.866025
    outer loop
      vertex 75 59.1221 18.0902
      vertex 69 60 18.597
      vertex 69 59.1221 18.0902
    endloop
  endfacet
  facet normal -3.4851e-16 -0.5 0.866025
    outer loop
      vertex 75 60.9326 19.1355
      vertex 69 60 18.597
      vertex 75 59.1221 18.0902
    endloop
  endfacet
  facet normal -4.38127e-16 -0.669131 0.743145
    outer loop
      vertex 55 59.1221 18.0902
      vertex 55 57.5686 16.6913
      vertex 61 57.5686 16.6913
    endloop
  endfacet
  facet normal 0 -0.669131 0.743145
    outer loop
      vertex 61 59.1221 18.0902
      vertex 55 59.1221 18.0902
      vertex 61 57.5686 16.6913
    endloop
  endfacet
  facet normal 0 -0.809017 0.587785
    outer loop
      vertex 55 57.5686 16.6913
      vertex 55 56.3397 15
      vertex 61 56.3397 15
    endloop
  endfacet
  facet normal -3.48039e-16 -0.809017 0.587785
    outer loop
      vertex 61 57.5686 16.6913
      vertex 55 57.5686 16.6913
      vertex 61 56.3397 15
    endloop
  endfacet
  facet normal -1.19489e-16 -0.913545 0.406737
    outer loop
      vertex 55 56.3397 15
      vertex 55 55.4894 13.0902
      vertex 61 55.4894 13.0902
    endloop
  endfacet
  facet normal 0 -0.913545 0.406737
    outer loop
      vertex 61 56.3397 15
      vertex 55 56.3397 15
      vertex 61 55.4894 13.0902
    endloop
  endfacet
  facet normal 0 -0.978148 0.207912
    outer loop
      vertex 55 55.4894 13.0902
      vertex 55 55.0548 11.0453
      vertex 61 55.0548 11.0453
    endloop
  endfacet
  facet normal -6.15543e-17 -0.978148 0.207912
    outer loop
      vertex 61 55.4894 13.0902
      vertex 55 55.4894 13.0902
      vertex 61 55.0548 11.0453
    endloop
  endfacet
  facet normal 0 -1 0
    outer loop
      vertex 61 55.0548 10.02
      vertex 55 55.0548 10
      vertex 62.5 55.0548 10
    endloop
  endfacet
  facet normal 0 -1 0
    outer loop
      vertex 61 55.0548 10.02
      vertex 61 55.0548 11.0453
      vertex 55 55.0548 11.0453
    endloop
  endfacet
  facet normal 0 -1 0
    outer loop
      vertex 55 55.0548 11.0453
      vertex 55 55.0548 10
      vertex 61 55.0548 10.02
    endloop
  endfacet
  facet normal 0 -1 0
    outer loop
      vertex 62.5 55.0548 10.02
      vertex 61 55.0548 10.02
      vertex 62.5 55.0548 10
    endloop
  endfacet
  facet normal 0 -0 1
    outer loop
      vertex 67.5 30 10
      vertex 55 25 10
      vertex 75 25 10
    endloop
  endfacet
  facet normal 0 0 1
    outer loop
      vertex 62.5 30 10
      vertex 62.5 55.0548 10
      vertex 55 55.0548 10
    endloop
  endfacet
  facet normal 0 0 1
    outer loop
      vertex 75 55.0548 10
      vertex 67.5 55.0548 10
      vertex 75 25 10
    endloop
  endfacet
  facet normal 0 -0 1
    outer loop
      vertex 62.5 30 10
      vertex 55 25 10
      vertex 67.5 30 10
    endloop
  endfacet
  facet normal 0 -0 1
    outer loop
      vertex 55 55.0548 10
      vertex 55 25 10
      vertex 62.5 30 10
    endloop
  endfacet
  facet normal 0 -0 1
    outer loop
      vertex 67.5 55.0548 10
      vertex 67.5 30 10
      vertex 75 25 10
    endloop
  endfacet
  facet normal 1 0 -0
    outer loop
      vertex 75 25 10
      vertex 75 25 0
      vertex 75 65 0
    endloop
  endfacet
  facet normal 1 0 -0
    outer loop
      vertex 75 55.0548 10
      vertex 75 25 10
      vertex 75 65 0
    endloop
  endfacet
  facet normal 1 0 0
    outer loop
      vertex 75 65 10
      vertex 75 55.0548 10
      vertex 75 65 0
    endloop
  endfacet
  facet normal 1 0 0
    outer loop
      vertex 62.5 60 0
      vertex 62.5 60 10.02
      vertex 62.5 55.0548 10.02
    endloop
  endfacet
  facet normal 1 0 0
    outer loop
      vertex 62.5 30 10
      vertex 62.5 60 0
      vertex 62.5 55.0548 10
    endloop
  endfacet
  facet normal 1 0 0
    outer loop
      vertex 62.5 55.0548 10
      vertex 62.5 60 0
      vertex 62.5 55.0548 10.02
    endloop
  endfacet
  facet normal 1 0 0
    outer loop
      vertex 62.5 30 0
      vertex 62.5 60 0
      vertex 62.5 30 10
    endloop
  endfacet
  facet normal 0 -1 0
    outer loop
      vertex 62.5 60 10.02
      vertex 62.5 60 0
      vertex 67.5 60 0
    endloop
  endfacet
  facet normal 0 -1 0
    outer loop
      vertex 69 60 18.597
      vertex 62.5 60 10.02
      vertex 67.5 60 10.02
    endloop
  endfacet
  facet normal 0 -1 0
    outer loop
      vertex 67.5 60 10.02
      vertex 62.5 60 10.02
      vertex 67.5 60 0
    endloop
  endfacet
  facet normal 0 -1 0
    outer loop
      vertex 69 60 18.597
      vertex 67.5 60 10.02
      vertex 69 60 10.02
    endloop
  endfacet
  facet normal 0 -1 0
    outer loop
      vertex 61 60 18.597
      vertex 62.5 60 10.02
      vertex 69 60 18.597
    endloop
  endfacet
  facet normal -0 -1 -0
    outer loop
      vertex 61 60 10.02
      vertex 62.5 60 10.02
      vertex 61 60 18.597
    endloop
  endfacet
  facet normal -1 0 -0
    outer loop
      vertex 67.5 55.0548 10
      vertex 67.5 55.0548 10.02
      vertex 67.5 60 10.02
    endloop
  endfacet
  facet normal -1 -0 0
    outer loop
      vertex 67.5 55.0548 10
      vertex 67.5 60 10.02
      vertex 67.5 60 0
    endloop
  endfacet
  facet normal -1 0 0
    outer loop
      vertex 67.5 55.0548 10
      vertex 67.5 60 0
      vertex 67.5 30 10
    endloop
  endfacet
  facet normal -1 0 0
    outer loop
      vertex 67.5 60 0
      vertex 67.5 30 0
      vertex 67.5 30 10
    endloop
  endfacet
  facet normal 0 1 0
    outer loop
      vertex 67.5 30 10
      vertex 67.5 30 0
      vertex 62.5 30 10
    endloop
  endfacet
  facet normal 0 1 -0
    outer loop
      vertex 62.5 30 10
      vertex 67.5 30 0
      vertex 62.5 30 0
    endloop
  endfacet
  facet normal 1 0 0
    outer loop
      vertex 75 59.1221 18.0902
      vertex 75 65 20
      vertex 75 60.9326 19.1355
    endloop
  endfacet
  facet normal 1 0 0
    outer loop
      vertex 75 60.9326 19.1355
      vertex 75 65 20
      vertex 75 62.9209 19.7815
    endloop
  endfacet
  facet normal 1 0 0
    outer loop
      vertex 75 57.5686 16.6913
      vertex 75 65 20
      vertex 75 59.1221 18.0902
    endloop
  endfacet
  facet normal 1 0 0
    outer loop
      vertex 75 56.3397 15
      vertex 75 65 20
      vertex 75 57.5686 16.6913
    endloop
  endfacet
  facet normal 1 0 0
    outer loop
      vertex 75 55.4894 13.0902
      vertex 75 65 20
      vertex 75 56.3397 15
    endloop
  endfacet
  facet normal 1 0 0
    outer loop
      vertex 75 55.0548 11.0453
      vertex 75 65 20
      vertex 75 55.4894 13.0902
    endloop
  endfacet
  facet normal 1 -1.22412e-14 1.35952e-14
    outer loop
      vertex 75 55.0548 10
      vertex 75 65 20
      vertex 75 55.0548 11.0453
    endloop
  endfacet
  facet normal 1 -0 1.42109e-15
    outer loop
      vertex 75 65 10
      vertex 75 65 20
      vertex 75 55.0548 10
    endloop
  endfacet
  facet normal -4.38127e-16 -0.669131 0.743145
    outer loop
      vertex 69 59.1221 18.0902
      vertex 69 57.5686 16.6913
      vertex 75 57.5686 16.6913
    endloop
  endfacet
  facet normal 0 -0.669131 0.743145
    outer loop
      vertex 75 59.1221 18.0902
      vertex 69 59.1221 18.0902
      vertex 75 57.5686 16.6913
    endloop
  endfacet
  facet normal -1 -0 0
    outer loop
      vertex 69 55.4894 13.0902
      vertex 69 56.3397 15
      vertex 69 55.0548 11.0453
    endloop
  endfacet
  facet normal -1 0 0
    outer loop
      vertex 69 55.0548 11.0453
      vertex 69 56.3397 15
      vertex 69 57.5686 16.6913
    endloop
  endfacet
  facet normal -1 0 0
    outer loop
      vertex 69 55.0548 11.0453
      vertex 69 57.5686 16.6913
      vertex 69 59.1221 18.0902
    endloop
  endfacet
  facet normal -1 0 0
    outer loop
      vertex 69 55.0548 11.0453
      vertex 69 59.1221 18.0902
      vertex 69 60 18.597
    endloop
  endfacet
  facet normal -1 -0 0
    outer loop
      vertex 69 55.0548 11.0453
      vertex 69 60 18.597
      vertex 69 60 10.02
    endloop
  endfacet
  facet normal -1 0 0
    outer loop
      vertex 69 55.0548 11.0453
      vertex 69 60 10.02
      vertex 69 55.0548 10.02
    endloop
  endfacet
  facet normal 1 0 0
    outer loop
      vertex 61 60 10.02
      vertex 61 60 18.597
      vertex 61 59.1221 18.0902
    endloop
  endfacet
  facet normal 1 0 0
    outer loop
      vertex 61 56.3397 15
      vertex 61 60 10.02
      vertex 61 57.5686 16.6913
    endloop
  endfacet
  facet normal 1 0 0
    outer loop
      vertex 61 57.5686 16.6913
      vertex 61 60 10.02
      vertex 61 59.1221 18.0902
    endloop
  endfacet
  facet normal 1 0 0
    outer loop
      vertex 61 55.4894 13.0902
      vertex 61 60 10.02
      vertex 61 56.3397 15
    endloop
  endfacet
  facet normal 1 0 0
    outer loop
      vertex 61 55.0548 11.0453
      vertex 61 60 10.02
      vertex 61 55.4894 13.0902
    endloop
  endfacet
  facet normal 1 0 0
    outer loop
      vertex 61 55.0548 10.02
      vertex 61 60 10.02
      vertex 61 55.0548 11.0453
    endloop
  endfacet
  facet normal 0 0 1
    outer loop
      vertex 62.5 55.0548 10.02
      vertex 62.5 60 10.02
      vertex 61 60 10.02
    endloop
  endfacet
  facet normal 0 0 1
    outer loop
      vertex 61 55.0548 10.02
      vertex 62.5 55.0548 10.02
      vertex 61 60 10.02
    endloop
  endfacet
  facet normal 0 -1 0
    outer loop
      vertex 67.5 55.0548 10.02
      vertex 67.5 55.0548 10
      vertex 75 55.0548 10
    endloop
  endfacet
  facet normal 0 -1 0
    outer loop
      vertex 69 55.0548 10.02
      vertex 67.5 55.0548 10.02
      vertex 75 55.0548 10
    endloop
  endfacet
  facet normal 0 -1 0
    outer loop
      vertex 75 55.0548 11.0453
      vertex 69 55.0548 10.02
      vertex 75 55.0548 10
    endloop
  endfacet
  facet normal -0 -1 0
    outer loop
      vertex 69 55.0548 11.0453
      vertex 69 55.0548 10.02
      vertex 75 55.0548 11.0453
    endloop
  endfacet
  facet normal 0 0 1
    outer loop
      vertex 69 55.0548 10.02
      vertex 69 60 10.02
      vertex 67.5 60 10.02
    endloop
  endfacet
  facet normal 0 0 1
    outer loop
      vertex 67.5 55.0548 10.02
      vertex 69 55.0548 10.02
      vertex 67.5 60 10.02
    endloop
  endfacet
  facet normal -4.97871e-17 -0.978148 0.207912
    outer loop
      vertex 69 55.4894 13.0902
      vertex 69 55.0548 11.0453
      vertex 75 55.0548 11.0453
    endloop
  endfacet
  facet normal -6.15543e-17 -0.978148 0.207912
    outer loop
      vertex 75 55.4894 13.0902
      vertex 69 55.4894 13.0902
      vertex 75 55.0548 11.0453
    endloop
  endfacet
  facet normal -1.19489e-16 -0.913545 0.406737
    outer loop
      vertex 69 56.3397 15
      vertex 69 55.4894 13.0902
      vertex 75 55.4894 13.0902
    endloop
  endfacet
  facet normal -1.20418e-16 -0.913545 0.406737
    outer loop
      vertex 75 56.3397 15
      vertex 69 56.3397 15
      vertex 75 55.4894 13.0902
    endloop
  endfacet
  facet normal -1.59319e-16 -0.809017 0.587785
    outer loop
      vertex 69 57.5686 16.6913
      vertex 69 56.3397 15
      vertex 75 56.3397 15
    endloop
  endfacet
  facet normal -3.48039e-16 -0.809017 0.587785
    outer loop
      vertex 75 57.5686 16.6913
      vertex 69 57.5686 16.6913
      vertex 75 56.3397 15
    endloop
  endfacet
endsolid OpenSCAD_Model
